<svg xmlns="http://www.w3.org/2000/svg" viewBox="0 0 175 175"><defs><style>.cls-1{fill:#5e77f9;}.cls-2{fill:#fff;}</style></defs><g id="Layer_2" data-name="Layer 2"><g id="Layer_5" data-name="Layer 5"><circle class="cls-1" cx="87.5" cy="87.5" r="87.5"/><path class="cls-2" d="M87.5,36.14c-30,0-54.26,22.43-54.26,50.09A48.15,48.15,0,0,0,49.63,122.1l-1.94,16.76,16.12-7.55a57.84,57.84,0,0,0,23.69,5c30,0,54.26-22.42,54.26-50.09S117.47,36.14,87.5,36.14Z"/><path class="cls-1" d="M94.58,87.5a7.08,7.08,0,1,1-7.08-7.08A7.08,7.08,0,0,1,94.58,87.5ZM59.2,80.42a7.08,7.08,0,1,0,7.07,7.08A7.08,7.08,0,0,0,59.2,80.42Zm56.6,0a7.08,7.08,0,1,0,7.08,7.08A7.07,7.07,0,0,0,115.8,80.42Z"/></g></g></svg>