<svg xmlns="http://www.w3.org/2000/svg" viewBox="0 0 205 205"><defs><style>.cls-1{fill:#fff;}.cls-2{fill:#5e77f9;}</style></defs><g id="Layer_2" data-name="Layer 2"><g id="Layer_1-2" data-name="Layer 1"><rect class="cls-1" width="205" height="205" rx="24"/><path class="cls-2" d="M102.62,51.05c-30,0-54.25,22.43-54.25,50.1A48.16,48.16,0,0,0,64.76,137l-2,16.76,16.13-7.56a57.6,57.6,0,0,0,23.68,5c30,0,54.26-22.43,54.26-50.09S132.59,51.05,102.62,51.05Z"/><path class="cls-1" d="M107.28,101.22a4.66,4.66,0,1,1-4.66-4.65A4.66,4.66,0,0,1,107.28,101.22ZM84,96.57a4.65,4.65,0,1,0,4.65,4.65A4.65,4.65,0,0,0,84,96.57Zm37.21,0a4.65,4.65,0,1,0,4.65,4.65A4.65,4.65,0,0,0,121.23,96.57Z"/></g></g></svg>