<svg xmlns="http://www.w3.org/2000/svg" viewBox="0 0 412.03 316.49"><defs><style>.cls-1{isolation:isolate;}.cls-2,.cls-35{fill:#f9d6ba;}.cls-2{opacity:0.3;}.cls-3{fill:#ff8b42;}.cls-4{fill:#ffc440;}.cls-5{fill:#ffe765;}.cls-6{fill:#fff;}.cls-7{mix-blend-mode:color;}.cls-8{fill:#1b219b;}.cls-9{fill:#262262;}.cls-10{fill:#5731f7;}.cls-11{opacity:0.5;}.cls-12{fill:#f7bcaa;}.cls-13{fill:#82b2fc;}.cls-14{fill:#f0bd21;}.cls-15{fill:#331310;}.cls-16{fill:#efeded;}.cls-17{fill:#ff642c;}.cls-18{fill:#f2753a;}.cls-19{fill:#250c04;}.cls-20{fill:#faca2d;}.cls-21{fill:#fb5f29;}.cls-22{fill:#e97575;}.cls-23{fill:#f6ba99;}.cls-24{fill:#2a0356;}.cls-25{fill:#00143a;}.cls-26{opacity:0.33;}.cls-27{fill:#f2957e;}.cls-28{fill:#f3f0eb;}.cls-29{fill:#fbfaff;}.cls-30{fill:#0cc6c3;}.cls-31{fill:#d7d3f2;}.cls-32{fill:#231f20;}.cls-33{fill:none;stroke:#1c75bc;stroke-miterlimit:10;}.cls-34{fill:#feca98;}.cls-36{fill:#f99174;}</style></defs><g class="cls-1"><g id="Layer_2" data-name="Layer 2"><g id="Layer_1-2" data-name="Layer 1"><path class="cls-2" d="M89.82,314.81S3.9,321.13,17.92,232s90.47-76.75,106.75-160.27,87.11-117.76,165.64,30.4,100.86,201.68,3.78,212.81Z"/><path class="cls-3" d="M241.88,301.73l83.41-108.18a1.08,1.08,0,0,0-1.72-1.32L239.81,300.86Z"/><polygon class="cls-3" points="311.02 229.93 293.44 235.38 293.01 234 311.67 228.21 311.02 229.93"/><path class="cls-4" d="M308.69,230l53.9-16.77s-5.68,20.71-26,28.55C336.61,241.78,313.07,251.38,308.69,230Z"/><path class="cls-5" d="M308.71,230.06l53.9-16.78s-16.43-13.83-37.6-8.76C325,204.52,300.18,210,308.71,230.06Z"/><polygon class="cls-3" points="318.49 227.08 333.62 237.56 332.79 238.75 316.73 227.62 318.49 227.08"/><polygon class="cls-3" points="330.97 223.19 341.63 230.79 340.78 231.97 329.23 223.74 330.97 223.19"/><polygon class="cls-3" points="342.4 219.64 350.66 225.71 349.8 226.88 340.69 220.17 342.4 219.64"/><polygon class="cls-6" points="324.96 209.74 318.39 227.11 316.81 227.6 316.68 227.55 323.6 209.22 324.96 209.74"/><polygon class="cls-6" points="329.14 223.76 334.04 210.28 335.39 210.78 330.88 223.22 329.14 223.76"/><polygon class="cls-6" points="345.72 209.83 342.31 219.66 340.74 220.16 340.63 220.11 344.35 209.35 345.72 209.83"/><polygon class="cls-3" points="279.99 276.54 259.04 279.55 258.8 277.91 281.04 274.71 279.99 276.54"/><path class="cls-4" d="M277.33,276.2l64.22-9.29s-10.2,22.49-34.66,27.71C306.89,294.62,278.43,301.26,277.33,276.2Z"/><path class="cls-5" d="M277.34,276.27,341.56,267s-16.15-18.68-41.09-16.76C300.47,250.22,271.29,251.92,277.34,276.27Z"/><polygon class="cls-3" points="288.98 274.65 304.26 289.3 303.11 290.5 286.89 274.96 288.98 274.65"/><polygon class="cls-3" points="303.85 272.5 314.57 283.05 313.4 284.24 301.78 272.8 303.85 272.5"/><polygon class="cls-3" points="317.47 270.54 325.75 278.92 324.56 280.09 315.43 270.83 317.47 270.54"/><polygon class="cls-6" points="299.46 256.14 288.86 274.67 286.98 274.95 286.83 274.86 298.02 255.31 299.46 256.14"/><polygon class="cls-6" points="301.67 272.82 309.67 258.4 311.12 259.21 303.74 272.52 301.67 272.82"/><polygon class="cls-6" points="323.01 260 317.37 270.55 315.49 270.82 315.37 270.75 321.54 259.21 323.01 260"/><polygon class="cls-3" points="270.71 238.08 276.01 255.71 274.63 256.13 268.99 237.42 270.71 238.08"/><path class="cls-4" d="M270.76,240.42l-16.33-54s20.67,5.85,28.33,26.22C282.76,212.6,292.17,236.21,270.76,240.42Z"/><path class="cls-5" d="M270.81,240.4l-16.33-54s-14,16.32-9.07,37.52C245.41,223.88,250.66,248.76,270.81,240.4Z"/><polygon class="cls-3" points="267.92 230.6 278.53 215.55 279.71 216.38 268.45 232.35 267.92 230.6"/><polygon class="cls-3" points="264.13 218.08 271.81 207.49 272.99 208.34 264.66 219.82 264.13 218.08"/><polygon class="cls-3" points="260.67 206.62 266.81 198.41 267.97 199.28 261.19 208.34 260.67 206.62"/><polygon class="cls-6" points="250.63 223.98 267.95 230.69 268.43 232.28 268.37 232.41 250.1 225.33 250.63 223.98"/><polygon class="cls-6" points="264.69 219.91 251.25 214.91 251.75 213.55 264.16 218.17 264.69 219.91"/><polygon class="cls-6" points="250.89 203.22 260.7 206.71 261.18 208.29 261.13 208.4 250.41 204.59 250.89 203.22"/><polygon class="cls-3" points="300.18 210.47 301.27 222.88 300.3 222.97 299.14 209.79 300.18 210.47"/><path class="cls-4" d="M299.89,212,296.51,174s12.89,6.72,15.17,21.27C311.68,195.25,314.66,212.18,299.89,212Z"/><path class="cls-5" d="M299.93,212,296.55,174s-11.5,8.89-11.18,23.61C285.37,197.58,285.43,214.79,299.93,212Z"/><polygon class="cls-3" points="299.36 205.13 308.46 196.62 309.13 197.33 299.47 206.37 299.36 205.13"/><polygon class="cls-3" points="298.58 196.32 305.12 190.36 305.79 191.08 298.69 197.54 298.58 196.32"/><polygon class="cls-3" points="297.86 188.25 303.06 183.65 303.71 184.38 297.97 189.46 297.86 188.25"/><polygon class="cls-6" points="288.82 198.37 299.37 205.2 299.47 206.31 299.42 206.4 288.28 199.19 288.82 198.37"/><polygon class="cls-6" points="298.69 197.61 290.47 192.44 291 191.62 298.58 196.38 298.69 197.61"/><polygon class="cls-6" points="291.85 184.65 297.86 188.31 297.96 189.42 297.92 189.49 291.34 185.49 291.85 184.65"/><polygon class="cls-3" points="329.23 187.63 321.07 197.05 320.33 196.41 328.99 186.41 329.23 187.63"/><path class="cls-4" d="M327.91,188.51l25-28.9s4.14,13.93-4.72,25.69C348.17,185.3,338.07,199.23,327.91,188.51Z"/><path class="cls-5" d="M327.94,188.54l25-28.9s-14.38-2.08-24.73,8.4C328.19,168,315.87,180,327.94,188.54Z"/><polygon class="cls-3" points="332.5 183.33 344.94 183.95 344.89 184.93 331.68 184.27 332.5 183.33"/><polygon class="cls-3" points="338.29 176.64 347.12 177.2 347.06 178.17 337.48 177.57 338.29 176.64"/><polygon class="cls-3" points="343.58 170.51 350.5 171.05 350.42 172.02 342.78 171.43 343.58 170.51"/><polygon class="cls-6" points="330.02 171.05 332.46 183.38 331.72 184.23 331.63 184.25 329.06 171.24 330.02 171.05"/><polygon class="cls-6" points="337.44 177.62 335.43 168.12 336.39 167.92 338.24 176.69 337.44 177.62"/><polygon class="cls-6" points="341.99 163.69 343.54 170.56 342.81 171.4 342.73 171.42 341.03 163.9 341.99 163.69"/><path class="cls-3" d="M240.48,290.2l-36-107.45a.91.91,0,0,0-1.14-.57.9.9,0,0,0-.56,1.14l36.15,107.91Z"/><polygon class="cls-3" points="222.96 209.39 218.59 224.03 217.44 223.68 222.08 208.15 222.96 209.39"/><path class="cls-4" d="M221.93,211l13.35-44.89s11.65,13.49,7.66,31.1C242.94,197.24,238.68,217.89,221.93,211Z"/><path class="cls-5" d="M222,211.05l13.34-44.89S218.2,171.09,211.91,188C211.91,188,204.2,207.64,222,211.05Z"/><polygon class="cls-3" points="224.44 202.93 238.66 197.35 239.1 198.47 224.01 204.39 224.44 202.93"/><polygon class="cls-3" points="227.54 192.53 237.69 188.7 238.11 189.83 227.11 193.98 227.54 192.53"/><polygon class="cls-3" points="230.37 183.02 238.37 180.13 238.77 181.26 229.94 184.44 230.37 183.02"/><polygon class="cls-6" points="215.49 190.46 224.42 203.01 224.03 204.33 223.93 204.4 214.51 191.16 215.49 190.46"/><polygon class="cls-6" points="227.08 194.06 220.06 184.46 221.02 183.75 227.51 192.61 227.08 194.06"/><polygon class="cls-6" points="225.14 176.2 230.34 183.09 229.96 184.4 229.87 184.46 224.18 176.92 225.14 176.2"/><polygon class="cls-3" points="240.74 252.31 233.13 268.14 231.89 267.54 239.96 250.74 240.74 252.31"/><path class="cls-4" d="M239.27,254l23.27-48.54s10.79,17.41,3.08,36.68C265.62,242.13,257,264.81,239.27,254Z"/><path class="cls-5" d="M239.32,254l23.28-48.54S242.26,208,232.06,226C232.06,226,219.76,246.93,239.32,254Z"/><polygon class="cls-3" points="243.59 245.25 260.74 241.48 261.03 242.83 242.83 246.83 243.59 245.25"/><polygon class="cls-3" points="248.98 234 261.2 231.49 261.48 232.84 248.23 235.57 248.98 234"/><polygon class="cls-3" points="253.92 223.71 263.52 221.88 263.78 223.24 253.18 225.26 253.92 223.71"/><polygon class="cls-6" points="235.68 229.47 243.54 245.33 242.87 246.76 242.74 246.82 234.44 230.08 235.68 229.47"/><polygon class="cls-6" points="248.19 235.65 241.95 223.48 243.18 222.85 248.94 234.09 248.19 235.65"/><polygon class="cls-6" points="249.22 215.03 253.88 223.79 253.2 225.21 253.09 225.26 248 215.67 249.22 215.03"/><polygon class="cls-3" points="209.95 240.94 224.55 245.43 224.19 246.57 208.7 241.81 209.95 240.94"/><path class="cls-4" d="M211.58,242l-44.77-13.72s13.58-11.53,31.15-7.41C198,220.85,218.58,225.29,211.58,242Z"/><path class="cls-5" d="M211.59,241.93l-44.77-13.72s4.79,17.17,21.65,23.6C188.47,251.81,208,259.68,211.59,241.93Z"/><polygon class="cls-3" points="203.5 239.4 198.04 225.14 199.16 224.71 204.96 239.85 203.5 239.4"/><polygon class="cls-3" points="193.13 236.22 189.38 226.04 190.51 225.62 194.57 236.66 193.13 236.22"/><polygon class="cls-3" points="183.63 233.31 180.81 225.29 181.95 224.89 185.06 233.75 183.63 233.31"/><polygon class="cls-6" points="190.95 248.25 203.58 239.43 204.9 239.82 204.96 239.92 191.64 249.24 190.95 248.25"/><polygon class="cls-6" points="194.65 236.69 184.99 243.63 184.29 242.66 193.21 236.25 194.65 236.69"/><polygon class="cls-6" points="176.77 238.48 183.71 233.34 185.01 233.74 185.07 233.82 177.49 239.45 176.77 238.48"/><polygon class="cls-3" points="204.54 207.87 213.6 212.85 213.21 213.56 203.59 208.28 204.54 207.87"/><path class="cls-4" d="M205.48,208.79,177.7,193.54s10.59-5.78,21.66-.63C199.36,192.91,212.41,198.69,205.48,208.79Z"/><path class="cls-5" d="M205.5,208.76l-27.78-15.25s.81,12,11.1,18.61C188.82,212.12,200.7,220,205.5,208.76Z"/><polygon class="cls-3" points="200.48 205.97 198.82 195.77 199.63 195.63 201.39 206.46 200.48 205.97"/><polygon class="cls-3" points="194.05 202.44 192.97 195.17 193.77 195.05 194.94 202.92 194.05 202.44"/><polygon class="cls-3" points="188.16 199.2 187.39 193.5 188.2 193.39 189.04 199.69 188.16 199.2"/><polygon class="cls-6" points="190.95 210.11 200.53 205.99 201.35 206.44 201.38 206.51 191.27 210.85 190.95 210.11"/><polygon class="cls-6" points="194.99 202.95 187.63 206.23 187.31 205.49 194.09 202.46 194.99 202.95"/><polygon class="cls-6" points="182.9 201.68 188.2 199.23 189.01 199.67 189.04 199.73 183.24 202.42 182.9 201.68"/><polygon class="cls-3" points="202.23 177.3 204.95 187.28 204.17 187.49 201.28 176.91 202.23 177.3"/><path class="cls-4" d="M202.23,178.62l-8.37-30.57s11.51,3.59,15.51,15.13C209.37,163.18,214.3,176.57,202.23,178.62Z"/><path class="cls-5" d="M202.26,178.61,193.89,148s-8.08,9-5.65,20.93C188.24,169,190.82,183,202.26,178.61Z"/><polygon class="cls-3" points="200.77 173.06 206.95 164.77 207.6 165.26 201.05 174.06 200.77 173.06"/><polygon class="cls-3" points="198.84 165.98 203.31 160.16 203.95 160.65 199.11 166.97 198.84 165.98"/><polygon class="cls-3" points="197.06 159.5 200.63 154.99 201.27 155.49 197.33 160.48 197.06 159.5"/><polygon class="cls-6" points="191.17 169.1 200.79 173.12 201.03 174.02 201 174.09 190.86 169.85 191.17 169.1"/><polygon class="cls-6" points="199.12 167.02 191.65 164.01 191.95 163.26 198.85 166.04 199.12 167.02"/><polygon class="cls-6" points="191.62 157.45 197.08 159.55 197.32 160.44 197.3 160.51 191.33 158.21 191.62 157.45"/><g class="cls-7"><path class="cls-8" d="M240.48,290.2l-36-107.45a.91.91,0,0,0-1.14-.57.9.9,0,0,0-.56,1.14l36.15,107.91Z"/><polygon class="cls-8" points="222.96 209.39 218.59 224.03 217.44 223.68 222.08 208.15 222.96 209.39"/><path class="cls-8" d="M221.93,211l13.35-44.89s11.65,13.49,7.66,31.1C242.94,197.24,238.68,217.89,221.93,211Z"/><path class="cls-8" d="M222,211.05l13.34-44.89S218.2,171.09,211.91,188C211.91,188,204.2,207.64,222,211.05Z"/><polygon class="cls-8" points="224.44 202.93 238.66 197.35 239.1 198.47 224.01 204.39 224.44 202.93"/><polygon class="cls-8" points="227.54 192.53 237.69 188.7 238.11 189.83 227.11 193.98 227.54 192.53"/><polygon class="cls-8" points="230.37 183.02 238.37 180.13 238.77 181.26 229.94 184.44 230.37 183.02"/><polygon class="cls-8" points="215.49 190.46 224.42 203.01 224.03 204.33 223.93 204.4 214.51 191.16 215.49 190.46"/><polygon class="cls-8" points="227.08 194.06 220.06 184.46 221.02 183.75 227.51 192.61 227.08 194.06"/><polygon class="cls-8" points="225.14 176.2 230.34 183.09 229.96 184.4 229.87 184.46 224.18 176.92 225.14 176.2"/><polygon class="cls-8" points="240.74 252.31 233.13 268.14 231.89 267.54 239.96 250.74 240.74 252.31"/><path class="cls-8" d="M239.27,254l23.27-48.54s10.79,17.41,3.08,36.68C265.62,242.13,257,264.81,239.27,254Z"/><path class="cls-8" d="M239.32,254l23.28-48.54S242.26,208,232.06,226C232.06,226,219.76,246.93,239.32,254Z"/><polygon class="cls-8" points="243.59 245.25 260.74 241.48 261.03 242.83 242.83 246.83 243.59 245.25"/><polygon class="cls-8" points="248.98 234 261.2 231.49 261.48 232.84 248.23 235.57 248.98 234"/><polygon class="cls-8" points="253.92 223.71 263.52 221.88 263.78 223.24 253.18 225.26 253.92 223.71"/><polygon class="cls-8" points="235.68 229.47 243.54 245.33 242.87 246.76 242.74 246.82 234.44 230.08 235.68 229.47"/><polygon class="cls-8" points="248.19 235.65 241.95 223.48 243.18 222.85 248.94 234.09 248.19 235.65"/><polygon class="cls-8" points="249.22 215.03 253.88 223.79 253.2 225.21 253.09 225.26 248 215.67 249.22 215.03"/><polygon class="cls-8" points="209.95 240.94 224.55 245.43 224.19 246.57 208.7 241.81 209.95 240.94"/><path class="cls-8" d="M211.58,242l-44.77-13.72s13.58-11.53,31.15-7.41C198,220.85,218.58,225.29,211.58,242Z"/><path class="cls-8" d="M211.59,241.93l-44.77-13.72s4.79,17.17,21.65,23.6C188.47,251.81,208,259.68,211.59,241.93Z"/><polygon class="cls-8" points="203.5 239.4 198.04 225.14 199.16 224.71 204.96 239.85 203.5 239.4"/><polygon class="cls-8" points="193.13 236.22 189.38 226.04 190.51 225.62 194.57 236.66 193.13 236.22"/><polygon class="cls-8" points="183.63 233.31 180.81 225.29 181.95 224.89 185.06 233.75 183.63 233.31"/><polygon class="cls-8" points="190.95 248.25 203.58 239.43 204.9 239.82 204.96 239.92 191.64 249.24 190.95 248.25"/><polygon class="cls-8" points="194.65 236.69 184.99 243.63 184.29 242.66 193.21 236.25 194.65 236.69"/><polygon class="cls-8" points="176.77 238.48 183.71 233.34 185.01 233.74 185.07 233.82 177.49 239.45 176.77 238.48"/><polygon class="cls-8" points="204.54 207.87 213.6 212.85 213.21 213.56 203.59 208.28 204.54 207.87"/><path class="cls-8" d="M205.48,208.79,177.7,193.54s10.59-5.78,21.66-.63C199.36,192.91,212.41,198.69,205.48,208.79Z"/><path class="cls-8" d="M205.5,208.76l-27.78-15.25s.81,12,11.1,18.61C188.82,212.12,200.7,220,205.5,208.76Z"/><polygon class="cls-8" points="200.48 205.97 198.82 195.77 199.63 195.63 201.39 206.46 200.48 205.97"/><polygon class="cls-8" points="194.05 202.44 192.97 195.17 193.77 195.05 194.94 202.92 194.05 202.44"/><polygon class="cls-8" points="188.16 199.2 187.39 193.5 188.2 193.39 189.04 199.69 188.16 199.2"/><polygon class="cls-8" points="190.95 210.11 200.53 205.99 201.35 206.44 201.38 206.51 191.27 210.85 190.95 210.11"/><polygon class="cls-8" points="194.99 202.95 187.63 206.23 187.31 205.49 194.09 202.46 194.99 202.95"/><polygon class="cls-8" points="182.9 201.68 188.2 199.23 189.01 199.67 189.04 199.73 183.24 202.42 182.9 201.68"/><polygon class="cls-8" points="202.23 177.3 204.95 187.28 204.17 187.49 201.28 176.91 202.23 177.3"/><path class="cls-8" d="M202.23,178.62l-8.37-30.57s11.51,3.59,15.51,15.13C209.37,163.18,214.3,176.57,202.23,178.62Z"/><path class="cls-8" d="M202.26,178.61,193.89,148s-8.08,9-5.65,20.93C188.24,169,190.82,183,202.26,178.61Z"/><polygon class="cls-8" points="200.77 173.06 206.95 164.77 207.6 165.26 201.05 174.06 200.77 173.06"/><polygon class="cls-8" points="198.84 165.98 203.31 160.16 203.95 160.65 199.11 166.97 198.84 165.98"/><polygon class="cls-8" points="197.06 159.5 200.63 154.99 201.27 155.49 197.33 160.48 197.06 159.5"/><polygon class="cls-8" points="191.17 169.1 200.79 173.12 201.03 174.02 201 174.09 190.86 169.85 191.17 169.1"/><polygon class="cls-8" points="199.12 167.02 191.65 164.01 191.95 163.26 198.85 166.04 199.12 167.02"/><polygon class="cls-8" points="191.62 157.45 197.08 159.55 197.32 160.44 197.3 160.51 191.33 158.21 191.62 157.45"/></g><path class="cls-3" d="M190.58,248.38,50.8,106.3a1.59,1.59,0,0,0-2.24,0,1.57,1.57,0,0,0,0,2.24L188.92,251.21C189.47,250.27,190,249.32,190.58,248.38Z"/><polygon class="cls-3" points="100.55 134.16 104.94 160.66 102.85 161.01 98.19 132.88 100.55 134.16"/><path class="cls-4" d="M100.19,137.55,86.66,56.3s28.82,12.33,36.1,43.23C122.76,99.53,132,135.47,100.19,137.55Z"/><path class="cls-5" d="M100.27,137.53,86.75,56.28s-23.27,21-20.15,52.6C66.6,108.88,69.54,145.86,100.27,137.53Z"/><polygon class="cls-3" points="97.91 122.8 116.08 103.01 117.64 104.44 98.35 125.45 97.91 122.8"/><polygon class="cls-3" points="94.78 103.98 107.87 90.09 109.41 91.55 95.22 106.6 94.78 103.98"/><polygon class="cls-3" points="91.91 86.75 102.33 76.02 103.85 77.5 92.34 89.34 91.91 86.75"/><polygon class="cls-6" points="74.13 110 97.94 122.95 98.33 125.33 98.23 125.51 73.12 111.86 74.13 110"/><polygon class="cls-6" points="95.24 106.74 76.72 96.98 77.71 95.12 94.8 104.13 95.24 106.74"/><polygon class="cls-6" points="78.39 80.01 91.93 86.89 92.33 89.26 92.25 89.41 77.44 81.89 78.39 80.01"/><polygon class="cls-3" points="161.75 188.29 161.94 219.18 159.51 219.19 159.31 186.41 161.75 188.29"/><path class="cls-4" d="M160.73,192.07l-.65-94.68s30.48,19.22,33.16,55.61C193.24,153,197.17,195.46,160.73,192.07Z"/><path class="cls-5" d="M160.83,192.07l-.65-94.68S130,117,127.78,153.46C127.78,153.46,124.44,196,160.83,192.07Z"/><polygon class="cls-3" points="160.81 174.93 185.02 155.75 186.53 157.65 160.83 178.01 160.81 174.93"/><polygon class="cls-3" points="160.66 153 178.04 139.6 179.52 141.52 160.68 156.05 160.66 153"/><polygon class="cls-3" points="160.53 132.91 174.3 122.62 175.75 124.56 160.55 135.93 160.53 132.91"/><polygon class="cls-6" points="136.14 156.08 160.81 175.09 160.84 177.87 160.69 178.06 134.66 158.01 136.14 156.08"/><polygon class="cls-6" points="160.69 156.21 141.43 141.78 142.89 139.84 160.67 153.16 160.69 156.21"/><polygon class="cls-6" points="146.4 122.82 160.53 133.07 160.55 135.84 160.42 136 144.97 124.78 146.4 122.82"/><polygon class="cls-3" points="104.31 194.06 130.86 189.89 131.18 191.98 103.01 196.41 104.31 194.06"/><path class="cls-4" d="M107.7,194.45,26.34,207.3s12.57-28.71,43.54-35.74C69.88,171.56,105.88,162.66,107.7,194.45Z"/><path class="cls-5" d="M107.68,194.36,26.32,207.22s20.82,23.44,52.43,20.59C78.75,227.81,115.76,225.16,107.68,194.36Z"/><polygon class="cls-3" points="92.94 196.61 73.3 178.27 74.74 176.73 95.58 196.19 92.94 196.61"/><polygon class="cls-3" points="74.09 199.58 60.31 186.37 61.78 184.85 76.72 199.17 74.09 199.58"/><polygon class="cls-3" points="56.84 202.31 46.19 191.8 47.67 190.29 59.43 201.9 56.84 202.31"/><polygon class="cls-6" points="79.93 220.28 93.08 196.58 95.47 196.2 95.65 196.3 81.78 221.3 79.93 220.28"/><polygon class="cls-6" points="76.85 199.15 66.95 217.58 65.08 216.58 74.23 199.56 76.85 199.15"/><polygon class="cls-6" points="49.98 215.77 56.97 202.29 59.34 201.91 59.5 201.99 51.86 216.74 49.98 215.77"/><polygon class="cls-3" points="70.26 145.97 88.42 146.85 88.36 148.28 69.08 147.34 70.26 145.97"/><path class="cls-4" d="M72.46,146.69,16.78,144s12.28-17.29,33.76-17.7C50.54,126.31,75.62,125.38,72.46,146.69Z"/><path class="cls-5" d="M72.46,146.63,16.78,144s10.57,18.4,31.91,20.85C48.69,164.8,73.57,168.15,72.46,146.63Z"/><polygon class="cls-3" points="62.38 146.08 51.89 131.24 53.05 130.41 64.19 146.17 62.38 146.08"/><polygon class="cls-3" points="49.49 145.47 42.17 134.82 43.35 134 51.27 145.55 49.49 145.47"/><polygon class="cls-3" points="37.68 144.9 32.07 136.47 33.25 135.67 39.45 144.98 37.68 144.9"/><polygon class="cls-6" points="50.51 159.98 62.48 146.09 64.11 146.17 64.22 146.26 51.58 160.91 50.51 159.98"/><polygon class="cls-6" points="51.37 145.55 42.27 156.41 41.18 155.49 49.58 145.47 51.37 145.55"/><polygon class="cls-6" points="31.28 152.88 37.77 144.9 39.39 144.98 39.49 145.05 32.39 153.78 31.28 152.88"/><polygon class="cls-3" points="43.03 99.43 55.02 113.09 53.95 114.03 41.22 99.53 43.03 99.43"/><path class="cls-4" d="M44,101.51,7.23,59.65s21-3.21,36.2,11.94C43.43,71.59,61.55,89,44,101.51Z"/><path class="cls-5" d="M44.08,101.47,7.27,59.61S1.41,80,14.49,97C14.49,97,29.4,117.24,44.08,101.47Z"/><polygon class="cls-3" points="37.46 93.85 40.83 75.98 42.23 76.25 38.66 95.21 37.46 93.85"/><polygon class="cls-3" points="28.93 84.15 31.5 71.49 32.9 71.77 30.12 85.5 28.93 84.15"/><polygon class="cls-3" points="21.13 75.27 23.28 65.39 24.68 65.69 22.3 76.61 21.13 75.27"/><polygon class="cls-6" points="19.22 94.99 37.53 93.92 38.61 95.16 38.62 95.29 19.3 96.41 19.22 94.99"/><polygon class="cls-6" points="30.19 85.57 16.05 86.58 15.96 85.16 29 84.23 30.19 85.57"/><polygon class="cls-6" points="10.95 76.23 21.19 75.34 22.26 76.57 22.28 76.68 11.07 77.66 10.95 76.23"/><g class="cls-7"><path class="cls-8" d="M190.58,248.38,50.8,106.3a1.59,1.59,0,0,0-2.24,0,1.57,1.57,0,0,0,0,2.24L188.92,251.21C189.47,250.27,190,249.32,190.58,248.38Z"/><polygon class="cls-8" points="100.55 134.16 104.94 160.66 102.85 161.01 98.19 132.88 100.55 134.16"/><path class="cls-8" d="M100.19,137.55,86.66,56.3s28.82,12.33,36.1,43.23C122.76,99.53,132,135.47,100.19,137.55Z"/><path class="cls-8" d="M100.27,137.53,86.75,56.28s-23.27,21-20.15,52.6C66.6,108.88,69.54,145.86,100.27,137.53Z"/><polygon class="cls-8" points="97.91 122.8 116.08 103.01 117.64 104.44 98.35 125.45 97.91 122.8"/><polygon class="cls-8" points="94.78 103.98 107.87 90.09 109.41 91.55 95.22 106.6 94.78 103.98"/><polygon class="cls-8" points="91.91 86.75 102.33 76.02 103.85 77.5 92.34 89.34 91.91 86.75"/><polygon class="cls-8" points="74.13 110 97.94 122.95 98.33 125.33 98.23 125.51 73.12 111.86 74.13 110"/><polygon class="cls-8" points="95.24 106.74 76.72 96.98 77.71 95.12 94.8 104.13 95.24 106.74"/><polygon class="cls-8" points="78.39 80.01 91.93 86.89 92.33 89.26 92.25 89.41 77.44 81.89 78.39 80.01"/><polygon class="cls-8" points="161.75 188.29 161.94 219.18 159.51 219.19 159.31 186.41 161.75 188.29"/><path class="cls-8" d="M160.73,192.07l-.65-94.68s30.48,19.22,33.16,55.61C193.24,153,197.17,195.46,160.73,192.07Z"/><path class="cls-8" d="M160.83,192.07l-.65-94.68S130,117,127.78,153.46C127.78,153.46,124.44,196,160.83,192.07Z"/><polygon class="cls-8" points="160.81 174.93 185.02 155.75 186.53 157.65 160.83 178.01 160.81 174.93"/><polygon class="cls-8" points="160.66 153 178.04 139.6 179.52 141.52 160.68 156.05 160.66 153"/><polygon class="cls-8" points="160.53 132.91 174.3 122.62 175.75 124.56 160.55 135.93 160.53 132.91"/><polygon class="cls-8" points="136.14 156.08 160.81 175.09 160.84 177.87 160.69 178.06 134.66 158.01 136.14 156.08"/><polygon class="cls-8" points="160.69 156.21 141.43 141.78 142.89 139.84 160.67 153.16 160.69 156.21"/><polygon class="cls-8" points="146.4 122.82 160.53 133.07 160.55 135.84 160.42 136 144.97 124.78 146.4 122.82"/><polygon class="cls-8" points="104.31 194.06 130.86 189.89 131.18 191.98 103.01 196.41 104.31 194.06"/><path class="cls-8" d="M107.7,194.45,26.34,207.3s12.57-28.71,43.54-35.74C69.88,171.56,105.88,162.66,107.7,194.45Z"/><path class="cls-8" d="M107.68,194.36,26.32,207.22s20.82,23.44,52.43,20.59C78.75,227.81,115.76,225.16,107.68,194.36Z"/><polygon class="cls-8" points="92.94 196.61 73.3 178.27 74.74 176.73 95.58 196.19 92.94 196.61"/><polygon class="cls-8" points="74.09 199.58 60.31 186.37 61.78 184.85 76.72 199.17 74.09 199.58"/><polygon class="cls-8" points="56.84 202.31 46.19 191.8 47.67 190.29 59.43 201.9 56.84 202.31"/><polygon class="cls-8" points="79.93 220.28 93.08 196.58 95.47 196.2 95.65 196.3 81.78 221.3 79.93 220.28"/><polygon class="cls-8" points="76.85 199.15 66.95 217.58 65.08 216.58 74.23 199.56 76.85 199.15"/><polygon class="cls-8" points="49.98 215.77 56.97 202.29 59.34 201.91 59.5 201.99 51.86 216.74 49.98 215.77"/><polygon class="cls-8" points="70.26 145.97 88.42 146.85 88.36 148.28 69.08 147.34 70.26 145.97"/><path class="cls-8" d="M72.46,146.69,16.78,144s12.28-17.29,33.76-17.7C50.54,126.31,75.62,125.38,72.46,146.69Z"/><path class="cls-8" d="M72.46,146.63,16.78,144s10.57,18.4,31.91,20.85C48.69,164.8,73.57,168.15,72.46,146.63Z"/><polygon class="cls-8" points="62.38 146.08 51.89 131.24 53.05 130.41 64.19 146.17 62.38 146.08"/><polygon class="cls-8" points="49.49 145.47 42.17 134.82 43.35 134 51.27 145.55 49.49 145.47"/><polygon class="cls-8" points="37.68 144.9 32.07 136.47 33.25 135.67 39.45 144.98 37.68 144.9"/><polygon class="cls-8" points="50.51 159.98 62.48 146.09 64.11 146.17 64.22 146.26 51.58 160.91 50.51 159.98"/><polygon class="cls-8" points="51.37 145.55 42.27 156.41 41.18 155.49 49.58 145.47 51.37 145.55"/><polygon class="cls-8" points="31.28 152.88 37.77 144.9 39.39 144.98 39.49 145.05 32.39 153.78 31.28 152.88"/><polygon class="cls-8" points="43.03 99.43 55.02 113.09 53.95 114.03 41.22 99.53 43.03 99.43"/><path class="cls-8" d="M44,101.51,7.23,59.65s21-3.21,36.2,11.94C43.43,71.59,61.55,89,44,101.51Z"/><path class="cls-8" d="M44.08,101.47,7.27,59.61S1.41,80,14.49,97C14.49,97,29.4,117.24,44.08,101.47Z"/><polygon class="cls-8" points="37.46 93.85 40.83 75.98 42.23 76.25 38.66 95.21 37.46 93.85"/><polygon class="cls-8" points="28.93 84.15 31.5 71.49 32.9 71.77 30.12 85.5 28.93 84.15"/><polygon class="cls-8" points="21.13 75.27 23.28 65.39 24.68 65.69 22.3 76.61 21.13 75.27"/><polygon class="cls-8" points="19.22 94.99 37.53 93.92 38.61 95.16 38.62 95.29 19.3 96.41 19.22 94.99"/><polygon class="cls-8" points="30.19 85.57 16.05 86.58 15.96 85.16 29 84.23 30.19 85.57"/><polygon class="cls-8" points="10.95 76.23 21.19 75.34 22.26 76.57 22.28 76.68 11.07 77.66 10.95 76.23"/></g><path class="cls-9" d="M1.57,316.49h408.9c2.09,0,2.09-2.15,0-2.15H1.57c-2.09,0-2.09,2.15,0,2.15Z"/><path class="cls-10" d="M246.87,211.53h-5.38A3.54,3.54,0,0,1,238,208v-7a3.54,3.54,0,0,1,3.53-3.54h5.38A3.54,3.54,0,0,1,250.4,201v7A3.54,3.54,0,0,1,246.87,211.53Zm-5.38-13.29a2.75,2.75,0,0,0-2.75,2.75v7a2.75,2.75,0,0,0,2.75,2.75h5.38a2.75,2.75,0,0,0,2.75-2.75v-7a2.75,2.75,0,0,0-2.75-2.75Z"/><path class="cls-10" d="M242,195.16H262V209a10,10,0,0,1-10,10h0a10,10,0,0,1-10-10Z"/><g class="cls-11"><path class="cls-12" d="M272.69,174.86h-.81a5.77,5.77,0,0,0,.77-2.88h0a5.82,5.82,0,0,0-5.81-5.81H263a5.81,5.81,0,0,0-5.8,5.81h0a5.81,5.81,0,0,0,3.63,5.38,5.79,5.79,0,0,0-1,3.3h0a5.85,5.85,0,0,0,.76,2.89h-3.12a11.64,11.64,0,0,0-11.61,11.61H268a5.83,5.83,0,0,0,5.81-5.8h0a5.82,5.82,0,0,0-.78-2.9,5.82,5.82,0,0,0,5.49-5.8h0A5.83,5.83,0,0,0,272.69,174.86Z"/></g><rect class="cls-13" x="246.89" y="198.59" width="0.41" height="12.55"/><rect class="cls-13" x="244.47" y="195.16" width="0.41" height="8.12"/><rect class="cls-14" x="144.57" y="268.67" width="137.9" height="45.66"/><path d="M236.84,303.88H155.37V279.13h81.47Zm-81-.7H236.4V279.83H155.82Z"/><rect class="cls-6" x="162.16" y="290.86" width="67.89" height="1.28"/><rect class="cls-6" x="245.84" y="279.48" width="1.17" height="24.05"/><rect class="cls-6" x="254.09" y="279.48" width="1.16" height="24.05"/><rect class="cls-6" x="262.34" y="279.48" width="1.17" height="24.05"/><rect class="cls-15" x="172.73" y="218.67" width="102.57" height="30.96"/><path class="cls-16" d="M267.26,242.54h-86.5V225.76h86.5Zm-86-.47h85.55V226.23H181.23Z"/><rect class="cls-17" x="187.97" y="233.72" width="72.08" height="0.87"/><path class="cls-18" d="M252.71,263.74a4.88,4.88,0,0,1-4.81,4.93H158.53a4.87,4.87,0,0,1-4.81-4.93v-9.17a4.87,4.87,0,0,1,4.81-4.94H247.9a4.88,4.88,0,0,1,4.81,4.94Z"/><path class="cls-18" d="M159.22,249.63H123.54v19h35.68a4.88,4.88,0,0,0,4.81-4.93v-9.17A4.88,4.88,0,0,0,159.22,249.63Z"/><path class="cls-6" d="M157.94,251.3h-34.4v16.26h34.4a4.44,4.44,0,0,0,4.64-4.22v-7.82A4.44,4.44,0,0,0,157.94,251.3Z"/><path class="cls-19" d="M173.24,250.61v16.28a2.65,2.65,0,0,0,.73,1.78h6.79a2.65,2.65,0,0,0,.73-1.78V250.61a2.53,2.53,0,0,0-.21-1h-7.83A2.37,2.37,0,0,0,173.24,250.61Z"/><path class="cls-19" d="M184.92,250.61v16.28a2.65,2.65,0,0,0,.73,1.78h6.79a2.65,2.65,0,0,0,.73-1.78V250.61a2.53,2.53,0,0,0-.21-1h-7.83A2.53,2.53,0,0,0,184.92,250.61Z"/><rect class="cls-18" x="316.1" y="239.3" width="16.37" height="78.14" transform="translate(-100.37 230.18) rotate(-34.17)"/><rect class="cls-6" x="314.23" y="246.29" width="9.58" height="49.36" transform="translate(-97.11 225.91) rotate(-34.16)"/><rect class="cls-6" x="332.75" y="297.05" width="9.58" height="2.41" transform="matrix(0.83, -0.56, 0.56, 0.83, -109.25, 241.11)"/><rect class="cls-6" x="330.67" y="293.98" width="9.58" height="2.41" transform="translate(-107.86 239.2) rotate(-34.15)"/><rect class="cls-20" x="288.01" y="225.88" width="19.48" height="89.88" transform="translate(-94.66 181.31) rotate(-29.44)"/><path class="cls-21" d="M286.05,241.43a4.26,4.26,0,1,1-5.79-1.58A4.23,4.23,0,0,1,286.05,241.43Z"/><rect class="cls-21" x="306.62" y="295.96" width="12.23" height="2.85" transform="translate(-105.78 192.11) rotate(-29.44)"/><rect class="cls-21" x="309.13" y="300.41" width="12.23" height="2.85" transform="translate(-107.63 193.83) rotate(-29.43)"/><rect class="cls-21" x="311.64" y="304.85" width="12.23" height="2.85" transform="translate(-109.49 195.66) rotate(-29.43)"/><path class="cls-6" d="M304.88,292.5l-22-39,7.73-4.36,22,39Zm-21.55-38.91,21.72,38.47,7.1-4-21.71-38.47Z"/><path class="cls-22" d="M153.2,71.56a73.35,73.35,0,0,0-29.64,30.55c-10.55,21.08-11,47.64-11,47.64l16.08,7.34,9.22-6.76s8.46-53.44,8.57-53.76,4.79-17.67,5-18.1S153.2,71.56,153.2,71.56Z"/><polygon class="cls-23" points="164.01 67.29 163.37 85.5 168.06 86.03 180.41 75.49 188.61 70.8 185.84 64.31 173.32 63.35 164.01 67.29"/><path class="cls-24" d="M194.23,20.93q5,10,9.91,20a10,10,0,0,1,1.06,2.86c.46,3-2,5.8-4.79,6.85s-5.95.76-9,.46c-.26,3.17-3.59,5-6.56,6.15a68.77,68.77,0,0,1-41.58,1.9,112.87,112.87,0,0,0,8.83-27.34l32.36-4.08a14.85,14.85,0,0,0,5.55-1.44,5.09,5.09,0,0,0,2.81-4.66"/><path class="cls-23" d="M164.15,68.51c0-2.43-2.65-12.18-2.65-12.18s-9.22.59-11.3-8.29-5.07-29.67-5.07-29.67L160.23,7.5l20.48,10.63,5.13,48Z"/><path class="cls-24" d="M180.65,25.26s-15,1.14-20-11.85L145.67,31s-5.07-9.11,2.24-19.88S161.66,1.22,165.15.62c3.26-.55,20.3.12,28.4,18,.58,1.3,1.45,4.6,1.94,6.09Z"/><path class="cls-25" d="M149.64,33.13a1.17,1.17,0,1,0,1-1.35A1.17,1.17,0,0,0,149.64,33.13Z"/><path class="cls-25" d="M148.31,32.06c.18.13.9-.74,2.13-1s2.25.16,2.36,0-.15-.33-.61-.54a3,3,0,0,0-1.92-.16,2.92,2.92,0,0,0-1.65,1C148.3,31.7,148.23,32,148.31,32.06Z"/><path class="cls-25" d="M163,30.85a1.17,1.17,0,1,0,1-1.34A1.15,1.15,0,0,0,163,30.85Z"/><path class="cls-25" d="M162,29.72c.18.12.9-.74,2.13-1s2.25.16,2.35,0-.15-.33-.6-.54a3.09,3.09,0,0,0-3.58.84C162,29.35,161.94,29.67,162,29.72Z"/><path class="cls-25" d="M159.35,40.93a8.4,8.4,0,0,0-2.07.09c-.31,0-.63,0-.74-.18a1.7,1.7,0,0,1,0-1c.13-.85.26-1.76.4-2.7.28-1.93.5-3.67.64-4.94a8.88,8.88,0,0,0,.12-2.06,8.25,8.25,0,0,0-.48,2c-.22,1.26-.5,3-.78,4.91-.13.95-.25,1.86-.37,2.72a2.06,2.06,0,0,0,.1,1.31.8.8,0,0,0,.61.36,2.24,2.24,0,0,0,.54,0A8.7,8.7,0,0,0,159.35,40.93Z"/><g class="cls-26"><path class="cls-27" d="M165.39,40.52c.21,1,1.91,1.49,3.82,1.2s3.39-1.22,3.27-2.25-1.85-1.75-3.86-1.45S165.18,39.51,165.39,40.52Z"/></g><path class="cls-28" d="M163.63,41.4c1.11-1-3.1,2.65-5.62,3.08a3.46,3.46,0,0,0,4.29.46C164.75,43.38,163.63,41.4,163.63,41.4Z"/><path class="cls-24" d="M161.52,56.31a22.78,22.78,0,0,0,11.21-6.05s-2.16,5.47-10.14,10.27Z"/><path class="cls-24" d="M161,12.26s-2.21,6.92,0,11.46L145.67,31S140.83,12.22,161,12.26Z"/><path class="cls-24" d="M195.25,23.33S201,43.67,184.16,50.39l-3.51-25.13Z"/><path class="cls-24" d="M158.67,6.61c0-.1-1.77.09-4.33,1.29a20.12,20.12,0,0,0-11.53,17.58c-.07,2.82.45,4.51.56,4.49s-.1-1.73.16-4.45a21.91,21.91,0,0,1,3.42-9.9,22.16,22.16,0,0,1,7.71-7.09C157.05,7.22,158.72,6.78,158.67,6.61Z"/><path class="cls-25" d="M158.45,31c.06,0-.08-.63,0-1.75a7.19,7.19,0,0,1,1.93-4.19,6.83,6.83,0,0,1,2.68-1.75,7,7,0,0,1,3.63-.3,6.82,6.82,0,0,1,3.55,1.84,6.92,6.92,0,0,1-8,11.11,7.12,7.12,0,0,1-3.22-3.32c-.47-1-.54-1.65-.6-1.64a1.46,1.46,0,0,0,.05.46,5.35,5.35,0,0,0,.37,1.26,7.06,7.06,0,0,0,3.23,3.55,7.16,7.16,0,0,0,3.26.87,7.44,7.44,0,0,0,3.76-.94,7.28,7.28,0,0,0,3-3.1,7.34,7.34,0,0,0-1.48-8.61,7.31,7.31,0,0,0-10.46.32,7.08,7.08,0,0,0-1.86,4.43,5.36,5.36,0,0,0,.07,1.31A1.52,1.52,0,0,0,158.45,31Z"/><path class="cls-25" d="M142.24,33.81c.06,0-.08-.63,0-1.74a7.19,7.19,0,0,1,1.93-4.2,7,7,0,0,1,2.67-1.75,6.89,6.89,0,0,1,3.63-.29,6.72,6.72,0,0,1,3.56,1.83,6.88,6.88,0,0,1,1.37,8,6.78,6.78,0,0,1-2.74,2.91,6.94,6.94,0,0,1-6.63.17,7.09,7.09,0,0,1-3.21-3.32c-.47-1-.55-1.65-.6-1.64a1.45,1.45,0,0,0,0,.46,5.35,5.35,0,0,0,.37,1.26,7.12,7.12,0,0,0,3.23,3.56,7.32,7.32,0,0,0,10-3.18,7.34,7.34,0,0,0-1.47-8.6,7.35,7.35,0,0,0-7.68-1.58,7,7,0,0,0-2.79,1.9,7.12,7.12,0,0,0-1.87,4.42,6.78,6.78,0,0,0,.07,1.32A1.53,1.53,0,0,0,142.24,33.81Z"/><path class="cls-25" d="M156.34,31.63c0,.14.62.15,1.33,0s1.27-.33,1.25-.47-.62-.15-1.33,0S156.32,31.49,156.34,31.63Z"/><path class="cls-25" d="M172.36,28.5a41.79,41.79,0,0,0,6.44.41,40.44,40.44,0,0,0,6.44-.08,40.79,40.79,0,0,0-6.43-.42A41.19,41.19,0,0,0,172.36,28.5Z"/><path class="cls-29" d="M164,67.29s-15.49-.37-20.7,20.84c-4.9,19.92-11,58.19-.6,75.46S203,185.09,203,185.09s-25.44-39.33-19.26-76.81,24.06-42.16,24.06-42.16a50.37,50.37,0,0,0-21.93-1.81L164.76,82.2Z"/><path class="cls-29" d="M157,184.46l-28-26,7.26-8.46,78-8.94a129.29,129.29,0,0,1,4.26,40.67Z"/><path class="cls-30" d="M79.26,218.74s11.49,62.6,32.15,89H127.9S112.54,237,114.46,199.17s-24-18.2-24-18.2l-14.37,18.2Z"/><path class="cls-30" d="M35.18,267.29l15.54,8.52,45.57-75s36.2,25.77,74.1,25.13,56.86-10.22,48.13-44.29l-60.22.37-30.4-24.65S81.39,141,65.2,173.81,35.18,267.29,35.18,267.29Z"/><path class="cls-24" d="M50.72,275.81l-4.07,7.58L18.22,268.46a8.51,8.51,0,0,1,6.87-1.12c3.75,1.12,10.09,0,10.09,0Z"/><path class="cls-24" d="M92.72,315.41a10.43,10.43,0,0,1,8.39-4,18.6,18.6,0,0,0,10.3-3.67H127.9l1.08,7.66Z"/><path class="cls-22" d="M207.77,66.12s20.86,6.38,16.71,53.18C220,161,213.41,179.21,190,175.87s-57.92-22.56-57.92-22.56l1.92-8.67s20.21-13.63,44.6-7.88C178.58,136.76,182.43,64.84,207.77,66.12Z"/><polygon class="cls-31" points="185.84 64.31 183.5 78.66 178.94 78.26 179.98 81.61 164.76 82.2 185.84 64.31"/><polygon class="cls-31" points="164.01 67.29 159.22 75.3 161.3 76.66 159.22 78.5 164.76 82.2 164.01 67.29"/><path class="cls-32" d="M157.94,123.81c-2.33-18.4,6.44-41.54,6.53-41.74l.58.25c-.09.21-8.78,23.19-6.48,41.41Z"/><path class="cls-31" d="M167.37,87a1.12,1.12,0,1,1-1.12-1.11A1.12,1.12,0,0,1,167.37,87Z"/><path class="cls-31" d="M164.57,93.48a1.12,1.12,0,1,1-1.12-1.12A1.12,1.12,0,0,1,164.57,93.48Z"/><path class="cls-31" d="M162.73,102.56a1.12,1.12,0,1,1-1.11-1.12A1.12,1.12,0,0,1,162.73,102.56Z"/><path class="cls-32" d="M187.35,145.45c-1.22-8.65-8.73-8.82-8.81-8.83V136c.08,0,8.13.19,9.43,9.38Z"/><path class="cls-32" d="M180.47,146l-.62-.13c1.15-5.59-1.49-8.91-1.51-8.94l.49-.41C179,136.7,181.69,140.12,180.47,146Z"/><path class="cls-32" d="M178.9,133.54l-.64-.06c3.28-30.59,9.32-49,13.9-56.75,5-8.51,9.22-9.7,9.4-9.75l.16.62-.08-.31.08.31s-4.2,1.22-9.08,9.57C188.12,84.9,182.15,103.2,178.9,133.54Z"/><path class="cls-32" d="M142.86,140.47l-.24-.59c.16-.07,17-7.12,31.3-4.32l-.13.62C159.74,133.43,143,140.4,142.86,140.47Z"/><path class="cls-32" d="M194,176.14a54.37,54.37,0,0,1-8.34-.71c-17.25-2.73-45.67-17.61-45.95-17.76l.3-.56c.28.15,28.6,15,45.75,17.68,15.35,2.43,24.36-1.33,29.22-12.19l.58.27C211.49,171.88,204.7,176.14,194,176.14Z"/><rect class="cls-32" x="200.6" y="181.48" width="12.62" height="0.64"/><rect class="cls-32" x="179.2" y="181.61" width="18.29" height="0.64"/><path class="cls-6" d="M113.67,297c-13.28-33.21-17.46-92.5-17.5-93.09l0-.34h.34c.89,0,89.67-1.59,97.18-5.35s4.41-20.54,4.38-20.71l.63-.12c.13.72,3.07,17.51-4.72,21.4-7.48,3.74-90.23,5.29-97.13,5.42.36,4.86,4.71,60.75,17.43,92.56Z"/><rect class="cls-6" x="114.28" y="305.46" width="12.56" height="0.32"/><path class="cls-6" d="M125.28,302.12a2.14,2.14,0,1,1-2.13-2.14A2.13,2.13,0,0,1,125.28,302.12Z"/><path class="cls-6" d="M46.76,261.87l-.6-.23c.26-.68,26.13-68.37,37.51-85.56,6-9.07,19.47-11.72,29.69-12.34a110,110,0,0,1,20.88.81l-.09.63a110.81,110.81,0,0,0-20.76-.81c-10.08.62-23.32,3.21-29.18,12.07C72.86,193.56,47,261.18,46.76,261.87Z"/><polygon class="cls-6" points="49.59 272.44 38.09 267.17 38.22 266.88 49.72 272.15 49.59 272.44"/><path class="cls-6" d="M52.69,267.56a2.4,2.4,0,1,1-2.39-2.4A2.39,2.39,0,0,1,52.69,267.56Z"/><path class="cls-32" d="M81.05,226.53l-.5-.4a215.21,215.21,0,0,0,26.73-43.08l.09-.19h6.38l62.6-1.23v.64l-62.6,1.23h-6A217,217,0,0,1,81.05,226.53Z"/><polygon class="cls-30" points="157.54 182.32 164.26 168.59 153.55 164.03 157.54 182.32"/><path class="cls-24" d="M71.1,124.27a1.55,1.55,0,0,0-1.54,1.83l5.21,35.17a2.89,2.89,0,0,0,2,2.21l79.74,19c1,.23,1.56-.37,1.32-1.34l-14.24-56.53a2.39,2.39,0,0,0-2.25-1.72Z"/><polygon class="cls-6" points="152.99 175.91 139.58 127.28 74.78 127.28 74.78 126.64 140.07 126.64 140.13 126.88 153.6 175.74 152.99 175.91"/><path class="cls-6" d="M107.74,158.26a7.67,7.67,0,1,1,7.66-7.66A7.67,7.67,0,0,1,107.74,158.26Zm0-14.69a7,7,0,1,0,7,7A7,7,0,0,0,107.74,143.57Z"/><path class="cls-23" d="M180.82,35.89a11.48,11.48,0,0,1-.27-4.51A4.24,4.24,0,0,1,183.3,28a3.57,3.57,0,0,1,4.14,2.32A4.39,4.39,0,0,1,186,35.05a5.77,5.77,0,0,1-5,1"/><path class="cls-32" d="M138.72,113.78l-.63-.07a173.08,173.08,0,0,1,7.45-33l.6.21A173.58,173.58,0,0,0,138.72,113.78Z"/><circle class="cls-33" cx="52.69" cy="108.06" r="16.15"/><path class="cls-14" d="M113.56,50.51a5.87,5.87,0,1,1-5.86-5.87A5.86,5.86,0,0,1,113.56,50.51Z"/><path class="cls-14" d="M121.19,28a3.56,3.56,0,1,1-3.55-3.55A3.55,3.55,0,0,1,121.19,28Z"/><path class="cls-34" d="M312.11,88.61a19.46,19.46,0,1,1-19.46-19.46A19.45,19.45,0,0,1,312.11,88.61Z"/><path class="cls-33" d="M328.78,124.22a5.48,5.48,0,1,1-5.47-5.47A5.47,5.47,0,0,1,328.78,124.22Z"/><path class="cls-33" d="M276,141a5.2,5.2,0,1,1-5.21-5.2A5.2,5.2,0,0,1,276,141Z"/><path class="cls-33" d="M256.18,38.93a9.29,9.29,0,1,1-9.29-9.29A9.29,9.29,0,0,1,256.18,38.93Z"/><polygon class="cls-33" points="250.1 66.06 258.8 48.22 262.34 64.24 250.1 66.06"/><polygon class="cls-35" points="335.39 116.49 353.86 129.69 336.83 133.54 335.39 116.49"/><polygon class="cls-29" points="38.09 205.81 21.98 191.34 38.09 188.54 38.09 205.81"/><rect class="cls-36" x="243.8" y="28.68" width="168.23" height="59.44" rx="3.26"/><polygon class="cls-36" points="259.81 74.94 243.79 110.7 297.94 80.18 259.81 74.94"/><rect class="cls-6" x="260.14" y="44.81" width="59.66" height="0.51"/><rect class="cls-6" x="260.14" y="54.43" width="59.66" height="0.51"/><rect class="cls-6" x="260.14" y="64.05" width="59.66" height="0.51"/><rect class="cls-6" x="260.14" y="73.67" width="59.66" height="0.51"/><rect class="cls-35" x="342.67" y="42.61" width="57.2" height="15.79" rx="3.26"/><path class="cls-35" d="M378.43,67.86A1.43,1.43,0,0,1,377,69.3H358a1.43,1.43,0,0,1-1.44-1.44h0A1.44,1.44,0,0,1,358,66.42h19a1.44,1.44,0,0,1,1.44,1.44Z"/><path class="cls-35" d="M407.58,80a1.19,1.19,0,0,1-1.19,1.19H330.13A1.18,1.18,0,0,1,329,80h0a1.18,1.18,0,0,1,1.18-1.19h76.26A1.19,1.19,0,0,1,407.58,80Z"/></g></g></g></svg>