<svg xmlns="http://www.w3.org/2000/svg" xmlns:xlink="http://www.w3.org/1999/xlink" viewBox="0 0 591.57 486.34"><defs><style>.cls-1,.cls-23{fill:none;}.cls-2{isolation:isolate;}.cls-3{fill:#d4e5fc;}.cls-4{fill:#b6cdf8;}.cls-4,.cls-6{opacity:0.8;}.cls-5{clip-path:url(#clip-path);}.cls-7{fill:#4c3dd2;}.cls-37,.cls-8{fill:#d0e2f4;}.cls-11,.cls-15,.cls-30,.cls-8{mix-blend-mode:multiply;}.cls-9{clip-path:url(#clip-path-2);}.cls-10{fill:#87bfe1;}.cls-11{fill:#67c19e;}.cls-11,.cls-30{opacity:0.5;}.cls-12{fill:#195e57;}.cls-13{fill:#fed700;}.cls-14{fill:#f85e63;}.cls-16{fill:#e5e5e5;}.cls-17{fill:#421a34;}.cls-18{fill:#18004c;}.cls-19{fill:#e6a190;}.cls-20{fill:#fff;}.cls-21{fill:#231f20;}.cls-22{fill:#7802ea;}.cls-23{stroke:#fff;stroke-miterlimit:10;}.cls-24{fill:#4b69fd;}.cls-25{fill:#4156f1;}.cls-26{clip-path:url(#clip-path-3);}.cls-27{fill:#e3846c;}.cls-28{fill:#fedab6;}.cls-29{fill:#f2db4c;}.cls-31{fill:#7e4253;}.cls-32{fill:#bceb8f;}.cls-33{fill:#27aae1;}.cls-34{opacity:0.2;}.cls-35{fill:#4d358e;}.cls-36{fill:#2b3990;}.cls-38{fill:#98ccfe;}.cls-39{fill:#4f6aff;}</style><clipPath id="clip-path" transform="translate(-29.34)"><path class="cls-1" d="M232,109.33v42.25s-56.55-6-58-22.75V87.72s1.7,8.69,18.6,13.65S232,109.33,232,109.33Z"/></clipPath><clipPath id="clip-path-2" transform="translate(-29.34)"><rect class="cls-1" x="274.49" y="64.68" width="348.87" height="239.58"/></clipPath><clipPath id="clip-path-3" transform="translate(-29.34)"><rect class="cls-1" y="65.42" width="366.94" height="238.84"/></clipPath></defs><g class="cls-2"><g id="Layer_2" data-name="Layer 2"><g id="Layer_1-2" data-name="Layer 1"><path class="cls-3" d="M174,87.72s-.69-9.18,19.41-15.4,50.09-8.65,50.09-8.65l.61,41.56S177.7,110.1,174,127.77Z" transform="translate(-29.34)"/><path class="cls-3" d="M414.87,87.72s.69-9.18-19.42-15.4-50.09-8.65-50.09-8.65l-.61,41.56s66.38,4.87,70.12,22.54Z" transform="translate(-29.34)"/><path class="cls-3" d="M251.4,63.2v41s51.18-4.24,86.77,3.07V63.2S288.58,57.6,251.4,63.2Z" transform="translate(-29.34)"/><path class="cls-4" d="M232,109.33v42.25s-56.55-6-58-22.75V87.72s1.7,8.69,18.6,13.65S232,109.33,232,109.33Z" transform="translate(-29.34)"/><path class="cls-4" d="M356.86,109.33v42.25s56.54-6,58-22.75V87.72s-1.71,8.69-18.61,13.65S356.86,109.33,356.86,109.33Z" transform="translate(-29.34)"/><g class="cls-5"><g class="cls-6"><path class="cls-7" d="M206.09,118.11c-4.08-.86-7.82-1.74-11.4-2.67a53.32,53.32,0,0,1-13-4.87c-5.34-3-8.46-6.37-9.27-9.91l.23,0c.79,3.42,4,6.79,9.17,9.75a52.89,52.89,0,0,0,13,4.85c3.58.93,7.31,1.8,11.39,2.66Z" transform="translate(-29.34)"/></g><g class="cls-6"><path class="cls-7" d="M206,124.94a145.66,145.66,0,0,1-16.36-4c-7.74-2.5-16.21-5.82-18.59-13.64l.23-.07c2.35,7.7,10.75,11,18.44,13.48a149.1,149.1,0,0,0,16.33,4Z" transform="translate(-29.34)"/></g><g class="cls-6"><path class="cls-7" d="M206,132c-2.78-.57-5.34-1.14-7.83-1.74l-.14,0c-7.91-1.89-16.08-3.85-22.25-9.22-2.65-2.3-4.24-4.56-4.74-6.71l.24-.06c.48,2.1,2.05,4.32,4.66,6.59,6.12,5.32,14.27,7.28,22.15,9.16l.14,0c2.48.59,5,1.16,7.82,1.73Z" transform="translate(-29.34)"/></g></g><path class="cls-7" d="M360.71,143.27V121.92H361V143c1.67-.21,18.13-2.33,26.16-4.85l.08.23c-8.45,2.65-26.17,4.86-26.35,4.88Z" transform="translate(-29.34)"/><path class="cls-7" d="M363.52,138.75h-.25c0-.26.35-6.13,2.16-6.84.48-.19,1,0,1.58.54,1.65,1.58,2.94,2.22,3.93,1.95s1.66-1.31,2.21-3.24c.79-2.77,2-4.46,3.36-4.65,1.13-.15,2.27.71,3.4,2.55l-.2.13c-1.08-1.76-2.15-2.57-3.17-2.43-1.24.17-2.39,1.8-3.16,4.47-.57,2-1.35,3.13-2.38,3.41s-2.44-.37-4.16-2c-.49-.47-.94-.63-1.32-.48C363.85,132.78,363.52,138.69,363.52,138.75Z" transform="translate(-29.34)"/><path class="cls-7" d="M396.85,84.11c-13.79-7.83-47.07-10.7-47.4-10.73l0-.25c.34,0,33.66,2.91,47.5,10.77Z" transform="translate(-29.34)"/><path class="cls-7" d="M392,94c-10.74-6.9-41.24-9.84-41.55-9.87l0-.25c.3,0,30.86,3,41.65,9.91Z" transform="translate(-29.34)"/><path class="cls-7" d="M384.35,100.83c-10.59-4-33.7-6.79-33.93-6.82l0-.24c.23,0,23.37,2.81,34,6.83Z" transform="translate(-29.34)"/><rect class="cls-7" x="205.44" y="71.31" width="0.24" height="26"/><rect class="cls-7" x="196.34" y="71.31" width="0.24" height="26"/><rect class="cls-7" x="187.24" y="71.31" width="0.24" height="26"/><path class="cls-7" d="M307.57,93.1h-.18C304.1,93,300.86,89,296.55,79.76c-1.24-2.65-2.69-4.14-4.41-4.55-3.35-.8-7.62,2.55-12.56,6.43-3.93,3.08-8.38,6.57-13.39,8.87-3.57,1.63-6.25,1.72-8,.26-4.28-3.6-1.27-15.19-1.14-15.68l.38.1c0,.12-3.07,11.84,1,15.28,1.61,1.35,4.15,1.24,7.56-.32,5-2.27,9.4-5.75,13.31-8.82,5-3.94,9.37-7.34,12.9-6.5,1.85.44,3.38,2,4.68,4.76,4.24,9,7.38,13,10.49,13.11,2.34.12,4.72-2,7.3-6.41,5.3-9.08,9.75-14.37,11.91-14.18a1.25,1.25,0,0,1,1.07,1l-.37.13c-.16-.43-.4-.66-.74-.69h-.09c-1.61,0-5.42,3.66-11.44,14C312.45,90.93,310,93.1,307.57,93.1Z" transform="translate(-29.34)"/><path class="cls-8" d="M352.61,208.66a40.3,40.3,0,1,1-40.3-40.3A40.3,40.3,0,0,1,352.61,208.66Z" transform="translate(-29.34)"/><path class="cls-8" d="M395.21,239.27A22.19,22.19,0,1,1,373,217.08,22.19,22.19,0,0,1,395.21,239.27Z" transform="translate(-29.34)"/><path class="cls-8" d="M297,43.64a16.55,16.55,0,1,1-16.54-16.55A16.54,16.54,0,0,1,297,43.64Z" transform="translate(-29.34)"/><g class="cls-9"><path class="cls-10" d="M597.25,214.71c2.75-9.37,2.1-35.38,2.1-35.38C575.44,186.76,548.13,207,548.13,207s2.42,27.47-3.23,29.73-9.21-18.58-9.21-18.58a123.41,123.41,0,0,0-19.31,29.81s13.94,18.66,11.15,22.78S512.26,261,512.26,261c-13.09,38.78,1.7,62.77,1.7,62.77,54.77-4.48,70.28-50.41,70.28-50.41s-29.93,5.09-27-2.54,31-9.09,31-9.09c7.76-15.19,8.4-37.65,8.4-37.65s-17,10.74-17.37,4.44S597.25,214.71,597.25,214.71Zm-76.63,73.43c-2.34,0-4.24-1.49-4.24-3.33s1.9-3.33,4.24-3.33,4.24,1.49,4.24,3.33S523,288.14,520.62,288.14Zm13.7-33.81c-1.54,0-2.79-2.27-2.79-5.08s1.25-5.1,2.79-5.1,2.78,2.28,2.78,5.1S535.86,254.33,534.32,254.33Zm25,27.67c0,2.37-2.5,4.28-5.58,4.28s-5.57-1.91-5.57-4.28,2.5-4.28,5.57-4.28S559.36,279.64,559.36,282Zm2.6-67.23c-2.22-.44-3.44-3.75-2.73-7.42s3.09-6.28,5.31-5.85,3.43,3.75,2.72,7.41S564.18,215.2,562,214.77Zm21.58,27.91c.38,2.08-3,4.43-7.46,5.25s-8.45-.21-8.83-2.29,3-4.44,7.46-5.26S583.16,240.59,583.54,242.68Z" transform="translate(-29.34)"/><path class="cls-11" d="M543.76,316.15c-7.81-17.54-8.94-41.51-7.75-62.87a2.15,2.15,0,0,1-1.69,1.05c-1.54,0-2.79-2.27-2.79-5.08s1.25-5.1,2.79-5.1c.88,0,1.67.76,2.18,1.94.49-6.17,1.15-12,1.86-17.29a82.5,82.5,0,0,1-2.67-10.7,123.41,123.41,0,0,0-19.31,29.81s13.94,18.66,11.15,22.78S512.26,261,512.26,261c-13.09,38.78,1.7,62.77,1.7,62.77A87.25,87.25,0,0,0,543.76,316.15Zm-23.14-34.67c2.34,0,4.24,1.49,4.24,3.33s-1.9,3.33-4.24,3.33-4.24-1.49-4.24-3.33S518.28,281.48,520.62,281.48Z" transform="translate(-29.34)"/><path class="cls-12" d="M596.94,182.73l-7.8,13.11L570,228.09l-24.22,40.74-22.93,38.58-15.32,25.78-2.91,4.89a.45.45,0,0,0,.78.46l7.8-13.11q9.59-16.12,19.16-32.25l24.22-40.73q11.46-19.29,22.93-38.58l15.32-25.78,2.91-4.9a.45.45,0,0,0-.78-.46Z" transform="translate(-29.34)"/><path class="cls-12" d="M530,229.64l19,30.09c.43.67.85,1.35,1.27,2,.31.49,1.1,0,.79-.46L532,231.2c-.42-.68-.85-1.35-1.27-2-.31-.49-1.1,0-.78.46Z" transform="translate(-29.34)"/><path class="cls-12" d="M534,289.82l28.28,4.66c.57.09.82-.78.24-.88L534.19,289c-.57-.1-.82.78-.24.87Z" transform="translate(-29.34)"/><path class="cls-12" d="M566.31,235.6l25-.89c.59,0,.59-.93,0-.91l-25,.89c-.58,0-.59.93,0,.91Z" transform="translate(-29.34)"/><path class="cls-12" d="M574.35,191.44q2.4,10.76,4.79,21.51c.12.57,1,.33.87-.24q-2.38-10.76-4.78-21.51c-.13-.57-1-.33-.88.24Z" transform="translate(-29.34)"/><path class="cls-10" d="M606.76,288c5-4.21,14.15-18.93,14.15-18.93-16-4.63-38.66-3.4-38.66-3.4s-8.72,16.18-12.7,15.37,1.69-13.73,1.69-13.73a82.33,82.33,0,0,0-21.69,9.53s.92,15.5-2.14,16.77-4.95-11-4.95-11c-21.51,16.8-22.08,35.58-22.08,35.58,32.15,17.59,57.63-2.3,57.63-2.3s-18.53-8.14-14.12-11.32,20.59,6.3,20.59,6.3C594.37,305.23,603,293,603,293s-13.38-.24-11.3-3.89S606.76,288,606.76,288Zm-69.6,12.8c-1.3-.86-1.81-2.39-1.14-3.41a2.91,2.91,0,1,1,1.14,3.41Zm20-13.81c-.85-.56-.71-2.29.32-3.86s2.56-2.37,3.42-1.81.71,2.29-.32,3.86S558,287.53,557.18,287ZM561,311.56c-.87,1.32-3,1.47-4.68.34s-2.4-3.11-1.53-4.43,3-1.47,4.67-.34S561.85,310.25,561,311.56Zm26.1-36.49c-1.08-1.05-.54-3.35,1.2-5.13s4-2.36,5.1-1.31.54,3.35-1.2,5.13S588.17,276.12,587.09,275.07Zm1.79,23.46c-.56,1.3-3.28,1.39-6.09.19s-4.63-3.22-4.08-4.52,3.28-1.38,6.09-.19S589.43,297.23,588.88,298.53Z" transform="translate(-29.34)"/><path class="cls-11" d="M539.78,324.86c2.08-12.63,10.24-26.39,18.73-37.86a1.44,1.44,0,0,1-1.33,0c-.85-.56-.71-2.29.32-3.86s2.56-2.37,3.42-1.81a1.79,1.79,0,0,1,.5,1.88c2.54-3.26,5.05-6.27,7.38-8.95a54.21,54.21,0,0,1,2.44-6.94,82.33,82.33,0,0,0-21.69,9.53s.92,15.5-2.14,16.77-4.95-11-4.95-11c-21.51,16.8-22.08,35.58-22.08,35.58A58.22,58.22,0,0,0,539.78,324.86Zm-.18-27.79a2.29,2.29,0,1,1-2.44,3.71c-1.3-.86-1.81-2.39-1.14-3.41A2.57,2.57,0,0,1,539.6,297.07Z" transform="translate(-29.34)"/><path class="cls-12" d="M618.32,270.06l-9.15,4.44-22.5,10.93-28.42,13.81-26.92,13.07-18,8.74-3.42,1.66a.3.3,0,0,0,.27.54l9.15-4.44,22.5-10.93,28.42-13.8L597.18,281l18-8.74,3.41-1.66a.3.3,0,0,0-.26-.54Z" transform="translate(-29.34)"/><path class="cls-12" d="M563.82,271.62l-.45,23.73,0,1.59a.3.3,0,0,0,.6,0l.45-23.73,0-1.58c0-.39-.6-.43-.6,0Z" transform="translate(-29.34)"/><path class="cls-12" d="M544,306.6l14,13c.28.27.74-.13.45-.4l-14-13c-.28-.26-.74.13-.45.4Z" transform="translate(-29.34)"/><path class="cls-12" d="M581.87,288.27l14.23,8.66c.33.2.67-.3.33-.51l-14.22-8.66c-.34-.2-.67.31-.34.51Z" transform="translate(-29.34)"/><path class="cls-12" d="M602.54,266.63l-5.22,13.73c-.14.37.44.55.58.19l5.22-13.73c.14-.37-.44-.56-.58-.19Z" transform="translate(-29.34)"/><path class="cls-10" d="M397.71,197.55c-6.57-7.23-29.11-20.23-29.11-20.23-6.11,24.28-3.1,58.11-3.1,58.11s24.71,12.24,23.69,18.25-20.66-1.82-20.66-1.82a123.49,123.49,0,0,0,15.39,32s23.19-2.17,25.25,2.35-16.23,8-16.23,8c26.28,31.38,54.47,31.26,54.47,31.26,24.71-49.09-6.41-86.25-6.41-86.25s-11.25,28.19-16.26,21.73,8.39-31.18,8.39-31.18C424.21,215.23,405.37,203,405.37,203s.34,20.08-5.25,17.14S397.71,197.55,397.71,197.55Zm22.76,103.66c-1.22,2-3.48,2.84-5.06,1.88s-1.85-3.35-.63-5.35,3.48-2.85,5.05-1.89S421.69,299.21,420.47,301.21Zm-21.73-29.3c-.8,1.31-3.39,1.19-5.79-.28s-3.7-3.71-2.9-5,3.4-1.19,5.8.28S399.54,270.59,398.74,271.91Zm36.67-7c2,1.23,2.35,4.36.75,7s-4.54,3.76-6.56,2.52-2.35-4.36-.75-7S433.39,263.71,435.41,265Zm-56-37.25c-1.52,1.66-5,1-7.74-1.54s-3.76-5.91-2.23-7.57,5-1,7.74,1.53S380.9,226,379.37,227.7Zm35.07-3.89c2,.77,2.25,4.84.6,9.11s-4.58,7.11-6.56,6.35-2.25-4.84-.6-9.11S412.46,223.05,414.44,223.81Z" transform="translate(-29.34)"/><path class="cls-11" d="M456.42,296.05c-19-2.47-40.08-14-57.69-26.13a2.12,2.12,0,0,1,0,2c-.8,1.31-3.39,1.19-5.79-.28s-3.7-3.71-2.9-5a2.7,2.7,0,0,1,2.79-.85c-5-3.64-9.65-7.25-13.79-10.6a82.72,82.72,0,0,1-10.52-3.29,123.49,123.49,0,0,0,15.39,32s23.19-2.17,25.25,2.35-16.23,8-16.23,8c26.28,31.38,54.47,31.26,54.47,31.26A87.2,87.2,0,0,0,456.42,296.05Zm-41.64,1.69c1.22-2,3.48-2.85,5.05-1.89s1.86,3.36.64,5.36-3.48,2.84-5.06,1.88S413.56,299.74,414.78,297.74Z" transform="translate(-29.34)"/><path class="cls-12" d="M370.25,181.15q3.57,6.75,7.13,13.49,8.78,16.58,17.54,33.16l22.16,41.89,21,39.67,14,26.51q1.34,2.52,2.66,5a.46.46,0,0,0,.81-.43L448.41,327q-8.76-16.59-17.54-33.16l-22.15-41.89q-10.5-19.83-21-39.67-7-13.26-14-26.52l-2.67-5a.45.45,0,0,0-.8.43Z" transform="translate(-29.34)"/><path class="cls-12" d="M375.4,262.76l35.59-.55,2.38,0c.58,0,.6-.91,0-.9l-35.59.54-2.38,0a.46.46,0,0,0,0,.91Z" transform="translate(-29.34)"/><path class="cls-12" d="M428.84,290.71q9.36-10.86,18.71-21.71c.38-.44-.24-1.11-.62-.66q-9.36,10.85-18.71,21.71c-.38.44.24,1.1.62.66Z" transform="translate(-29.34)"/><path class="cls-12" d="M399.42,234.84l12.25-21.77c.29-.51-.49-1-.78-.47l-12.24,21.76c-.29.51.48,1,.77.48Z" transform="translate(-29.34)"/><path class="cls-12" d="M365.92,205l20.85,7.12c.56.19.81-.69.25-.87l-20.85-7.13c-.55-.18-.8.69-.25.88Z" transform="translate(-29.34)"/><path class="cls-10" d="M358.17,257.26c-5.47-3-21.8-6.22-21.8-6.22,1.32,16,10.15,35.81,10.15,35.81S364,289.14,364.63,293s-12.88,3.17-12.88,3.17a78.94,78.94,0,0,0,15.93,16.19s13.59-6.11,15.77-3.8-8.17,8.19-8.17,8.19c22.4,13.54,39.43,7.64,39.43,7.64C419.5,289.56,393,273.51,393,273.51s-1,19.39-5.34,16.52-1.37-20.6-1.37-20.6c-8.41-6.95-22.34-10.47-22.34-10.47s4.36,12.08.36,11.46S358.17,257.26,358.17,257.26Zm35.22,58a2.19,2.19,0,1,1-1.49-3.11A2.49,2.49,0,0,1,393.39,315.28ZM374.18,302c-.21,1-1.81,1.43-3.56,1s-3-1.49-2.79-2.45,1.8-1.42,3.56-1S374.39,301.08,374.18,302Zm20.75-11.79c1.47.32,2.32,2.15,1.9,4.07s-2,3.21-3.45,2.89-2.33-2.16-1.9-4.08S393.45,289.92,394.93,290.25ZM353.31,279.3c-.58,1.32-2.82,1.62-5,.67s-3.5-2.8-2.92-4.12,2.82-1.63,5-.67S353.89,278,353.31,279.3Zm20.42-9.61c1.35.06,2.36,2.47,2.24,5.39s-1.3,5.25-2.65,5.2-2.36-2.47-2.25-5.39S372.37,269.64,373.73,269.69Z" transform="translate(-29.34)"/><path class="cls-11" d="M414.08,304.72c-12,2.44-27.15-.18-40.32-3.88a1.38,1.38,0,0,1,.42,1.2c-.21,1-1.81,1.43-3.56,1s-3-1.49-2.79-2.45c.12-.55.7-.94,1.5-1.09-3.78-1.17-7.34-2.39-10.53-3.56a52.8,52.8,0,0,1-7.05.18,78.94,78.94,0,0,0,15.93,16.19s13.59-6.11,15.77-3.8-8.17,8.19-8.17,8.19c22.4,13.54,39.43,7.64,39.43,7.64A56,56,0,0,0,414.08,304.72Zm-24.85,9.64a2.19,2.19,0,1,1,1.49,3.11A2.47,2.47,0,0,1,389.23,314.36Z" transform="translate(-29.34)"/><path class="cls-12" d="M338.16,253l7.11,6.68,17.47,16.44q11,10.38,22.07,20.77l20.91,19.66,14,13.14,2.65,2.5a.29.29,0,0,0,.4-.43l-7.11-6.68-17.47-16.44L376.09,287.9l-20.91-19.67-14-13.14-2.65-2.5a.29.29,0,0,0-.4.43Z" transform="translate(-29.34)"/><path class="cls-12" d="M358.16,301.33l21.42-7.69,1.44-.51c.35-.13.17-.69-.18-.56l-21.42,7.7-1.44.51c-.35.13-.17.68.18.55Z" transform="translate(-29.34)"/><path class="cls-12" d="M396.29,307.19l6.82-17c.14-.34-.37-.62-.51-.27l-6.83,17c-.14.34.38.62.52.27Z" transform="translate(-29.34)"/><path class="cls-12" d="M366.92,279.47l2.91-15.71c.07-.36-.5-.49-.57-.12q-1.45,7.85-2.9,15.7c-.07.37.49.5.56.13Z" transform="translate(-29.34)"/><path class="cls-12" d="M340.47,268.33h14.09c.38,0,.35-.58,0-.58H340.44c-.38,0-.35.58,0,.58Z" transform="translate(-29.34)"/><path class="cls-13" d="M461.73,164.08c-7.6,15-23.22,24-38.6,26.47s-30.68-.8-45.37-4.85c-27-7.44-53.81-18.07-74.24-37.79a86,86,0,0,1,20.19-37.08C341.55,123.57,363,131.67,383.5,139c9.33,3.33,18.76,6.5,28.52,8.33,16,3,33.53,2.67,46.82,12.19C460.29,160.56,462.61,162.33,461.73,164.08Z" transform="translate(-29.34)"/><path class="cls-14" d="M304.47,144.79c-6.55-4.18-12.7-9.8-15.24-17.61-.41-1.25-.67-2.8.15-3.88a2.68,2.68,0,0,1,2.85-.82,7.14,7.14,0,0,1,2.56,1.64,14,14,0,0,1-2.6-5.91c-.25-2.22.77-4.87,2.78-5.65s4.31.72,5.81,2.42a14.51,14.51,0,0,1-.91-5.66,7.51,7.51,0,0,1,.9-3.57,3.26,3.26,0,0,1,2.91-1.74c1.35.14,2.23,1.45,2.95,2.65,1.57,2.62,3.58,4.75,5.14,7.37a9,9,0,0,1,1.5-7.27,5.31,5.31,0,0,1,2.59-2,2.64,2.64,0,0,1,2.87.76,5.18,5.18,0,0,1,.68,3l.15,6.9C312.33,123.83,306.7,133.81,304.47,144.79Z" transform="translate(-29.34)"/><g class="cls-15"><path class="cls-16" d="M373.71,185.5s24.73-23.49,57.17-28.94c0,0-68.32-13.64-88.87,16.72Z" transform="translate(-29.34)"/></g><path class="cls-14" d="M424.48,95.57c-10.36,6.59-14,21.36-6.21,31.28a21.3,21.3,0,0,0,14.56,7.86c7.05.61,13.47-2.58,18.06-7.8,5.67-6.46,8.1-15.89,3.43-23.67-4-6.62-11.76-10.58-19.41-10.57A19.46,19.46,0,0,0,424.48,95.57Z" transform="translate(-29.34)"/><path class="cls-17" d="M434.24,116.49a1.54,1.54,0,1,1-1.21-1.81A1.54,1.54,0,0,1,434.24,116.49Z" transform="translate(-29.34)"/><g class="cls-15"><path class="cls-18" d="M424,113.92a14,14,0,0,0-.8,7.16c.06.46.87.35.81-.11a15.78,15.78,0,0,1,.52-6.9c.1-.34-.41-.47-.53-.15Z" transform="translate(-29.34)"/></g><g class="cls-15"><path class="cls-19" d="M436,118.44a4.42,4.42,0,1,0,5.2-3.46A4.41,4.41,0,0,0,436,118.44Z" transform="translate(-29.34)"/></g><g class="cls-15"><path class="cls-18" d="M423.74,128.36a9.56,9.56,0,0,0,9.39-3.47c.26-.33-.21-.81-.47-.47a9.25,9.25,0,0,1-8.8,3.5c-.29,0-.41.39-.12.44Z" transform="translate(-29.34)"/></g><path class="cls-20" d="M433.47,123.08h0A7.76,7.76,0,1,1,439.92,111a7.75,7.75,0,0,1-2.15,10.76A7.76,7.76,0,0,1,433.47,123.08Zm0-15a7.13,7.13,0,0,0-4,1.22,7.2,7.2,0,0,0,4,13.19h0a7.21,7.21,0,0,0,0-14.41Z" transform="translate(-29.34)"/><path class="cls-20" d="M415.45,122.07h0a8,8,0,0,1-1.53-.16,7.76,7.76,0,0,1,1.52-15.37,7.93,7.93,0,0,1,1.53.15,7.77,7.77,0,0,1-1.52,15.38Zm0-15a7.22,7.22,0,0,0-7.06,5.8,7.21,7.21,0,0,0,5.65,8.48,7.59,7.59,0,0,0,1.42.14,7.21,7.21,0,0,0,1.41-14.27A6.85,6.85,0,0,0,415.44,107.09Z" transform="translate(-29.34)"/><path class="cls-20" d="M421.65,110.81a5.3,5.3,0,0,1,5.7,0c.36.24.72-.36.34-.58a5.37,5.37,0,0,0-6.25.34c-.15.14.05.37.21.28Z" transform="translate(-29.34)"/><path class="cls-14" d="M453.67,123a99.44,99.44,0,0,0,5.38,20.75c-1.82,6.35-2.73,11.39-8,14.66-3.45,2.13-7.79,3.59-11.52,2-3.54-1.48-5.52-5.21-7.06-8.73a7.48,7.48,0,0,1-.71-2.33,8.8,8.8,0,0,1,.54-3c1.11-3.88,1.36-8.25-.57-11.8C440.18,131.88,446.86,128.64,453.67,123Z" transform="translate(-29.34)"/><path class="cls-18" d="M451.53,126.38a27.66,27.66,0,0,1-9,6.59,19.78,19.78,0,0,1-10.93,1.63,2.72,2.72,0,0,1,.34.78,19.56,19.56,0,0,1,1.14,6.45s5.26-1.52,5.75-1.73a31.14,31.14,0,0,0,7.93-5.1C449.17,132.93,452,129.77,451.53,126.38Z" transform="translate(-29.34)"/><path class="cls-18" d="M452.66,88.71a10.05,10.05,0,0,1,4.14-6.28,1.42,1.42,0,0,1,.62-.23c.77,0,.92,1.09.78,1.84a32.6,32.6,0,0,1-4.77,12,19.49,19.49,0,0,1,9.14-8.16,6.76,6.76,0,0,1,3.54-.71,1.12,1.12,0,0,1,.6.22A.93.93,0,0,1,467,88a3.66,3.66,0,0,1-1,2.37,21.37,21.37,0,0,1-10,7C450.53,99.24,451.9,91.83,452.66,88.71Z" transform="translate(-29.34)"/><path class="cls-17" d="M419.42,115.1a1.54,1.54,0,1,1-1.21-1.81A1.54,1.54,0,0,1,419.42,115.1Z" transform="translate(-29.34)"/><path class="cls-18" d="M453.38,97.57c-1.38-5-6.58-8.3-11.76-8.66-2.75-.19-5.53.3-8.29.13s-5.7-1.23-7.09-3.62-.95-5.84-3-7.83a5.54,5.54,0,0,0-4.35-1.36,8,8,0,0,0-5.32,13.33c-1.41-.6-3.49.37-4.56,1.48a4.34,4.34,0,0,0-1.42,3.64,4,4,0,0,0,.73,1.55A7.4,7.4,0,0,0,412.21,99a2.67,2.67,0,0,0-2.12,1.79,4.41,4.41,0,0,0,.41,2.64,11.86,11.86,0,0,0,3.72,4.4A21.9,21.9,0,0,0,431,111.74a27.57,27.57,0,0,0,15.27-8.47c-1.09,1.46-2.05,3.55-.93,5a3,3,0,0,0,3.74.48,8.11,8.11,0,0,0,2.75-3,22.51,22.51,0,0,0,.7,15.56,4.48,4.48,0,0,0,1.1,1.64,1.72,1.72,0,0,0,1.84.3,2.6,2.6,0,0,0,.92-1.12,37.1,37.1,0,0,0,2.15-4.33,19.61,19.61,0,0,0-.77-15.94A9.45,9.45,0,0,0,453.38,97.57Z" transform="translate(-29.34)"/><path class="cls-17" d="M416.94,223.82,412.7,468h58.91l2.83-122.07,23.1,123.55L575.3,468s3.46-22.78-7.54-40.06-22.94-30.16-20.42-50.27-3.77-40.54-12-52.16-3.45-40.53-8.79-64.1-16-37.55-16-37.55Z" transform="translate(-29.34)"/><path class="cls-13" d="M432.28,146.29s8.7,9.51,26.77-2.59c0,0,28.9.79,41,22.78s10.52,57.34,10.52,57.34H416.94S412.34,151.83,432.28,146.29Z" transform="translate(-29.34)"/><path class="cls-13" d="M466.14,189.73,513.69,251c7.1,9.15,22.59,7.4,30,0a21.31,21.31,0,0,0,6.22-15c0-6.18-2.59-10.32-6.22-15l-47.55-61.27c-7.1-9.15-22.59-7.4-30,0a21.31,21.31,0,0,0-6.22,15c0,6.18,2.59,10.32,6.22,15Z" transform="translate(-29.34)"/><polygon class="cls-20" points="444.63 345.98 430.12 270.88 431.05 270.71 445.56 345.8 444.63 345.98"/><rect class="cls-20" x="392.19" y="459.13" width="44.18" height="0.94"/><rect class="cls-20" x="476.91" y="459.13" width="60.51" height="0.94"/><rect class="cls-20" x="413.6" y="238.76" width="20.61" height="0.94" transform="translate(-30.62 476.2) rotate(-58.57)"/><path class="cls-21" d="M314.55,149c2.53-14.37,14.29-27.09,14.41-27.21l.69.64c-.12.13-11.69,12.65-14.17,26.73Z" transform="translate(-29.34)"/><path class="cls-20" d="M469.7,157.61l-.88-.33a12.4,12.4,0,0,1,6.37-6.59c3.18-1.32,6.91-1,11.08.88l-.39.86c-3.93-1.8-7.4-2.09-10.33-.88A11.6,11.6,0,0,0,469.7,157.61Z" transform="translate(-29.34)"/><rect class="cls-20" x="387.6" y="223.35" width="37.55" height="0.94"/><path class="cls-22" d="M471.61,468s1.57,17-10.52,18.38h-101S370.44,468,412.7,468Z" transform="translate(-29.34)"/><path class="cls-22" d="M575.75,468s1.57,17-10.53,18.38h-101S474.57,468,516.83,468Z" transform="translate(-29.34)"/><path class="cls-18" d="M484.15,221.76a4.4,4.4,0,0,1-4.48,5.5h-78a7.2,7.2,0,0,1-6.75-5.5l-10.53-50.84a4.4,4.4,0,0,1,4.48-5.5h78a7.2,7.2,0,0,1,6.75,5.5Z" transform="translate(-29.34)"/><line class="cls-23" x1="445.49" y1="223.96" x2="375.8" y2="223.96"/><path class="cls-23" d="M389.7,173.62a3.94,3.94,0,0,1,4-4.91H463.4a6.44,6.44,0,0,1,6,4.91" transform="translate(-29.34)"/><path class="cls-20" d="M434,191.34a6.58,6.58,0,0,1,.63-2.81,6.68,6.68,0,1,0,4.26,9.24A6.67,6.67,0,0,1,434,191.34Z" transform="translate(-29.34)"/><path class="cls-14" d="M466.74,226.42c-8-3.36-15.75-8.24-20-15.78-.68-1.21-1.25-2.73-.55-3.93a3,3,0,0,1,3-1.19,8.58,8.58,0,0,1,3.1,1.32c-1.6-1.66-3.26-3.41-3.94-5.61s-.07-5,2-6.06c2.21-1.13,4.87.17,6.83,1.69a14.35,14.35,0,0,1-2-5.58,6.81,6.81,0,0,1,.32-3.72,3.39,3.39,0,0,1,2.87-2.13c1.5,0,2.71,1.18,3.72,2.29,2.21,2.44,4.81,4.33,7,6.77a8.4,8.4,0,0,1,.3-7.52,5.32,5.32,0,0,1,2.47-2.38,3.16,3.16,0,0,1,3.28.4,5.26,5.26,0,0,1,1.32,3l1.44,6.93C472.73,205.38,468.08,214.85,466.74,226.42Z" transform="translate(-29.34)"/><path class="cls-21" d="M456.59,196.22c1.6,3.32,4.46,5.67,7.34,7.86.58.44,1.17-.55.58-1-2.8-2.05-5.62-4.11-7.27-7.26-.22-.44-.87-.05-.65.39Z" transform="translate(-29.34)"/><path class="cls-21" d="M451.2,206.7a34.26,34.26,0,0,0,8.5,7.88c.68.44,1.31-.65.63-1.09a42.36,42.36,0,0,1-8.58-7.34c-.34-.39-.85.17-.55.55Z" transform="translate(-29.34)"/><path class="cls-13" d="M477.85,194.88s70.4,22.5,72,39.47-11,27.88-28.75,23.8c-15.76-3.61-54.41-31.73-54.41-31.73S468,206.55,477.85,194.88Z" transform="translate(-29.34)"/><rect class="cls-20" x="497.76" y="186.67" width="0.94" height="31.57" transform="translate(100.81 594.55) rotate(-68.92)"/><path class="cls-21" d="M467.85,221.19l-.94-.07c.94-13,8.79-25.23,8.86-25.35l.8.51C476.49,196.4,468.78,208.42,467.85,221.19Z" transform="translate(-29.34)"/><rect class="cls-20" x="487.52" y="224.82" width="0.94" height="32.42" transform="translate(-10.59 516.79) rotate(-56.73)"/></g><path class="cls-24" d="M246.25,32a14.34,14.34,0,0,1-14.34,14.34H174A14.34,14.34,0,0,1,159.63,32h0A14.34,14.34,0,0,1,174,17.69h57.94A14.34,14.34,0,0,1,246.25,32Z" transform="translate(-29.34)"/><path class="cls-24" d="M178.65,43.64c-.29.1.49,16.78.49,16.78l10-15.9Z" transform="translate(-29.34)"/><path class="cls-20" d="M176.79,27.85h51.9a.21.21,0,0,0,0-.42h-51.9a.21.21,0,0,0,0,.42Z" transform="translate(-29.34)"/><path class="cls-20" d="M176.79,32.92h51.9a.21.21,0,0,0,0-.42h-51.9a.21.21,0,0,0,0,.42Z" transform="translate(-29.34)"/><path class="cls-20" d="M176.79,38H214a.22.22,0,0,0,0-.43H176.79a.22.22,0,0,0,0,.43Z" transform="translate(-29.34)"/><path class="cls-24" d="M431.46,34.26A12.76,12.76,0,0,1,418.7,47H360.29a12.75,12.75,0,0,1-12.75-12.75h0A12.75,12.75,0,0,1,360.29,21.5H418.7a12.76,12.76,0,0,1,12.76,12.76Z" transform="translate(-29.34)"/><polyline class="cls-24" points="387.12 43.06 387.12 59.37 377.65 44.77 387.77 43.06"/><path class="cls-20" d="M355.63,31.46c.16,2.51-.51,5.46.85,7.74s4.07-2,4.57-2.67c.65-.82,1.28-1.67,1.91-2.51.87-1.16,2-3.86,2.61-1.25.45,1.78.69,3.61,1.17,5.38.78,2.8,3.13,1.17,4.73.12a58.72,58.72,0,0,0,5.17-4.12c1.88-1.56,3.85-3.4,6.62-2.93,1.83.31,3.26,2.37,4.17,3.77,1.6,2.47,2.48,5,5.87,4.43,1.43-.24,2.68-1.48,3.71-2.39,2-1.74,4.86-5,8.11-2.13A14.2,14.2,0,0,0,408.05,37a6.19,6.19,0,0,0,3.6.42c2.54-.46,5.26-.72,7.74-1.4a.49.49,0,0,0-.27-.95c-1.33.36-1.88,0-3.05.29a35.64,35.64,0,0,1-5.69,1.15c-3.23.16-4.51-4.07-7.34-3.83-2.38.2-4,1.33-5.81,2.85-2.27,1.94-4.94,5.18-7.84,1.06-.68-1-1-2.12-1.77-3.07-3.24-4.16-6.57-4-10.57-.92-1.11.85-8.36,7.72-9.35,5.32s-1-5.32-1.93-7.84c-.11-.31-.58-.54-.82-.22-1.88,2.41-3.88,4.8-5.61,7.31-2.66,3.87-2.7-2-2.71-2.81s.05-1.91,0-2.86c0-.64-1-.64-1,0Z" transform="translate(-29.34)"/><rect class="cls-25" x="441.05" y="104.71" width="25.11" height="17.28" rx="1.99"/><polygon class="cls-25" points="449.44 120.49 444.78 126.21 444.78 120.49 449.44 120.49"/><rect class="cls-24" x="448.65" y="88.92" width="39.85" height="27.42" rx="3.16"/><polygon class="cls-24" points="475.19 113.98 482.59 123.05 482.59 113.98 475.19 113.98"/><path class="cls-20" d="M490.57,102.63a2.42,2.42,0,1,1-2.41-2.42A2.41,2.41,0,0,1,490.57,102.63Z" transform="translate(-29.34)"/><path class="cls-20" d="M500.34,102.63a2.42,2.42,0,1,1-2.42-2.42A2.42,2.42,0,0,1,500.34,102.63Z" transform="translate(-29.34)"/><path class="cls-20" d="M510.11,102.63a2.42,2.42,0,1,1-2.42-2.42A2.42,2.42,0,0,1,510.11,102.63Z" transform="translate(-29.34)"/><path class="cls-24" d="M332.83,27.33H300.67a3.55,3.55,0,0,1-3.55-3.55v-18a3.56,3.56,0,0,1,3.55-3.55h32.16a3.56,3.56,0,0,1,3.55,3.55v18A3.55,3.55,0,0,1,332.83,27.33ZM300.67,3.06a2.77,2.77,0,0,0-2.76,2.76v18a2.77,2.77,0,0,0,2.76,2.76h32.16a2.77,2.77,0,0,0,2.76-2.76v-18a2.77,2.77,0,0,0-2.76-2.76Z" transform="translate(-29.34)"/><polygon class="cls-24" points="287.4 17.33 268.03 5.54 268.44 4.87 287.42 16.41 306.45 5.48 306.84 6.17 287.4 17.33"/><rect class="cls-24" x="302.65" y="17.3" width="10.95" height="0.79" transform="matrix(0.77, -0.64, 0.64, 0.77, 31.47, 202.33)"/><rect class="cls-24" x="326.27" y="11.76" width="0.79" height="11.23" transform="translate(61.07 243.64) rotate(-46.81)"/><path class="cls-24" d="M340.43,4.66A4.67,4.67,0,1,1,335.76,0,4.67,4.67,0,0,1,340.43,4.66Z" transform="translate(-29.34)"/><g class="cls-26"><path class="cls-27" d="M288.46,270.15c7.84-5.83,23-27,23-27-23.56-8.47-57.52-8.81-57.52-8.81s-14.62,23.38-20.5,21.78,3.85-20.38,3.85-20.38a123.22,123.22,0,0,0-33.37,12.16s-.13,23.29-4.83,24.9-6.35-16.94-6.35-16.94C158.93,278.94,156.27,307,156.27,307c46.41,29.42,86.47,2.12,86.47,2.12s-27-14-20-18.32,30.21,11.42,30.21,11.42c15.34-7.45,29.39-25,29.39-25s-20-1.65-16.54-6.92S288.46,270.15,288.46,270.15Zm-105.4,12.43c-1.87-1.41-2.49-3.75-1.38-5.22s3.52-1.51,5.39-.1,2.49,3.75,1.38,5.21S184.93,284,183.06,282.58Zm31.3-18.73c-1.23-.93-.85-3.5.84-5.74s4.06-3.31,5.29-2.39.85,3.5-.84,5.75S215.59,264.78,214.36,263.85ZM217.67,301c-1.42,1.89-4.57,1.91-7,.06s-3.29-4.89-1.87-6.78,4.58-1.91,7-.05S219.1,299.13,217.67,301Zm42.59-52.09c-1.51-1.68-.48-5.07,2.29-7.56s6.25-3.15,7.76-1.47.49,5.06-2.29,7.55S261.77,250.61,260.26,248.93Zm.41,35.28c-.95,1.89-5,1.75-9.12-.3s-6.62-5.27-5.67-7.16,5-1.76,9.12.3S261.63,282.31,260.67,284.21Z" transform="translate(-29.34)"/><path class="cls-11" d="M184.65,318.87c4.33-18.7,17.87-38.51,31.69-54.84a2.17,2.17,0,0,1-2-.18c-1.23-.93-.85-3.5.84-5.74s4.06-3.31,5.29-2.39a2.69,2.69,0,0,1,.58,2.86c4.12-4.62,8.16-8.89,11.9-12.68a81.61,81.61,0,0,1,4.32-10.14,123.22,123.22,0,0,0-33.37,12.16s-.13,23.29-4.83,24.9-6.35-16.94-6.35-16.94C158.93,278.94,156.27,307,156.27,307A87.42,87.42,0,0,0,184.65,318.87Zm2.42-41.61c1.87,1.41,2.49,3.75,1.38,5.21s-3.52,1.52-5.39.11-2.49-3.75-1.38-5.22S185.2,275.85,187.07,277.26Z" transform="translate(-29.34)"/><path class="cls-12" d="M307.48,244.44l-14.12,5.77-34.73,14.18-43.87,17.92-41.55,17-27.76,11.34-5.27,2.16a.46.46,0,0,0,.35.84l14.12-5.77,34.73-14.19,43.87-17.92,41.54-17,27.77-11.34,5.27-2.15a.46.46,0,0,0-.35-.84Z" transform="translate(-29.34)"/><path class="cls-12" d="M225.77,241.52l-3,35.47c-.06.79-.13,1.58-.2,2.37,0,.58.86.69.91.11q1.49-17.73,3-35.47c.07-.79.13-1.58.2-2.37.05-.59-.85-.7-.9-.11Z" transform="translate(-29.34)"/><path class="cls-12" d="M192.68,292l19.76,20.76c.41.42,1.13-.13.72-.56q-9.87-10.38-19.76-20.75c-.4-.43-1.12.13-.72.55Z" transform="translate(-29.34)"/><path class="cls-12" d="M251.18,268.18l20.45,14.33c.48.34,1-.39.55-.73l-20.45-14.33c-.48-.33-1,.39-.55.73Z" transform="translate(-29.34)"/><path class="cls-12" d="M284.21,237.78q-4.57,10-9.14,20c-.25.53.6.87.84.34q4.57-10,9.14-20.05c.25-.54-.6-.87-.84-.34Z" transform="translate(-29.34)"/><path class="cls-27" d="M90.68,187.8c-6.56-7.23-29.11-20.23-29.11-20.23-6.11,24.28-3.1,58.11-3.1,58.11s24.71,12.24,23.69,18.25-20.66-1.82-20.66-1.82a123.49,123.49,0,0,0,15.39,32s23.19-2.17,25.25,2.35-16.23,8-16.23,8c26.29,31.37,54.47,31.25,54.47,31.25,24.71-49.09-6.41-86.25-6.41-86.25s-11.25,28.2-16.26,21.74S126.1,220,126.1,220c-8.92-14.54-27.76-26.79-27.76-26.79s.34,20.08-5.25,17.14S90.68,187.8,90.68,187.8Zm22.76,103.66c-1.22,2-3.48,2.84-5,1.88s-1.86-3.35-.64-5.35,3.48-2.84,5.06-1.88S114.66,289.46,113.44,291.46Zm-21.72-29.3c-.81,1.31-3.4,1.19-5.8-.27s-3.69-3.72-2.89-5,3.4-1.19,5.8.28S92.52,260.84,91.72,262.16Zm36.66-7c2,1.23,2.36,4.36.75,7s-4.54,3.76-6.56,2.52-2.35-4.36-.75-7S126.36,254,128.38,255.2ZM72.35,218c-1.53,1.67-5,1-7.75-1.54s-3.76-5.91-2.23-7.57,5-1,7.74,1.53S73.87,216.28,72.35,218Zm35.06-3.89c2,.77,2.25,4.85.6,9.11s-4.58,7.11-6.56,6.35-2.24-4.84-.6-9.11S105.43,213.3,107.41,214.06Z" transform="translate(-29.34)"/><path class="cls-11" d="M149.4,286.31c-19-2.47-40.09-14-57.7-26.14a2.15,2.15,0,0,1,0,2c-.81,1.31-3.4,1.19-5.8-.27s-3.69-3.72-2.89-5a2.68,2.68,0,0,1,2.78-.85c-5-3.64-9.65-7.25-13.79-10.6a82.72,82.72,0,0,1-10.52-3.29,123.49,123.49,0,0,0,15.39,32s23.19-2.17,25.25,2.35-16.23,8-16.23,8c26.29,31.37,54.47,31.25,54.47,31.25A87.48,87.48,0,0,0,149.4,286.31ZM107.75,288c1.22-2,3.48-2.84,5.06-1.88s1.85,3.35.63,5.35-3.48,2.84-5,1.88S106.53,290,107.75,288Z" transform="translate(-29.34)"/><path class="cls-12" d="M63.22,171.4l7.14,13.49,17.53,33.16,22.16,41.89,21,39.67,14,26.51,2.67,5a.45.45,0,0,0,.8-.43l-7.14-13.49-17.53-33.16-22.16-41.89-21-39.67L66.69,176,64,171a.45.45,0,0,0-.8.43Z" transform="translate(-29.34)"/><path class="cls-12" d="M68.37,253l35.59-.55,2.38,0c.58,0,.61-.92,0-.91l-35.59.54-2.38,0a.46.46,0,0,0,0,.91Z" transform="translate(-29.34)"/><path class="cls-12" d="M121.82,281l18.7-21.71c.38-.44-.24-1.11-.62-.66L121.2,280.3c-.38.44.24,1.1.62.66Z" transform="translate(-29.34)"/><path class="cls-12" d="M92.4,225.09l12.24-21.77c.29-.51-.49-1-.77-.47q-6.14,10.88-12.25,21.77c-.29.5.49,1,.78.47Z" transform="translate(-29.34)"/><path class="cls-12" d="M58.89,195.22l20.85,7.12c.56.19.81-.68.26-.87l-20.86-7.13c-.55-.18-.8.69-.25.88Z" transform="translate(-29.34)"/><path class="cls-27" d="M51.14,247.51c-5.47-3-21.8-6.22-21.8-6.22,1.33,16,10.15,35.81,10.15,35.81S57,279.39,57.6,283.24s-12.88,3.17-12.88,3.17A78.85,78.85,0,0,0,60.66,302.6s13.58-6.11,15.76-3.8S68.25,307,68.25,307c22.4,13.55,39.43,7.64,39.43,7.64C112.47,279.82,86,263.76,86,263.76s-1,19.39-5.33,16.52-1.38-20.6-1.38-20.6c-8.41-7-22.34-10.47-22.34-10.47s4.36,12.08.37,11.46S51.14,247.51,51.14,247.51Zm35.22,58a2.19,2.19,0,1,1-1.49-3.11A2.48,2.48,0,0,1,86.36,305.53ZM67.15,292.29c-.21,1-1.81,1.43-3.56,1s-3-1.49-2.79-2.45,1.81-1.42,3.56-1S67.36,291.33,67.15,292.29ZM87.9,280.5c1.47.32,2.33,2.15,1.9,4.07s-2,3.21-3.45,2.89-2.32-2.16-1.9-4.08S86.42,280.17,87.9,280.5ZM46.28,269.55c-.57,1.32-2.81,1.62-5,.67s-3.5-2.8-2.92-4.12,2.82-1.63,5-.67S46.86,268.22,46.28,269.55Zm20.42-9.61c1.36.06,2.36,2.47,2.25,5.39s-1.31,5.25-2.66,5.2-2.36-2.47-2.25-5.39S65.35,259.89,66.7,259.94Z" transform="translate(-29.34)"/><path class="cls-11" d="M107.05,295c-12,2.44-27.15-.17-40.32-3.88a1.36,1.36,0,0,1,.42,1.2c-.21,1-1.81,1.43-3.56,1s-3-1.49-2.79-2.45c.12-.55.7-.94,1.51-1.09-3.79-1.17-7.34-2.39-10.54-3.56a52.8,52.8,0,0,1-7.05.18A78.85,78.85,0,0,0,60.66,302.6s13.58-6.11,15.76-3.8S68.25,307,68.25,307c22.4,13.55,39.43,7.64,39.43,7.64A55.78,55.78,0,0,0,107.05,295ZM82.2,304.61a2.19,2.19,0,1,1,1.49,3.11A2.48,2.48,0,0,1,82.2,304.61Z" transform="translate(-29.34)"/><path class="cls-12" d="M31.13,243.27,38.24,250l17.47,16.44,22.08,20.77,20.9,19.66,14,13.14,2.65,2.5a.29.29,0,0,0,.4-.43l-7.11-6.68L91.13,298.91,69.06,278.15,48.15,258.48l-14-13.14-2.65-2.5c-.27-.26-.67.17-.4.43Z" transform="translate(-29.34)"/><path class="cls-12" d="M51.13,291.58l21.42-7.69,1.44-.51c.35-.13.17-.68-.18-.56l-21.42,7.7L51,291c-.36.13-.18.68.17.55Z" transform="translate(-29.34)"/><path class="cls-12" d="M89.26,297.44q3.4-8.51,6.83-17c.13-.35-.38-.62-.52-.28q-3.41,8.5-6.83,17c-.13.35.38.62.52.27Z" transform="translate(-29.34)"/><path class="cls-12" d="M59.89,269.72,62.8,254c.07-.37-.5-.5-.57-.13q-1.45,7.85-2.9,15.7c-.07.37.5.5.56.13Z" transform="translate(-29.34)"/><path class="cls-12" d="M33.44,258.58H47.53c.38,0,.35-.58,0-.58H33.41c-.37,0-.34.58,0,.58Z" transform="translate(-29.34)"/><path class="cls-14" d="M162.45,124.45a26.12,26.12,0,0,1-3,13.2,24.83,24.83,0,0,0,15.25,9.82,10.19,10.19,0,0,0,5.29-.09,4.76,4.76,0,0,0,3.33-3.81c.23-2.4-1.81-4.3-3.28-6.22a15.57,15.57,0,0,1-3.15-10.74,7.33,7.33,0,0,1,1.5-4.21C173.3,123.85,167.66,125.15,162.45,124.45Z" transform="translate(-29.34)"/><g class="cls-15"><path class="cls-17" d="M163.06,124.21c1.49,1.18,3.57,1.21,5.47,1.05a21.33,21.33,0,0,0,9.77-2.86,7.9,7.9,0,0,0-1.37,6.38c.06.34-4,0-4.27-.07a17.24,17.24,0,0,1-5.89-1.29,9.94,9.94,0,0,1-2.06-1.33C164.08,125.56,163.67,124.69,163.06,124.21Z" transform="translate(-29.34)"/></g><path class="cls-24" d="M179.25,136l-10.06,5.7-8.94-6.07L136,136s-13.9.5-7.7,12.9,20.13,41.31,35.88,43.15,39.17-14.33,49.06-30.25,7.53-25.63-1.68-25.8S179.25,136,179.25,136Z" transform="translate(-29.34)"/><path class="cls-17" d="M155.46,181.09s28.59-4.92,42.44,4,29,32.95,41.55,116.49,20.46,151.45,20.46,151.45h-62.1L169.3,269,152.24,453.05H96S87.11,191.92,155.46,181.09Z" transform="translate(-29.34)"/><path class="cls-24" d="M228.6,146.74,278,211.13c3.35,4.37,3.58,11.75,2.19,16.79a21.8,21.8,0,0,1-26.79,15.21c-6-1.65-9.38-5.28-13-10L191,168.73c-3.35-4.37-3.58-11.75-2.19-16.79a21.8,21.8,0,0,1,26.79-15.21c6,1.65,9.38,5.28,13,10Z" transform="translate(-29.34)"/><path class="cls-24" d="M151.6,170.57,102.16,235c-3.63,4.73-7,8.36-13,10a21.8,21.8,0,0,1-26.79-15.21c-1.39-5-1.16-12.43,2.19-16.79L114,148.59c3.63-4.73,7-8.36,13-10a21.8,21.8,0,0,1,26.79,15.21c1.39,5,1.16,12.42-2.19,16.78Z" transform="translate(-29.34)"/><path class="cls-22" d="M197.81,453.05h62.1s26.8-1.12,33.5,16.42l-95.6.85Z" transform="translate(-29.34)"/><path class="cls-22" d="M151.85,453.05H89.75s-26.8-1.12-33.5,16.42l95.6.85Z" transform="translate(-29.34)"/><polygon class="cls-20" points="140.3 268.99 142.31 201.76 141.64 201.74 139.63 268.98 140.3 268.99"/><path class="cls-20" d="M213,218.6l.2-.64c-16.21-5-23.63-20-23.7-20.15l-.61.29C189,198.25,196.51,213.48,213,218.6Z" transform="translate(-29.34)"/><rect class="cls-20" x="172.04" y="446.46" width="50.04" height="0.67"/><rect class="cls-20" x="69.73" y="446.46" width="45.12" height="0.67"/><path class="cls-20" d="M105.53,411.08l.67-.05c-5.73-73.25,24.25-161.16,24.55-162l-.63-.22C129.82,249.65,99.79,337.69,105.53,411.08Z" transform="translate(-29.34)"/><path class="cls-20" d="M245.81,407h.67c-.88-72.93-35.86-153.89-36.21-154.7l-.62.27C210,253.4,244.93,334.23,245.81,407Z" transform="translate(-29.34)"/><path class="cls-14" d="M169,93.42a18.2,18.2,0,0,1,11.74,8.18c3.39,5.2,4.33,12.43.78,17.52A15.41,15.41,0,0,1,158.13,121a18.09,18.09,0,0,1-5.49-10.94C151.67,100.76,159.33,91.74,169,93.42Z" transform="translate(-29.34)"/><path d="M178.07,102.54a.74.74,0,0,0,.74.74.75.75,0,0,0,.75-.74.76.76,0,0,0-.75-.75A.75.75,0,0,0,178.07,102.54Z" transform="translate(-29.34)"/><path d="M170.82,106.62a.75.75,0,1,0,.74-.74A.74.74,0,0,0,170.82,106.62Z" transform="translate(-29.34)"/><g class="cls-15"><path d="M174.15,101.9a7.45,7.45,0,0,1,3.56,4.34c.14.48-.61.82-.82.35a11.08,11.08,0,0,0-3.11-4.21c-.28-.22.07-.64.37-.48Z" transform="translate(-29.34)"/></g><g class="cls-15"><path d="M181.68,107.51c.94,1.82-.24,3.61-1.75,4.66a6,6,0,0,1-6.39,0,.38.38,0,0,1,.38-.66c3.21,1.43,7.58.21,7.27-3.92a.26.26,0,0,1,.49-.13Z" transform="translate(-29.34)"/></g><g class="cls-15"><path class="cls-28" d="M174.21,115.43a4.09,4.09,0,1,1-4.08-3.92A4,4,0,0,1,174.21,115.43Z" transform="translate(-29.34)"/></g><path class="cls-17" d="M157.05,87c2.21-2.1,4.42-4.31,7.33-5.39a8,8,0,0,1,8.12,1.65c3,2.58,4.31,7.57,1.87,10.93a9.47,9.47,0,0,1-5.51,3.25A1.45,1.45,0,0,1,170,98a5.91,5.91,0,0,1,1.07,3.6,4.72,4.72,0,0,1-.54,2.11,4.78,4.78,0,0,1-3.79,2.34,7.06,7.06,0,0,1-4.39-1.25,6.1,6.1,0,0,1,1.27,4.17,4.63,4.63,0,0,1-2.5,3.54,7.9,7.9,0,0,1-3.17.53,22.16,22.16,0,0,1,5.85,6.89,13.9,13.9,0,0,1,1.85,9.13,12.08,12.08,0,0,1-6.23,8,19.68,19.68,0,0,1-10.17,2.07,20.37,20.37,0,0,1-7.08-1.44,15.57,15.57,0,0,1-9.47-16.13,17.1,17.1,0,0,1-9.46-8.66,14,14,0,0,1-1.53-6.31,11.62,11.62,0,0,1,13.64-11.31c-.55-.1-.39-2.64-.35-3a13.89,13.89,0,0,1,.68-2.83,9.64,9.64,0,0,1,8.78-7c4.3-.43,9.26.48,12.26,3.9A1.74,1.74,0,0,1,157.05,87Z" transform="translate(-29.34)"/><path class="cls-14" d="M162.16,115a3.63,3.63,0,1,1-3.6-4A3.84,3.84,0,0,1,162.16,115Z" transform="translate(-29.34)"/><path d="M157.66,112.45a6.27,6.27,0,0,1,3.13,3.57c.19.48-.56.76-.81.34-.78-1.3-1.24-2.57-2.66-3.33-.38-.21,0-.75.34-.58Z" transform="translate(-29.34)"/><path d="M159.4,114.61a2.28,2.28,0,0,0-.32,1.32c0,.6-1,.5-.84-.11a4.46,4.46,0,0,1,.69-1.48.27.27,0,0,1,.47.27Z" transform="translate(-29.34)"/><path class="cls-29" d="M160.09,116.8c2.32,1.36,5.46,6.1,2.22,8.26a3.12,3.12,0,0,1-4.12-.63,5.43,5.43,0,0,1-.89-5.6c.13-.37.7-.22.58.16a6.16,6.16,0,0,0-.07,3.43c.5,1.88,2.69,3.41,4.39,1.82,2.2-2.06-.45-5.91-2.29-7.12-.2-.13,0-.44.18-.32Z" transform="translate(-29.34)"/><g class="cls-30"><path class="cls-31" d="M160,87.38c1.48-1.77,3.19-3.16,5.58-3.24a4.4,4.4,0,0,1,4,3.07c.84,2.16,1.36,4.4.06,6.47s-4.14,2.73-6.37,3.19c-.32.06-.45-.41-.14-.48a11.81,11.81,0,0,0,5.39-2.2c1.84-1.56,1.53-3.85.92-5.9s-2-3.73-4.43-3.66c-2,.05-3.58,1.61-4.78,3-.16.17-.4-.08-.26-.26Z" transform="translate(-29.34)"/></g><g class="cls-30"><path class="cls-31" d="M162.81,96.4a3,3,0,0,1,1.21,4c-1.1,2.11-3.43,1.35-5.22.93a.19.19,0,0,1,.1-.37c1.49.32,2.9,1,4.26-.11a2.67,2.67,0,0,0-.46-4.3.11.11,0,0,1,.11-.19Z" transform="translate(-29.34)"/></g><g class="cls-30"><path class="cls-22" d="M137.52,95.38c-1.08-7.13,9.46-10.51,14.65-7.67a10.56,10.56,0,0,1,5.15,8.1c.24,3.61-2.6,5.44-5.55,6.63V102c3.11.66,5.36,4,4,7.08-1.68,3.69-5.83,3.89-9.19,2.51-.24-.1-.14-.5.11-.4,2.81,1.08,6.22,1.27,8.17-1.43,2.08-2.88,0-6.58-3.18-7.27-.27-.06-.21-.4,0-.49,2.87-1.18,5.11-2.74,5.14-6.14,0-3.07-2.45-6-4.9-7.6s-6-.92-8.69,0c-3.06,1-5.69,3.68-5.32,7.11,0,.2-.32.25-.35,0Z" transform="translate(-29.34)"/></g><g class="cls-30"><path class="cls-22" d="M128.43,100.17c2.67-1.43,5.19-2.49,8.27-2a8,8,0,0,1,6,4.72c2,5.13-2,11.09-7.75,9.58a.2.2,0,0,1,.11-.39,6.4,6.4,0,0,0,6.35-2.08c1.84-2,1.7-5.08.63-7.4a7.76,7.76,0,0,0-5.5-4c-2.84-.66-5.53.55-8,1.78-.16.07-.29-.15-.14-.23Z" transform="translate(-29.34)"/></g><g class="cls-30"><path class="cls-31" d="M146.32,115.05c5.07-.82,9.05,3.45,9.66,8.23.32,2.43-.09,4.52-2.18,6-1.9,1.33-4.44.64-6-.87l.39-.22c1.69,4.26-4.88,4.55-7.31,3.45a9.3,9.3,0,0,1-5-11.37c.09-.29.54-.17.45.12a9.12,9.12,0,0,0,2.13,9.14,8.46,8.46,0,0,0,4.09,2.16c2.09.5,6.42-.24,5.17-3.38-.1-.23.23-.38.38-.23a4.33,4.33,0,0,0,6.15.18c1.82-1.61,1.38-4.47.83-6.53a8.23,8.23,0,0,0-8.78-6.39c-.16,0-.19-.24,0-.27Z" transform="translate(-29.34)"/></g><path class="cls-14" d="M299.34,140.94a21.72,21.72,0,0,0-22-13.23l2.86-9.79a6.84,6.84,0,1,0-13.14-3.83l-7.54,25.85a9,9,0,0,0-.43,1.23c-.44,1.57-.88,3.15-1.31,4.72l-1.12,3.83a7.06,7.06,0,0,0-.19.89l-17,61.45c-1.62,5.83-2.36,10.85.09,16.66a21.76,21.76,0,0,0,28.52,11.63c4.78-2,10.27-6.61,11.72-11.85q9.83-35.43,19.66-70.89C301.05,151.78,301.79,146.76,299.34,140.94Z" transform="translate(-29.34)"/><rect class="cls-21" x="285.85" y="144.03" width="12.62" height="0.67" transform="translate(69.99 407.07) rotate(-80.02)"/><rect class="cls-21" x="277.61" y="137.48" width="13.29" height="0.67" transform="translate(69.84 393.82) rotate(-80)"/><polygon class="cls-21" points="243.48 140.6 244.15 140.61 244.26 130.93 243.59 130.92 243.48 140.6"/><path class="cls-20" d="M161.84,157.44q.45-6,.89-12c-.26.35-.52.7-.79,1l13.91-3.88a1.07,1.07,0,0,0-.57-2.07l-13.91,3.87a1.1,1.1,0,0,0-.79,1q-.45,6-.89,12c-.1,1.39,2.05,1.38,2.15,0Z" transform="translate(-29.34)"/><path class="cls-32" d="M178.38,160.4V158a3.46,3.46,0,0,0-3.46-3.47H147.23a3.47,3.47,0,0,0-3.47,3.47v2.45Z" transform="translate(-29.34)"/><path class="cls-20" d="M178.78,160.8H143.37V158a3.86,3.86,0,0,1,3.86-3.86h27.69a3.86,3.86,0,0,1,3.86,3.86ZM144.16,160H178V158a3.07,3.07,0,0,0-3.07-3.07H147.23a3.06,3.06,0,0,0-3.07,3.07Z" transform="translate(-29.34)"/><polygon class="cls-32" points="114.85 163.35 118.73 210.09 143.71 210.09 148.61 163.35 114.85 163.35"/><path class="cls-32" d="M183.78,167.23V164a4.54,4.54,0,0,0-4.54-4.54H142.91a4.54,4.54,0,0,0-4.54,4.54v3.22Z" transform="translate(-29.34)"/><path class="cls-20" d="M184.17,167.63H138V164a5,5,0,0,1,4.94-4.94h36.33a4.94,4.94,0,0,1,4.93,4.94Zm-45.41-.79h44.62V164a4.15,4.15,0,0,0-4.14-4.15H142.91a4.15,4.15,0,0,0-4.15,4.15Z" transform="translate(-29.34)"/><path class="cls-14" d="M75.3,207.38l68.51-35.61c10.52-5.47,23.47-3.29,29.91,7.35,5.85,9.66,3.19,24.43-7.35,29.91L97.86,244.64c-10.52,5.47-23.46,3.29-29.91-7.36-5.84-9.65-3.18-24.43,7.35-29.9Z" transform="translate(-29.34)"/><rect class="cls-21" x="160.06" y="197.15" width="13.32" height="0.67" transform="translate(-99.11 93.23) rotate(-26.04)"/><rect class="cls-21" x="158.66" y="186.66" width="11.35" height="0.67" transform="translate(-79.37 60.42) rotate(-18.13)"/><rect class="cls-21" x="150.8" y="175.31" width="10.66" height="0.67" transform="translate(-99.22 111.25) rotate(-32.46)"/></g><path class="cls-33" d="M480.05,305.25H606.42a1,1,0,0,0,0-2H480.05a1,1,0,0,0,0,2Z" transform="translate(-29.34)"/><path class="cls-33" d="M148.6,305.25H465.7a1,1,0,0,0,0-2H148.6a1,1,0,0,0,0,2Z" transform="translate(-29.34)"/><path class="cls-33" d="M119.2,305.25h15.73a1,1,0,0,0,0-2H119.2a1,1,0,0,0,0,2Z" transform="translate(-29.34)"/><path class="cls-33" d="M55.86,305.25h49.71a1,1,0,0,0,0-2H55.86a1,1,0,0,0,0,2Z" transform="translate(-29.34)"/><g class="cls-34"><path class="cls-35" d="M362.35,160.33a5.79,5.79,0,0,1-5.89,7.24H253.84a9.49,9.49,0,0,1-8.88-7.24L231.11,93.45A5.79,5.79,0,0,1,237,86.21H339.62a9.49,9.49,0,0,1,8.88,7.24Z" transform="translate(-29.34)"/></g><path class="cls-36" d="M357.28,167.13H254.67a10,10,0,0,1-9.34-7.6L231.49,92.64a6.23,6.23,0,0,1,6.34-7.78H340.44a10,10,0,0,1,9.34,7.59l13.84,66.89a6.24,6.24,0,0,1-6.34,7.79ZM237.83,85.77a5.33,5.33,0,0,0-5.44,6.69l13.84,66.88a9,9,0,0,0,8.44,6.87H357.28a5.32,5.32,0,0,0,5.44-6.68L348.88,92.64a9,9,0,0,0-8.44-6.87Z" transform="translate(-29.34)"/><path class="cls-20" d="M269.8,142.51a1.85,1.85,0,1,1-1.85-1.85A1.85,1.85,0,0,1,269.8,142.51Z" transform="translate(-29.34)"/><path class="cls-20" d="M290.21,113.52a1.85,1.85,0,1,1-1.85-1.85A1.85,1.85,0,0,1,290.21,113.52Z" transform="translate(-29.34)"/><path class="cls-20" d="M338.83,98.13A1.85,1.85,0,1,1,337,96.28,1.85,1.85,0,0,1,338.83,98.13Z" transform="translate(-29.34)"/><polyline class="cls-23" points="238.61 142.51 259.37 113.61 289.18 135.28 307.63 98.13"/><polygon class="cls-37" points="353.94 324.97 379.39 356.74 430.98 356.74 399.91 324.97 353.94 324.97"/><path class="cls-37" d="M384,325.81v4.69l24.18,32.25h49.22a3.72,3.72,0,0,0,1.39-3.35c-.1-2.42-1-2.66-1-2.66h-49Z" transform="translate(-29.34)"/><path class="cls-37" d="M382.1,330.3H384l24.18,32.45h49.22l.35-6h2.61a6.61,6.61,0,0,1,.53,4.14c-.39,2.56-3.29,3.75-3.29,3.75H408.17Z" transform="translate(-29.34)"/><path class="cls-37" d="M357.42,371.46c0,3.78-39.3,6.84-87.78,6.84s-87.78-3.06-87.78-6.84,39.3-6.83,87.78-6.83S357.42,367.69,357.42,371.46Z" transform="translate(-29.34)"/><path class="cls-36" d="M344.72,352.83H209a8.29,8.29,0,0,1-8.28-8.29V262.73a8.29,8.29,0,0,1,8.28-8.29H344.72a8.3,8.3,0,0,1,8.29,8.29v81.81A8.3,8.3,0,0,1,344.72,352.83ZM209,255.23a7.51,7.51,0,0,0-7.49,7.5v81.81A7.5,7.5,0,0,0,209,352H344.72a7.5,7.5,0,0,0,7.5-7.5V262.73a7.51,7.51,0,0,0-7.5-7.5Z" transform="translate(-29.34)"/><rect class="cls-38" x="167.02" y="259.04" width="151.52" height="97.59" rx="7.89"/><path class="cls-20" d="M271.33,299.54a7.48,7.48,0,0,1,.7-3.18,7.24,7.24,0,0,0-2-.29,7.57,7.57,0,1,0,6.86,10.75A7.56,7.56,0,0,1,271.33,299.54Z" transform="translate(-29.34)"/><rect class="cls-39" x="231.92" y="317.38" width="15.98" height="1.68"/><rect class="cls-39" x="231.92" y="319.81" width="15.98" height="1.68"/><rect class="cls-39" x="231.92" y="322.24" width="15.98" height="1.18"/><path class="cls-39" d="M263.5,326.06a3.29,3.29,0,0,0-2.93,2.12L248.25,366a1.53,1.53,0,0,0,1.54,2.13h37.35a1.6,1.6,0,0,0,1.62-2.15l-10.89-37.72a3.15,3.15,0,0,0-2.86-2.15Z" transform="translate(-29.34)"/><path class="cls-18" d="M275.36,350.52a5.72,5.72,0,1,1-5.72-5.72A5.72,5.72,0,0,1,275.36,350.52Z" transform="translate(-29.34)"/></g></g></g></svg>