<svg xmlns="http://www.w3.org/2000/svg" xmlns:xlink="http://www.w3.org/1999/xlink" viewBox="0 0 516.39 429.35"><defs><style>.cls-1{fill:#6dccba;}.cls-2{fill:none;}.cls-3{fill:#154549;}.cls-4{fill:#1a1c1d;}.cls-5{fill:#83b299;}.cls-6{fill:#3c7469;}.cls-7{fill:#e49f8a;}.cls-8{fill:#fbf1e0;}.cls-9{fill:#ef933c;}.cls-10{fill:#ff9d6e;}.cls-11{fill:#e9733d;}.cls-12{fill:#1c2447;}.cls-13{fill:#fff;}.cls-14{fill:#5aad9d;}.cls-15,.cls-18{fill:#f6724d;}.cls-16{clip-path:url(#clip-path);}.cls-17{fill:#403560;}.cls-18{fill-rule:evenodd;}.cls-19{clip-path:url(#clip-path-2);}.cls-20{fill:#e56546;}.cls-21{fill:#eb8fc3;}.cls-22{clip-path:url(#clip-path-3);}.cls-23{fill:#f9d472;}.cls-24{clip-path:url(#clip-path-4);}.cls-25{clip-path:url(#clip-path-5);}.cls-26{clip-path:url(#clip-path-6);}.cls-27{fill:#d07837;}.cls-28{fill:#d75132;}.cls-29{clip-path:url(#clip-path-7);}.cls-30{clip-path:url(#clip-path-8);}.cls-31{clip-path:url(#clip-path-9);}.cls-32{fill:#ffcdb7;}.cls-33{fill:#fbd672;}</style><clipPath id="clip-path"><path class="cls-1" d="M300.32,317.74h0L294.25,307,299,286l.56-15.84a10.49,10.49,0,0,0-4.77-1.64h-1.32a2.88,2.88,0,0,0-.36.05v-.05H266.57l-6.23,13.2a13.31,13.31,0,0,0-.26,10.76l2.74,6.63L261.71,310h0l-.74,7.22-.05.52h0l-.18,1.76,17.9,19.57L302,320.68Z"/></clipPath><clipPath id="clip-path-2"><rect class="cls-2" x="121.09" y="164.78" width="57.71" height="57.71"/></clipPath><clipPath id="clip-path-3"><rect class="cls-2" x="337.08" y="231.37" width="57.71" height="57.71"/></clipPath><clipPath id="clip-path-4"><rect class="cls-2" x="193.09" y="164.78" width="57.71" height="57.71"/></clipPath><clipPath id="clip-path-5"><rect class="cls-2" x="337.08" y="297.96" width="57.71" height="57.71"/></clipPath><clipPath id="clip-path-6"><rect class="cls-2" x="265.09" y="164.78" width="57.71" height="57.71"/></clipPath><clipPath id="clip-path-7"><rect class="cls-2" x="337.08" y="164.78" width="57.71" height="57.71"/></clipPath><clipPath id="clip-path-8"><rect class="cls-2" x="121.09" y="297.96" width="57.71" height="57.71"/></clipPath><clipPath id="clip-path-9"><rect class="cls-2" x="121.09" y="231.37" width="57.71" height="57.71"/></clipPath></defs><g id="Layer_2" data-name="Layer 2"><g id="Layer_1-2" data-name="Layer 1"><path class="cls-3" d="M327.47,278.83a369.92,369.92,0,0,1-7.83,79h5.12a371.66,371.66,0,0,0,7.7-71.65c.89-75.51-20.42-129.65-20.71-130.38a2.51,2.51,0,0,0-4.65,1.88C307.38,158.4,327,208.27,327.47,278.83Z"/><path class="cls-4" d="M332.46,286.22l-5-7.39c-.5-70.56-20.09-120.43-20.37-121.11a2.51,2.51,0,0,1,4.65-1.88C312,156.57,333.35,210.71,332.46,286.22Z"/><path class="cls-3" d="M339.29,357.87a316.08,316.08,0,0,1,26.5-87.42c17.68-37.46,36.61-57.72,36.92-58a2.5,2.5,0,0,0-3.62-3.46c-.34.35-20.94,22.37-39.46,62.93a320.72,320.72,0,0,0-25.4,86Z"/><path class="cls-4" d="M402.71,212.4c-.31.33-19.24,20.59-36.92,58l-6.16,1.42c18.52-40.56,39.12-62.58,39.46-62.93a2.5,2.5,0,0,1,3.62,3.46Z"/><path class="cls-3" d="M312.39,314.21a138.17,138.17,0,0,1-.81,41.89,2.46,2.46,0,0,0,.38,1.77h4.18a2.42,2.42,0,0,0,.39-.95,146.87,146.87,0,0,0,1.53-37.54c-.24-2.56-.54-5-.89-7.43v-.05a122.27,122.27,0,0,0-8.73-30.65c-1.1-2.59-2.26-5-3.4-7.19-9.5-18.29-20.42-27.46-20.87-27.84a2.51,2.51,0,0,0-3.21,3.85C281.29,250.35,306.53,271.92,312.39,314.21Z"/><path class="cls-4" d="M318.06,319.38l-5.67-5.17c-5.86-42.29-31.1-63.86-31.44-64.14a2.51,2.51,0,0,1,3.21-3.85c.45.38,11.37,9.55,20.87,27.84,1.14,2.21,2.3,4.6,3.4,7.19l8.73,30.65V312C317.52,314.35,317.82,316.82,318.06,319.38Z"/><path class="cls-3" d="M461.43,17.65c-8.61,1.44-16.92,4.41-25,7.83-2,.88-4,1.71-6,2.68s-3.92,1.94-5.87,2.94l-2.93,1.5-2.85,1.63-5.68,3.3a255,255,0,0,0-41.63,31.91c-3.15,3-6.29,6.08-9.38,9.18s-5.91,6.43-8.83,9.68-5.81,6.52-8.45,10-5.32,6.9-7.91,10.41-5,7.16-7.36,10.79-4.66,7.34-6.92,11.05-4.16,7.66-6.15,11.52-3.85,7.81-5.62,11.78l.82.53c6.2-6.19,11.8-12.69,17.43-19.13,2.93-3.14,5.79-6.3,8.63-9.48L342,121c1.37-1.63,2.84-3.16,4.3-4.7,5.84-6.16,11.34-12.58,17.31-18.55L368,93.16c1.46-1.52,2.83-3.14,4.37-4.57,3-2.93,6-5.91,9-8.89,12.11-11.69,24.62-23,37.87-33.42l5-3.88,2.49-2,2.56-1.86c1.72-1.23,3.43-2.49,5.13-3.76.85-.65,1.73-1.22,2.61-1.82l2.62-1.8A234.08,234.08,0,0,1,461.43,17.65Z"/><path class="cls-5" d="M233.19,262.18a44.83,44.83,0,0,1,.13-8.51,75.42,75.42,0,0,1,1.35-8.45,101.31,101.31,0,0,1,5.17-16.34,121.34,121.34,0,0,1,7.68-15.34,130.32,130.32,0,0,1,9.62-14.18,137.73,137.73,0,0,1,11.17-12.93q1.49-1.53,3-3c1-1,2.07-1.95,3.1-2.92,2.08-1.93,4.24-3.78,6.43-5.57s4.47-3.48,6.71-5.2,4.65-3.22,7-4.78,4.83-2.95,7.27-4.35,5-2.62,7.6-3.81l.41.58c-1.88,2.13-3.81,4.17-5.78,6.14s-3.86,4-5.8,6c-1,1-1.9,2-2.87,3s-1.95,1.95-2.88,3l-2.84,3c-.47.49-1,1-1.44,1.46l-1.4,1.5c-7.47,8-14.8,15.95-21.53,24.41-1.7,2.09-3.32,4.25-5,6.38s-3.21,4.33-4.73,6.56c-3.08,4.43-6,8.95-8.77,13.62s-5.3,9.45-7.63,14.4A112.94,112.94,0,0,0,233.19,262.18Z"/><path class="cls-5" d="M151,98.7a92.31,92.31,0,0,1,21.71-1.53c1.82.06,3.65.09,5.46.25s3.63.31,5.44.49l2.73.26,2.7.4,5.4.82a212.88,212.88,0,0,1,41.95,12c3.36,1.4,6.72,2.8,10.05,4.26s6.53,3.18,9.78,4.8,6.49,3.28,9.58,5.17,6.23,3.73,9.3,5.66,6,4,9,6.11,5.85,4.27,8.72,6.45,5.55,4.67,8.27,7.05,5.36,4.87,7.93,7.41l-.47.66c-6.68-2.9-13-6.23-19.31-9.51-3.22-1.53-6.4-3.12-9.57-4.71L275,142.35c-1.55-.84-3.16-1.58-4.76-2.33-6.4-3-12.61-6.29-19-9.1l-4.78-2.21c-1.59-.72-3.14-1.56-4.78-2.2-3.23-1.34-6.44-2.75-9.65-4.15C219,117,205.9,112.08,192.46,108l-5.06-1.48-2.53-.76-2.55-.66c-1.7-.43-3.41-.89-5.11-1.35-.85-.25-1.71-.42-2.57-.62l-2.58-.6A195.43,195.43,0,0,0,151,98.7Z"/><path class="cls-6" d="M310.39,162.61a89.48,89.48,0,0,0-4.28-20.55c-.54-1.67-1-3.37-1.66-5s-1.24-3.29-1.89-4.93l-1-2.46-1.07-2.4-2.19-4.8A205.2,205.2,0,0,0,276.16,86.7c-2.18-2.76-4.36-5.51-6.59-8.22s-4.67-5.23-7-7.82-4.74-5.16-7.31-7.53-5.09-4.81-7.69-7.15-5.32-4.53-8-6.73-5.5-4.31-8.28-6.41-5.78-3.92-8.71-5.82-5.93-3.69-9-5.42l-.49.61c4.45,5.44,9.2,10.43,13.9,15.44q3.41,3.87,6.88,7.64L237.34,59c1.19,1.21,2.3,2.51,3.42,3.8,4.45,5.15,9.14,10,13.44,15.3L257.5,82c1.1,1.29,2.28,2.51,3.3,3.86,2.1,2.65,4.24,5.26,6.39,7.87,8.38,10.6,16.38,21.48,23.68,32.89l2.7,4.31,1.37,2.14,1.28,2.2q1.27,2.2,2.6,4.39c.45.73.84,1.48,1.24,2.22l1.24,2.24A189.06,189.06,0,0,1,310.39,162.61Z"/><path class="cls-5" d="M317.69,0a185.94,185.94,0,0,1,2.63,20.1l.21,2.51c.07.83.16,1.66.18,2.5.08,1.68.16,3.35.27,5l.14,2.49.05,2.51.13,5c.22,13.32-.41,26.59-1.5,39.83-.34,3.31-.68,6.61-.95,9.92-.11,1.66-.41,3.3-.61,5l-.61,5c-.66,6.64-1.84,13.2-2.68,19.85-.22,1.66-.41,3.33-.73,5l-.83,5c-.52,3.32-1,6.65-1.48,10-1.12,6.66-2.3,13.33-3,20.21l.73.23q2.32-4.59,4.39-9.31c1.37-3.15,2.77-6.3,4-9.52s2.22-6.48,3.29-9.75,2.17-6.53,2.92-9.88,1.62-6.69,2.41-10,1.35-6.75,1.89-10.15,1.16-6.8,1.5-10.23.65-6.88.93-10.32a201.55,201.55,0,0,0-1.29-41.37l-.82-5.13-.43-2.55-.55-2.54q-.56-2.53-1.14-5c-.38-1.69-.89-3.35-1.36-5A87.42,87.42,0,0,0,317.69,0Z"/><path class="cls-4" d="M219.61,220.3a53.26,53.26,0,0,1,4.44-14.13,75.8,75.8,0,0,1,7.59-12.86,83.91,83.91,0,0,1,21.73-20.61,88.52,88.52,0,0,1,13.16-7.22l1.7-.78L270,164l3.49-1.35,3.55-1.15c1.18-.4,2.37-.75,3.58-1a93.84,93.84,0,0,1,29.24-3.12,235.5,235.5,0,0,0-27.23,9.06c-2.2.84-4.31,1.9-6.45,2.82s-4.22,2-6.25,3.16a121.36,121.36,0,0,0-11.9,7.2,129.88,129.88,0,0,0-21,18.1A139.33,139.33,0,0,0,219.61,220.3Z"/><path class="cls-3" d="M199.87,172.72a27.55,27.55,0,0,1,3.49-6.83,42.79,42.79,0,0,1,5-6A51.37,51.37,0,0,1,221,150.76a64.72,64.72,0,0,1,14.73-5.38,83.2,83.2,0,0,1,15.43-2,109.78,109.78,0,0,1,30.42,3.35,129.62,129.62,0,0,1,28.25,10.64c-9.93-1.61-19.66-3.35-29.38-4.47a171.32,171.32,0,0,0-28.91-1.21,118.5,118.5,0,0,0-14.12,1.65,87.54,87.54,0,0,0-13.61,3.73C215,160.37,206.61,165.22,199.87,172.72Z"/><path class="cls-3" d="M275.71,45.28a133.54,133.54,0,0,1,7.92,12.65q3.62,6.49,6.79,13.2a247,247,0,0,1,11,27.55q2.37,7,4.29,14.25c1.28,4.8,2.4,9.66,3.27,14.58a115.72,115.72,0,0,1,1.79,14.89,57.63,57.63,0,0,1-.93,15c-1.23-9.84-4.07-19.08-6.95-28.36s-6.1-18.44-9.33-27.63S287.05,83,284,73.69,278,55,275.71,45.28Z"/><path class="cls-6" d="M424.88,113.67a140.34,140.34,0,0,0-15.29-.59c-5,0-10.07.35-15,.87a138,138,0,0,0-29.06,6.21,123.07,123.07,0,0,0-13.8,5.49,137.61,137.61,0,0,0-13.16,7,195.57,195.57,0,0,0-24.49,18,95,95,0,0,1,34.58-31.2,92.13,92.13,0,0,1,14.53-6.29,95.21,95.21,0,0,1,31.1-5.14,89.9,89.9,0,0,1,15.64,1.32A66.56,66.56,0,0,1,424.88,113.67Z"/><path class="cls-3" d="M457.48,162.61c-12-4.84-24.08-9.18-36.26-12.91a246,246,0,0,0-37-8.5c-3.11-.49-6.24-.73-9.36-1.08-3.13-.19-6.25-.42-9.38-.43a106.9,106.9,0,0,0-18.67,1.2,91,91,0,0,0-18.17,4.71,98.06,98.06,0,0,0-17,8.78,68.09,68.09,0,0,1,15.5-12,79.26,79.26,0,0,1,18.54-7.09l4.88-1.06,4.93-.73c1.64-.28,3.3-.32,5-.49l2.48-.19,2.48-.05a114.66,114.66,0,0,1,19.79,1.13,160.12,160.12,0,0,1,37.91,10.21,181.34,181.34,0,0,1,17.73,8.2A136.37,136.37,0,0,1,457.48,162.61Z"/><path class="cls-4" d="M472.94,193.7c-12.76-7.2-25.55-14.08-38.52-20.49a377.62,377.62,0,0,0-39.67-17.07c-13.5-4.75-27.38-8.5-41.53-9.62a85.54,85.54,0,0,0-21.2.79,66,66,0,0,0-20.31,7.07,54.5,54.5,0,0,1,19.49-10.47,78.09,78.09,0,0,1,22.24-3c15,.07,29.77,3.51,43.75,8.37a225.58,225.58,0,0,1,40,18.81q9.51,5.6,18.5,12A192.17,192.17,0,0,1,472.94,193.7Z"/><path class="cls-3" d="M446.19,238.93c-10.71-9.63-20.85-19.32-31.13-28.75s-20.59-18.57-31.36-27-22-15.95-34.22-21.23a72.51,72.51,0,0,0-19.07-5.54,58.39,58.39,0,0,0-20.57.91,43.3,43.3,0,0,1,20.63-7.47A63.09,63.09,0,0,1,352.9,152a86.36,86.36,0,0,1,10.63,3.62,100.85,100.85,0,0,1,10.07,4.78,137.8,137.8,0,0,1,18.46,12,186.33,186.33,0,0,1,31,30.28A196.48,196.48,0,0,1,435.78,220c1.94,3,3.81,6.09,5.57,9.23A103.65,103.65,0,0,1,446.19,238.93Z"/><path class="cls-3" d="M320.19,273.51a70.28,70.28,0,0,1-8.79-12.15,100.47,100.47,0,0,1-6.6-13.56,108.3,108.3,0,0,1-7.14-29.42,102.21,102.21,0,0,1,1.39-30.29A89.85,89.85,0,0,1,309.66,160c-1.77,9.85-3.28,19.42-4,29a179.74,179.74,0,0,0,.13,28.61,168.54,168.54,0,0,0,4.94,28.24A185.73,185.73,0,0,0,320.19,273.51Z"/><path class="cls-6" d="M339.26,281.73c-2.61-10.56-4.83-21.09-7-31.6l-6.52-31.44-3.43-15.62c-1.18-5.2-2.4-10.37-3.65-15.55a275.39,275.39,0,0,0-9.2-30.74,73.15,73.15,0,0,1,9,13.75,132,132,0,0,1,6.58,15A212.76,212.76,0,0,1,333.66,217a301.86,301.86,0,0,1,4.7,32.17A232.13,232.13,0,0,1,339.26,281.73Z"/><path class="cls-3" d="M369.47,257.89c-4.61-8.82-8.89-17.65-13.2-26.44s-8.56-17.53-13-26.15-9.09-17.08-14.07-25.33-10.36-16.19-17.47-23.19a46.91,46.91,0,0,1,12.58,8.33,89.27,89.27,0,0,1,10.33,11.06,147.93,147.93,0,0,1,15.87,25.44A219.87,219.87,0,0,1,362,229.09,178.9,178.9,0,0,1,369.47,257.89Z"/><path class="cls-6" d="M409.84,229.86a132.88,132.88,0,0,0-9.16-13c-1.67-2-3.29-4.1-5-6.07s-3.52-3.89-5.3-5.8a177.57,177.57,0,0,0-23.45-20.6c-4.19-3.07-8.49-6-12.94-8.69-2.17-1.44-4.48-2.64-6.7-4l-3.43-1.89c-1.13-.64-2.27-1.29-3.44-1.87-9.23-4.92-18.84-9.19-28.68-13.56a113,113,0,0,1,31.22,8.18A125.41,125.41,0,0,1,371,178.9a127.81,127.81,0,0,1,23.13,22.82c1.68,2.13,3.25,4.33,4.76,6.58s3,4.52,4.29,6.87A75.69,75.69,0,0,1,409.84,229.86Z"/><path class="cls-4" d="M503.49,116.76a74.7,74.7,0,0,0-16.84,5.29c-1.35.59-2.73,1.15-4,1.81s-2.65,1.31-4,2l-2,1L474.74,128l-3.84,2.23a172.39,172.39,0,0,0-28.1,21.54c-2.12,2.05-4.24,4.11-6.33,6.2s-4,4.34-6,6.53-3.92,4.4-5.7,6.75-3.6,4.66-5.34,7-3.35,4.83-5,7.28-3.15,5-4.67,7.46-2.81,5.17-4.15,7.78-2.6,5.26-3.79,7.95l.55.36c4.18-4.18,8-8.57,11.76-12.92,2-2.12,3.91-4.25,5.82-6.4l2.84-3.23c.92-1.1,1.92-2.13,2.9-3.17,3.95-4.16,7.66-8.5,11.69-12.53l2.95-3.08c1-1,1.91-2.12,3-3.08q3.06-3,6.05-6c8.18-7.89,16.63-15.49,25.57-22.55l3.38-2.62,1.68-1.33,1.73-1.25q1.74-1.24,3.46-2.54c.57-.43,1.17-.82,1.76-1.22l1.77-1.22A160.19,160.19,0,0,1,503.49,116.76Z"/><path class="cls-5" d="M349.44,281.81a29.78,29.78,0,0,1,.09-5.74,50.07,50.07,0,0,1,.91-5.7,67,67,0,0,1,3.49-11A82.07,82.07,0,0,1,359.11,249a88.86,88.86,0,0,1,6.49-9.57,92.26,92.26,0,0,1,7.54-8.72c.67-.69,1.35-1.37,2-2s1.4-1.32,2.1-2c1.4-1.31,2.86-2.55,4.34-3.76s3-2.35,4.53-3.51,3.14-2.18,4.72-3.23,3.26-2,4.91-2.94,3.39-1.76,5.13-2.56l.28.39q-1.92,2.15-3.9,4.14c-1.3,1.38-2.61,2.71-3.92,4-.65.68-1.29,1.36-1.94,2s-1.31,1.31-1.94,2l-1.92,2c-.32.34-.65.66-1,1l-.94,1c-5,5.38-10,10.76-14.54,16.47-1.15,1.41-2.24,2.87-3.36,4.31s-2.17,2.92-3.19,4.42c-2.08,3-4.07,6-5.92,9.2s-3.58,6.38-5.15,9.72A76.8,76.8,0,0,0,349.44,281.81Z"/><path class="cls-5" d="M294,171.47a61.9,61.9,0,0,1,14.65-1c1.22,0,2.46.06,3.68.16s2.45.21,3.67.34l1.84.18,1.83.26,3.65.56a142.92,142.92,0,0,1,28.31,8.13c2.26.94,4.53,1.88,6.78,2.87s4.41,2.14,6.6,3.24,4.38,2.21,6.47,3.49,4.2,2.52,6.27,3.82,4.07,2.72,6.07,4.12,3.95,2.88,5.89,4.36,3.74,3.15,5.58,4.76,3.61,3.28,5.35,5l-.32.44c-4.51-2-8.77-4.21-13-6.42-2.17-1-4.31-2.1-6.45-3.18l-3.18-1.64c-1.05-.57-2.13-1.06-3.21-1.57-4.32-2-8.52-4.25-12.86-6.14l-3.23-1.49c-1.07-.49-2.12-1.06-3.22-1.49-2.19-.9-4.35-1.85-6.52-2.8-8.73-3.62-17.58-6.94-26.65-9.69l-3.42-1-1.7-.51-1.73-.44c-1.15-.29-2.3-.6-3.45-.91-.57-.17-1.15-.29-1.73-.42l-1.74-.41A132.4,132.4,0,0,0,294,171.47Z"/><path class="cls-6" d="M401.54,214.61a60,60,0,0,0-2.88-13.87c-.37-1.13-.7-2.28-1.13-3.38s-.83-2.22-1.27-3.32l-.65-1.66-.72-1.63-1.48-3.24a138.63,138.63,0,0,0-15-24.14c-1.47-1.86-2.94-3.72-4.45-5.55s-3.15-3.53-4.74-5.28-3.2-3.48-4.94-5.08-3.43-3.24-5.19-4.82-3.59-3.06-5.42-4.55-3.71-2.91-5.58-4.32-3.91-2.65-5.89-3.93-4-2.5-6-3.66l-.33.41c3,3.68,6.21,7,9.38,10.42,1.53,1.75,3.08,3.46,4.64,5.16l2.36,2.52c.81.82,1.55,1.7,2.3,2.57,3,3.48,6.18,6.79,9.08,10.32l2.23,2.61c.74.87,1.53,1.69,2.22,2.6,1.42,1.79,2.87,3.55,4.32,5.31,5.65,7.16,11.05,14.5,16,22.2l1.83,2.91.92,1.45.86,1.48c.58,1,1.16,2,1.76,3,.3.49.56,1,.84,1.51l.83,1.51A124.65,124.65,0,0,1,401.54,214.61Z"/><path class="cls-5" d="M406.48,104.85a127,127,0,0,1,1.77,13.57l.14,1.69c.05.56.11,1.12.13,1.69.05,1.13.1,2.26.17,3.38l.1,1.68,0,1.7.09,3.37c.15,9-.27,17.95-1,26.88-.23,2.24-.46,4.47-.64,6.7-.07,1.12-.28,2.23-.41,3.35l-.41,3.34c-.45,4.48-1.25,8.91-1.82,13.4-.14,1.12-.28,2.24-.49,3.35l-.55,3.36c-.36,2.24-.7,4.48-1,6.75-.75,4.49-1.55,9-2,13.64l.49.15c1.05-2.06,2-4.16,3-6.28s1.86-4.25,2.68-6.42,1.5-4.38,2.22-6.59,1.46-4.41,2-6.67,1.09-4.51,1.63-6.77.91-4.56,1.27-6.86.78-4.58,1-6.9.43-4.64.62-7a135.88,135.88,0,0,0-.87-27.93L414,128l-.29-1.72-.37-1.72c-.24-1.14-.5-2.27-.76-3.41s-.61-2.26-.92-3.38A59.33,59.33,0,0,0,406.48,104.85Z"/><path class="cls-3" d="M340.28,253.55a35.86,35.86,0,0,1,3-9.54,51.25,51.25,0,0,1,5.12-8.68,56.79,56.79,0,0,1,14.67-13.91,60.33,60.33,0,0,1,8.88-4.88c1.52-.74,3.13-1.27,4.68-1.89s3.18-1.09,4.82-1.48a63.51,63.51,0,0,1,19.74-2.1,156.64,156.64,0,0,0-18.39,6.11,88.76,88.76,0,0,0-16.6,8.9A87.38,87.38,0,0,0,352,238.3,93.3,93.3,0,0,0,340.28,253.55Z"/><path class="cls-4" d="M327,221.43a28.05,28.05,0,0,1,7.24-6.79,42.43,42.43,0,0,1,4.28-2.6c1.48-.79,3-1.44,4.54-2.14a64.91,64.91,0,0,1,19.44-4.37,89.86,89.86,0,0,1,19.75.65c1.62.23,3.23.58,4.84.9s3.21.62,4.8,1c3.15.91,6.28,1.85,9.34,3-3.29,0-6.52-.2-9.72-.41l-9.6-.26a179.77,179.77,0,0,0-18.91.72,114.72,114.72,0,0,0-18.44,3.2c-1.48.46-3,.85-4.49,1.33s-3,1-4.44,1.59A51.18,51.18,0,0,0,327,221.43Z"/><path class="cls-4" d="M378.14,135.41a117.76,117.76,0,0,1,9.92,17.45,168.8,168.8,0,0,1,7.43,18.6,139.8,139.8,0,0,1,5.09,19.46c.27,1.66.58,3.31.76,5s.35,3.36.46,5,.05,3.4,0,5.08-.38,3.39-.63,5a109.14,109.14,0,0,0-4.72-19.15c-2-6.24-4.07-12.45-6.28-18.65s-4.38-12.4-6.44-18.68S379.7,142,378.14,135.41Z"/><path class="cls-3" d="M478.83,181.58a106.72,106.72,0,0,0-20.47.17A94.33,94.33,0,0,0,438.74,186a89.92,89.92,0,0,0-18.2,8.44A134.6,134.6,0,0,0,404,206.57a63.67,63.67,0,0,1,14.38-15.3,64.84,64.84,0,0,1,18.77-10,63.93,63.93,0,0,1,21-3.46c1.78,0,3.55.07,5.31.21s3.51.38,5.25.67A44.73,44.73,0,0,1,478.83,181.58Z"/><path class="cls-6" d="M500.83,214.61c-8.12-3.27-16.25-6.19-24.47-8.73a165.79,165.79,0,0,0-24.95-5.72,86.53,86.53,0,0,0-25.25-.23,63.39,63.39,0,0,0-12.26,3.19,65.32,65.32,0,0,0-11.46,5.94A45.82,45.82,0,0,1,412.9,201a52.53,52.53,0,0,1,12.52-4.77,62.31,62.31,0,0,1,13.31-1.71,76.41,76.41,0,0,1,13.36.76,99.12,99.12,0,0,1,13,2.66,126.57,126.57,0,0,1,12.54,4.24c2,.82,4.07,1.68,6.07,2.6s4,1.91,5.9,2.93A90.55,90.55,0,0,1,500.83,214.61Z"/><path class="cls-6" d="M511.26,235.6c-8.61-4.86-17.24-9.5-26-13.84-4.39-2.14-8.78-4.25-13.26-6.14s-9-3.76-13.52-5.37a112.37,112.37,0,0,0-28-6.51c-9.51-.73-19.29.55-28,5.32a36.9,36.9,0,0,1,13.17-7,51.37,51.37,0,0,1,15-2.08c10.14.06,20.09,2.37,29.52,5.65a162.14,162.14,0,0,1,51.13,30Z"/><path class="cls-3" d="M493.21,266.12c-7.23-6.5-14.08-13-21-19.4S458.31,234.18,451,228.54c-1.8-1.45-3.68-2.75-5.51-4.13s-3.76-2.6-5.68-3.8a84,84,0,0,0-11.91-6.41c-8.2-3.54-17.2-5.29-26.75-3.13a29.33,29.33,0,0,1,13.93-5,43.16,43.16,0,0,1,15.13,1.36l3.64,1.1c1.19.42,2.36.89,3.53,1.35a64,64,0,0,1,6.79,3.23,88.14,88.14,0,0,1,12.46,8.1,125,125,0,0,1,20.94,20.43A113.78,113.78,0,0,1,493.21,266.12Z"/><path class="cls-6" d="M391.93,268a91.72,91.72,0,0,1-.19-14.15c.26-4.68.78-9.33,1.48-14a120.21,120.21,0,0,1,2.88-13.74,72.39,72.39,0,0,1,4.95-13.3,103.08,103.08,0,0,1-.54,14.12c-.42,4.64-1.1,9.22-1.88,13.8s-1.67,9.14-2.74,13.68A122.67,122.67,0,0,1,391.93,268Z"/><path class="cls-6" d="M421,295c-1.77-7.13-3.27-14.23-4.74-21.33l-4.43-21.21-2.3-10.55c-.85-3.49-1.59-7-2.49-10.48a185.63,185.63,0,0,0-6.18-20.76c1.13,1.43,2.2,2.94,3.27,4.46s1.85,3.2,2.76,4.82a88.7,88.7,0,0,1,4.43,10.16c1.33,3.44,2.34,7,3.38,10.51s1.82,7.12,2.5,10.72a192,192,0,0,1,3.16,21.72A154.42,154.42,0,0,1,421,295Z"/><path class="cls-6" d="M441.42,278.92c-3.12-5.95-6-11.92-8.9-17.84s-5.79-11.84-8.79-17.66-6.14-11.53-9.5-17.09-7-10.93-11.79-15.65a31.46,31.46,0,0,1,8.48,5.62,60.76,60.76,0,0,1,7,7.46,99.69,99.69,0,0,1,10.71,17.17,148.15,148.15,0,0,1,7.78,18.55A121.18,121.18,0,0,1,441.42,278.92Z"/><path class="cls-3" d="M468.67,260a102.76,102.76,0,0,0-13.17-16.76,120.62,120.62,0,0,0-15.8-13.93,23.14,23.14,0,0,0-2.15-1.52l-2.19-1.46-2.17-1.48c-.73-.5-1.51-.9-2.26-1.36-1.5-.92-3-1.81-4.5-2.74l-4.66-2.49L419.45,217c-.77-.43-1.59-.76-2.39-1.14-1.61-.73-3.19-1.55-4.79-2.33s-3.27-1.43-4.91-2.16-3.28-1.47-4.92-2.28a91.22,91.22,0,0,1,10.7,2c1.74.54,3.5,1,5.22,1.61.87.3,1.76.54,2.6.89l2.53,1c1.67.73,3.36,1.44,5,2.22s3.21,1.77,4.81,2.66c.79.46,1.61.88,2.38,1.39l2.27,1.54,2.27,1.57a26.74,26.74,0,0,1,2.21,1.63l4.29,3.44c1.37,1.23,2.68,2.52,4,3.77a25.5,25.5,0,0,1,1.94,2c.63.66,1.25,1.33,1.86,2,1.26,1.33,2.37,2.79,3.52,4.21A64.15,64.15,0,0,1,468.67,260Z"/><path class="cls-4" d="M368.06,170.06a62.91,62.91,0,0,0-14.25,4.48c-1.15.49-2.31,1-3.43,1.53s-2.24,1.1-3.35,1.68l-1.68.85-1.62.93-3.25,1.88a146.13,146.13,0,0,0-23.77,18.23c-1.8,1.73-3.59,3.47-5.36,5.24s-3.37,3.67-5,5.53-3.32,3.72-4.82,5.71-3.05,3.94-4.52,5.94-2.84,4.09-4.2,6.17-2.67,4.19-4,6.31-2.37,4.37-3.51,6.58-2.2,4.45-3.21,6.72l.47.31c3.54-3.54,6.74-7.25,9.95-10.93,1.67-1.79,3.31-3.6,4.93-5.41l2.4-2.74c.78-.93,1.62-1.8,2.45-2.68,3.34-3.52,6.48-7.19,9.89-10.6l2.5-2.61c.84-.86,1.62-1.79,2.5-2.6,1.73-1.68,3.43-3.38,5.12-5.08,6.92-6.68,14.07-13.11,21.63-19.09l2.86-2.21,1.42-1.12,1.47-1.06,2.93-2.15c.48-.37,1-.7,1.48-1l1.5-1A134.31,134.31,0,0,1,368.06,170.06Z"/><path class="cls-5" d="M237.72,309.71a25.46,25.46,0,0,1,.07-4.86,41.86,41.86,0,0,1,.78-4.83,55.84,55.84,0,0,1,3-9.33,68.18,68.18,0,0,1,4.38-8.76,74.31,74.31,0,0,1,5.49-8.1,78.89,78.89,0,0,1,6.38-7.38c.57-.58,1.14-1.16,1.72-1.73s1.18-1.11,1.77-1.66q1.78-1.65,3.68-3.18c1.23-1.05,2.55-2,3.83-3s2.65-1.84,4-2.74,2.75-1.68,4.15-2.48,2.87-1.49,4.33-2.17l.24.33c-1.08,1.21-2.17,2.38-3.3,3.5s-2.2,2.3-3.31,3.42c-.55.57-1.09,1.15-1.64,1.7s-1.11,1.11-1.65,1.69l-1.62,1.7c-.27.29-.55.56-.82.84l-.8.85c-4.26,4.56-8.45,9.11-12.29,13.94-1,1.2-1.9,2.43-2.85,3.65s-1.83,2.47-2.7,3.74c-1.76,2.53-3.44,5.12-5,7.78s-3,5.4-4.35,8.23A62.75,62.75,0,0,0,237.72,309.71Z"/><path class="cls-5" d="M190.8,216.35a53.07,53.07,0,0,1,12.4-.88c1,0,2.08.05,3.11.15s2.08.17,3.11.28l1.56.15,1.54.22,3.09.47a121.45,121.45,0,0,1,23.95,6.88c1.92.8,3.84,1.6,5.74,2.43s3.73,1.82,5.59,2.74,3.7,1.88,5.47,3,3.55,2.12,5.31,3.23,3.44,2.3,5.13,3.49,3.34,2.43,5,3.68,3.17,2.67,4.72,4,3.06,2.78,4.53,4.23l-.27.38c-3.82-1.66-7.42-3.57-11-5.44-1.84-.87-3.65-1.78-5.46-2.69l-2.69-1.38c-.89-.49-1.81-.91-2.72-1.34-3.65-1.7-7.2-3.59-10.88-5.19l-2.73-1.26c-.91-.42-1.79-.89-2.73-1.26-1.85-.77-3.68-1.57-5.51-2.37-7.39-3.07-14.88-5.87-22.55-8.2l-2.89-.84-1.45-.44-1.45-.37-2.92-.77c-.49-.14-1-.24-1.47-.35l-1.47-.35A110.06,110.06,0,0,0,190.8,216.35Z"/><path class="cls-6" d="M281.8,252.84a50.29,50.29,0,0,0-2.44-11.73c-.31-1-.59-1.92-.95-2.86s-.71-1.87-1.08-2.81l-.55-1.4-.61-1.38-1.25-2.74a116.76,116.76,0,0,0-12.66-20.43c-1.25-1.57-2.49-3.14-3.77-4.69s-2.66-3-4-4.46-2.71-3-4.18-4.31-2.9-2.74-4.39-4.08-3-2.59-4.58-3.84-3.14-2.46-4.73-3.66-3.3-2.24-5-3.32-3.38-2.11-5.11-3.1l-.28.35c2.54,3.11,5.25,6,7.93,8.81,1.3,1.48,2.61,2.93,3.93,4.37l2,2.13c.68.7,1.31,1.44,1.95,2.17,2.54,2.95,5.22,5.75,7.67,8.74l1.89,2.2c.63.74,1.3,1.43,1.88,2.2,1.2,1.52,2.43,3,3.65,4.5,4.79,6.05,9.36,12.27,13.53,18.78l1.54,2.46L273,236l.73,1.25c.49.84,1,1.67,1.49,2.51.25.41.48.84.71,1.27l.7,1.28A107.7,107.7,0,0,1,281.8,252.84Z"/><path class="cls-5" d="M286,160a108.55,108.55,0,0,1,1.5,11.49l.11,1.43c0,.47.1.94.11,1.42,0,1,.09,1.91.15,2.86l.08,1.43,0,1.43.08,2.85c.12,7.61-.24,15.19-.86,22.75-.2,1.89-.39,3.78-.55,5.67-.06.95-.23,1.88-.34,2.83l-.35,2.83c-.38,3.78-1.05,7.54-1.53,11.33-.13.95-.24,1.9-.42,2.84l-.47,2.84c-.3,1.89-.59,3.79-.85,5.71-.64,3.8-1.31,7.61-1.7,11.54l.42.13c.88-1.75,1.72-3.52,2.5-5.32s1.58-3.59,2.27-5.43,1.27-3.7,1.88-5.57,1.24-3.73,1.67-5.64.92-3.82,1.38-5.74.77-3.85,1.08-5.79.66-3.89.85-5.85.37-3.92.53-5.89a115.3,115.3,0,0,0-.74-23.63l-.47-2.92-.24-1.46-.32-1.45c-.2-1-.42-1.93-.64-2.89s-.51-1.91-.78-2.85A50.41,50.41,0,0,0,286,160Z"/><path class="cls-3" d="M230,285.79a30.91,30.91,0,0,1,2.54-8.07,42.74,42.74,0,0,1,4.33-7.34,47.77,47.77,0,0,1,12.41-11.77,50.91,50.91,0,0,1,7.52-4.13c1.28-.62,2.64-1.07,4-1.6s2.69-.92,4.07-1.25a53.76,53.76,0,0,1,16.7-1.78A133.66,133.66,0,0,0,265.94,255a76.06,76.06,0,0,0-14.05,7.53,73.87,73.87,0,0,0-12,10.34A79.31,79.31,0,0,0,230,285.79Z"/><path class="cls-4" d="M218.69,258.62a23.94,23.94,0,0,1,6.12-5.75,39.37,39.37,0,0,1,3.63-2.2c1.25-.66,2.55-1.21,3.84-1.8a54.7,54.7,0,0,1,16.44-3.7,75.33,75.33,0,0,1,16.72.55c1.37.19,2.73.49,4.09.76s2.72.52,4.06.86c2.66.77,5.31,1.56,7.9,2.51-2.78,0-5.51-.17-8.22-.34l-8.12-.23a154.41,154.41,0,0,0-16,.61,97.71,97.71,0,0,0-15.6,2.71c-1.26.39-2.55.72-3.8,1.13s-2.53.82-3.75,1.35A42.38,42.38,0,0,0,218.69,258.62Z"/><path class="cls-4" d="M262,185.84a100.83,100.83,0,0,1,8.4,14.76,142.54,142.54,0,0,1,6.28,15.74A117.09,117.09,0,0,1,281,232.8c.23,1.41.5,2.81.65,4.23s.3,2.85.39,4.27,0,2.88,0,4.3-.32,2.86-.54,4.25a92,92,0,0,0-4-16.2c-1.69-5.28-3.44-10.54-5.31-15.77s-3.71-10.5-5.45-15.81S263.32,191.4,262,185.84Z"/><path class="cls-3" d="M347.19,224.9a89.36,89.36,0,0,0-17.32.15,79.06,79.06,0,0,0-16.6,3.56,76.73,76.73,0,0,0-15.4,7.13,117.06,117.06,0,0,0-14,10.3,54.16,54.16,0,0,1,12.17-12.94,55.45,55.45,0,0,1,33.64-11.39c1.5,0,3,.06,4.49.18s3,.32,4.44.56A38.3,38.3,0,0,1,347.19,224.9Z"/><path class="cls-6" d="M365.8,252.84q-10.29-4.14-20.7-7.38A141.33,141.33,0,0,0,324,240.62a73.18,73.18,0,0,0-21.36-.19,52.94,52.94,0,0,0-10.37,2.7,55.47,55.47,0,0,0-9.7,5,38.73,38.73,0,0,1,8.85-6.83,44.63,44.63,0,0,1,10.59-4,52.34,52.34,0,0,1,11.27-1.45,65.58,65.58,0,0,1,11.3.64,85.58,85.58,0,0,1,11,2.26,108.39,108.39,0,0,1,10.61,3.58c1.73.7,3.44,1.42,5.13,2.2s3.35,1.62,5,2.48A77.91,77.91,0,0,1,365.8,252.84Z"/><path class="cls-6" d="M374.63,270.6c-7.29-4.11-14.59-8-22-11.7-3.72-1.81-7.43-3.6-11.22-5.2s-7.58-3.18-11.44-4.54a94.88,94.88,0,0,0-23.71-5.51c-8-.62-16.32.46-23.71,4.5a31.13,31.13,0,0,1,11.14-5.94,43.57,43.57,0,0,1,12.69-1.77,78.18,78.18,0,0,1,25,4.78,137.91,137.91,0,0,1,43.26,25.38Z"/><path class="cls-3" d="M359.36,296.43c-6.12-5.5-11.91-11-17.78-16.41s-11.75-10.62-17.91-15.39c-1.52-1.22-3.12-2.32-4.66-3.49s-3.18-2.2-4.81-3.22a70.92,70.92,0,0,0-10.07-5.42c-6.94-3-14.55-4.48-22.64-2.65a25,25,0,0,1,11.79-4.23,36.61,36.61,0,0,1,12.8,1.15l3.08.93c1,.36,2,.76,3,1.15a53,53,0,0,1,5.74,2.73,75.06,75.06,0,0,1,10.55,6.85,106.15,106.15,0,0,1,17.71,17.28A96.77,96.77,0,0,1,359.36,296.43Z"/><path class="cls-6" d="M273.67,298a78.55,78.55,0,0,1-.16-12c.22-4,.65-7.9,1.25-11.81a101,101,0,0,1,2.44-11.63,60.4,60.4,0,0,1,4.19-11.25,87.36,87.36,0,0,1-.46,11.94c-.36,3.93-.93,7.81-1.59,11.68s-1.42,7.73-2.33,11.57A100.86,100.86,0,0,1,273.67,298Z"/><path class="cls-6" d="M298.29,320.87c-1.49-6-2.76-12-4-18.05l-3.75-17.94L288.6,276c-.73-2.95-1.35-5.93-2.12-8.86a154.57,154.57,0,0,0-5.23-17.57c1,1.22,1.87,2.49,2.78,3.78s1.56,2.7,2.33,4.08A72.66,72.66,0,0,1,290.1,266c1.13,2.91,2,5.9,2.86,8.89s1.55,6,2.12,9.07a163.1,163.1,0,0,1,2.68,18.38A130.6,130.6,0,0,1,298.29,320.87Z"/><path class="cls-6" d="M315.54,307.26c-2.64-5-5.05-10.09-7.53-15.1s-4.9-10-7.44-14.93-5.19-9.76-8-14.47-5.91-9.25-10-13.24a26.92,26.92,0,0,1,7.18,4.75,51.84,51.84,0,0,1,5.9,6.32,84.62,84.62,0,0,1,9.07,14.53,125,125,0,0,1,6.57,15.69A103,103,0,0,1,315.54,307.26Z"/><path class="cls-3" d="M338.6,291.25a87.77,87.77,0,0,0-11.15-14.18,102.38,102.38,0,0,0-13.37-11.79,19.06,19.06,0,0,0-1.81-1.28l-1.86-1.24-1.84-1.25c-.61-.42-1.27-.76-1.9-1.15-1.27-.77-2.55-1.53-3.81-2.32l-3.94-2.1-2-1.09c-.66-.37-1.35-.65-2-1-1.36-.62-2.7-1.31-4.06-2s-2.76-1.21-4.14-1.83-2.78-1.24-4.17-1.93a75.91,75.91,0,0,1,9.05,1.71c1.47.45,3,.87,4.42,1.36.73.26,1.48.46,2.2.75l2.14.89c1.42.62,2.84,1.22,4.25,1.88s2.71,1.5,4.07,2.25c.67.39,1.36.75,2,1.18l1.92,1.3,1.92,1.33a23.11,23.11,0,0,1,1.87,1.38l3.63,2.91c1.16,1,2.27,2.13,3.4,3.19a21.15,21.15,0,0,1,1.63,1.65c.54.56,1.06,1.13,1.58,1.71,1.06,1.12,2,2.36,3,3.56A54.41,54.41,0,0,1,338.6,291.25Z"/><path class="cls-7" d="M370,357.87v-23a3.43,3.43,0,0,0-3.43-3.43H290.62a3.43,3.43,0,0,0-3.43,3.43v23Z"/><path class="cls-5" d="M112.62,108.75c2.86-2.13,1.64-2.07.84-6.46-.36-2-2.82-3.87-3.62-6.47-.64-2.08.42-5-.6-7.38-.89-2-3.71-3.31-4.94-5.51-1.11-2-.69-5.05-2.12-7.1-1.31-1.87-4.33-2.54-5.94-4.43s-1.65-4.84-3.42-6.57-4.73-1.73-6.63-3.31S83.74,57,81.73,55.6s-5-1-7.06-2.26-3.06-4.1-5.24-5.24-5.06-.33-7.3-1.34-4.6-3.48-6.88-4.37c-2.41,2.46,2.42,2.68,4.22,6.65.81,1.77,0,4.73,1.23,7.05,1,1.87,3.82,2.93,5.07,5.06,1.1,1.87.62,4.88,1.94,6.9,1.21,1.84,4.14,2.61,5.54,4.54s1.13,4.83,2.61,6.67,4.4,2.21,6,4,1.63,4.71,3.28,6.37,4.62,1.75,6.36,3.31,2.14,4.51,4,6,4.79,1.22,6.69,2.57,2.65,4.24,4.62,5.48S110.58,107.64,112.62,108.75Z"/><path class="cls-5" d="M123.48,136.82c1.77-3.1.67-2.55-1.81-6.27-1.12-1.68-4.12-2.42-5.89-4.48-1.41-1.66-1.62-4.77-3.49-6.54-1.63-1.53-4.73-1.56-6.73-3.09-1.8-1.37-2.64-4.36-4.77-5.66-1.94-1.2-5-.61-7.21-1.71-2.06-1-3.45-3.78-5.76-4.67-2.14-.82-5,.3-7.4-.39-2.2-.64-4-3.15-6.44-3.66-2.25-.47-4.94,1.08-7.38.74-2.28-.31-4.44-2.54-6.89-2.72s-4.77,1.71-7.23,1.67c-2.31,0-5.6-1.36-8.06-1.26-1.23,3.21,3.3,1.49,6.53,4.41,1.44,1.31,1.9,4.34,3.94,6,1.63,1.32,4.66,1.16,6.66,2.62,1.75,1.28,2.51,4.23,4.53,5.56,1.83,1.21,4.83.74,6.89,2,1.91,1.13,3,4,5,5.09s4.92.27,7.06,1.25,3.37,3.68,5.54,4.54,4.93-.24,7.15.51,3.76,3.28,6,3.9,4.88-.79,7.16-.31,4.12,2.84,6.42,3.18S121.15,136.61,123.48,136.82Z"/><path class="cls-5" d="M131.08,152.5c.47-2.37-.11-1.78-2.5-3.64-1.08-.84-3.16-.68-4.74-1.62-1.26-.77-2-2.72-3.64-3.45-1.37-.64-3.36,0-5-.55-1.45-.5-2.63-2.24-4.28-2.62s-3.32.67-5,.45-3-1.7-4.69-1.77-3.16,1.26-4.83,1.32-3.26-1.16-4.92-1-2.94,1.74-4.58,2-3.39-.69-5-.28-2.7,2.12-4.28,2.62-3.89.32-5.45.9c-.1,2.33,2.44.26,5.13,1.45,1.21.53,2.15,2.37,3.81,3,1.33.5,3.24-.25,4.84.26,1.39.45,2.51,2.18,4.09,2.6s3.26-.55,4.84-.21,2.74,1.92,4.32,2.18,3.22-.87,4.8-.69,2.94,1.63,4.53,1.73,3.11-1.21,4.69-1.21,3.12,1.31,4.69,1.23,3-1.55,4.53-1.73,3.25.94,4.8.67S129.54,152.86,131.08,152.5Z"/><path class="cls-5" d="M151.72,176.35c.48-2.37-.11-1.78-2.5-3.64-1.07-.84-3.16-.67-4.74-1.62-1.26-.76-2-2.72-3.63-3.45-1.38-.63-3.37,0-5-.55-1.45-.49-2.63-2.23-4.27-2.62s-3.33.67-5,.45-3-1.69-4.69-1.77-3.16,1.26-4.83,1.32-3.26-1.16-4.92-1-2.94,1.75-4.57,2.05-3.4-.68-5-.28-2.7,2.12-4.28,2.62-3.89.32-5.45.91c-.1,2.32,2.44.25,5.13,1.44,1.21.53,2.15,2.37,3.81,3,1.33.5,3.24-.25,4.84.26,1.39.45,2.51,2.18,4.09,2.6s3.26-.55,4.84-.21,2.74,1.93,4.32,2.19,3.22-.88,4.8-.7,2.95,1.64,4.53,1.73,3.11-1.21,4.69-1.2,3.12,1.3,4.69,1.22,3-1.55,4.53-1.72,3.25.94,4.81.67S150.18,176.71,151.72,176.35Z"/><path class="cls-5" d="M138.47,145c-3-.88-2-1.21-2.68-5.08-.32-1.76,1.14-4.06,1-6.45-.12-1.92-1.89-4-1.77-6.29.1-2,2.05-3.88,2.39-6.08.31-2-1-4.38-.43-6.51.51-1.95,2.8-3.43,3.55-5.49.69-1.89-.12-4.5.81-6.48.86-1.83,3.38-2.88,4.46-4.77s.64-4.46,1.87-6.25,3.79-2.34,5.14-4,1.27-4.33,2.72-5.94,4.08-1.82,5.62-3.35,2.73-4.28,4.35-5.72c2.74,1.29-1.18,3-1.45,6.79-.12,1.71,1.43,3.91,1.15,6.21-.23,1.84-2.26,3.59-2.64,5.74-.33,1.88,1,4.21.51,6.29-.43,1.89-2.62,3.43-3.18,5.45s.55,4.34-.11,6.32-3,3.17-3.72,5.1.11,4.39-.75,6.27-3.28,2.86-4.24,4.69-.38,4.38-1.44,6.15-3.58,2.47-4.73,4.17-.89,4.32-2.15,5.95S139.82,143.43,138.47,145Z"/><path class="cls-5" d="M124.21,118c-2.41-.11-1.7-.54-2.93-3.31-.55-1.25.12-3.23-.42-5-.43-1.41-2.13-2.65-2.46-4.37-.28-1.48.83-3.26.68-5-.12-1.53-1.53-3.09-1.5-4.78s1.46-3.06,1.65-4.73-.91-3.34-.58-5,2-2.77,2.47-4.37-.34-3.44.25-5,2.4-2.43,3.1-3.95.16-3.45,1-4.92,2.71-2.1,3.58-3.52,1.26-3.69,2.2-5.06c2.28.47-.34,2.43.15,5.33.23,1.3,1.79,2.66,2,4.42.16,1.42-1,3.09-.92,4.76.09,1.46,1.5,3,1.52,4.6,0,1.49-1.33,3-1.38,4.64s1.2,3.14,1.07,4.73S132,90.4,131.78,92s.88,3.26.58,4.81-1.93,2.73-2.31,4.27.51,3.34,0,4.84-2.23,2.5-2.78,4,.12,3.38-.51,4.82S124.93,116.55,124.21,118Z"/><path class="cls-5" d="M151.88,169.17c-2.13-.53-1.42-.78-2-3.46-.27-1.21.68-2.86.51-4.52-.13-1.33-1.43-2.74-1.41-4.32,0-1.37,1.31-2.76,1.48-4.3.16-1.38-.81-3-.49-4.52s1.84-2.47,2.3-3.92-.21-3.13.37-4.54,2.27-2.1,3-3.45.31-3.12,1.11-4.41,2.57-1.73,3.46-3,.76-3.05,1.72-4.21,2.78-1.39,3.81-2.5,1.77-3.06,2.85-4.11c2,.82-.73,2.09-.8,4.77,0,1.19,1.11,2.68,1,4.28-.11,1.29-1.47,2.57-1.67,4.08-.17,1.31.82,2.9.55,4.36s-1.72,2.46-2.06,3.89.52,3,.12,4.4-2,2.29-2.44,3.66.2,3.05-.34,4.39-2.2,2.08-2.81,3.38-.13,3.06-.81,4.32-2.43,1.83-3.18,3.05-.49,3-1.31,4.2S152.77,168.05,151.88,169.17Z"/><path class="cls-6" d="M169.8,218.3a1,1,0,0,1-.94-.67C130.89,107.11,55.37,43.78,54.61,43.15a1,1,0,0,1,1.27-1.53c.19.16,19.36,16.11,43,45.57,21.79,27.18,52,71.76,71.89,129.8a1,1,0,0,1-.62,1.26A.93.93,0,0,1,169.8,218.3Z"/><path class="cls-6" d="M138.67,149a1,1,0,0,1-.79-.39c-12.47-16.33-78.74-44-79.41-44.27a1,1,0,0,1-.54-1.3,1,1,0,0,1,1.3-.54c2.75,1.15,67.43,28.15,80.23,44.9a1,1,0,0,1-.19,1.4A1,1,0,0,1,138.67,149Z"/><path class="cls-6" d="M137,146a.69.69,0,0,1-.2,0,1,1,0,0,1-.77-1.17c6.08-29,24.32-63.59,24.51-63.94a1,1,0,1,1,1.75.93c-.18.34-18.3,34.72-24.32,63.42A1,1,0,0,1,137,146Z"/><path class="cls-6" d="M150.75,172.13h-.13a1,1,0,0,1-.85-1.12c2.76-20.56,14.32-45.48,14.44-45.73a1,1,0,0,1,1.8.84c-.12.25-11.55,24.9-14.27,45.16A1,1,0,0,1,150.75,172.13Z"/><path class="cls-6" d="M153.29,177.47a1,1,0,0,1-.53-.15c-12.9-8.1-50.63-7.17-51-7.16a1,1,0,1,1-.06-2c1.58,0,38.72-1,52.13,7.46a1,1,0,0,1,.31,1.37A1,1,0,0,1,153.29,177.47Z"/><path class="cls-6" d="M145.13,160.93a1,1,0,0,1-.73-.32C129.13,144.19,81,146,80.49,146a1,1,0,1,1-.08-2c2-.09,49.56-1.82,65.45,15.27a1,1,0,0,1-.05,1.41A1.05,1.05,0,0,1,145.13,160.93Z"/><path class="cls-5" d="M219.87,77.56c-3.17-1.64-2-1.78-1.88-6.24,0-2,2.16-4.27,2.52-7,.3-2.16-1.22-4.88-.59-7.38.54-2.17,3.12-3.87,4-6.24.78-2.13-.14-5.1.95-7.35,1-2.05,3.86-3.21,5.14-5.33,1.18-2,.85-5,2.31-7s4.39-2.48,6-4.34,1.68-4.83,3.44-6.56,4.73-1.77,6.6-3.37,2.36-4.54,4.32-6,4.94-1.15,7-2.51,4-4.18,6.1-5.43c2.77,2-2,3-3.1,7.25-.51,1.88.75,4.67-.07,7.16-.66,2-3.3,3.51-4.19,5.82-.78,2,.18,4.9-.79,7.11-.9,2-3.67,3.25-4.74,5.38s-.33,5-1.49,7-4,2.89-5.25,4.87-.85,4.91-2.21,6.82-4.27,2.47-5.74,4.29-1.38,4.8-2.94,6.54-4.53,2-6.18,3.61-1.93,4.62-3.68,6.15S221.7,76.13,219.87,77.56Z"/><path class="cls-5" d="M213.7,107c-2.26-2.77-1.08-2.41.76-6.47.83-1.85,3.68-3.06,5.09-5.39,1.13-1.86.82-5,2.39-7,1.36-1.77,4.41-2.31,6.14-4.14,1.56-1.64,1.9-4.73,3.79-6.36,1.72-1.49,4.82-1.41,6.84-2.85,1.87-1.32,2.79-4.29,4.92-5.54s5-.52,7.24-1.58c2.07-1,3.47-3.76,5.77-4.65,2.14-.83,5,.26,7.4-.47,2.2-.68,4-3.22,6.36-3.8s5,.92,7.4.48,5.31-2.25,7.75-2.55c1.73,3-3,2-5.72,5.41-1.22,1.53-1.18,4.58-2.92,6.54-1.4,1.58-4.42,1.91-6.16,3.67-1.52,1.55-1.78,4.58-3.56,6.22-1.62,1.49-4.65,1.51-6.48,3s-2.27,4.41-4.16,5.84-4.81,1.06-6.76,2.38-2.73,4.17-4.74,5.37-4.9.57-7,1.66-3.17,3.85-5.3,4.82-4.94,0-7.11.86-3.61,3.46-5.82,4.18S216,106.43,213.7,107Z"/><path class="cls-5" d="M208.73,123.71c-.85-2.26-.18-1.77,1.87-4,.93-1,3-1.18,4.42-2.37,1.12-1,1.59-3,3-4,1.25-.85,3.32-.54,4.83-1.35,1.35-.72,2.23-2.63,3.79-3.27s3.39.12,5-.37,2.7-2.16,4.34-2.51,3.32.74,5,.53,3-1.67,4.7-1.76,3.18,1.25,4.84,1.28,3.24-1.22,4.9-1.08,3,1.65,4.65,1.89,3.89-.31,5.52,0c.48,2.28-2.36.65-4.83,2.26-1.1.72-1.73,2.69-3.27,3.57-1.23.71-3.24.28-4.73,1-1.31.66-2.13,2.55-3.62,3.22s-3.31,0-4.81.58-2.4,2.34-3.91,2.85-3.32-.34-4.85.09-2.64,2.1-4.19,2.44-3.27-.68-4.82-.42-2.87,1.79-4.44,2-3.17-1-4.74-1-3.06,1.46-4.64,1.44S210.31,123.82,208.73,123.71Z"/><path class="cls-5" d="M192.22,150.59c-.85-2.26-.18-1.77,1.87-4,.93-1,3-1.18,4.42-2.37,1.12-1,1.59-3,3-4,1.25-.85,3.32-.54,4.83-1.35,1.35-.72,2.23-2.63,3.79-3.28s3.39.13,5-.36,2.7-2.16,4.34-2.51,3.33.74,5,.53,3-1.68,4.7-1.76,3.18,1.25,4.85,1.28,3.23-1.22,4.89-1.08,3,1.65,4.65,1.89,3.89-.31,5.52,0c.48,2.28-2.36.65-4.83,2.26-1.1.72-1.73,2.69-3.27,3.57-1.23.71-3.24.28-4.73,1-1.31.67-2.13,2.56-3.62,3.23s-3.31,0-4.81.57-2.4,2.35-3.91,2.86-3.32-.34-4.85.09-2.64,2.09-4.19,2.44-3.27-.69-4.82-.43-2.87,1.8-4.44,2-3.17-1.05-4.74-1-3.06,1.46-4.63,1.44S193.8,150.7,192.22,150.59Z"/><path class="cls-5" d="M200.22,117.49C203.06,116.13,202,116,202,112c0-1.78-1.78-3.82-2-6.2-.2-1.91,1.2-4.27.72-6.49-.42-1.93-2.65-3.5-3.34-5.61-.63-1.89.26-4.49-.63-6.5-.82-1.83-3.32-2.93-4.39-4.84-1-1.75-.61-4.46-1.85-6.26s-3.8-2.3-5.18-4-1.35-4.3-2.85-5.87-4.12-1.69-5.72-3.15-2-4.06-3.65-5.42-4.32-1.14-6.09-2.4-3.39-3.78-5.22-4.94c-2.5,1.72,1.65,2.73,2.53,6.47.4,1.67-.78,4.09-.12,6.31.52,1.78,2.8,3.18,3.53,5.24.63,1.8-.3,4.32.51,6.29.73,1.8,3.14,3,4,4.86s.16,4.37,1.13,6.22,3.43,2.65,4.49,4.44.62,4.35,1.76,6.06,3.71,2.29,4.94,3.94,1.09,4.26,2.42,5.83,3.94,1.87,5.35,3.36,1.58,4.11,3.08,5.52S198.64,116.18,200.22,117.49Z"/><path class="cls-5" d="M209.92,88.51c2.36-.5,1.59-.81,2.35-3.74.34-1.32-.64-3.17-.39-5,.19-1.46,1.67-3,1.72-4.71,0-1.51-1.34-3.09-1.48-4.79-.12-1.52,1-3.29.71-5-.27-1.51-1.94-2.78-2.39-4.4s.36-3.44-.24-5-2.41-2.4-3.13-3.91-.23-3.45-1.06-4.9-2.77-2-3.7-3.39-.72-3.38-1.74-4.7-3-1.64-4.1-2.89-1.84-3.44-3-4.64c-2.18.83.73,2.34.71,5.29,0,1.31-1.33,2.91-1.24,4.68.07,1.42,1.52,2.88,1.68,4.54.14,1.46-1,3.17-.76,4.79.22,1.47,1.8,2.77,2.12,4.36s-.68,3.28-.29,4.83,2.07,2.61,2.54,4.13-.33,3.35.21,4.84,2.34,2.38,3,3.83,0,3.38.74,4.8,2.6,2.1,3.38,3.47.43,3.35,1.29,4.67S209,87.24,209.92,88.51Z"/><path class="cls-5" d="M190.9,143.53c2-.86,1.28-1,1.43-3.74.07-1.24-1.13-2.71-1.23-4.38-.08-1.33,1-2.93.7-4.49-.24-1.35-1.74-2.51-2.16-4s.31-3.11-.25-4.54-2.22-2.14-2.91-3.5-.29-3.12-1.1-4.41-2.58-1.71-3.48-2.93-.82-3-1.82-4.17-2.81-1.3-3.89-2.36-1.24-2.89-2.37-3.88-3-.93-4.17-1.85-2.24-2.74-3.48-3.6c-1.79,1.13,1.06,1.95,1.57,4.58.22,1.17-.67,2.83-.28,4.39.31,1.25,1.86,2.29,2.3,3.75.39,1.27-.33,3,.17,4.39s2.1,2.15,2.66,3.5,0,3,.6,4.36,2.31,1.95,3,3.22.3,3,1,4.28,2.51,1.7,3.32,2.88.63,3,1.51,4.14,2.68,1.41,3.62,2.49,1,2.91,2,3.93S189.84,142.57,190.9,143.53Z"/><path class="cls-6" d="M170.44,231l-.15,0a1,1,0,0,1-.83-1.13c10.48-68.15,35.89-126.43,55.35-163.31,21.09-40,40-64.16,40.15-64.4a1,1,0,0,1,1.57,1.23c-.19.23-19,24.31-40,64.14-19.38,36.74-44.68,94.78-55.12,162.64A1,1,0,0,1,170.44,231Z"/><path class="cls-6" d="M201.7,118.24a1,1,0,0,1-.47-.11,1,1,0,0,1-.41-1.35c9.93-18.62,68.26-52.62,70.74-54.06a1,1,0,1,1,1,1.71c-.6.35-60.32,35.16-70,53.29A1,1,0,0,1,201.7,118.24Z"/><path class="cls-6" d="M201.7,118.24a1,1,0,0,1-.93-.63c-10.59-27.35-34-58.34-34.26-58.64a1,1,0,1,1,1.58-1.21c.24.31,23.85,31.52,34.54,59.13a1,1,0,0,1-.57,1.29A1.13,1.13,0,0,1,201.7,118.24Z"/><path class="cls-6" d="M191.86,144a1,1,0,0,1-1-.71c-5.95-19.53-20.75-39.76-20.9-40a1,1,0,1,1,1.6-1.18c.15.21,15.14,20.7,21.2,40.56a1,1,0,0,1-.95,1.29Z"/><path class="cls-6" d="M190.69,152a1,1,0,0,1-.65-1.74c11.87-10.48,48.67-15.59,50.23-15.8a1,1,0,0,1,.26,2c-.37,0-37.76,5.24-49.18,15.32A1,1,0,0,1,190.69,152Z"/><path class="cls-6" d="M196.07,134.32a1,1,0,0,1-.83-1.54c12.91-19.43,60.11-25.42,62.12-25.66a1,1,0,0,1,1.1.86,1,1,0,0,1-.86,1.11c-.48.06-48.3,6.12-60.7,24.79A1,1,0,0,1,196.07,134.32Z"/><path class="cls-6" d="M210.35,99.35h-.15a1,1,0,0,1-.83-1.13c3-19.18-14-58.57-14.21-59a1,1,0,1,1,1.82-.79c.71,1.63,17.4,40.31,14.35,60.05A1,1,0,0,1,210.35,99.35Z"/><path class="cls-6" d="M124.35,125.23a1,1,0,0,1-1-.89c-2.19-21.36,5-55.6,5.07-55.94a1,1,0,1,1,1.94.41c-.07.34-7.19,34.28-5,55.33a1,1,0,0,1-.89,1.09Z"/><path class="cls-5" d="M222.57,176.25c1.61,2.29,1.59,1.33,5.05.8,1.57-.24,3.09-2.13,5.14-2.7,1.65-.46,3.93.43,5.8-.32,1.63-.65,2.68-2.83,4.43-3.75,1.57-.83,4-.44,5.61-1.51s2.08-3.34,3.6-4.57,3.83-1.19,5.22-2.53,1.46-3.68,2.74-5.13,3.57-1.82,4.73-3.37.87-3.86,1.92-5.48,3.28-2.32,4.22-4,.37-4,1.21-5.69,2.82-3.53,3.57-5.31c-1.88-1.94-2.15,1.85-5.3,3.17-1.41.6-3.71-.08-5.56.82-1.48.72-2.37,2.93-4.07,3.87-1.49.82-3.84.37-5.45,1.37s-2.13,3.19-3.67,4.25-3.82.77-5.29,1.9-1.83,3.4-3.23,4.59-3.73,1.18-5.07,2.44-1.46,3.58-2.72,4.91-3.58,1.58-4.77,3-1.05,3.72-2.15,5.18-3.38,2-4.39,3.51S223.49,174.67,222.57,176.25Z"/><path class="cls-6" d="M179.32,233.58a1,1,0,0,1-.82-1.55,430.32,430.32,0,0,1,85.14-92.47,1,1,0,0,1,1.25,1.54,428.81,428.81,0,0,0-84.75,92A1,1,0,0,1,179.32,233.58Z"/><path class="cls-5" d="M149.84,203.47c.86-3.25,0-2.49-3.15-5.26-1.43-1.26-4.34-1.2-6.44-2.65-1.69-1.16-2.62-3.94-4.76-5.09-1.85-1-4.66-.27-6.85-1.18-2-.8-3.46-3.32-5.71-4-2.05-.61-4.67.65-7,.2-2.11-.42-4-2.6-6.35-2.85-2.15-.23-4.5,1.49-6.82,1.43-2.16-.05-4.42-1.88-6.74-1.76-2.16.12-4.22,2.17-6.51,2.46s-4.65-1.23-6.93-.8-3.91,2.7-6.15,3.26-5.42.13-7.63.8c-.34,3.22,3.35.56,7,2.44,1.62.84,2.77,3.47,5,4.48,1.8.8,4.52-.08,6.69.77,1.9.73,3.3,3.23,5.45,4,2,.65,4.57-.5,6.73.11,2,.56,3.65,2.9,5.82,3.39s4.53-.94,6.71-.56,3.94,2.52,6.13,2.78,4.42-1.41,6.61-1.27,4.21,2.07,6.4,2.09,4.24-1.9,6.43-2,4.43,1.57,6.61,1.33S147.68,203.84,149.84,203.47Z"/><path class="cls-6" d="M166.34,210.86a.93.93,0,0,1-.57-.19c-15.28-11.82-82.16-20.9-82.83-21a.93.93,0,1,1,.25-1.85c2.77.37,68.05,9.24,83.72,21.36a.93.93,0,0,1,.17,1.31A.92.92,0,0,1,166.34,210.86Z"/><path class="cls-5" d="M184.66,222.32c3-1,2-1.26,2.55-5.15.27-1.76-1.25-4-1.18-6.42.06-1.92,1.78-4.07,1.6-6.34-.15-2-2.14-3.82-2.54-6-.36-2,.86-4.4.25-6.52-.55-1.93-2.88-3.35-3.69-5.39-.74-1.88,0-4.51-1-6.46s-3.45-2.79-4.59-4.65-.75-4.44-2-6.21-3.85-2.23-5.24-3.9-1.38-4.29-2.88-5.86-4.12-1.72-5.7-3.21-2.84-4.21-4.49-5.61c-2.72,1.37,1.25,2.93,1.62,6.76.17,1.71-1.33,4-1,6.23.27,1.84,2.35,3.53,2.78,5.67.38,1.87-.88,4.24-.35,6.31.48,1.88,2.71,3.35,3.33,5.36s-.45,4.35.27,6.31,3,3.1,3.85,5,0,4.39.91,6.25,3.36,2.77,4.36,4.57.5,4.38,1.6,6.11,3.65,2.38,4.84,4.05,1,4.3,2.3,5.89S183.27,220.81,184.66,222.32Z"/><path class="cls-6" d="M186.16,223.28a1,1,0,0,1-1-.77c-6.77-28.54-25.77-62.42-26-62.76a1,1,0,0,1,1.73-1c.19.35,19.33,34.47,26.16,63.28a1,1,0,0,1-.73,1.2Z"/><path class="cls-5" d="M213.43,191.12c-.43-2.37.15-1.78,2.57-3.58,1.1-.82,3.18-.61,4.78-1.52,1.27-.74,2.11-2.67,3.71-3.37,1.38-.61,3.36.07,5-.45,1.45-.46,2.67-2.18,4.32-2.53s3.31.75,5,.56,3.05-1.63,4.73-1.67,3.14,1.33,4.81,1.42,3.28-1.09,4.93-.86,2.9,1.8,4.53,2.14,3.41-.61,5-.17,2.66,2.17,4.23,2.71,3.88.4,5.42,1c.06,2.33-2.43.2-5.16,1.33-1.21.51-2.19,2.33-3.86,2.92-1.35.48-3.24-.32-4.85.16-1.4.42-2.55,2.13-4.14,2.52s-3.25-.63-4.84-.32-2.78,1.87-4.37,2.09-3.19-.94-4.78-.8-3,1.58-4.56,1.64-3.09-1.27-4.67-1.3-3.14,1.24-4.72,1.12-2.92-1.61-4.49-1.82-3.27.87-4.81.57S215,191.52,213.43,191.12Z"/><path class="cls-6" d="M211.86,192.21a1,1,0,0,1-.51-1.84c13.58-8.13,50.7-6.43,52.27-6.36a1,1,0,0,1,.94,1,1,1,0,0,1-1,.95c-.38,0-38.08-1.75-51.15,6.07A1,1,0,0,1,211.86,192.21Z"/><path class="cls-5" d="M190.42,221.38c-1.09-2.15-.37-1.75,1.43-4.17.82-1.1,2.87-1.5,4.13-2.84,1-1.07,1.26-3.16,2.59-4.29,1.15-1,3.24-.9,4.65-1.86,1.26-.87,1.93-2.86,3.41-3.67s3.39-.25,4.93-.91,2.45-2.44,4-3,3.39.37,5,0,2.83-2,4.47-2.25,3.3.89,5,.75,3.09-1.57,4.75-1.61,3.17,1.32,4.83,1.38,3.83-.73,5.49-.59c.72,2.22-2.28.9-4.56,2.77-1,.83-1.43,2.86-2.86,3.91-1.15.84-3.2.62-4.6,1.54-1.22.81-1.83,2.77-3.24,3.6s-3.29.34-4.72,1.09-2.13,2.6-3.58,3.27-3.33,0-4.81.61-2.4,2.37-3.9,2.88-3.32-.33-4.85.1-2.65,2.09-4.19,2.43-3.27-.69-4.82-.44-2.88,1.77-4.45,1.93S192,221.32,190.42,221.38Z"/><path class="cls-6" d="M185,225.6a1,1,0,0,1-.57-1.8c17.48-12.45,50.8-23.13,51.14-23.23a1,1,0,0,1,.6,1.89c-.33.11-33.36,10.69-50.59,23A1,1,0,0,1,185,225.6Z"/><path class="cls-5" d="M201.94,194.11c2.23-.91,1.42-1.08,1.65-4.09.1-1.37-1.19-3-1.27-4.85-.06-1.47,1.13-3.21.86-4.94-.23-1.49-1.86-2.8-2.29-4.45-.39-1.48.41-3.42-.18-5-.54-1.44-2.4-2.4-3.14-3.91s-.25-3.45-1.11-4.88-2.81-1.94-3.78-3.3-.84-3.36-1.91-4.63-3.08-1.49-4.24-2.68-1.31-3.21-2.54-4.33-3.25-1.08-4.54-2.12-2.42-3.06-3.77-4c-2,1.21,1.13,2.17,1.63,5.08.23,1.3-.79,3.1-.39,4.83.32,1.38,2,2.56,2.46,4.17.4,1.42-.43,3.3.09,4.85s2.27,2.41,2.86,3.91-.09,3.36.57,4.82,2.5,2.19,3.23,3.61.26,3.36,1.06,4.73,2.73,1.93,3.6,3.24.63,3.32,1.57,4.59,2.93,1.61,3.94,2.82,1,3.23,2.1,4.37S200.79,193,201.94,194.11Z"/><path class="cls-6" d="M203.9,201.08a1,1,0,0,1-1-.76c-5-20.56-23-50.18-23.21-50.48a1,1,0,0,1,1.7-1c.18.3,18.38,30.18,23.44,51a1,1,0,0,1-.73,1.2Z"/><rect class="cls-8" x="138.41" y="214.46" width="89.56" height="28.38"/><path class="cls-9" d="M138.41,236.06v44.49a29.65,29.65,0,0,0,29.65,29.66h30.25A29.65,29.65,0,0,0,228,280.55V236.06Z"/><path class="cls-4" d="M159.88,309.74a32.56,32.56,0,0,1-22.59-31.07V252.75h2.23v25.92a30.34,30.34,0,0,0,21,28.95Z"/><path class="cls-8" d="M213.86,240.34a4.85,4.85,0,1,1-4.85-4.85A4.85,4.85,0,0,1,213.86,240.34Z"/><path class="cls-8" d="M220.2,248.35a3.17,3.17,0,1,1-3.17-3.17A3.17,3.17,0,0,1,220.2,248.35Z"/><path class="cls-8" d="M209.35,250.36a2,2,0,1,1-2-2A2,2,0,0,1,209.35,250.36Z"/><path class="cls-10" d="M373.68,292.7l27.14,9.4-25.06-1.6a39.75,39.75,0,0,0-17.33,4.77l-7.58,5-11.24,7.44s15.38,12.31,29.24-1v0a21.56,21.56,0,0,0,3.46,1.09,19.55,19.55,0,0,0,10.85-.23s.83.59,2.73,1.66,4.72,2.55,8.84,4.37c.78.35,1.59.71,2.45,1.07v.26c0,3.58,1.16,44.77,41.42,74.93a0,0,0,0,0,0,0h0c.12.24,1.66,3.3,4.25,7.37,4.45,7,12,17,20.68,20.91,0,0,14.61,3.95,27.76-2.65s31.7-21,22.66-32.86a86.12,86.12,0,0,1-10.78-14.73,52.31,52.31,0,0,1-6.45-16.52l-13.9-98.74a50.61,50.61,0,0,0-8.67-21c-4.82-6.45-33.46-46.84-51.48-72.32-5.64-8-10.25-14.5-12.76-18l-2.06-2.9s-.2.23-.51.67c-2.29,3.16-10.63,17.21,4.14,37.23,0,0,17.5,32.95,29.18,55.66,6.13,11.93,10.65,21,10.19,21.07s-7.62-1-17.87-2.53l-9.42-1.39c-6.27-.94-13.1-2-19.87-3-21.87-3.29-43.09-6.53-43.09-6.53s-11.3-1.89-20.7,2c0,0-15.31,2.64-24.59-1.36,0,0-6.3,18,25.42,19.37l-24.38,1s2.44,20.67,35.85,16.58l15.84,2.93Z"/><path class="cls-11" d="M373.68,292.7l27.14,9.4-25.06-1.6a39.75,39.75,0,0,0-17.33,4.77l-7.58,5c12.19,3.33,31.39-2.41,31.39-2.41l39.15-9.44,15.24-32.2-3.6-5.71-9.42-1.39c-26.56-4-63-9.53-63-9.53s-11.3-1.89-20.7,2c0,0-15.31,2.64-24.59-1.36,0,0-6.3,18,25.42,19.37l-24.38,1s2.44,20.67,35.85,16.58l15.84,2.93Z"/><path class="cls-11" d="M368.86,316.72a21.56,21.56,0,0,0,3.46,1.09c4.85-7.77.42-11.68.42-11.68S374.38,312.71,368.86,316.72Z"/><path class="cls-11" d="M422.51,310.15,421,294.33l4.24-3.83,4.5,16.4s-11.56,53.34,7.7,85.09C412.52,365.4,422.51,310.15,422.51,310.15Z"/><path class="cls-11" d="M411.53,186.34s40.69,76.6,39.37,76.73c-.48.05-12.32-1.68-27.29-3.92l21.59,15.33L465.1,300l-.23-1.35a363.71,363.71,0,0,0-20.17-73.13l-22-56.09c-5.64-8-10.25-14.5-12.76-18l-2.57-2.23C405.1,152.27,396.76,166.32,411.53,186.34Z"/><path class="cls-11" d="M394.74,323.61c.78.35,1.59.71,2.45,1.07-1.13-10.91,4.34-15.33,4.77-15.65C401.47,309.18,393.6,311.93,394.74,323.61Z"/><path class="cls-11" d="M385.9,319.24a8.86,8.86,0,0,0,4.51-9.69c-2.05,8-7.24,8-7.24,8Z"/><path class="cls-11" d="M438.65,399.9c.12.24,1.66,3.3,4.25,7.37a82.09,82.09,0,0,0,14.34-.16A56.49,56.49,0,0,1,438.65,399.9Z"/><path class="cls-11" d="M496.77,361.42l4.21,37,2.24-20.5A52.31,52.31,0,0,1,496.77,361.42Z"/><path class="cls-10" d="M142.71,292.7l-27.14,9.4,25.06-1.6A39.81,39.81,0,0,1,158,305.27l7.57,5,11.24,7.44s-15.38,12.31-29.24-1v0a21.56,21.56,0,0,1-3.46,1.09,19.55,19.55,0,0,1-10.85-.23s-.83.59-2.73,1.66-4.72,2.55-8.84,4.37c-.78.35-1.59.71-2.45,1.07a1.78,1.78,0,0,1,0,.26c0,3.58-1.16,44.77-41.42,74.93l0,0h0c-.12.24-1.66,3.3-4.24,7.37-4.46,7-12,17-20.69,20.91,0,0-14.61,3.95-27.76-2.65s-31.7-21-22.66-32.86a86.12,86.12,0,0,0,10.78-14.73,52.31,52.31,0,0,0,6.45-16.52l13.9-98.74a50.61,50.61,0,0,1,8.67-21c4.83-6.45,33.46-46.84,51.48-72.32,5.64-8,10.25-14.5,12.76-18l2.06-2.9a7.47,7.47,0,0,1,.52.67c2.28,3.16,10.62,17.21-4.15,37.23,0,0-17.5,32.95-29.18,55.66C69.55,253.93,65,263,65.49,263.07s7.62-1,17.87-2.53l9.42-1.39c6.27-.94,13.1-2,19.87-3,21.87-3.29,43.09-6.53,43.09-6.53s11.3-1.89,20.7,2c0,0,15.32,2.64,24.59-1.36,0,0,6.3,18-25.42,19.37l24.38,1s-2.44,20.67-35.85,16.58l-15.84,2.93Z"/><path class="cls-11" d="M142.71,292.7l-27.14,9.4,25.06-1.6A39.81,39.81,0,0,1,158,305.27l7.57,5c-12.18,3.33-31.39-2.41-31.39-2.41L95,298.45l-15.24-32.2,3.6-5.71,9.42-1.39c26.56-4,63-9.53,63-9.53s11.3-1.89,20.7,2c0,0,15.32,2.64,24.59-1.36,0,0,6.3,18-25.42,19.37l24.38,1s-2.44,20.67-35.85,16.58l-15.84,2.93Z"/><path class="cls-11" d="M147.53,316.72a21.56,21.56,0,0,1-3.46,1.09c-4.85-7.77-.42-11.68-.42-11.68S142,312.71,147.53,316.72Z"/><path class="cls-11" d="M93.88,310.15l1.51-15.82-4.24-3.83-4.5,16.4S98.21,360.24,79,392C103.87,365.4,93.88,310.15,93.88,310.15Z"/><path class="cls-11" d="M104.86,186.34s-40.68,76.6-39.37,76.73c.49.05,12.33-1.68,27.29-3.92L71.19,274.48,51.29,300l.23-1.35a364.37,364.37,0,0,1,20.17-73.13l22-56.09c5.64-8,10.25-14.5,12.76-18l2.58-2.23C111.29,152.27,119.63,166.32,104.86,186.34Z"/><path class="cls-11" d="M121.65,323.61c-.78.35-1.59.71-2.45,1.07,1.13-10.91-4.34-15.33-4.77-15.65C114.92,309.18,122.79,311.93,121.65,323.61Z"/><path class="cls-11" d="M130.49,319.24a8.86,8.86,0,0,1-4.51-9.69c2,8,7.24,8,7.24,8Z"/><path class="cls-11" d="M77.74,399.9c-.12.24-1.66,3.3-4.24,7.37a82.18,82.18,0,0,1-14.35-.16A56.49,56.49,0,0,0,77.74,399.9Z"/><path class="cls-11" d="M19.62,361.42l-4.21,37-2.24-20.5A52.31,52.31,0,0,0,19.62,361.42Z"/><rect class="cls-1" x="92.29" y="135.24" width="331.31" height="247.88" rx="6.99"/><rect class="cls-12" x="107.32" y="150.51" width="301.24" height="217.34" rx="3.66"/><rect class="cls-13" x="121.09" y="164.78" width="57.71" height="57.71"/><rect class="cls-13" x="193.09" y="164.78" width="57.71" height="57.71"/><rect class="cls-13" x="265.09" y="164.78" width="57.71" height="57.71"/><rect class="cls-13" x="337.08" y="164.78" width="57.71" height="57.71"/><rect class="cls-13" x="121.09" y="231.37" width="57.71" height="57.71"/><rect class="cls-13" x="337.08" y="231.37" width="57.71" height="57.71"/><rect class="cls-13" x="121.09" y="297.96" width="57.71" height="57.71"/><polygon class="cls-14" points="280.03 231.37 265.08 231.37 193.09 231.37 193.09 264.71 193.09 289.07 193.09 355.66 265.08 355.66 280.03 355.66 322.79 355.66 322.79 289.07 322.79 259.18 322.79 231.37 280.03 231.37"/><path class="cls-13" d="M259.19,307a2,2,0,0,1-1.13-.35.4.4,0,0,1-.17-.32.43.43,0,0,1,.08-.27.42.42,0,0,1,.35-.18.49.49,0,0,1,.25.08,1,1,0,0,0,.59.18,1.14,1.14,0,0,0,1.13-.75,1.1,1.1,0,0,0,.08-.33.42.42,0,0,0-.27-.42,1.32,1.32,0,0,1-.51.1,1.35,1.35,0,0,1-.42-.08.61.61,0,0,1-.32-.22.45.45,0,0,1-.09-.24.44.44,0,0,1,.09-.27.59.59,0,0,1,.2-.19,1.15,1.15,0,0,1,.48-.08,2.93,2.93,0,0,1,.49,0,.87.87,0,0,0,.27-.27.68.68,0,0,0,.13-.44.77.77,0,0,0-.18-.45.44.44,0,0,0-.31-.14.48.48,0,0,0-.18,0,.67.67,0,0,0-.33.18.43.43,0,0,0-.15.28.4.4,0,0,1-.16.26.47.47,0,0,1-.28.09.45.45,0,0,1-.34-.17.5.5,0,0,1-.08-.27v-.05a1.51,1.51,0,0,1,1.1-1.15,1.86,1.86,0,0,1,.45-.06,1.22,1.22,0,0,1,.94.44,1.68,1.68,0,0,1,.38,1,1.76,1.76,0,0,1-.3.94,1.3,1.3,0,0,1-.15.18h0a1.25,1.25,0,0,1,.33.54.86.86,0,0,1,.05.32,2.22,2.22,0,0,1-.14.7,2,2,0,0,1-1.31,1.23A2.27,2.27,0,0,1,259.19,307Z"/><path class="cls-13" d="M251.23,311.73a.56.56,0,0,1-.55-.34.53.53,0,0,1-.09-.3s.19-.75.56-2.09a11,11,0,0,1-1.94-.33l-.33-.07a.89.89,0,0,1-.38.11.88.88,0,0,1-.86-.8.65.65,0,0,1,.08-.31.66.66,0,0,1,.61-.36h.1a12.88,12.88,0,0,0,1.06-2.53.7.7,0,0,1,.62-.43.62.62,0,0,1,.57.35.48.48,0,0,1,.07.26.47.47,0,0,1-.05.22,18.6,18.6,0,0,1-.94,2.37,9.16,9.16,0,0,0,1,.19,2.89,2.89,0,0,0,.57.07l.19,0,.83-2.87a.57.57,0,0,1,.31-.38.5.5,0,0,1,.31-.1.58.58,0,0,1,.54.34.47.47,0,0,1,.1.3c0,.07-.59,2.15-1.76,6.27A.58.58,0,0,1,251.23,311.73Z"/><path class="cls-13" d="M250.3,323.7a.69.69,0,0,1-.64-.64.73.73,0,0,1,.21-.45,13.78,13.78,0,0,0,1.38-1.64h-.12a2.2,2.2,0,0,1-1.61-.66,2.26,2.26,0,0,1,0-3.21,2.27,2.27,0,0,1,3.16,0,2.16,2.16,0,0,1,.7,1.54l0,.09,0,.15a4.78,4.78,0,0,1-.67,2.13,11.43,11.43,0,0,1-1.22,1.76,9.53,9.53,0,0,1-.74.8A.68.68,0,0,1,250.3,323.7Zm.83-4a1,1,0,0,0,.67-.27.92.92,0,0,0,.3-.65,1.05,1.05,0,0,0-.28-.74l0,0a.92.92,0,0,0-.67-.28,1,1,0,0,0-.71.29,1,1,0,0,0-.28.7,1,1,0,0,0,1,1Z"/><path class="cls-13" d="M255.79,314.39h-7.93a.61.61,0,0,1,0-1.21h7.93a.61.61,0,0,1,0,1.21Z"/><path class="cls-13" d="M246.55,321.6a.6.6,0,0,1-.4-.15c-.18-.17-4.35-4.11-1.68-13.61a.62.62,0,0,1,.75-.42.61.61,0,0,1,.41.75c-2.46,8.73,1.29,12.36,1.33,12.39a.6.6,0,0,1,0,.85A.58.58,0,0,1,246.55,321.6Z"/><path class="cls-13" d="M257.34,321.7a.59.59,0,0,1-.39-.14.61.61,0,0,1-.07-.85h0s3.3-4.11-.25-12.46a.6.6,0,1,1,1.11-.47c3.85,9.09.22,13.53.06,13.71A.6.6,0,0,1,257.34,321.7Z"/><path class="cls-13" d="M244.91,277.1a8.59,8.59,0,1,1,8.59-8.59A8.6,8.6,0,0,1,244.91,277.1Zm0-16.14a7.56,7.56,0,1,0,7.55,7.55A7.56,7.56,0,0,0,244.91,261Z"/><path class="cls-13" d="M250.47,274.87a.5.5,0,0,1-.37-.16l-5.86-6.16,5-6.85a.52.52,0,1,1,.83.61l-4.52,6.16,5.27,5.53a.51.51,0,0,1,0,.73A.5.5,0,0,1,250.47,274.87Z"/><rect class="cls-13" x="337.08" y="297.96" width="57.71" height="57.71"/><circle class="cls-12" cx="282.3" cy="248.5" r="12.18" transform="matrix(0.16, -0.99, 0.99, 0.16, -8.06, 487.53)"/><path class="cls-12" d="M298.8,240a5.21,5.21,0,1,1-5.2-5.2A5.2,5.2,0,0,1,298.8,240Z"/><path class="cls-15" d="M256.45,289.51l10.12-21,7.71,18.92-4.81,8.64a13,13,0,0,1-19.88,3.57L246,296.58Z"/><path class="cls-15" d="M262.66,291.8,246,296.58a56.9,56.9,0,0,1-10.43-12.44,21.7,21.7,0,0,1-5.42-4.45,8.49,8.49,0,0,1,0-2.75c.11,0-.06-.05.05,0l-.05,0a4.81,4.81,0,0,1,1.19-2.47l.24-.24,0,0a5.3,5.3,0,0,1,3-1.32l-1.16-1c-2.53-2.2-4.17-4.45-3.67-5s3,.73,5.51,2.92l4.14,3.32-.55-1.19c-1.25-2.55-1.78-4.85-1.19-5.14s2.08,1.55,3.32,4.1l1.72,3.54A68.11,68.11,0,0,0,262.66,291.8Z"/><path class="cls-15" d="M256.45,289.51l10.12-21,7.71,18.92-4.81,8.64a13,13,0,0,1-19.88,3.57L246,296.58Z"/><path class="cls-1" d="M300.32,317.74h0L294.25,307,299,286l.56-15.84a10.49,10.49,0,0,0-4.77-1.64h-1.32a2.88,2.88,0,0,0-.36.05v-.05H266.57l-6.23,13.2a13.31,13.31,0,0,0-.26,10.76l2.74,6.63L261.71,310h0l-.74,7.22-.05.52h0l-.18,1.76,17.9,19.57L302,320.68Z"/><g class="cls-16"><path class="cls-17" d="M256.71,262a2.16,2.16,0,1,1-2.16-2.16A2.16,2.16,0,0,1,256.71,262Z"/><path class="cls-17" d="M267.23,262a2.16,2.16,0,1,1-2.16-2.16A2.16,2.16,0,0,1,267.23,262Z"/><path class="cls-17" d="M277.75,262a2.16,2.16,0,1,1-2.16-2.16A2.16,2.16,0,0,1,277.75,262Z"/><path class="cls-17" d="M288.27,262a2.16,2.16,0,1,1-2.16-2.16A2.16,2.16,0,0,1,288.27,262Z"/><path class="cls-17" d="M298.79,262a2.16,2.16,0,1,1-2.16-2.16A2.16,2.16,0,0,1,298.79,262Z"/><path class="cls-17" d="M309.3,262a2.16,2.16,0,1,1-2.15-2.16A2.16,2.16,0,0,1,309.3,262Z"/><path class="cls-17" d="M256.71,272.25a2.16,2.16,0,1,1-2.16-2.16A2.16,2.16,0,0,1,256.71,272.25Z"/><path class="cls-17" d="M267.23,272.25a2.16,2.16,0,1,1-2.16-2.16A2.16,2.16,0,0,1,267.23,272.25Z"/><path class="cls-17" d="M277.75,272.25a2.16,2.16,0,1,1-2.16-2.16A2.16,2.16,0,0,1,277.75,272.25Z"/><path class="cls-17" d="M288.27,272.25a2.16,2.16,0,1,1-2.16-2.16A2.16,2.16,0,0,1,288.27,272.25Z"/><path class="cls-17" d="M298.79,272.25a2.16,2.16,0,1,1-2.16-2.16A2.16,2.16,0,0,1,298.79,272.25Z"/><path class="cls-17" d="M309.3,272.25a2.16,2.16,0,1,1-2.15-2.16A2.16,2.16,0,0,1,309.3,272.25Z"/><path class="cls-17" d="M256.71,282.54a2.16,2.16,0,1,1-2.16-2.15A2.16,2.16,0,0,1,256.71,282.54Z"/><path class="cls-17" d="M267.23,282.54a2.16,2.16,0,1,1-2.16-2.15A2.16,2.16,0,0,1,267.23,282.54Z"/><path class="cls-17" d="M277.75,282.54a2.16,2.16,0,1,1-2.16-2.15A2.16,2.16,0,0,1,277.75,282.54Z"/><path class="cls-17" d="M288.27,282.54a2.16,2.16,0,1,1-2.16-2.15A2.16,2.16,0,0,1,288.27,282.54Z"/><path class="cls-17" d="M298.79,282.54a2.16,2.16,0,1,1-2.16-2.15A2.16,2.16,0,0,1,298.79,282.54Z"/><path class="cls-17" d="M309.3,282.54a2.16,2.16,0,1,1-2.15-2.15A2.16,2.16,0,0,1,309.3,282.54Z"/><path class="cls-17" d="M256.71,292.84a2.16,2.16,0,1,1-2.16-2.16A2.16,2.16,0,0,1,256.71,292.84Z"/><circle class="cls-17" cx="265.07" cy="292.84" r="2.16"/><circle class="cls-17" cx="275.59" cy="292.84" r="2.16"/><path class="cls-17" d="M288.27,292.84a2.16,2.16,0,1,1-2.16-2.16A2.16,2.16,0,0,1,288.27,292.84Z"/><path class="cls-17" d="M298.79,292.84a2.16,2.16,0,1,1-2.16-2.16A2.16,2.16,0,0,1,298.79,292.84Z"/><circle class="cls-17" cx="307.15" cy="292.84" r="2.16"/><path class="cls-17" d="M256.71,303.13a2.16,2.16,0,1,1-2.16-2.16A2.16,2.16,0,0,1,256.71,303.13Z"/><path class="cls-17" d="M267.23,303.13a2.16,2.16,0,1,1-2.16-2.16A2.16,2.16,0,0,1,267.23,303.13Z"/><path class="cls-17" d="M277.75,303.13a2.16,2.16,0,1,1-2.16-2.16A2.16,2.16,0,0,1,277.75,303.13Z"/><path class="cls-17" d="M288.27,303.13a2.16,2.16,0,1,1-2.16-2.16A2.16,2.16,0,0,1,288.27,303.13Z"/><path class="cls-17" d="M298.79,303.13a2.16,2.16,0,1,1-2.16-2.16A2.16,2.16,0,0,1,298.79,303.13Z"/><path class="cls-17" d="M309.3,303.13a2.16,2.16,0,1,1-2.15-2.16A2.16,2.16,0,0,1,309.3,303.13Z"/><path class="cls-17" d="M256.71,313.42a2.16,2.16,0,1,1-2.16-2.16A2.16,2.16,0,0,1,256.71,313.42Z"/><circle class="cls-17" cx="265.07" cy="313.42" r="2.16"/><circle class="cls-17" cx="275.59" cy="313.42" r="2.16"/><path class="cls-17" d="M288.27,313.42a2.16,2.16,0,1,1-2.16-2.16A2.16,2.16,0,0,1,288.27,313.42Z"/><path class="cls-17" d="M298.79,313.42a2.16,2.16,0,1,1-2.16-2.16A2.16,2.16,0,0,1,298.79,313.42Z"/><circle class="cls-17" cx="307.15" cy="313.42" r="2.16"/><path class="cls-17" d="M256.71,323.71a2.16,2.16,0,1,1-2.16-2.16A2.16,2.16,0,0,1,256.71,323.71Z"/><circle class="cls-17" cx="265.07" cy="323.71" r="2.16"/><circle class="cls-17" cx="275.59" cy="323.71" r="2.16"/><path class="cls-17" d="M288.27,323.71a2.16,2.16,0,1,1-2.16-2.16A2.16,2.16,0,0,1,288.27,323.71Z"/><path class="cls-17" d="M298.79,323.71a2.16,2.16,0,1,1-2.16-2.16A2.16,2.16,0,0,1,298.79,323.71Z"/><circle class="cls-17" cx="307.15" cy="323.71" r="2.16"/></g><polygon class="cls-15" points="272.92 268.51 278.74 284.75 287.9 268.51 272.92 268.51"/><path class="cls-12" d="M307.82,355.66c-1.77-14.51-4.63-31.51-8.88-39.7l-38.2,3.54-8.31,36.16Z"/><path class="cls-15" d="M269.88,250.82a9.55,9.55,0,1,1,17.32,5.54l.7,12.15h-15l2-9.27A9.55,9.55,0,0,1,269.88,250.82Z"/><path class="cls-12" d="M279.43,260.83a10.12,10.12,0,0,0,2.74-.38.46.46,0,0,0,.32-.57.47.47,0,0,0-.57-.32,9.19,9.19,0,0,1-6.78-.72.46.46,0,0,0-.62.18.47.47,0,0,0,.18.63A10.11,10.11,0,0,0,279.43,260.83Z"/><path class="cls-12" d="M278.72,252.26a3.21,3.21,0,0,1-1.43-4.3h0a3.21,3.21,0,1,1,1.43,4.3Zm.71-5a2.32,2.32,0,0,0-1.32,1.14h0a2.31,2.31,0,0,0-.12,1.75,2.25,2.25,0,0,0,1.14,1.32,2.28,2.28,0,0,0,2.05-4.08,2.33,2.33,0,0,0-1-.25A2.27,2.27,0,0,0,279.43,247.23Z"/><path class="cls-12" d="M269.67,252.26a3.2,3.2,0,0,1-1.42-4.3h0a3.2,3.2,0,1,1,1.42,4.3Zm.72-5a2.26,2.26,0,0,0-1.32,1.14h0a2.31,2.31,0,0,0-.13,1.75,2.3,2.3,0,1,0,1.45-2.89Z"/><path class="cls-13" d="M277.65,253.23a2.26,2.26,0,0,1-4.38,0Z"/><path class="cls-12" d="M274.92,252.18a.44.44,0,0,0,.35-.16.47.47,0,0,0,0-.65l-.44-.38.91-.54a.47.47,0,0,0,.17-.63.48.48,0,0,0-.63-.16l-2,1.2,1.41,1.21A.45.45,0,0,0,274.92,252.18Z"/><path class="cls-15" d="M286.09,249.85c-1.1,1.34-1.22,3.06-.26,3.85s2.62.32,3.72-1,1.21-3.07.26-3.85S287.19,248.5,286.09,249.85Z"/><path class="cls-12" d="M260.34,282.17a.45.45,0,0,0,.41-.26l3.05-6.45a.48.48,0,0,0-.22-.61.46.46,0,0,0-.61.22l-3,6.45a.46.46,0,0,0,.21.61A.48.48,0,0,0,260.34,282.17Z"/><path class="cls-12" d="M299.06,285.93a.45.45,0,0,0,.45-.44l.31-8.44a.47.47,0,0,0-.45-.48.46.46,0,0,0-.47.45l-.3,8.43a.46.46,0,0,0,.44.48Z"/><path class="cls-12" d="M284.48,253.08h3.34a.46.46,0,0,0,.45-.46.45.45,0,0,0-.45-.46h-.9l2-1.76a.46.46,0,0,0,0-.65.47.47,0,0,0-.65,0Z"/><circle class="cls-12" cx="279.43" cy="249.4" r="0.94"/><circle class="cls-12" cx="271.99" cy="249.4" r="0.94"/><path class="cls-12" d="M288.19,272h0a.46.46,0,0,0,.42-.49l-.48-6.4a.47.47,0,0,0-.5-.42.46.46,0,0,0-.42.49l.49,6.4A.44.44,0,0,0,288.19,272Z"/><path class="cls-18" d="M318.83,295.62l-16-22.68a14.14,14.14,0,0,0-3.29-2.86l-2,20.32,8.64,12.26a50.32,50.32,0,0,1-11.25,11.8l-3.36,2c-2.44,1.47-4.13,3.11-3.8,3.67s2.59-.17,5-1.63l1.13-.66-2.93,4.42c-2,2.72-3.05,5.29-2.43,5.74s2.73-1.38,4.7-4.09l.93-1.25-1.76,3.06c-1.66,2.92-2.45,5.59-1.78,6s2.56-1.67,4.21-4.59l1.64-2.84-.8,2.36c-1.06,3.18-1.32,6-.59,6.21s2.36-3.45,3.4-6.46c-.72,2.5-1.13,6-.53,6.22s2-1.93,2.93-4.81l.42-1.37a21.94,21.94,0,0,0,3.95-5.79s7-5,14.1-15.54l.17-.28A8.76,8.76,0,0,0,318.83,295.62Z"/><path class="cls-12" d="M273.88,241.66s-1.38,3.77,11.49-.59C285.37,241.07,278.24,235.92,273.88,241.66Z"/><path class="cls-12" d="M288.84,248.35,286,250.58l.89-4.46s-3.86.3-3.86-4.46,7,1.19,7,1.19Z"/><path class="cls-13" d="M207.15,255.45l-5.83-11a.82.82,0,0,1,1.45-.77l4,7.63,5.35-15.76h29.67a.82.82,0,1,1,0,1.64H213.35Z"/><path class="cls-13" d="M205.09,242.42a2.75,2.75,0,0,1-1.55-.48.53.53,0,0,1-.24-.44.72.72,0,0,1,.11-.37.6.6,0,0,1,.48-.24.68.68,0,0,1,.35.11,1.44,1.44,0,0,0,.8.24,1.55,1.55,0,0,0,1.55-1,1.42,1.42,0,0,0,.11-.46.55.55,0,0,0-.37-.56,2.16,2.16,0,0,1-.7.13,1.84,1.84,0,0,1-.57-.11.8.8,0,0,1-.44-.3.61.61,0,0,1-.12-.33.63.63,0,0,1,.12-.37.87.87,0,0,1,.27-.27,1.8,1.8,0,0,1,.66-.1,4.25,4.25,0,0,1,.67.06,1.62,1.62,0,0,0,.37-.37,1,1,0,0,0,.18-.61,1.05,1.05,0,0,0-.24-.61.62.62,0,0,0-.44-.2.6.6,0,0,0-.24,0,1,1,0,0,0-.45.24.63.63,0,0,0-.21.39.53.53,0,0,1-.21.35.7.7,0,0,1-.39.13.57.57,0,0,1-.46-.24.65.65,0,0,1-.11-.37v-.07a2,2,0,0,1,1.5-1.56,2.31,2.31,0,0,1,.61-.09,1.63,1.63,0,0,1,1.29.61,2.23,2.23,0,0,1,.52,1.39,2.47,2.47,0,0,1-.41,1.29l-.2.24s0,0,0,0a1.65,1.65,0,0,1,.46.74,1.43,1.43,0,0,1,.07.43,2.89,2.89,0,0,1-.2,1,2.72,2.72,0,0,1-1.79,1.68A3.09,3.09,0,0,1,205.09,242.42Z"/><path class="cls-13" d="M217.4,251.36a.94.94,0,0,1-.88-.88c0-.07.26-1,.78-2.86a15.16,15.16,0,0,1-2.66-.45l-.45-.1a1.06,1.06,0,0,1-1.35-.19,1.07,1.07,0,0,1-.34-.75.87.87,0,0,1,.1-.42.91.91,0,0,1,.84-.49h.13a17.69,17.69,0,0,0,1.46-3.47.8.8,0,0,1,.46-.49.92.92,0,0,1,.39-.09.83.83,0,0,1,.77.48.65.65,0,0,1,.1.36.83.83,0,0,1-.06.29,24.08,24.08,0,0,1-1.3,3.25,13.66,13.66,0,0,0,1.36.26,4.63,4.63,0,0,0,.78.09l.26,0,1.14-3.93a.74.74,0,0,1,.42-.51.72.72,0,0,1,.42-.13.84.84,0,0,1,.75.45.8.8,0,0,1,.13.42c0,.09-.8,2.94-2.41,8.57A.8.8,0,0,1,217.4,251.36Z"/><path class="cls-13" d="M228.43,250.61c-.71,0-1.07-.34-1.07-1a6.41,6.41,0,0,1,.33-1.65,5.66,5.66,0,0,0-1,.06.72.72,0,0,1-.42.13.86.86,0,0,1-.75-.48,1,1,0,0,1-.1-.43.86.86,0,0,1,.47-.76,5,5,0,0,1,2.07-.27h.35l.72-1.89a.86.86,0,0,1,.81-.55.74.74,0,0,1,.32.07.76.76,0,0,1,.55.78,10,10,0,0,1-.55,1.65l1.56.1a.79.79,0,0,1,.58.31.91.91,0,0,1,.23.63,1,1,0,0,1-.32.58.89.89,0,0,1-.62.23c-.67-.06-1.34-.11-2-.13a6.64,6.64,0,0,0-.42,1.62l0,.17a.83.83,0,0,1-.18.5A1,1,0,0,1,228.43,250.61Z"/><path class="cls-13" d="M234.5,250.8a.87.87,0,0,1-.6-.27.85.85,0,0,1-.27-.6,1,1,0,0,1,.29-.62,17.47,17.47,0,0,0,1.88-2.24h-.16a3.1,3.1,0,0,1-2.21-5.29,3,3,0,0,1,2.21-.91,3.09,3.09,0,0,1,3.08,3l0,.13,0,.19a6.56,6.56,0,0,1-.92,2.92,15.84,15.84,0,0,1-1.67,2.4c-.57.65-.9,1-1,1.11A.91.91,0,0,1,234.5,250.8Zm1.14-5.48a1.26,1.26,0,0,0,.91-.37,1.31,1.31,0,0,0,.42-.9,1.41,1.41,0,0,0-.39-1l0-.07a1.24,1.24,0,0,0-.91-.39,1.29,1.29,0,0,0-1,.41,1.34,1.34,0,0,0-.39,1,1.33,1.33,0,0,0,1.36,1.36Z"/><path class="cls-13" d="M234.37,292.68h-.06l-32.59-3.26a1,1,0,0,1-.53-1.79l19.62-15.84a.57.57,0,0,1,.72.89l-19.39,15.64,32.28,3.23a.57.57,0,0,1,0,1.13Z"/><path class="cls-13" d="M219.89,276.81a.54.54,0,0,1-.27-.07.57.57,0,0,1-.22-.77l2-3.66-4.56.43a.57.57,0,0,1-.62-.52.56.56,0,0,1,.51-.61l4.64-.43a1.11,1.11,0,0,1,1,1.64l-2,3.7A.55.55,0,0,1,219.89,276.81Z"/><path class="cls-13" d="M229.39,294.5a.57.57,0,0,1-.15-1.12l5.1-1.43L230,290a.57.57,0,1,1,.47-1l4.74,2.16a1,1,0,0,1,.56,1,1,1,0,0,1-.71.86l-5.54,1.55Zm5.36-2.36h0Z"/><path class="cls-13" d="M209.6,290.2a.52.52,0,0,1-.24-.05.57.57,0,0,1-.27-.76c.81-1.72,1-3.1.44-4.08a3.2,3.2,0,0,0-2.13-1.47.58.58,0,0,1-.48-.66.58.58,0,0,1,.66-.47,4.37,4.37,0,0,1,2.95,2.07c.7,1.32.56,3-.41,5.1A.58.58,0,0,1,209.6,290.2Z"/><path class="cls-13" d="M209.59,311.24h-.06a1.39,1.39,0,0,1-1.45-1.2,2.19,2.19,0,0,1-.05-.52,4.46,4.46,0,0,1,0-.5,6.48,6.48,0,0,1-1.13.94,2.14,2.14,0,0,1-1.14.45.9.9,0,0,1-1-.74l0-.23a3.43,3.43,0,0,1,.56-1.69,2.79,2.79,0,0,1,1.3-1.26,1.6,1.6,0,0,1,.47-.08,1,1,0,0,1,.84.43,1.45,1.45,0,0,1,.24.76l.25-.31c.28-.78.56-1.17.85-1.17a.54.54,0,0,1,.19,0,.33.33,0,0,1,.18.17.56.56,0,0,1,.08.27,1.06,1.06,0,0,1,0,.2,3.25,3.25,0,0,1-.51.86,7.61,7.61,0,0,0-.33,1.31,2.9,2.9,0,0,0,0,.48,1.71,1.71,0,0,0,.12.67c.08.2.28.29.6.29a3.76,3.76,0,0,0,2.55-1.56,8,8,0,0,0,1-1.51.38.38,0,0,1,.37-.23l.18,0a.4.4,0,0,1,.24.35.59.59,0,0,1,0,.2,6.68,6.68,0,0,1-.35.61,10.26,10.26,0,0,1-.87,1.19,6.16,6.16,0,0,1-1.35,1.18A3.46,3.46,0,0,1,209.59,311.24Zm-3.83-1.66a3.44,3.44,0,0,0,1.76-1.19l-.08-.05a.43.43,0,0,1-.15-.34.34.34,0,0,1,.08-.23.41.41,0,0,0,0-.12.45.45,0,0,0-.14-.39h-.17c-.21,0-.48.21-.79.63a4.19,4.19,0,0,0-.57,1.09,1.91,1.91,0,0,0-.07.44c0,.1,0,.16,0,.17Z"/><path class="cls-13" d="M234.48,319.51a.41.41,0,0,1-.41-.41.42.42,0,0,1,.12-.3.4.4,0,0,1,.29-.12,1.68,1.68,0,0,0,1.13-.35,1.61,1.61,0,0,0,.59-1.22.82.82,0,0,0-.28-.67.71.71,0,0,0-.33-.11l-.1,0a1.83,1.83,0,0,0-.88.74c-.28.4-.52.78-.71,1.12a6.06,6.06,0,0,1-.48.77.6.6,0,0,1-.47.26.57.57,0,0,1-.49-.27.76.76,0,0,1-.14-.51,5.36,5.36,0,0,1,.06-.59,13.26,13.26,0,0,1,.54-2c.33-1,.85-2.46,1.55-4.34s1.51-2.91,2.5-3.25a2.05,2.05,0,0,1,.58-.09,1.93,1.93,0,0,1,1,.27.45.45,0,0,1,.2.37.34.34,0,0,1-.06.2.41.41,0,0,1-.38.2.45.45,0,0,1-.2-.06,1,1,0,0,0-.51-.15,1,1,0,0,0-.33.06,1.94,1.94,0,0,0-.87.65,7.13,7.13,0,0,0-1.14,2.1c-.28.76-.62,1.71-1,2.84s-.72,2.1-.93,2.92a9.64,9.64,0,0,1,.86-1.29,2.31,2.31,0,0,1,1.14-.8l.3,0a1.44,1.44,0,0,1,.8.26,1.58,1.58,0,0,1,.65,1.32,2.13,2.13,0,0,1-.31,1.15,8.07,8.07,0,0,0,3.3-2.5.41.41,0,0,1,.33-.15.45.45,0,0,1,.27.11.42.42,0,0,1,.13.34.4.4,0,0,1-.08.23,9.74,9.74,0,0,1-2.21,2A6.93,6.93,0,0,1,234.48,319.51Z"/><path class="cls-13" d="M213.44,336a3,3,0,0,1-1-.15,1.59,1.59,0,0,1-1-1.62v-.14a3,3,0,0,1,.57-1.65,2.06,2.06,0,0,1,.76-.62,1.89,1.89,0,0,1,.74-.17,1.29,1.29,0,0,1,.74.22,1,1,0,0,1,.43.86,1.55,1.55,0,0,1-.27.91.45.45,0,0,1-.34.17.46.46,0,0,1-.25-.08.41.41,0,0,1-.17-.32.56.56,0,0,1,.08-.26.38.38,0,0,0,.08-.18.78.78,0,0,0,0-.26.23.23,0,0,0-.08-.16.56.56,0,0,0-.31-.07,1,1,0,0,0-.34.08,1.38,1.38,0,0,0-.48.42,2.21,2.21,0,0,0-.36,1.17v.08a1,1,0,0,0,.15.58,1.35,1.35,0,0,0,1.08.36,7.54,7.54,0,0,0,2.76-.77A8.59,8.59,0,0,0,219.4,332a.4.4,0,0,1,.32-.16.47.47,0,0,1,.28.11.38.38,0,0,1,.14.31.43.43,0,0,1-.09.26,9.82,9.82,0,0,1-3.18,2.5A7.64,7.64,0,0,1,213.44,336Z"/><path class="cls-13" d="M226.3,330.23h-.14L201.75,326a.83.83,0,0,1-.41-1.44l28-24.91a.82.82,0,0,1,.94-.12.83.83,0,0,1,.44.84l-3.55,29.18a.86.86,0,0,1-.33.57A.83.83,0,0,1,226.3,330.23ZM202.49,325l23.57,4.12,3.43-28.18Zm-.42.37Zm-.36-.41Z"/><path class="cls-13" d="M232.41,304.62a7,7,0,0,1-5-1.65,4.52,4.52,0,0,1-1.39-3,.56.56,0,0,1,.55-.56h0a.56.56,0,0,1,.56.55,3.35,3.35,0,0,0,1.07,2.26c1,1,2.59,1.4,4.73,1.32a.55.55,0,0,1,.57.53.54.54,0,0,1-.53.57Z"/><path class="cls-13" d="M222.36,332.62h-.1a.56.56,0,0,1-.44-.65c0-.07,1.47-7.39,8.39-6.34a.56.56,0,0,1,.47.63.55.55,0,0,1-.63.46c-5.88-.89-7.1,5.2-7.15,5.46A.56.56,0,0,1,222.36,332.62Z"/><path class="cls-13" d="M205.41,329.62l-.14,0a.56.56,0,0,1-.4-.67,6.08,6.08,0,0,0-.4-4.94,4.79,4.79,0,0,0-2.95-1.94.56.56,0,0,1,.18-1.1,6,6,0,0,1,3.69,2.42c1,1.5,1.16,3.46.55,5.83A.54.54,0,0,1,205.41,329.62Z"/><path class="cls-13" d="M256.22,259.93a.49.49,0,0,1-.47-.39.48.48,0,0,1,.38-.56l3.45-.66-2.71-2.74a.46.46,0,0,1,0-.67.48.48,0,0,1,.68,0l2.75,2.79a.92.92,0,0,1,.21.94,1,1,0,0,1-.71.62l-3.49.66Z"/><path class="cls-13" d="M204.71,267.71a.46.46,0,0,1-.33-.13.49.49,0,0,1,0-.68s.34-.34,1-.89a.49.49,0,0,1,.68.05.47.47,0,0,1,0,.67c-.59.52-.9.84-.91.84A.44.44,0,0,1,204.71,267.71Z"/><path class="cls-13" d="M207.67,265.21a.48.48,0,0,1-.29-.86c.68-.51,1.4-1,2.14-1.52a.48.48,0,0,1,.53.79c-.72.49-1.43,1-2.1,1.5A.47.47,0,0,1,207.67,265.21Zm4.31-2.9a.48.48,0,0,1-.41-.23.48.48,0,0,1,.16-.66c.75-.45,1.52-.88,2.29-1.29a.48.48,0,0,1,.45.85q-1.14.6-2.25,1.26A.42.42,0,0,1,212,262.31Zm4.59-2.44a.47.47,0,0,1-.43-.27.48.48,0,0,1,.23-.64c.79-.37,1.6-.72,2.4-1a.48.48,0,0,1,.62.26.47.47,0,0,1-.26.62c-.79.33-1.58.67-2.36,1A.45.45,0,0,1,216.57,259.87Zm4.81-2a.47.47,0,0,1-.16-.92c.82-.29,1.66-.57,2.5-.81a.46.46,0,0,1,.59.32.47.47,0,0,1-.32.59c-.82.25-1.65.51-2.45.8A.44.44,0,0,1,221.38,257.9Zm33.28-.93-.12,0c-.84-.22-1.68-.42-2.51-.6a.48.48,0,0,1,.2-.94c.85.19,1.7.4,2.55.62a.48.48,0,0,1-.12.94Zm-28.3-.55a.47.47,0,0,1-.46-.36.48.48,0,0,1,.35-.58c.85-.21,1.71-.4,2.56-.56a.48.48,0,0,1,.18.94c-.84.16-1.68.35-2.51.55Zm23.22-.57h-.08c-.85-.15-1.71-.29-2.55-.4a.48.48,0,0,1,.13-.95c.85.11,1.72.25,2.59.41a.46.46,0,0,1,.38.55A.48.48,0,0,1,249.58,255.85Zm-18.11-.41a.48.48,0,0,1-.07-.95c.86-.13,1.74-.23,2.6-.31a.47.47,0,0,1,.52.43.47.47,0,0,1-.43.52c-.85.08-1.71.18-2.56.3Zm13-.3h0c-.86-.08-1.72-.14-2.57-.18a.48.48,0,0,1-.46-.5.47.47,0,0,1,.5-.45c.87,0,1.74.1,2.62.18a.48.48,0,0,1,0,.95Zm-7.79-.19a.49.49,0,0,1-.48-.45.48.48,0,0,1,.46-.5c.83,0,1.69-.06,2.53-.06h.09a.48.48,0,1,1,0,1h-.09c-.83,0-1.67,0-2.49,0Z"/><path class="cls-13" d="M258.38,258.06l-.15,0-1.21-.38a.48.48,0,1,1,.28-.92l1.23.39a.48.48,0,0,1-.15.93Z"/><g class="cls-19"><path class="cls-12" d="M161.65,187.63c-3.81,6.52-11.75,9-17.74,5.47S136.15,181.49,140,175s11.75-9,17.74-5.48S165.45,181.11,161.65,187.63Z"/><path class="cls-12" d="M139.29,176.12l-1.7,1.89a13.77,13.77,0,0,1-9.18,4.45c-4.34.34-10,2-10.51,8.46,0,0-11.7,2.61-10.49,14.22a14,14,0,0,0,10.81,10.13c9,1.77,21.58-4.85,22.31-5.51s17.65-18.08,17.65-18.08Z"/><path class="cls-15" d="M162.94,183.38a10.8,10.8,0,1,0-20,4.73l-1.86,13.65,16.9,1.3-1.45-10.63A10.8,10.8,0,0,0,162.94,183.38Z"/><path class="cls-12" d="M148.13,193.1a.51.51,0,0,1-.2-.6.52.52,0,0,1,.67-.31,10.17,10.17,0,0,0,2.78.61,10.28,10.28,0,0,0,4.93-.84.52.52,0,0,1,.68.27.51.51,0,0,1-.26.68,11.23,11.23,0,0,1-5.43.92,11.39,11.39,0,0,1-3.06-.67A.24.24,0,0,1,148.13,193.1Z"/><path class="cls-13" d="M154,185.42a2.56,2.56,0,0,0,4.94.38Z"/><path class="cls-12" d="M156.88,184.39l-.12-.12a.52.52,0,0,1,.11-.73l.54-.39-1-.69a.52.52,0,0,1-.13-.72.52.52,0,0,1,.72-.13h0l2.17,1.52-1.7,1.25A.53.53,0,0,1,156.88,184.39Z"/><path class="cls-12" d="M153.35,181a1,1,0,0,1-1.13,1,1.06,1.06,0,1,1,1.13-1Z"/><path class="cls-12" d="M161.74,181a1,1,0,0,1-1.13,1,1.06,1.06,0,1,1,1.13-1Z"/><path class="cls-12" d="M140.81,178.79l3.9,4.32.69-2.19,0-3.31s8.64-.25,11.7-4.05c0,0,2.33,3.12,5,3.42,0,0-.86-6.36-10.36-7.16C151.79,169.82,142.54,169.14,140.81,178.79Z"/><path class="cls-15" d="M144.75,180.87c1.12,1.61,1.11,3.56,0,4.36s-3,.14-4.11-1.47-1.1-3.56.05-4.36S143.63,179.26,144.75,180.87Z"/><path class="cls-12" d="M142.11,184.62a.5.5,0,0,1-.23-.39.52.52,0,0,1,.49-.55l1.54-.1-2.4-2.33a.52.52,0,0,1,0-.73.51.51,0,0,1,.73,0l2.37,2.42a1,1,0,0,1,.21,1,1,1,0,0,1-.85.63l-1.55.1A.5.5,0,0,1,142.11,184.62Z"/><path class="cls-20" d="M168.69,215.1a7.67,7.67,0,0,1,1.38,7.39h13.87l-13.32-19.67a8.88,8.88,0,0,0-7.38-3.91l3.21,13.5Z"/><path class="cls-21" d="M170.07,222.49a7.67,7.67,0,0,0-1.38-7.39l-2.24-2.69-3.21-13.5-30.54.34-1.9,22.24.18,1Z"/><path class="cls-15" d="M129.34,222.49c.72-1.13,1.48-2.22,2.26-3.26l1.1-20a13,13,0,0,0-10.27,6.63c-3,5.21-5.93,10.75-8.6,16.61Z"/><polygon class="cls-13" points="141.19 199.36 145.82 206.9 151.47 200.73 156.44 206.21 157.47 198.67 141.19 199.36"/></g><g class="cls-22"><polygon class="cls-15" points="355.21 264.82 357.37 276.81 375.95 269.94 368.62 251.6 355.21 264.82"/><path class="cls-15" d="M351.45,245.54h0a11.77,11.77,0,0,0-1.4,5.57v11.67a4.57,4.57,0,0,0,4.57,4.58h1.06a13.19,13.19,0,0,0,10.15-4.76l.46-.55a8.27,8.27,0,0,0,1.91-5.28V245.54Z"/><path class="cls-12" d="M373.71,252a5.32,5.32,0,0,0,.33-1.86v-6.32a6.41,6.41,0,0,0-1.15-3.74,6.29,6.29,0,0,0-6.07-2.58l-6.24.95a6.93,6.93,0,0,1-4.35-.77,6.84,6.84,0,0,1-1-.62h0a5.17,5.17,0,1,0-5.7,8.18l2,.88a14.76,14.76,0,0,0,7.68,1.12l6.39-.78v7.32l2.6,3,4,4.19.09-.34a36.21,36.21,0,0,0,1.12-7.1,5.44,5.44,0,0,1,.32-1.48Z"/><path class="cls-13" d="M352.16,260.57h7.32S355.18,266.58,352.16,260.57Z"/><path class="cls-12" d="M356.41,257.71H353l2.38-4.17a.49.49,0,0,1,.66-.18.48.48,0,0,1,.17.66l-1.56,2.72h1.74a.49.49,0,1,1,0,1Z"/><path class="cls-12" d="M358.42,250.46a.48.48,0,0,1-.16-.93l2.95-1.06a.48.48,0,0,1,.62.29.47.47,0,0,1-.29.61l-3,1.06A.45.45,0,0,1,358.42,250.46Z"/><path class="cls-12" d="M352.58,251a.49.49,0,0,1-.23-.06l-2-1.09a.48.48,0,1,1,.46-.84l2,1.09a.47.47,0,0,1,.19.65A.47.47,0,0,1,352.58,251Z"/><path class="cls-15" d="M371.22,258.41c1.19-1.43,1.24-3.35.12-4.27s-3-.52-4.18.91-1.24,3.35-.12,4.28S370,259.85,371.22,258.41Z"/><path class="cls-12" d="M369.65,258.18a.39.39,0,0,1-.15,0l-2.77-.93,3-2.2a.48.48,0,1,1,.57.78l-1.51,1.1,1,.34a.47.47,0,0,1,.3.61A.46.46,0,0,1,369.65,258.18Z"/><path class="cls-12" d="M361,254.38a1.12,1.12,0,1,1-1.11-1.12A1.11,1.11,0,0,1,361,254.38Z"/><path class="cls-12" d="M352.67,254.38a1.11,1.11,0,1,1-1.11-1.12A1.11,1.11,0,0,1,352.67,254.38Z"/><path class="cls-1" d="M379.52,270h0a9.2,9.2,0,0,0-7.45-.68l-14.17,4.78a20.32,20.32,0,0,0-13.07,13.88l-5.24,19.21h52.24l.44-16.44a22.12,22.12,0,0,0-10.37-19.35C381,270.8,380.19,270.33,379.52,270Z"/><rect class="cls-12" x="359.48" y="274.11" width="0.27" height="32.49"/><polygon class="cls-13" points="359.61 273.39 363.02 281.83 377.23 269.2 375.95 267.47 359.61 273.39"/><polygon class="cls-13" points="359.61 273.35 356.36 272.03 354.58 275.55 358.04 281.05 359.61 273.35"/><rect class="cls-23" x="365.53" y="290.27" width="12.39" height="12.93"/><rect class="cls-12" x="365.53" y="290.27" width="12.39" height="3.41"/><path class="cls-12" d="M358.71,288.18a.88.88,0,1,1-.87-.87A.87.87,0,0,1,358.71,288.18Z"/><path class="cls-12" d="M358.71,295.18a.88.88,0,1,1-.87-.87A.87.87,0,0,1,358.71,295.18Z"/><path class="cls-12" d="M358.71,302.19a.88.88,0,1,1-.87-.88A.87.87,0,0,1,358.71,302.19Z"/></g><g class="cls-24"><path class="cls-12" d="M233.32,203.84H212a16.5,16.5,0,0,0-16.49,16v13.86h54.28V219.88A16.5,16.5,0,0,0,233.32,203.84Z"/><path class="cls-12" d="M216.58,219.88h12.68a10.52,10.52,0,0,0,4.19-8.38v-7.65H212.38v7.66A10.5,10.5,0,0,0,216.58,219.88Z"/><path class="cls-15" d="M233.58,187.05c-1.39,1.69-1.54,3.87-.33,4.86s3.32.41,4.7-1.29,1.54-3.87.33-4.86S235,185.35,233.58,187.05Z"/><path class="cls-12" d="M235.77,191h-3.83l4.55-4a.44.44,0,0,1,.57.66l-2.81,2.47h1.52a.44.44,0,0,1,.43.44A.43.43,0,0,1,235.77,191Z"/><path class="cls-15" d="M211.28,187.05c1.39,1.69,1.53,3.87.33,4.86s-3.32.41-4.71-1.29-1.53-3.87-.33-4.86S209.89,185.35,211.28,187.05Z"/><path class="cls-12" d="M212.92,191h-3.83a.44.44,0,0,1-.44-.43.44.44,0,0,1,.44-.44h1.52l-2.82-2.47a.44.44,0,1,1,.58-.66Z"/><path class="cls-15" d="M222.92,212.38h0a7.93,7.93,0,0,1-7.91-7.9v-11.3a7.93,7.93,0,0,1,7.91-7.9h0a7.93,7.93,0,0,1,7.9,7.9v11.3A7.92,7.92,0,0,1,222.92,212.38Z"/><path class="cls-12" d="M224.27,185.28h-2.71a6.57,6.57,0,0,0-6.55,6.55v4.08c.09.16.17.32.26.47l.11.17c.14.23.28.46.44.68a12,12,0,0,0,15,3.88v-9.28A6.57,6.57,0,0,0,224.27,185.28Z"/><polygon class="cls-12" points="210.54 187.78 210.54 172.16 234.67 172.16 234.67 190.55 210.54 187.78"/><polygon class="cls-12" points="232.65 172.31 230.63 166.51 228.62 172.31 226.61 166.51 224.6 172.31 222.59 166.51 220.58 172.31 218.57 166.51 216.57 172.31 214.56 166.51 212.55 172.31 210.54 166.51 210.54 177.81 234.67 177.81 234.67 166.51 232.65 172.31"/><path class="cls-15" d="M210.64,190.24c0,.24.06.47.11.7a3.58,3.58,0,0,0,.09.45,5.47,5.47,0,0,0,.15.58,3.94,3.94,0,0,0,.14.49,3.59,3.59,0,0,0,.12.35,11.86,11.86,0,0,0,.51,1.21,2,2,0,0,1,.1.21c.12.23.24.45.37.67,0,0,.07.11.11.17.14.23.29.45.44.67h0a12.08,12.08,0,0,0,15.52,3.65l.26-.16.61-.37.33-.22c.21-.15.42-.3.62-.46l.26-.22q.33-.27.63-.57a3.19,3.19,0,0,0,.26-.26c.17-.18.34-.36.5-.55l.18-.21c.21-.25.4-.51.59-.78l.17-.27c.14-.21.27-.43.4-.65l.14-.25c.16-.29.3-.6.44-.9l.09-.24c.1-.26.2-.52.29-.78a2.76,2.76,0,0,0,.08-.27c.1-.33.19-.67.26-1l0-.16a9.27,9.27,0,0,0,.14-.92l0-.29a10,10,0,0,0,.06-1.1,10.37,10.37,0,0,0-.06-1.12c0-.12,0-.25,0-.37s-.07-.47-.11-.7-.06-.31-.09-.45l-.15-.58c-.05-.17-.09-.33-.14-.49l-.13-.36a12.7,12.7,0,0,0-.51-1.2,2,2,0,0,0-.1-.21c-.11-.23-.24-.45-.37-.67l-.1-.17c-.14-.23-.29-.45-.45-.67h0c-2.18-3.07-5.76-6.3-9.82-6.3a12,12,0,0,0-5.69,1.43,2.2,2.2,0,0,0-.26.15c-.21.12-.42.24-.62.37l-.33.22-.61.46-.27.22-.63.57-.26.26c-.17.18-.33.36-.49.55l-.19.21c-.2.25-.4,1.74-.58,2l-.18.26c-.14.22-.27.44-.4.66l-.14.25c-.15.29-.3.59-.43.9a2.44,2.44,0,0,1-.1.24c-.1.25-.19.51-.28.78l-.09.27c-.1.33-.19.67-.26,1l0,.16c-.06.3-.1.61-.14.92l0,.29c0,.36-.05.73-.05,1.1s0,.75.05,1.11C210.6,190,210.62,190.12,210.64,190.24Z"/><rect class="cls-15" x="211.48" y="176.94" width="21.65" height="7.01"/><path class="cls-13" d="M217,190.55a6.16,6.16,0,0,0,11.94,0Z"/><path class="cls-12" d="M221.9,188.63a.44.44,0,0,1-.43-.33.45.45,0,0,1,.32-.53l1-.23a1.07,1.07,0,0,0,.71-.58,1,1,0,0,0,0-.91l-.3-.6a.44.44,0,0,1,.78-.39l.3.6a1.91,1.91,0,0,1-1.26,2.72l-1,.24Z"/><path class="cls-12" d="M217,187a1.18,1.18,0,1,1-1.18-1.18A1.18,1.18,0,0,1,217,187Z"/><path class="cls-12" d="M230.77,187a1.19,1.19,0,1,1-1.19-1.18A1.18,1.18,0,0,1,230.77,187Z"/><path class="cls-12" d="M212.42,186.3v-8.49H232.7v8.44a1.88,1.88,0,0,0,1.88,1.88h.09V175.46H210.54v12.72h0A1.88,1.88,0,0,0,212.42,186.3Z"/><path class="cls-12" d="M218.16,184.81a.44.44,0,0,1-.33-.16,2,2,0,0,0-2.94-.36.43.43,0,0,1-.55-.67,2.84,2.84,0,0,1,4.16.47.44.44,0,0,1-.06.62A.48.48,0,0,1,218.16,184.81Z"/><path class="cls-12" d="M231.36,184.81a.46.46,0,0,1-.34-.16,2,2,0,0,0-2.93-.36.44.44,0,1,1-.56-.67,2.86,2.86,0,0,1,4.17.47.44.44,0,0,1-.07.62A.45.45,0,0,1,231.36,184.81Z"/></g><g class="cls-25"><circle class="cls-12" cx="366.19" cy="318.31" r="13.73" transform="translate(-19.76 612.34) rotate(-78.3)"/><path class="cls-23" d="M375.8,340H356.07a15.3,15.3,0,0,0-15.29,14.87V367.7h50.31V354.86A15.3,15.3,0,0,0,375.8,340Z"/><path class="cls-23" d="M360.28,354.86H372a9.75,9.75,0,0,0,3.88-7.77V340H356.4v7.1A9.75,9.75,0,0,0,360.28,354.86Z"/><path class="cls-15" d="M376.05,324.42c-1.29,1.58-1.43,3.59-.31,4.51s3.07.38,4.36-1.19,1.42-3.59.3-4.51S377.33,322.85,376.05,324.42Z"/><path class="cls-12" d="M378.07,328.07h-3.55l4.22-3.7a.4.4,0,1,1,.53.6l-2.6,2.29h1.4a.41.41,0,0,1,.41.41A.4.4,0,0,1,378.07,328.07Z"/><path class="cls-15" d="M355.37,324.42c1.29,1.58,1.43,3.59.31,4.51s-3.07.38-4.36-1.19-1.42-3.59-.3-4.51S354.09,322.85,355.37,324.42Z"/><path class="cls-12" d="M356.9,328.07h-3.55a.4.4,0,0,1-.41-.4.41.41,0,0,1,.41-.41h1.4l-2.6-2.29a.4.4,0,1,1,.53-.6Z"/><path class="cls-15" d="M366.16,347.91h0a7.35,7.35,0,0,1-7.33-7.33V330.11a7.35,7.35,0,0,1,7.33-7.33h0a7.35,7.35,0,0,1,7.33,7.33v10.47A7.35,7.35,0,0,1,366.16,347.91Z"/><path class="cls-12" d="M367.42,322.78H364.9a6.1,6.1,0,0,0-6.07,6.07v3.79c.08.14.16.29.25.43l.09.16c.13.22.27.43.41.63a11.13,11.13,0,0,0,13.91,3.6v-8.61A6.09,6.09,0,0,0,367.42,322.78Z"/><polygon class="cls-15" points="354.69 325.11 354.69 310.63 377.06 310.63 377.06 327.67 354.69 325.11"/><path class="cls-15" d="M354.78,327.38c0,.22.06.44.1.65s.05.28.09.42.08.36.13.54.09.3.13.45l.12.33c.14.38.3.75.47,1.12a1.74,1.74,0,0,0,.1.19c.1.21.22.42.34.62a1.4,1.4,0,0,0,.1.16c.13.21.26.42.41.62h0a11.15,11.15,0,0,0,14.38,3.38l.24-.14c.2-.11.39-.23.57-.35l.31-.2c.19-.14.38-.28.56-.43a2.43,2.43,0,0,0,.25-.2c.2-.17.4-.34.59-.53l.24-.24c.15-.16.31-.33.46-.51l.17-.2q.29-.35.54-.72l.16-.24c.13-.2.25-.41.37-.61l.13-.23a9.2,9.2,0,0,0,.4-.84,2,2,0,0,0,.09-.22q.15-.36.27-.72a2.41,2.41,0,0,1,.08-.25c.09-.31.17-.62.24-.94a.77.77,0,0,0,0-.15,7.91,7.91,0,0,0,.13-.85,2.48,2.48,0,0,0,0-.27c0-.34.05-.67.05-1s0-.69-.05-1c0-.12,0-.23,0-.35s-.06-.44-.1-.65-.05-.28-.08-.42-.09-.36-.14-.54-.08-.3-.13-.45l-.12-.33a10.86,10.86,0,0,0-.47-1.11l-.09-.2c-.11-.21-.23-.41-.35-.62l-.09-.15c-.14-.22-.27-.43-.42-.63h0c-2-2.84-5.34-5.84-9.1-5.84a11.09,11.09,0,0,0-5.28,1.33l-.24.14-.57.34-.3.21a6,6,0,0,0-.57.42l-.25.2c-.2.17-.39.35-.58.53l-.24.25c-.16.16-.32.33-.46.5l-.18.2c-.19.23-.36,1.61-.53,1.86l-.17.25c-.13.2-.25.4-.37.61l-.13.23c-.14.27-.28.55-.4.83l-.09.22c-.1.24-.18.48-.26.72a2.58,2.58,0,0,0-.08.26c-.1.3-.18.62-.25.93,0,.05,0,.1,0,.15a8.32,8.32,0,0,0-.13.85l0,.27c0,.34-.05.68-.05,1s0,.69.05,1C354.75,327.15,354.77,327.27,354.78,327.38Z"/><rect class="cls-15" x="355.56" y="315.06" width="20.07" height="6.5"/><path class="cls-13" d="M360.63,327.67a5.71,5.71,0,0,0,11.06,0Z"/><path class="cls-12" d="M365.22,325.89a.41.41,0,0,1-.4-.31.41.41,0,0,1,.3-.48l.9-.22a1,1,0,0,0,.65-.54.92.92,0,0,0,0-.84l-.28-.55a.4.4,0,0,1,.18-.54.39.39,0,0,1,.54.18l.28.55a1.77,1.77,0,0,1-1.17,2.52l-.9.22Z"/><path class="cls-12" d="M360.66,324.33a1.1,1.1,0,1,1-1.09-1.09A1.09,1.09,0,0,1,360.66,324.33Z"/><path class="cls-12" d="M373.44,324.33a1.1,1.1,0,1,1-1.1-1.09A1.1,1.1,0,0,1,373.44,324.33Z"/><path class="cls-12" d="M361.76,322.35a.37.37,0,0,1-.31-.15,1.87,1.87,0,0,0-2.73-.33.39.39,0,0,1-.56-.06.4.4,0,0,1,0-.57,2.64,2.64,0,0,1,3.86.45.39.39,0,0,1-.06.56A.35.35,0,0,1,361.76,322.35Z"/><path class="cls-12" d="M374,322.35a.37.37,0,0,1-.31-.15,1.87,1.87,0,0,0-2.73-.33.39.39,0,0,1-.56-.06.4.4,0,0,1,.05-.57,2.64,2.64,0,0,1,3.86.45.39.39,0,0,1-.06.56A.35.35,0,0,1,374,322.35Z"/><path class="cls-12" d="M363.66,312.48a5.83,5.83,0,1,1-5.83-5.82A5.83,5.83,0,0,1,363.66,312.48Z"/><path class="cls-12" d="M382.79,313.68a5.83,5.83,0,1,1-5.82-5.82A5.82,5.82,0,0,1,382.79,313.68Z"/><path class="cls-12" d="M365.75,305.21a3.59,3.59,0,1,1-3.59-3.6A3.59,3.59,0,0,1,365.75,305.21Z"/><path class="cls-12" d="M381.11,308.8a3.59,3.59,0,1,1-3.59-3.59A3.59,3.59,0,0,1,381.11,308.8Z"/><circle class="cls-12" cx="353.35" cy="319.5" r="3.55"/><circle class="cls-12" cx="378.53" cy="319.15" r="3.55"/><path class="cls-12" d="M373.93,311.94a4.12,4.12,0,1,1-4.12-4.12A4.13,4.13,0,0,1,373.93,311.94Z"/><path class="cls-12" d="M375.92,306.76a3.58,3.58,0,1,1-3.58-3.58A3.58,3.58,0,0,1,375.92,306.76Z"/><path class="cls-12" d="M369.12,310.67a5.47,5.47,0,1,1-5.46-5.46A5.46,5.46,0,0,1,369.12,310.67Z"/><circle class="cls-12" cx="352.46" cy="312.48" r="4.84"/><circle class="cls-12" cx="356.4" cy="305.21" r="4.84"/><circle class="cls-12" cx="368.76" cy="303.95" r="4.84"/><path class="cls-12" d="M361.1,327.05h-3a2.83,2.83,0,1,1,0-5.65h3a2.83,2.83,0,1,1,0,5.65Zm-3-5.11a2.29,2.29,0,1,0,0,4.57h3a2.29,2.29,0,1,0,0-4.57Z"/><path class="cls-12" d="M373.84,327.05h-3a2.83,2.83,0,0,1,0-5.65h3a2.83,2.83,0,0,1,0,5.65Zm-3-5.11a2.29,2.29,0,0,0,0,4.57h3a2.29,2.29,0,0,0,0-4.57Z"/></g><g class="cls-26"><path class="cls-23" d="M313.44,200.37l.8-4.42a3.88,3.88,0,0,0-.19-2.08l-2.91-7.78a3.9,3.9,0,0,1-.24-1.62l.12-2a3.91,3.91,0,0,0-1.12-3l-2.07-2.1a3.92,3.92,0,0,1-1.12-2.74h0a3.86,3.86,0,0,0-1.65-3.19l-2.64-1.85a3.86,3.86,0,0,0-1.1-.53h0a23.7,23.7,0,0,0-13.25,0h0a4.14,4.14,0,0,0-1.1.53l-2.64,1.85a3.89,3.89,0,0,0-1.65,3.19h0a3.87,3.87,0,0,1-1.12,2.74l-2.07,2.1a3.9,3.9,0,0,0-1.11,3l.12,2a4.07,4.07,0,0,1-.24,1.62l-2.92,7.78a4,4,0,0,0-.18,2.08l.79,4.42A3.9,3.9,0,0,1,274.7,204l-.2.17a3.92,3.92,0,0,0-1.3,3.26l.07.84a3.84,3.84,0,0,0,3.79,3.54h35.28a3.82,3.82,0,0,0,3.78-3.54l.08-.84a3.92,3.92,0,0,0-1.3-3.26l-.2-.17A3.93,3.93,0,0,1,313.44,200.37Z"/><path class="cls-27" d="M319.63,217.25v13.11H268.25V217.25a15.61,15.61,0,0,1,15.61-15.18H304a15.59,15.59,0,0,1,15.61,15.18Z"/><path class="cls-27" d="M288.17,217.25h12a10,10,0,0,0,4-7.93v-7.25H284.2v7.25A10,10,0,0,0,288.17,217.25Z"/><path class="cls-15" d="M304.26,186.17c-1.31,1.61-1.45,3.67-.31,4.61s3.14.39,4.45-1.22,1.46-3.67.31-4.6S305.58,184.57,304.26,186.17Z"/><path class="cls-12" d="M306.33,189.9h-3.62l4.31-3.78a.41.41,0,0,1,.58,0,.42.42,0,0,1,0,.59l-2.66,2.34h1.43a.41.41,0,1,1,0,.82Z"/><path class="cls-15" d="M283.16,186.17c1.31,1.61,1.45,3.67.31,4.61s-3.14.39-4.45-1.22-1.46-3.67-.31-4.6S281.84,184.57,283.16,186.17Z"/><path class="cls-12" d="M284.71,189.9h-3.62a.41.41,0,1,1,0-.82h1.43l-2.66-2.34a.41.41,0,1,1,.55-.62Z"/><path class="cls-15" d="M294.17,210.15h0a7.5,7.5,0,0,1-7.48-7.48V192a7.51,7.51,0,0,1,7.48-7.48h0a7.5,7.5,0,0,1,7.48,7.48v10.69A7.49,7.49,0,0,1,294.17,210.15Z"/><path class="cls-12" d="M295.45,184.5h-2.56a6.22,6.22,0,0,0-6.2,6.2v3.86c.08.15.16.3.25.45a1.4,1.4,0,0,0,.1.16c.13.22.27.43.42.64a11.33,11.33,0,0,0,14.19,3.67V190.7A6.22,6.22,0,0,0,295.45,184.5Z"/><path class="cls-15" d="M294.17,199.16h0a11.06,11.06,0,0,1-11-11v-7.26a11.07,11.07,0,0,1,11-11h0a11.06,11.06,0,0,1,11,11v7.26A11.06,11.06,0,0,1,294.17,199.16Z"/><path class="cls-12" d="M289.89,186.72s0-.05,0-.07a1.12,1.12,0,1,0-2.24,0s0,0,0,.07Z"/><path class="cls-12" d="M290.46,184.62a.42.42,0,0,1-.32-.16,1.91,1.91,0,0,0-2.78-.33.41.41,0,0,1-.52-.64,2.7,2.7,0,0,1,3.94.45.41.41,0,0,1-.06.58A.39.39,0,0,1,290.46,184.62Z"/><path class="cls-12" d="M299.29,186.72s0-.05,0-.07a1.12,1.12,0,1,1,2.24,0,.2.2,0,0,1,0,.07Z"/><path class="cls-12" d="M298.72,184.62a.42.42,0,0,0,.32-.16,1.91,1.91,0,0,1,2.78-.33.41.41,0,1,0,.52-.64,2.7,2.7,0,0,0-3.94.45.41.41,0,0,0,.06.58A.39.39,0,0,0,298.72,184.62Z"/><path class="cls-23" d="M282.28,184.5l.16.23a1,1,0,0,0,1.79-.59l0-3.59a1,1,0,0,1,.68-.94,5.6,5.6,0,0,0,3.61-3.89,1,1,0,0,1,1.35-.58c2.06,1,6.82,2.92,11.88,1.86a1,1,0,0,1,1.15,1.07c-.16,1.29-.14,3.09,1.05,3.94a1,1,0,0,1,.45.86l0,.46a1,1,0,0,0,1.74.67h0a1,1,0,0,0,.23-.63v-4.21a.91.91,0,0,0-.1-.43l-1-2.06-.05-.12-.15-.47a12.6,12.6,0,0,0-2.82-4.68l0-.05a7.42,7.42,0,0,0-3.45-2h0a17.82,17.82,0,0,0-9.53.1h0a5.84,5.84,0,0,0-2.63,1.58l-.8.85L284,175.7h0a6.61,6.61,0,0,1-.91,2.7c-.4.66-.81,1.34-.82,1.37l-.71.22c-.11.24-1.19-.08-1.09.16l1.75,4.16A1.18,1.18,0,0,0,282.28,184.5Z"/><path class="cls-28" d="M290.87,193.16s1.73-2.3,3.83-.54a2.52,2.52,0,0,1,3.82.54Z"/><path class="cls-28" d="M291.09,193.53c.42.81,1.87,1.4,3.61,1.4s3.19-.59,3.61-1.4Z"/><path class="cls-12" d="M294.35,190.38a.41.41,0,0,1-.09-.81l.91-.22a1,1,0,0,0,.67-.55,1,1,0,0,0,0-.86l-.29-.56a.42.42,0,0,1,.19-.56.41.41,0,0,1,.55.19l.28.56a1.81,1.81,0,0,1-1.19,2.58l-.92.22Z"/><path class="cls-15" d="M308.43,202.7l-12.12,16.94-15.6-17.25a15.58,15.58,0,0,1,3.15-.32H304A15.67,15.67,0,0,1,308.43,202.7Z"/></g><g class="cls-29"><path class="cls-12" d="M372.42,172.89a6.24,6.24,0,1,1-6.24-6.24A6.23,6.23,0,0,1,372.42,172.89Z"/><path class="cls-12" d="M380.61,186c0,9.51-6.57,17.21-14.67,17.21s-14.67-7.7-14.67-17.21,6.57-15.17,14.67-15.17S380.61,176.48,380.61,186Z"/><path class="cls-12" d="M392,221.93v13.28h-52V221.93a15.79,15.79,0,0,1,15.81-15.38h20.43a15.66,15.66,0,0,1,4.46.64A15.84,15.84,0,0,1,392,221.93Z"/><path class="cls-12" d="M360.09,221.93h12.16a10.1,10.1,0,0,0,4-8v-7.34h-20.2v7.35A10.1,10.1,0,0,0,360.09,221.93Z"/><path class="cls-15" d="M376.39,190.45c-1.33,1.63-1.47,3.71-.31,4.66s3.18.4,4.51-1.23,1.47-3.71.31-4.66S377.73,188.82,376.39,190.45Z"/><path class="cls-12" d="M378.49,194.22h-3.67l4.36-3.83a.42.42,0,0,1,.59,0,.41.41,0,0,1,0,.59l-2.7,2.37h1.46a.42.42,0,0,1,.42.42A.41.41,0,0,1,378.49,194.22Z"/><path class="cls-15" d="M355,190.45c1.33,1.63,1.47,3.71.32,4.66s-3.18.4-4.51-1.23-1.47-3.71-.32-4.66S353.68,188.82,355,190.45Z"/><path class="cls-12" d="M356.59,194.22h-3.68a.41.41,0,0,1-.41-.41.41.41,0,0,1,.41-.42h1.46l-2.7-2.37a.42.42,0,1,1,.55-.63Z"/><path class="cls-15" d="M366.17,214.74h0a7.6,7.6,0,0,1-7.58-7.58V196.33a7.6,7.6,0,0,1,7.58-7.57h0a7.6,7.6,0,0,1,7.58,7.57v10.83A7.6,7.6,0,0,1,366.17,214.74Z"/><path class="cls-12" d="M367.47,188.76h-2.6a6.3,6.3,0,0,0-6.28,6.27V199c.08.15.16.3.25.45l.1.16c.14.22.28.44.43.65a11.5,11.5,0,0,0,14.38,3.72V195A6.3,6.3,0,0,0,367.47,188.76Z"/><rect class="cls-15" x="355" y="173.91" width="22.34" height="29.7" rx="11.17"/><path class="cls-12" d="M361.84,191v-.07a1.14,1.14,0,1,0-2.27,0s0,0,0,.07Z"/><path class="cls-12" d="M362.41,188.87a.41.41,0,0,1-.32-.15,1.93,1.93,0,0,0-2.82-.34.42.42,0,0,1-.59-.06.43.43,0,0,1,.06-.59,2.74,2.74,0,0,1,4,.46.42.42,0,0,1-.06.59A.41.41,0,0,1,362.41,188.87Z"/><path class="cls-12" d="M371.35,191v-.07a1.14,1.14,0,1,1,2.27,0s0,0,0,.07Z"/><path class="cls-12" d="M370.78,188.87a.41.41,0,0,0,.32-.15,1.93,1.93,0,0,1,2.82-.34.42.42,0,0,0,.59-.06.43.43,0,0,0-.06-.59,2.74,2.74,0,0,0-4,.46.42.42,0,0,0,.06.59A.41.41,0,0,0,370.78,188.87Z"/><path class="cls-12" d="M366.35,194.72a.41.41,0,0,1-.4-.32.42.42,0,0,1,.31-.51l.93-.22a1,1,0,0,0,.67-.56,1,1,0,0,0,0-.87l-.29-.57a.42.42,0,1,1,.74-.38l.29.57a1.84,1.84,0,0,1-1.21,2.62l-.93.22Z"/><path class="cls-12" d="M360.71,194.19a4.33,4.33,0,1,1,4.33-4.33A4.33,4.33,0,0,1,360.71,194.19Zm0-7.48a3.15,3.15,0,1,0,3.15,3.15A3.15,3.15,0,0,0,360.71,186.71Z"/><path class="cls-12" d="M372.93,194.19a4.33,4.33,0,1,1,4.33-4.33A4.33,4.33,0,0,1,372.93,194.19Zm0-7.48a3.15,3.15,0,1,0,3.15,3.15A3.15,3.15,0,0,0,372.93,186.71Z"/><path class="cls-13" d="M363.76,196.91a2.9,2.9,0,0,0,5.62,0Z"/><path class="cls-12" d="M354.34,188.87l1.33,1.53v-6.93a2.64,2.64,0,0,0,2.21-1.8s6.46,1.84,8.69-2.36a8.33,8.33,0,0,0,8,3.54,2.19,2.19,0,0,0,2.07,1.33v5.68l1.51-1.89s1.41-15.08-11.22-15.08C351.53,172.88,354.34,188.87,354.34,188.87Z"/><path class="cls-23" d="M392,225.8v-3.87a16,16,0,0,0-.53-3.61h-51a16,16,0,0,0-.54,3.61v3.87Z"/></g><g class="cls-30"><path class="cls-15" d="M164.4,319.37s2.66,5.91,0,11.16-6.57-7-6.57-7Z"/><path class="cls-15" d="M158.88,332.63l-.63,2.85-1.31,5.92-14.33-1,4.1-17.91.82-3.27,10.31,10.15A3.72,3.72,0,0,1,158.88,332.63Z"/><path class="cls-12" d="M158.88,332.63l-.63,2.85a14.36,14.36,0,0,1-8.14-4.87l-.5-.6a9,9,0,0,1-2.08-5.73V319.2l10.31,10.15A3.72,3.72,0,0,1,158.88,332.63Z"/><path class="cls-15" d="M163.3,309.78h0a12.72,12.72,0,0,1,1.53,6V328.5a5,5,0,0,1-5,5h-1.15a14.35,14.35,0,0,1-11-5.16l-.5-.61a8.93,8.93,0,0,1-2.08-5.73V309.78Z"/><path class="cls-12" d="M146.61,321.62s4-1.46,3.27-9.48c0,0,5.88,1.48,9.56-1.69,0,0,1.23,1.34,4.66,1.15,0,0,3.33-1.57,1.22-4.31s-6.43-8-16.56-4.85-16.83,11.06-6.15,24.9l-1.78,2.13,4.38-.47.78-3.4Z"/><path class="cls-13" d="M162.54,326.09h-7.95S159.25,332.63,162.54,326.09Z"/><path class="cls-12" d="M155.74,315.11a.53.53,0,0,0,.49-.34.54.54,0,0,0-.32-.67L152.7,313a.53.53,0,0,0-.35,1l3.21,1.14A.57.57,0,0,0,155.74,315.11Z"/><path class="cls-12" d="M162.08,315.73a.42.42,0,0,0,.24-.07l2.22-1.18a.52.52,0,1,0-.49-.92l-2.22,1.18a.53.53,0,0,0-.21.71A.51.51,0,0,0,162.08,315.73Z"/><path class="cls-15" d="M141.83,323.75c-1.29-1.55-1.34-3.63-.13-4.64s3.25-.56,4.54,1,1.35,3.64.13,4.65S143.12,325.31,141.83,323.75Z"/><path class="cls-12" d="M143.54,323.5a.5.5,0,0,0,.17,0l3-1-3.27-2.39a.52.52,0,0,0-.62.84l1.64,1.2-1.08.37a.52.52,0,0,0-.33.66A.5.5,0,0,0,143.54,323.5Z"/><path class="cls-12" d="M152.92,319.37a1.21,1.21,0,1,0,1.21-1.21A1.21,1.21,0,0,0,152.92,319.37Z"/><path class="cls-12" d="M162,319.37a1.21,1.21,0,1,0,1.21-1.21A1.21,1.21,0,0,0,162,319.37Z"/><path class="cls-27" d="M172.6,376.68H127.94l-.38-17.53c-.17-8.35,3.19-16.21,8.87-20.63.77-.59,1.46-1.11,2-1.5a5.6,5.6,0,0,1,.61-.38,6.45,6.45,0,0,1,5.77-.35l12.1,5.11a15.54,15.54,0,0,1,2.07,1.06c4.45,2.71,7.79,7.7,9.11,13.75Z"/><rect class="cls-12" x="159.61" y="348.33" width="0.29" height="27.77"/><circle class="cls-12" cx="161.68" cy="356.09" r="0.95"/><circle class="cls-12" cx="161.68" cy="363.69" r="0.95"/><circle class="cls-12" cx="161.68" cy="371.3" r="0.95"/><path class="cls-12" d="M139.69,310.45s-9.39-4.18-13.82,4.66a18.89,18.89,0,0,0-1.06,12.44l1.48-2.26s-.63,2.57,2.22,7.53a4.92,4.92,0,0,1-.43,2.95s2.32.64,3.85-8.22.48-14.37,7.34-14.63Z"/><path class="cls-15" d="M160,349.49c-5.49,4.75-20.88-12.85-20.88-12.85a6.45,6.45,0,0,1,5.77-.35l12.1,5.11a15.54,15.54,0,0,1,2.07,1.06C161.05,345,162.06,347.66,160,349.49Z"/><path class="cls-12" d="M160.86,324.11l-.27-.57c.78-.37,1.49-.92,1.49-1.15,0,0-.08-.1-.23-.17a4.94,4.94,0,0,1-2.24-2.1l.57-.28a4.35,4.35,0,0,0,1.93,1.8c.49.22.6.53.6.74C162.72,323.17,161.3,323.91,160.86,324.11Z"/><path class="cls-12" d="M155.45,322.94a3.77,3.77,0,1,1,3.77-3.76A3.77,3.77,0,0,1,155.45,322.94Zm0-6.9a3.14,3.14,0,1,0,3.14,3.14A3.14,3.14,0,0,0,155.45,316Z"/><path class="cls-12" d="M164.4,322.94a3.77,3.77,0,1,1,3.76-3.76A3.77,3.77,0,0,1,164.4,322.94Zm0-6.9a3.14,3.14,0,1,0,3.13,3.14A3.15,3.15,0,0,0,164.4,316Z"/></g><g class="cls-31"><path class="cls-23" d="M160.21,269.75H139.69a15.9,15.9,0,0,0-15.89,15.46v13.34h52.3V285.21A15.9,15.9,0,0,0,160.21,269.75Z"/><path class="cls-12" d="M140,269.75l-1.78,14.4L150.18,278l12.47,6.61-2.44-14.84S149.12,261.71,140,269.75Z"/><path class="cls-15" d="M139,253.57c1.34,1.63,1.48,3.73.32,4.68s-3.2.4-4.54-1.24-1.48-3.73-.31-4.68S137.63,251.93,139,253.57Z"/><path class="cls-12" d="M140.55,257.36h-3.69a.42.42,0,1,1,0-.84h1.46l-2.71-2.38a.44.44,0,0,1,0-.6.43.43,0,0,1,.6,0Z"/><path class="cls-15" d="M160.88,253.57c-1.33,1.63-1.48,3.73-.31,4.68s3.19.4,4.53-1.24,1.48-3.73.31-4.68S162.22,251.93,160.88,253.57Z"/><path class="cls-12" d="M159.3,257.36H163a.42.42,0,0,0,0-.84h-1.46l2.71-2.38a.44.44,0,0,0,0-.6.43.43,0,0,0-.6,0Z"/><path class="cls-15" d="M150.18,278h0a7.64,7.64,0,0,1-7.61-7.62V259.48a7.64,7.64,0,0,1,7.61-7.62h0a7.64,7.64,0,0,1,7.62,7.62v10.88A7.64,7.64,0,0,1,150.18,278Z"/><path class="cls-12" d="M151.49,251.86h-2.61a6.33,6.33,0,0,0-6.31,6.31v3.94c.08.15.16.3.25.45a.86.86,0,0,0,.1.16c.14.23.28.44.43.65a11.57,11.57,0,0,0,9.46,4.89,11.43,11.43,0,0,0,5-1.15v-8.94A6.33,6.33,0,0,0,151.49,251.86Z"/><path class="cls-15" d="M138.26,254.28v-3.43a11.63,11.63,0,0,1,11.62-11.63h0a11.63,11.63,0,0,1,11.63,11.63v6.09Z"/><path class="cls-15" d="M138.35,256.64c0,.23.07.46.11.68s0,.29.08.43l.15.56c0,.16.08.32.13.48l.13.33a10,10,0,0,0,.49,1.17l.09.2.36.64.1.17.43.65h0a11.63,11.63,0,0,0,15,3.51l.25-.15c.2-.12.4-.23.59-.36l.32-.21.59-.44.26-.21c.21-.18.41-.36.61-.56l.24-.25c.17-.17.33-.34.48-.52s.13-.14.18-.21a8.12,8.12,0,0,0,.56-.75,2.33,2.33,0,0,0,.17-.26,6.65,6.65,0,0,0,.39-.63l.13-.24q.23-.42.42-.87l.09-.23c.1-.24.19-.49.28-.75a2,2,0,0,0,.08-.26,10,10,0,0,0,.25-1l0-.15a8.48,8.48,0,0,0,.13-.88,1.41,1.41,0,0,0,0-.28,9.42,9.42,0,0,0,.06-1.06,9.64,9.64,0,0,0-.06-1.08c0-.12,0-.24,0-.36s-.06-.45-.1-.68l-.09-.43c0-.19-.09-.37-.14-.56s-.09-.32-.14-.47l-.12-.34c-.15-.4-.31-.78-.49-1.16,0-.07-.07-.14-.1-.2-.11-.22-.23-.44-.36-.65a1.4,1.4,0,0,0-.1-.16,6.64,6.64,0,0,0-.43-.65h0c-2.1-3-5.55-6.07-9.46-6.07a11.51,11.51,0,0,0-5.48,1.38l-.26.14-.59.36-.32.21-.59.45c-.08.07-.17.13-.25.21a8,8,0,0,0-.61.55l-.25.25c-.17.17-.33.35-.48.53l-.18.2c-.2.24-.38,1.68-.56,1.93-.06.09-.11.18-.17.26s-.26.42-.38.63l-.14.24q-.23.44-.42.87l-.09.23q-.15.38-.27.75l-.09.26c-.09.32-.18.65-.25,1l0,.15c-.05.29-.1.59-.13.89l0,.28c0,.35-.05.7-.05,1.06s0,.72.05,1.07C138.32,256.4,138.34,256.52,138.35,256.64Z"/><path class="cls-13" d="M148.69,258.59a1.54,1.54,0,0,0,3,0Z"/><path class="cls-12" d="M149.2,255.09a.43.43,0,0,1-.41-.32.42.42,0,0,1,.31-.5L150,254a1,1,0,0,0,.68-.56,1,1,0,0,0,0-.87l-.29-.58a.42.42,0,0,1,.75-.37l.29.57a1.82,1.82,0,0,1,0,1.61,1.87,1.87,0,0,1-1.24,1l-.94.22Z"/><circle class="cls-12" cx="143.33" cy="253.47" r="1.14"/><circle class="cls-12" cx="156.61" cy="253.47" r="1.14"/><path class="cls-12" d="M145.61,251.41a.42.42,0,0,1-.33-.16,1.94,1.94,0,0,0-2.83-.34.42.42,0,1,1-.53-.65,2.75,2.75,0,0,1,4,.46.42.42,0,0,1-.06.59A.39.39,0,0,1,145.61,251.41Z"/><path class="cls-12" d="M158.32,251.41a.45.45,0,0,1-.33-.16,1.93,1.93,0,0,0-2.82-.34.42.42,0,0,1-.54-.65,2.75,2.75,0,0,1,4,.46.42.42,0,0,1,0,.59A.41.41,0,0,1,158.32,251.41Z"/><path class="cls-12" d="M137.89,252.33l1.44,2.11s-.23-4.91,2.2-8.49a6.14,6.14,0,0,0,4.4,2.13l-1.53-4.3s3.18,3.84,7.76,4.3l-.48-4.3a9.61,9.61,0,0,0,6.07,4.3v-2.9s3.36,2.38,3.13,8.39c0,0,.2-.8,1.47-1.24,0,0,2.65-13.33-7.87-17.26l1,2.66s-4.94-5.33-12.43-1.54-9,1.05-9,1.05-1.43,3.86,2.73,4C136.77,241.21,135.23,247.31,137.89,252.33Z"/><rect class="cls-12" x="154.48" y="288.25" width="14.66" height="3.4"/></g><path class="cls-10" d="M51.29,300l15.14-46.59S70.56,242.65,80.16,240s26.42-11.26,30.33-14.89,9.72-4,10.59,5.46c0,0,4.13,22-18.68,32.58,0,0-3.28,1.79-7.55,13.83l-8.2,29.91S98.21,360.24,79,392Z"/><polygon class="cls-11" points="98.25 268.93 91.41 268.27 102.36 263.18 102.4 263.16 98.25 268.93"/><path class="cls-32" d="M98.32,232.5a13.53,13.53,0,0,1,11.82,9s11.34-8,8.06-13.37C118.2,228.17,116.47,218.47,98.32,232.5Z"/><path class="cls-10" d="M465.1,300,450,253.37s-4.14-10.72-13.74-13.36-26.42-11.26-30.33-14.89-9.72-4-10.59,5.46c0,0-4.13,22,18.68,32.58,0,0,3.28,1.79,7.55,13.83l8.2,29.91s-11.56,53.34,7.7,85.09Z"/><polygon class="cls-11" points="418.15 268.93 424.99 268.27 414.03 263.18 413.99 263.16 418.15 268.93"/><path class="cls-32" d="M418.07,232.5a13.53,13.53,0,0,0-11.82,9s-11.34-8-8.06-13.37C398.19,228.17,399.92,218.47,418.07,232.5Z"/><path class="cls-13" d="M143.13,141.37h-25a1.92,1.92,0,0,0-1.92,1.92v10.56a1.93,1.93,0,0,0,1.92,1.92h16.18l7.95,7.95v-7.95h.91a1.93,1.93,0,0,0,1.92-1.92V143.29A1.92,1.92,0,0,0,143.13,141.37Z"/><rect class="cls-33" x="137.4" y="144" width="3.09" height="3.09" rx="1.21" transform="translate(277.9 291.09) rotate(180)"/><rect class="cls-33" x="131.99" y="144" width="3.09" height="3.09" rx="1.21" transform="translate(267.07 291.09) rotate(180)"/><rect class="cls-33" x="126.57" y="144" width="3.09" height="3.09" rx="1.21" transform="translate(256.24 291.09) rotate(180)"/><rect class="cls-33" x="121.16" y="144" width="3.09" height="3.09" rx="1.21" transform="translate(245.41 291.09) rotate(-180)"/><rect class="cls-33" x="137.4" y="148.12" width="3.09" height="3.09" rx="1.21" transform="translate(277.9 299.34) rotate(-180)"/><rect class="cls-33" x="131.99" y="148.12" width="3.09" height="3.09" rx="1.21" transform="translate(267.07 299.34) rotate(180)"/><rect class="cls-33" x="126.57" y="148.12" width="3.09" height="3.09" rx="1.21" transform="translate(256.24 299.34) rotate(180)"/><rect class="cls-33" x="121.16" y="148.12" width="3.09" height="3.09" rx="1.21" transform="translate(245.41 299.34) rotate(180)"/><path class="cls-23" d="M365.71,113.47v23a7.18,7.18,0,0,1-7.16,7.16H323.27l-5.89,13V114.88a8.57,8.57,0,0,1,8.56-8.57h32.61A7.19,7.19,0,0,1,365.71,113.47Z"/><path class="cls-13" d="M332.49,114.72a2,2,0,1,1-1.95-2A1.94,1.94,0,0,1,332.49,114.72Z"/><path class="cls-13" d="M343.49,114.72a1.95,1.95,0,1,1-1.95-2A1.94,1.94,0,0,1,343.49,114.72Z"/><path class="cls-13" d="M354.49,114.72a1.95,1.95,0,1,1-1.95-2A1.94,1.94,0,0,1,354.49,114.72Z"/><path class="cls-13" d="M332.49,125.23a2,2,0,1,1-1.95-1.94A1.95,1.95,0,0,1,332.49,125.23Z"/><path class="cls-13" d="M343.49,125.23a1.95,1.95,0,1,1-1.95-1.94A1.95,1.95,0,0,1,343.49,125.23Z"/><path class="cls-13" d="M354.49,125.23a1.95,1.95,0,1,1-1.95-1.94A1.95,1.95,0,0,1,354.49,125.23Z"/><path class="cls-13" d="M332.49,135.75a2,2,0,1,1-1.95-1.95A1.94,1.94,0,0,1,332.49,135.75Z"/><path class="cls-13" d="M343.49,135.75a1.95,1.95,0,1,1-1.95-1.95A1.94,1.94,0,0,1,343.49,135.75Z"/><path class="cls-13" d="M354.49,135.75a1.95,1.95,0,1,1-1.95-1.95A1.94,1.94,0,0,1,354.49,135.75Z"/></g></g></svg>