<svg xmlns="http://www.w3.org/2000/svg" viewBox="0 0 176.84 229.51"><defs><style>.cls-1{fill:#ccc;}.cls-2{fill:#ccc8a8;}.cls-3{fill:#9e9877;}.cls-15,.cls-3{opacity:0.5;}.cls-4{fill:#e59989;}.cls-5{fill:#2aa;}.cls-6{fill:#0e8971;}.cls-7{fill:#516287;}.cls-8{fill:#364560;}.cls-9{fill:#0c7762;}.cls-10{fill:#086352;}.cls-11{fill:#12b7a1;}.cls-12{fill:#10a088;}.cls-13{fill:#5b4896;}.cls-14{fill:#6e55aa;}.cls-15{fill:#5e4b9b;}.cls-16{fill:#ce8478;opacity:0.6;}.cls-17{fill:#704c16;}.cls-18{fill:#5b3b10;}.cls-19{fill:#51b1e0;}.cls-20{fill:#4e8cca;}.cls-21{fill:#efa895;}.cls-22{fill:#c17e70;}.cls-23{fill:#fff;}.cls-24{fill:none;stroke:#231f20;stroke-linecap:round;stroke-miterlimit:10;stroke-width:0.26px;}.cls-25{fill:#a56265;}.cls-26{fill:#4b4089;}.cls-27{fill:#4280b2;}.cls-28{fill:#80c1ed;}.cls-29{fill:#dd9283;}.cls-30{fill:#483b7f;}.cls-31{fill:#84581f;}.cls-32{fill:#492e0e;}.cls-33{fill:#0b6856;}.cls-34{fill:#1d9692;}.cls-35{fill:#1c9995;}</style></defs><g id="Layer_2" data-name="Layer 2"><g id="Layer_1-2" data-name="Layer 1"><path class="cls-1" d="M22.63,151.16a30.81,30.81,0,0,0,6.75,2.14L11.82,228.11h2.7l23.65-73.62c3.58.28,7.38.37,11.25.33l10,74.69h2.7l-3.79-75c4.72-.26,9.33-.64,13.51-1.06l16.75,37.06v.76c0,.28,0,.55,0,.83v1.65c0,.23,0,.45,0,.68v1.91c0,.3,0,.59,0,.89v1.08c0,.3,0,.6,0,.89v.92c0,1,0,1.88,0,2.73h0v6h.76c-.19,2.91-.55,9-.62,13.65v.06c0,.45,0,.89,0,1.31v0c0,.41,0,.8,0,1.18v0c0,.35,0,.68,0,1v.15c0,.29,0,.56,0,.81a.17.17,0,0,0,0,.07v.08c0,.23.05.45.08.62.09.63,1.9,1,4.67,1.3l.84.06c.13,0,.26,0,.4,0,10.36.73,30.73-.33,30.79-1.07a1.18,1.18,0,0,0,0-.42.36.36,0,0,0,0-.1,2.39,2.39,0,0,0-.15-.37v0a2.93,2.93,0,0,0-.28-.36l-.09-.09a3.52,3.52,0,0,0-.35-.31l0,0a3.64,3.64,0,0,0-.48-.32l-.15-.09-.49-.27-.09,0-.64-.3-.21-.08-.59-.25-.14,0-.76-.29-.26-.1-.64-.23-.27-.09-.59-.21h0a56.58,56.58,0,0,1-5.42-2.12,2.57,2.57,0,0,1-.38.49c-3.09-1-6.25-2-8.84-2.77l-3.84-10.88h3.32v-.38c0-.11,0-.25,0-.41a1,1,0,0,0,0-.17c0-.09,0-.18,0-.27q0-.58.06-1.41v-.12c.06-1.39.13-3.25.21-5.48h0c.42-11.61,1.09-33,1-47.61l31.13,26.13.57-1.14a43.61,43.61,0,0,1,3.86,3.58c.34.38.67.77,1,1.17a.39.39,0,0,1,.08.1c.28.36.54.74.78,1.12,0,.07.1.14.14.21.19.31.35.63.51,1h0c.13.25.25.52.36.78a11.81,11.81,0,0,1,.46,1.22c1.21,4.08,7.83,1.82,7.83,1.82l.07,0h0l.16-.05.16-.06.13,0,.82-.27h0l.54-.18h0l.6-.2.07,0c5.71-1.93,19-6.61,21.57-9.28h0a1.35,1.35,0,0,0,.46-.79.67.67,0,0,0,0-.28.35.35,0,0,0-.05-.08.56.56,0,0,0-.09-.17.87.87,0,0,0-.08-.1,1,1,0,0,0-.15-.14l-.13-.09-.19-.13L176,177l-.25-.12-.19-.07-.3-.11-.22-.07-.35-.09-.24-.06c-.13,0-.26-.07-.4-.09l-.25-.05-.45-.09-.27,0-.51-.08-.26,0-.57-.07-.25,0-.64-.07-.23,0-.71-.07-.21,0-.8-.06h-.14l-.92-.07h-.06c-5.28-.35-11.69-.45-15.92-1.07-4.87-.71-7.59-2.53-9-3.92l.67-.86-.28-.38-.05-.07-.18-.25-.33-.45-.19-.26-.21-.3-.4-.54c-.08-.12-.17-.24-.27-.37l-.49-.68-.09-.12-.67-.92-.19-.26c-.26-.37-.55-.75-.84-1.16l-.1-.13-.82-1.13-.24-.33-.87-1.19c-.09-.11-.17-.23-.25-.35-.34-.46-.69-.93-1-1.42l-.06-.07-2.4-3.28-.21-.29-1.21-1.65-.15-.2-1.15-1.57-.2-.27-1.21-1.64-.33-.45-1.23-1.66-.28-.38-1.12-1.51-.25-.35-1.3-1.75-.26-.34-1.31-1.77-.24-.33-1.15-1.54c-.09-.12-.18-.25-.28-.37l-1.28-1.72c-.09-.12-.18-.23-.26-.35l-1.28-1.71a3.92,3.92,0,0,1-.25-.32c-.37-.49-.73-1-1.1-1.46-.08-.12-.17-.24-.26-.35L116,132.58l-.31-.42-1.19-1.56-.15-.19L113.27,129l-.22-.27L112,127.28l-.24-.31-1.06-1.36-.14-.18-.91-1.16-.2-.26-.91-1.15-.19-.23-.86-1.07,0,0h0c-2-2.53-3.43-4-3.75-4l-17.47.08a1.12,1.12,0,0,0,0-.27,1.07,1.07,0,0,0,0-.25h.56a1.63,1.63,0,0,0,1.09.43h40.09a1.63,1.63,0,0,0,1.62-1.63l7.82-35a1.34,1.34,0,0,0,0-.35.14.14,0,0,0,0-.07,1.43,1.43,0,0,0-.09-.27l0,0a1.78,1.78,0,0,0-.17-.27h0a1.61,1.61,0,0,0-1.27-.63h-.48a1.66,1.66,0,0,0-1.1-.43H94.1a1.63,1.63,0,0,0-1.63,1.63L88.15,99.76,75.47,95.88s-1.17-4.95-2.74-19.42S65,58.77,65,58.77h0a10.34,10.34,0,0,0-3.77-2.35s-4.87-1.78-5.3-3a20.83,20.83,0,0,1,.74-4.9h0c.14-.57.28-1.09.41-1.52,4.35,1.68,7.26-1.63,9.58-7.13a19.78,19.78,0,0,0,.84-2.5h0c.17-.63.32-1.29.45-2v0a48.14,48.14,0,0,0,.74-5.71,12,12,0,0,0,7.44-11.63c0-.32,0-.62,0-.93h0c-.5-6.16-5.81-8.59-9-9.49-2-1.55-5.08-3-9.95-4.15-12.11-2.8-20.6,6.18-24.45,17v0c-.22.63-.43,1.26-.62,1.89l-.06.22c-.18.6-.34,1.2-.49,1.8a.44.44,0,0,0,0,.1c-.15.61-.28,1.22-.4,1.82,0,.13-.05.26-.07.39-.11.61-.22,1.22-.3,1.82C29.41,38.37,21.35,40.07,15,44.34l-.11.07A21.2,21.2,0,0,0,12.82,46l-.19.16c-.26.23-.51.46-.75.71l-.22.22a15.86,15.86,0,0,0-1.63,2l-.2.31c-.18.28-.35.57-.52.86-.07.12-.13.24-.19.36a11.44,11.44,0,0,0-.6,1.27c-3.72,9,.12,15.76,10.07,18.21l-.43.78c-.22.42-.45.84-.67,1.27-.11.22-.22.44-.34.66l-.49,1-.4.84c-.18.37-.35.73-.52,1.1l-.27.6a17.69,17.69,0,0,0-4.23.61h0C6.17,78.31.84,82.53,2,94.46,4.23,116.23,5.08,142.89,22.63,151.16Zm45-35.31H57.54a1.38,1.38,0,0,0-.8.25c0-.14,0-.28,0-.43a7.39,7.39,0,0,0,3.87-.68C65.16,112,66.74,114.91,67.65,115.85ZM87.8,152.16c0,.05,0,.09,0,.14s0,.3,0,.46v0c0,.17,0,.35,0,.55h0l0,.6a.49.49,0,0,1,0,.12c0,.17,0,.34,0,.53s0,.13,0,.2l0,.51v.2l0,.58v.19c0,.2,0,.41,0,.63,0,.06,0,.14,0,.21s0,.43,0,.65V158c0,.22,0,.45,0,.68a1.93,1.93,0,0,1,0,.24c0,.24,0,.49,0,.74v.2c0,.27,0,.55,0,.83v.17c0,.3,0,.62,0,.93v.09c0,2.14.1,4.5.14,7h0c0,.41,0,.82,0,1.23v.1c0,.39,0,.78,0,1.18v.06c0,.41,0,.81,0,1.22v.08c0,.35,0,.7,0,1.05l-7.55-21.33c2.94-.38,5.29-.72,6.85-1C87.75,151.67,87.78,151.9,87.8,152.16ZM99.54,214.8l1.8,4-2.25-.64ZM85.75,110.52l-1.1,4.9a1.55,1.55,0,0,0,.07.43H77c1.44,0-5-6.54-8-8.37s-4.76-.65-8.93.53a8,8,0,0,1-2.9,0c.1-1.21.21-2.49.36-3.85h0c.42-4,1.06-8.64,2-13.47L61,89.88c1.59,3.5,5,10.88,7.21,14.87C70.12,108.22,79.46,109.82,85.75,110.52Z"/><polyline class="cls-2" points="69.3 149.05 100.41 217.9 103.22 217.9 78.57 148.21 68.07 148.21"/><path class="cls-3" d="M72.39,148.21l30.27,69.69h.06c0-.09.14-.3.29-.6L78.57,148.21Z"/><path class="cls-4" d="M139.56,165.92s2,4.48,10.38,5.7,25.2.43,25,3.47-25,9.13-25,9.13-6.25,4.08-7.47,0-4.17-6.61-7.65-9.56A46,46,0,0,1,139.56,165.92Z"/><path class="cls-4" d="M97.23,204.24l1.32,1-1.32,9.95s26.82,7.43,26.54,10.05c-.11,1-36.26,2.53-36.71-.32-.61-3.86.57-20.68.57-20.68Z"/><path class="cls-5" d="M164.84,172.62c-3,5.64-21,6-25.68,6a14,14,0,0,1,3.31,5.56c1.22,4.08,7.84,1.81,7.84,1.81s24.48-7.9,24.66-10.94C175.06,173.49,170.45,173,164.84,172.62Z"/><path class="cls-5" d="M112.05,219.1c-2,3.58-12.93,1.51-19.57.86-3-.3-4.78-1.39-5.45-4.77a71.37,71.37,0,0,0,0,9.73c.45,2.85,36.62,1.31,36.71.32C124,222.64,117.48,221.65,112.05,219.1Z"/><path class="cls-6" d="M99,146.24l35.71,30,.79-1.56s-25.19-36.82-35.47-43.89a50.83,50.83,0,0,0-1,15.08"/><polygon class="cls-2" points="28.01 148.21 9.96 225.16 12.66 225.16 36.96 149.5 28.01 148.21"/><polygon class="cls-3" points="36.96 149.5 33.27 148.97 11.14 225.16 12.66 225.16 36.96 149.5"/><polygon class="cls-2" points="47.42 150.91 57.55 226.55 60.24 226.55 56.36 149.9 47.42 150.91"/><polygon class="cls-3" points="58.66 226.55 60.24 226.55 54.23 150.14 50.28 150.58 58.66 226.55"/><path class="cls-7" d="M17.55,73.62S-2,69.74.17,91.51s3,48.43,20.59,56.7,67.16,0,67.16,0Z"/><path class="cls-8" d="M84.36,145.52s0-.37,0-1L17.55,73.62A20,20,0,0,0,9.37,74,16.19,16.19,0,0,0,3.05,84.83c-1.07,12.36,4,30.88,11.38,47.69C26.64,160.44,84.36,145.52,84.36,145.52Z"/><path class="cls-9" d="M32,142.16v3.2s52.66.62,53.71,2.58,1,58,1,58h15.55s2.65-63.29.39-70.55-7.85-8-18.35-6.48S32,142.16,32,142.16Z"/><path class="cls-10" d="M101.12,132c-2.88-4.11-8.19-4.4-16.76-3.12C73.86,130.47,32,142.16,32,142.16v3.2s13.82.16,27.44.59C69,141,92.11,129.57,101.12,132Z"/><path class="cls-11" d="M16.39,115s-5.8,28.62,12.82,30.3S90,127.79,96.41,130.11s39.11,44.55,39.11,44.55l6.08-7.82s-37.89-52.32-39.8-52.32Z"/><path class="cls-12" d="M29.21,145.26c18.63,1.68,60.77-17.47,67.2-15.15s39.11,44.55,39.11,44.55l6.08-7.82s-26.06-36-36-48.26c-63.51,21.2-81.62,4.28-86.39-3.64l-2.78,0S10.59,143.58,29.21,145.26Z"/><path class="cls-13" d="M63.13,55.82S69.3,59,70.87,73.51,73.6,92.93,73.6,92.93l17.47,5.35-1.3,9.77s-20.47-.91-23.47-6.26S58.22,85,58.22,85Z"/><path class="cls-14" d="M36.06,52.78l-4-2s-11.47,2.22-12.9,24.5-.78,34.63-4.69,40.45c23.46,1,40.4,0,40.4,0A153.25,153.25,0,0,1,57.7,87.72c6.91-3.91,10.09-5.48,9.35-16.3s-1.48-15.56-7.7-18C52.49,52.92,36.06,52.78,36.06,52.78Z"/><path class="cls-15" d="M54.83,115.78a140.11,140.11,0,0,1,.85-14.59C25.76,98,22.23,67.73,21.83,61.88a44.77,44.77,0,0,0-2.71,13.45c-1.43,22.29-.78,34.63-4.69,40.45C37.89,116.78,54.83,115.78,54.83,115.78Z"/><path class="cls-4" d="M55.57,42.79S54,47.88,54.05,50.48c.44,1.22,5.3,3,5.3,3s.78,12.65-6.08,13S36.5,58.78,32,50.83c5.17-1,10.31-2.85,11-9.52S44.32,28,44.32,28Z"/><path class="cls-16" d="M55.57,42.79,44.32,28a72.42,72.42,0,0,0-1.89,9.8C44.89,41.65,49.8,44,54.8,45.59,55.18,44,55.57,42.79,55.57,42.79Z"/><path class="cls-17" d="M63,4.17S74.25,5.44,74.25,15.1A12,12,0,0,1,66,27Z"/><path class="cls-18" d="M74.25,15.1a10.24,10.24,0,0,0-.55-3.41c-.85,4-3,9.8-8.26,11.09L66,27A12,12,0,0,0,74.25,15.1Z"/><path class="cls-19" d="M126.12,112.47a1.62,1.62,0,0,1-1.62,1.62H84.41a1.61,1.61,0,0,1-1.62-1.62l7.82-35a1.62,1.62,0,0,1,1.62-1.63h40.09a1.63,1.63,0,0,1,1.62,1.63Z"/><path class="cls-20" d="M127.7,112.9a1.62,1.62,0,0,1-1.63,1.62H86a1.62,1.62,0,0,1-1.63-1.62l7.82-35a1.63,1.63,0,0,1,1.63-1.63h40.08a1.63,1.63,0,0,1,1.63,1.63Z"/><path class="cls-20" d="M54.23,114.34a1.44,1.44,0,0,0,1.44,1.44H82.92a1.44,1.44,0,0,0,1.44-1.44h0a1.44,1.44,0,0,0-1.44-1.44H55.67a1.44,1.44,0,0,0-1.44,1.44Z"/><path class="cls-21" d="M66.9,15.1s1,14.5-2.12,21.84-7.25,10.79-14.5,3.63S44.89,18.9,44.89,18.9Z"/><path class="cls-21" d="M62.06,24.79s3.84,8.8-1.16,7.54"/><path class="cls-22" d="M62.06,24.79a13.61,13.61,0,0,1,.63,1.39,14.3,14.3,0,0,1,.89,3.25,5.1,5.1,0,0,1-.08,1.83,1.83,1.83,0,0,1-.41.78,1.46,1.46,0,0,1-.66.41,1.93,1.93,0,0,1-.65.07l-.48-.07-.4-.12.41.05a3.48,3.48,0,0,0,.47,0,2.18,2.18,0,0,0,.59-.11,1.3,1.3,0,0,0,.54-.4,1.82,1.82,0,0,0,.31-.69,4.94,4.94,0,0,0,0-1.72,19.38,19.38,0,0,0-.74-3.23C62.25,25.36,62.06,24.79,62.06,24.79Z"/><path class="cls-23" d="M55.31,35.28s4,1.52,6.21.82c-1.12,3.43-3.47,4.65-6.21-.65"/><path class="cls-24" d="M53.1,25.2s3-2.13,4.82.39"/><path class="cls-24" d="M64,25.37a1.57,1.57,0,0,1,2.68-.43"/><path class="cls-21" d="M34.63,98.8s19.42,7.43,23.59,6.25,5.87-2.34,8.93-.52,9.45,8.37,8,8.37-8.48.94-9.39,0-2.49-3.81-7-.86S32,107.53,32,107.53Z"/><path class="cls-25" d="M63.37,105.82a6.37,6.37,0,0,1,1.88.3c.27.11.57.18.87.33a8.9,8.9,0,0,1,.92.47c.29.2.62.39.91.62l.87.75c1,1.12,2.05,2.24,2.8,3.1.37.43.63.83.84,1.09l.31.42-.35-.39c-.22-.25-.52-.61-.91-1l-1.35-1.4-1.52-1.61-.84-.75c-.28-.23-.59-.41-.88-.62s-.6-.33-.88-.49-.58-.24-.84-.36a8.61,8.61,0,0,0-1.31-.37A4.29,4.29,0,0,0,63.37,105.82Z"/><path class="cls-25" d="M61.45,108.05a7.69,7.69,0,0,1,1.59.12,11,11,0,0,1,1.58.42,10.47,10.47,0,0,1,1.71.79,11.09,11.09,0,0,1,1.54,1.08A10.56,10.56,0,0,1,69,111.62a9.41,9.41,0,0,1,.7.92l.24.36-.28-.33-.32-.38a6.42,6.42,0,0,0-.45-.47,11.61,11.61,0,0,0-2.72-2.12A11.89,11.89,0,0,0,63,108.32,8.41,8.41,0,0,0,61.45,108.05Z"/><path class="cls-26" d="M35.64,66,21.73,93.45l15.23,5a86,86,0,0,0-4.29,11.73c-13.29-3.39-24.5-4.83-25.93-11.08s8.41-37.6,22.2-46.79C31.11,61.13,37.2,58.21,35.64,66Z"/><path class="cls-17" d="M68.61,12.94s-1.48,10.49-14.78,8.84c-10.43-1.3-9.95-.38-9.77,11.62.2,14.05,1.43,34.2-16.38,34.72s-25.9-7.39-21-19.2S27,39.53,28.89,25.63,40.28-3,55.31.52,68.61,10.77,68.61,12.94Z"/><path class="cls-21" d="M46.07,31.33c-5.28.25-5.53-9-3.6-9.5s3.42,2.26,3.42,2.26"/><path class="cls-27" d="M134.92,76.67C131.77,83,115.63,111.58,84.7,111.4l-.34,1.5A1.62,1.62,0,0,0,86,114.52h40.08a1.62,1.62,0,0,0,1.63-1.62l7.82-35A1.62,1.62,0,0,0,134.92,76.67Z"/><path class="cls-28" d="M117.58,97c-.65,2.89-3,4.83-5.2,4.33s-3.49-3.25-2.84-6.14,3-4.82,5.2-4.32S118.23,94.16,117.58,97Z"/><path class="cls-29" d="M55.51,31.53a2.11,2.11,0,1,1-2.11-2.11A2.11,2.11,0,0,1,55.51,31.53Z"/><path class="cls-29" d="M66.33,30.35a2.1,2.1,0,0,0-.71,4.08,34.47,34.47,0,0,0,.81-4.07Z"/><path class="cls-30" d="M33.2,108.46c-23.19-8.27-20-30.07-16.85-40.65C9.69,80.15,5.8,95,6.74,99.06c1.43,6.25,12.64,7.69,25.93,11.08C32.85,109.55,33,109,33.2,108.46Z"/><path class="cls-26" d="M41.37,84.91S50.62,88.63,57.64,88C50.62,89,43.24,87.83,41.37,84.91Z"/><path class="cls-18" d="M33.2,36.78c-3.19-9-.91-19.77,1.24-26.6a39,39,0,0,0-5.55,15.45C27,39.53,11.52,37.1,6.65,48.92s3.21,19.72,21,19.2C42,67.7,44,54.67,44.14,42.27,41,44.45,36.31,45.54,33.2,36.78Z"/><path class="cls-31" d="M41.67,4.84C46.32.67,56.15.35,61.2,4.14s10.34,11.18-5,12.28S28.87,16.32,41.67,4.84Z"/><path class="cls-32" d="M27.68,68.12c7.84-.23,12-4.27,14.16-9.91-25.46,4.15-28.72-8-27.64-17.52C11.1,42.6,8.28,45,6.65,48.92,1.78,60.73,9.86,68.64,27.68,68.12Z"/><path class="cls-33" d="M102.63,197.7C91.85,183.5,85.92,149,85.92,149h0c.85,7.94.85,57,.85,57h15.55S102.45,202.74,102.63,197.7Z"/><path class="cls-34" d="M174.5,175.88c-13.39,6.87-28.54,6.58-32.85,6.34a11.48,11.48,0,0,1,.82,2c1.22,4.08,7.84,1.81,7.84,1.81S171.16,179.3,174.5,175.88Z"/><path class="cls-35" d="M123.77,225.24c.15-1.75-2.74-2.77-6.29-4-20.78,6.59-28.09,2.77-30.59,0a28.2,28.2,0,0,0,.17,3.69C87.51,227.77,123.68,226.23,123.77,225.24Z"/></g></g></svg>