<svg xmlns="http://www.w3.org/2000/svg" xmlns:xlink="http://www.w3.org/1999/xlink" viewBox="0 0 556.63 312.8"><defs><style>.cls-1{fill:#3dc1ff;}.cls-2{fill:none;}.cls-3{fill:#fcb72d;}.cls-4{fill:#493e3a;}.cls-5{fill:#ff5d7d;}.cls-6{fill:#4117ab;}.cls-7{fill:#f3efea;}.cls-8{clip-path:url(#clip-path);}.cls-9{clip-path:url(#clip-path-2);}</style><clipPath id="clip-path"><path class="cls-1" d="M152.7,179.52v-48.7a16.58,16.58,0,0,0-16.58-16.58H109.44a14,14,0,0,0-14,14v68.65a7.26,7.26,0,0,0,7.26,7.25h42.74a6.48,6.48,0,0,0,6.48-6.47h27V185.74Z"/></clipPath><clipPath id="clip-path-2"><path class="cls-2" d="M463.54,66.06H446.73a19.82,19.82,0,0,0-19.82,19.82v69.55h42.74V140.66l15.19-17.44a14.56,14.56,0,0,0,2.86-14L476.58,75A14,14,0,0,0,463.54,66.06Z"/></clipPath></defs><g id="Layer_2" data-name="Layer 2"><g id="Layer_1-2" data-name="Layer 1"><rect class="cls-3" x="363.33" width="106.16" height="155.43"/><path class="cls-3" d="M105.79,129S84.92,134.6,76.51,153.8s-4.86,32.83-2,37.37,3.6,19.66.42,28.18c0,0,3.64-11.36,3.41-28.18s6.42-16.81,10.2-29.31a137.18,137.18,0,0,1,10.25-24.42c.34-.45,5.23-6.14,5.23-6.14Z"/><path class="cls-3" d="M58.42,183.67s.68-44,35.11-61.34c0,0-8.31,15.85-9.61,27.09S73.76,170,70.35,174.13,58.42,183.67,58.42,183.67Z"/><path d="M77.87,142.51a73.89,73.89,0,0,0-3.77,8c-1.21,3-2.37,6.26-3.41,9.55s-1.92,6.62-2.7,9.76c-.74,3-1.31,5.78-1.79,8.23l.5-.41c.51-2.31,1.15-4.91,1.86-7.67.81-3.13,1.74-6.43,2.78-9.71a113,113,0,0,1,6.87-17.56,46.13,46.13,0,0,1,3.15-5.36,23.21,23.21,0,0,1,1.43-1.89,22.94,22.94,0,0,0-1.52,1.82A40.09,40.09,0,0,0,77.87,142.51Z"/><path class="cls-3" d="M40.08,136.86c.29.81.58,1.64.86,2.47a2.23,2.23,0,0,1,.6-.08c2.77,0,3.05,4,.72,4.58a40.63,40.63,0,0,1,1.08,5.59c1.31,11.25,10.17,20.62,13.57,24.71s11.93,9.54,11.93,9.54-.68-44-35.1-61.34c0,0,2.42,4.62,4.85,10.65A2.4,2.4,0,0,1,40.08,136.86Zm6.91,9c3,0,3.1,4.67.08,4.67S44,145.9,47,145.9Z"/><path d="M49.4,142.51a77.88,77.88,0,0,1,3.77,8c1.21,3,2.36,6.26,3.41,9.55s1.92,6.62,2.7,9.76c.74,3,1.31,5.78,1.78,8.23l-.49-.41c-.52-2.31-1.16-4.91-1.87-7.67-.8-3.13-1.73-6.43-2.77-9.71a113,113,0,0,0-6.87-17.56,47.43,47.43,0,0,0-3.16-5.36c-.86-1.24-1.42-1.89-1.42-1.89s.59.62,1.51,1.82A41,41,0,0,1,49.4,142.51Z"/><path d="M73.56,275.92s-4.77-23-5.45-26.58-1.25-17.72-6.59-19-10.74,4.51-10.74,4.51,12.95,3.75,16.44,14.23,5.63,26.81,5.63,26.81Z"/><path class="cls-3" d="M22.92,240.59a27.15,27.15,0,0,1,5.78-6.7,2.35,2.35,0,0,0,1.67.69h.17a2.35,2.35,0,0,0,2.29-2.38,2.13,2.13,0,0,0-.22-.94c3.45-1.81,6.37-2.13,7.32-1.77,1.82.68,8.24,1.3,13.24.42a16.55,16.55,0,0,1,8.35.46s-9,4.21-10.74,4.51-7.32,2.64-14.4,8.69-19.6,21.73-21.13,22S16.7,250.65,22.92,240.59Z"/><path d="M44.33,230.22c.71.07.52,0,1.34.08-8,2.28-24.68,9.79-30,33.21A43.27,43.27,0,0,1,44.33,230.22Z"/><path d="M76,275.92s4.78-23,5.46-26.58,1.25-17.72,6.59-19,10.73,4.51,10.73,4.51-13,3.75-16.44,14.23-5.63,26.81-5.63,26.81Z"/><path class="cls-3" d="M88,230.37a16.52,16.52,0,0,1,8.34-.46c5,.88,11.42.26,13.24-.42s10.79,1,17,11.1,9.21,25.22,7.67,25-14.06-15.94-21.13-22-12.65-8.39-14.4-8.69S88,230.37,88,230.37Z"/><path d="M105.21,230.22c-.72.07-.53,0-1.35.08,8,2.28,24.69,9.79,30,33.21A43.27,43.27,0,0,0,105.21,230.22Z"/><path class="cls-3" d="M3.12,187.31s12.27-9.09,25.45-.57c1.74,1.13,3.29,2.22,4.71,3.27a2,2,0,0,1,1.95-1.17,2.39,2.39,0,0,1,1.67,4c.62.52,1.22,1,1.8,1.55a2.2,2.2,0,0,1,1.13-.3A2.36,2.36,0,0,1,42,197.38c4.14,3.81,8,7.38,14.76,11.18,12.62,7,13.52,21.24,13.52,27.6s2.84,11.48,2.5,15.68.8,24.08.8,24.08h1.36s.23-48.49-1.36-51.74S65.72,203.44,64.47,198a26.22,26.22,0,0,1-.8-8.63,19.78,19.78,0,0,0-14.08-10.11C39.14,177.2,35.5,176.06,32,173.79S9.6,170,3.12,187.31Zm44.72,5.28c3,0,3.1,4.66.09,4.66S44.83,192.59,47.84,192.59Z"/><path d="M27.44,180.56a36.26,36.26,0,0,1,3.71.49c1.35.26,2.8.58,4.31,1s3.08.95,4.69,1.56,3.23,1.31,4.86,2.07,3.25,1.61,4.84,2.5a109.42,109.42,0,0,1,14.7,10.15c0,.11.06.21.08.32a108.82,108.82,0,0,0-14.94-10.17c-1.58-.9-3.2-1.74-4.81-2.53s-3.23-1.48-4.82-2.1-3.16-1.15-4.66-1.59-2.95-.77-4.28-1-2.58-.44-3.69-.55-2.07-.14-2.87-.2c-1.59,0-2.5,0-2.5,0s.91-.05,2.5-.08C25.36,180.47,26.34,180.43,27.44,180.56Z"/><path class="cls-3" d="M69.9,273.69h1.36s1.14-19.88.8-24.08,2.49-9.32,2.49-15.68.91-20.56,13.52-27.6,15-13.3,28.18-21.82,25.45.57,25.45.57C137.08,172.77,126.17,170,119,170.23a2.28,2.28,0,1,1-4.29.58,7.07,7.07,0,0,0-1.88.75c-3.52,2.28-7.15,3.41-17.61,5.46a19.78,19.78,0,0,0-14.08,10.11,26.22,26.22,0,0,1-.8,8.63c-1.25,5.45-7.5,23-9.09,26.19S69.9,273.69,69.9,273.69Zm27-96.89c3,0,3.09,4.67.08,4.67S93.91,176.8,96.92,176.8Z"/><path d="M117.38,178.33a36.26,36.26,0,0,0-3.71.49c-1.35.26-2.8.58-4.31,1s-3.08,1-4.69,1.56-3.23,1.31-4.86,2.07S96.56,185.07,95,186a109.57,109.57,0,0,0-14.71,10.15c0,.11-.05.21-.08.32a109,109,0,0,1,14.95-10.17c1.58-.91,3.2-1.74,4.81-2.53s3.23-1.48,4.82-2.1,3.16-1.15,4.66-1.59,2.94-.77,4.28-1,2.58-.44,3.69-.55,2.07-.14,2.86-.2c1.6,0,2.51,0,2.51,0s-.91-.05-2.51-.08C119.46,178.24,118.48,178.2,117.38,178.33Z"/><path class="cls-3" d="M49.84,160.67a27.67,27.67,0,0,0-11.16-2.5c-6,.06-7.84-1.76-9.77-2.55S10,157.15,0,170.21a84.37,84.37,0,0,1,28.57-8.35c16.19-1.64,14-.68,14-.68l5.11,1.25Z"/><path d="M74.92,275.92s-.23-43.62,0-56.57-4.77-39.08-7.72-46.58-21.7-18.29-38.63-10.91c0,0,10.45.12,13.18,3.3s9.43,11.36,13.29,14.2,5.57,21.58,10.34,31.13,7.72,13.74,8.18,21.58.78,43.85.78,43.85Z"/><path d="M118.86,128.29s-15.76-2.55-23.43,7.16-26.17,33.74-20.5,48.22,0,35.68,0,35.68,5.85-11.5,5.17-29.81S89.63,169,97.3,149.94,110.25,129.15,118.86,128.29Z"/><polygon points="75.97 214.49 75.66 275.92 74.92 275.92 74.99 219.07 75.97 214.49"/><path d="M68.84,231.84s-1,5.68,2.43,16.93v27.15h.81V249.45s3.83-8.74,8.68-10.68C80.76,238.77,71.74,232.3,68.84,231.84Z"/><path d="M79.69,237.64s-1-12.34,3.22-16.74,15.43-5.68,19.87-16A82.62,82.62,0,0,1,112.23,188s-22.81,5.19-29.32,16.83S78,237.64,78,237.64Z"/><path class="cls-3" d="M97.71,193.1s13.74-5.52,24.11-2.06,11.94-3,11.94-3-.62,1.75-11.47-.76S103.31,188.57,97.71,193.1Z"/><path d="M57.45,264.8h0C56,282.31,68.16,294.6,83.09,300.34a19.9,19.9,0,0,1-3.9,1.71H68c-8.78-2.75-15.23-11.76-15.23-22.47A25,25,0,0,1,57.45,264.8Z"/><path d="M57.44,264.8c1.32.57,8.1,1,16.28,1,7.72,0,14.21-.38,16-.9a25,25,0,0,1,4.66,14.69c0,9.05-4.61,16.89-11.33,20.76C68.13,294.6,55.93,282.31,57.44,264.8Z"/><path class="cls-3" d="M84.7,229.37a34.81,34.81,0,0,1-15.85,2.49s19.77,7.72,19.68,54.75C88.53,286.61,100,257.32,84.7,229.37Z"/><path d="M79.28,231.08l.47.67c.66.95,1.28,2,2,3.16s1.36,2.35,1.93,3.67l.93,2,.84,2.09c.6,1.39,1,2.87,1.53,4.33s.77,3,1.16,4.44.55,2.95.82,4.37.31,2.81.45,4.12.12,2.57.17,3.72a27.34,27.34,0,0,1,0,3.14c0,.93-.1,1.74-.14,2.41-.08,1.34-.13,2.1-.13,2.1s0-.76,0-2.1c0-.67,0-1.49,0-2.42s-.1-2-.14-3.12-.07-2.38-.28-3.68-.32-2.67-.55-4.08-.51-2.86-.85-4.32-.71-2.94-1.19-4.38-.89-2.92-1.47-4.3L84,240.81c-.31-.66-.61-1.32-.9-2-.57-1.31-1.25-2.52-1.83-3.69s-1.23-2.24-1.86-3.19l-.51-.79Z"/><path class="cls-4" d="M477.89,267.91h0a78.49,78.49,0,0,1,14.93-1.27A84.36,84.36,0,0,1,507.5,268c.16.21-.16-.22,0,0-1.66.47-7.6.82-14.68.82C485.3,268.82,479.07,268.43,477.89,267.91Z"/><path d="M475.94,230.45c.64.47,10.36,24.7,11.79,32.25,1.18,6.24,3.24,21.19,3.24,21.19l-1.75-.08s-3.94-23.15-5.2-29.32c-1.81-8.81-9.32-24.59-9.32-24.59Z"/><path d="M475.94,230.45s4.93-1.87,5.59-4.27-6.65-1.5-8.88-3.47-4.2-2.17-8.81-2.49-8.74-.83-11.32.16a5.68,5.68,0,0,1,3,1.18c4.57,4,10.41,3.78,13.72,5.74A60.89,60.89,0,0,0,475.94,230.45Z"/><path d="M508.35,247.43c-.64.47-10.37,24.7-11.79,32.25-1.18,6.24-3.25,21.18-3.25,21.18l1.76-.07s3.93-23.16,5.2-29.32c1.81-8.81,9.32-24.6,9.32-24.6Z"/><path d="M508.35,247.43s-4.93-1.87-5.59-4.27,6.65-1.51,8.88-3.48,4.2-2.16,8.81-2.48,8.73-.83,11.31.16a5.68,5.68,0,0,0-3,1.18c-4.57,4-10.41,3.77-13.72,5.74A61,61,0,0,1,508.35,247.43Z"/><path d="M497.87,280c-.53-5.75-3.41-24.09-2.66-40.41.4-8.63,5.84-37.43,8.72-43.8a75.82,75.82,0,0,1,4.12-8.06c.18-.56,2.72-2,1.18.64s-7.77,12.11-11.91,47.52c-2,17.1,3.79,55.81,4.18,56.62s-1.82,1.5-1.82,1.5C498.47,284.62,498.35,285.16,497.87,280Z"/><path class="cls-3" d="M510.07,187.74s10.6-14,21.21-20,21.57-8.7,24.75-15.31-7.07-1.69-11-.62-8.75,1.52-14.5,2.19-22.67,7.6-24.75,15.95C504,177.17,505.12,184.39,510.07,187.74Z"/><path d="M505.34,172.33s-5.26,9.82-2.74,14.47,6,2.7,6,2.7l1.44-1.76S504.34,184.06,505.34,172.33Z"/><path d="M502.34,157.05l-4.08,6.73s-8.89-2.86-8.89-6.73-1.1-2.65-2.53-3.47-1.22-3.47,0-5.5-1-2.4-2-3.42-4.28-8.41,8.62-12.49c5.48-1.73,5.2-.4,6.83,0S495.2,145.43,502.34,157.05Z"/><path class="cls-3" d="M503.35,157.05s-5.7-1.23-4.89-4.69,1-6.32-1.22-8.56,1.43-14.48,6.11-19.17,16.52-10.58,20.6-13.85,9-4.16,14.27-6.68,15.9-10.87,16.11-15.56,3.46,7.48-4.49,15.56-28.14,24-31.19,29.09S505.19,151.14,503.35,157.05Z"/><path d="M503.87,155.7s-7.43,13-10.84,59.46c-1,13.62,2.81,53.26,2.81,53.26h-2.23s-3.24-40.2-2-54,5.71-47.81,6.67-50.66A18.07,18.07,0,0,1,503.87,155.7Z"/><path d="M476.73,210l3.85,4.59s6.35-3.18,5.9-6.09.52-2.12,1.5-2.9.51-2.75-.64-4.14.45-1.92,1.09-2.81,2.25-6.82-7.93-8.38c-4.33-.67-4,.29-5.14.79S480.74,200.43,476.73,210Z"/><path class="cls-3" d="M476,210.12s4.15-1.58,3.13-4.09-1.5-4.64-.07-6.59-2.76-10.72-6.83-13.7-13.65-6-17.1-8-7.23-2.08-11.51-3.36-13.23-6.33-13.93-9.83-1.73,6,5.19,11.18,24,14.77,26.84,18.25S473.89,205.89,476,210.12Z"/><path d="M475.42,209.17s7.09,8.89,15.06,43.45c2.34,10.14,4.09,40.39,4.09,40.39l1.67-.27s-2.24-30.61-4.76-40.82-9.85-35.29-10.9-37.33A13.81,13.81,0,0,0,475.42,209.17Z"/><path d="M471.72,177.21s9.67,19.14,12.62,36.34,8.86,67.19,8.72,70.86,2.43-.3,2.43-.3-7.62-65.81-11.27-79.23A165.86,165.86,0,0,0,473.32,177Z"/><path d="M447.48,139.43s15.31,5.52,17.09,8,7,9.19,8.1,12.27,5,2.83,6.19,3.59,2,7.72,3.16,10.24,2,4.69,1.59,6.66-4.07,4.49-5.47,3.38-15.9-22-21.86-24.59-11.5-2.94-13.51-7.73C441.49,148.25,445.45,141.23,447.48,139.43Z"/><path d="M447.58,140.26s11.94,16.34,17.71,23.18a179.48,179.48,0,0,1,11.61,16s-16.81-22-18.09-23.48S448.83,141.91,447.58,140.26Z"/><path class="cls-3" d="M474.74,184.43s2.9.55,3.86-1.5-2.28-7.37-3.94-8.82-1.64-4.89-2.11-5.53c-1-1.3-13.51-6.42-13.34-8.89s-8.07-3.29-12.35-4.28c-1.94-.44,8,3.44,14.11,9.75C465.53,169.88,471.83,174.72,474.74,184.43Z"/><path d="M508.87,213.54c-3.86,9.89-16.25,62.32-16.32,65.7s-3.62,1.51-3.62,1.51,16.34-64.75,19.41-69C514,204,510.44,209.53,508.87,213.54Z"/><path class="cls-3" d="M517.73,217.35s-6.08,1.07-8.58-3.59-2.27-6.25-1.72-7.48-1.94-3.62-1.94-3.62a11.26,11.26,0,0,1,2.46-8.12c3.06-3.49,4-2.78,5.82-4.57s4.39-8.68,10.63-9.79a3.75,3.75,0,0,1,2.21.4s2.2-2.37,7.69-3.57,6-2.42,7.88-3.95,4.4-1.71,5.29-3.78,1.34,7.71-.69,10.65-4.67,6-5.28,8.82c-.67,3.16-2.23,6.58-4,8-.46.38-7.11,3.91-9.2,8.23C526.3,209.16,524.45,214.6,517.73,217.35Z"/><path d="M545.37,174.16s-35,29.32-37,38l.82,1.65a29.42,29.42,0,0,1,5.84-9.57C525.07,193.23,539.47,180.15,545.37,174.16Z"/><path d="M478.28,268.05c1.92.45,7.64.77,14.42.77,7.07,0,13-.35,14.65-.83,2.67,3.68-1.21,9.64-1.21,14.75,0,8.28,1.26,14.18-4.89,17.73h0a17.76,17.76,0,0,1-3.14,1.42C486.6,295.56,481.19,281.19,478.28,268.05Z"/><path d="M478,268l.24.06c2.91,13.14,8.32,27.51,19.84,33.85l-.43.15h-10a17.76,17.76,0,0,1-3.57-1.57h0c-6.15-3.55-4.89-9.45-4.89-17.73C479.26,277.63,475.38,271.67,478,268Z"/><path class="cls-5" d="M439,34.11l-3.36,11.44a6.82,6.82,0,0,0,3.57,8.06l6.16,3V72.42l13.05-3.07V51.09l5.42-9.34L453,34.11Z"/><path class="cls-5" d="M430.82,101.51l-15.24,12.76c-3.5,2.93-9,.11-8.34-4.4a3.55,3.55,0,0,1,.09-.47l17.44-54.46-1.22-4.69A3.45,3.45,0,0,1,426.21,46h0a3.47,3.47,0,0,1,3.9,2.11l1.85,4.7,2.91-.76a.67.67,0,0,1,.75,1l-3,2.68-5.73,18.75,12.82-7.14Z"/><path class="cls-6" d="M430.83,64.22l-9.26-1.7L407.33,109.4a3.55,3.55,0,0,0-.09.47c-.64,4.51,4.84,7.33,8.34,4.4l15.24-12.76,8.91-34.18-12,6.36Z"/><path class="cls-6" d="M426.91,155.43,405.3,220.32l29,57.12,2.72-1.62,4.34,7.43a7.39,7.39,0,0,1-3.14,10.37L435.36,295a22.14,22.14,0,0,0-8.66,7.39c-.49.73-.95,1.48-1.38,2.24h0l24.9-5.75V155.43Z"/><path class="cls-6" d="M437,275.82l4.34,7.43a7.39,7.39,0,0,1-3.14,10.37L435.36,295a22.14,22.14,0,0,0-8.66,7.39c-.49.73-.95,1.48-1.38,2.24l24.9-5.75v-31Z"/><path d="M450.22,288.28h0a8.41,8.41,0,0,1-6.79,1.68l-1.58-.3a7.36,7.36,0,0,1-3.64,4L435.36,295a22.07,22.07,0,0,0-8.66,7.39c-.49.73-.95,1.48-1.38,2.24l24.9-5.75Z"/><path d="M368,230.81H348.68l5.7,50.67-6.74,13.93a11.24,11.24,0,0,1-2,2.91,11.62,11.62,0,0,0-3.23,8l28.89-17-6.8-10Z"/><path class="cls-5" d="M365.44,266.17H352.65l1.73,15.31-6.74,13.93a11.24,11.24,0,0,1-2,2.91,11.62,11.62,0,0,0-3.23,8l28.89-17-6.8-10Z"/><path class="cls-6" d="M364.48,279.35s-6.41,5.24-7,5.24-3.1-3.11-3.1-3.11l-6.74,13.93a11.24,11.24,0,0,1-2,2.91,11.62,11.62,0,0,0-3.23,8l28.89-17Z"/><rect class="cls-5" x="377.58" y="98.98" width="18.64" height="21.2"/><path class="cls-6" d="M377.58,101v3.51c2,.44,5.24.77,7.8-.57C388.18,102.46,381.92,101.46,377.58,101Z"/><rect class="cls-5" x="370.35" y="79.88" width="30.06" height="24.93" rx="12" transform="translate(30.53 -84.08) rotate(12.96)"/><path class="cls-6" d="M402.22,118.9H378.67A27.23,27.23,0,0,0,352,140.82L346,171l-22.22-10.29-2.16-2.17a.9.9,0,0,0-1.53.63v2.12L316,162.47a3.45,3.45,0,0,0-2.38,4.09h0a3.45,3.45,0,0,0,3.36,2.66h6.59l27,20.34a5.84,5.84,0,0,0,9.18-3.24h0v17.1h52.84V133.86Z"/><path class="cls-5" d="M323.74,160.68l-2.17-2.17a.89.89,0,0,0-1.52.63v2.12L316,162.47a3.45,3.45,0,0,0,1,6.75h6.59l11,8.32,4.68-9.68Z"/><path class="cls-6" d="M100.12,204.13v16.78a9.9,9.9,0,0,0,9.91,9.9H176.8V274h14.63l11.79-47.55a23.59,23.59,0,0,0-22.9-29.26H151.93Z"/><path class="cls-5" d="M176.8,195.84h4.4l5.86,4.31a4,4,0,0,0,5.39-.55h0a4,4,0,0,0,.23-5.12l-4.23-5.63s3.18-2.14,2.59-2.14h-8l-5.37-1.26"/><rect class="cls-3" x="128.58" width="219.91" height="155.43"/><path d="M271.48,73.4H239.83V42a18,18,0,0,1,18-18h0a13.62,13.62,0,0,1,13.62,13.62Z"/><rect class="cls-5" x="249.36" y="47.75" width="13.47" height="18.62"/><path d="M259.75,58.13h0a10.19,10.19,0,0,0,3.09-.47V47.75H249.36A10.42,10.42,0,0,0,259.75,58.13Z"/><path class="cls-5" d="M271,66.06l9.16,50.45a10.66,10.66,0,0,0,8.65,8.6l41.51,7.3a3.65,3.65,0,0,0,4.21-2.87h0a3.66,3.66,0,0,0-2.08-4.07l-4.29-1.94a1,1,0,0,1-.47-1.49h0a1,1,0,0,0-.9-1.58h-6.7l-30.57-14-5.05-30.31a12.08,12.08,0,0,0-11.92-10.1Z"/><path class="cls-5" d="M243.73,66.06l-9.16,50.45a10.66,10.66,0,0,1-8.65,8.6l-41.5,7.3a3.67,3.67,0,0,1-4.22-2.87h0a3.66,3.66,0,0,1,2.08-4.07l4.3-1.94A1,1,0,0,0,187,122h0a1,1,0,0,1,.9-1.58h6.7l30.57-14,5-30.31a12.08,12.08,0,0,1,11.92-10.1Z"/><rect class="cls-5" x="247.35" y="32.45" width="20.78" height="24.84" rx="10.39"/><path d="M245.62,42.52l8.06-2.29a9.18,9.18,0,0,0,6.38-6.58h0s1.07,6,8.66,6.2V35.46L259.84,30l-11.76,3.1-3.85,8.77"/><path class="cls-5" d="M249.33,47.4h0a2.78,2.78,0,0,1-3.9-.48l-.53-.67a2.78,2.78,0,0,1,.47-3.9h0a2.78,2.78,0,0,1,3.9.47l.53.67A2.79,2.79,0,0,1,249.33,47.4Z"/><path class="cls-7" d="M235.6,85.75l6.11,41.44s-21.91,8-15.44,72.8h61.4l-11.4-92.22s6-1.26,8.6-5.59a6.4,6.4,0,0,0-.15-6.73l-6.12-9.7v-12A7.64,7.64,0,0,0,271,66.06H242a8.56,8.56,0,0,0-8.37,10.32Z"/><path class="cls-5" d="M234.17,200l12,77a7.26,7.26,0,0,1-2,6.2l-8.39,8.53a1.91,1.91,0,0,0,1.36,3.25,1.81,1.81,0,0,0,.52-.07l14.1-3.95v2.46h4.6V200Z"/><path class="cls-6" d="M244,283.32h0l-8.15,8.28a1.91,1.91,0,0,0,1.8,3.26l14.1-3.95v2.46h4.6V281.8l-8.52,4A2.69,2.69,0,0,1,244,283.32Z"/><path class="cls-5" d="M282.06,200l-12,77a7.22,7.22,0,0,0,2,6.2l8.39,8.53a1.91,1.91,0,0,1-1.36,3.25,1.79,1.79,0,0,1-.51-.07l-14.1-3.95v2.46h-4.61V200Z"/><path class="cls-6" d="M272.21,283.32h0l8.15,8.28a1.9,1.9,0,0,1-.33,3.08,1.92,1.92,0,0,1-1.46.18l-14.1-3.95v2.46h-4.61V281.8l8.52,4A2.69,2.69,0,0,0,272.21,283.32Z"/><polygon class="cls-5" points="248.03 66.06 261.12 83.8 264.36 66.06 248.03 66.06"/><path class="cls-5" d="M126.47,76.75h4.21a12,12,0,0,1,12,12v5.63a12,12,0,0,1-12,12h-7.84A8.37,8.37,0,0,1,114.47,98V88.75a12,12,0,0,1,12-12Z" transform="translate(-13.18 22.14) rotate(-9.36)"/><path class="cls-1" d="M152.7,179.52v-48.7a16.58,16.58,0,0,0-16.58-16.58H109.44a14,14,0,0,0-14,14v68.65a7.26,7.26,0,0,0,7.26,7.25h42.74a6.48,6.48,0,0,0,6.48-6.47h27V185.74Z"/><g class="cls-8"><path class="cls-7" d="M81.33,98.3A2.33,2.33,0,1,1,79,96,2.32,2.32,0,0,1,81.33,98.3Z"/><path class="cls-7" d="M91.59,98.3A2.33,2.33,0,1,1,89.27,96,2.32,2.32,0,0,1,91.59,98.3Z"/><path class="cls-7" d="M101.85,98.3A2.32,2.32,0,1,1,99.53,96,2.32,2.32,0,0,1,101.85,98.3Z"/><path class="cls-7" d="M112.12,98.3A2.33,2.33,0,1,1,109.8,96,2.32,2.32,0,0,1,112.12,98.3Z"/><path class="cls-7" d="M122.38,98.3A2.32,2.32,0,1,1,120.06,96,2.32,2.32,0,0,1,122.38,98.3Z"/><path class="cls-7" d="M132.65,98.3A2.33,2.33,0,1,1,130.33,96,2.32,2.32,0,0,1,132.65,98.3Z"/><path class="cls-7" d="M142.91,98.3A2.32,2.32,0,1,1,140.59,96,2.32,2.32,0,0,1,142.91,98.3Z"/><path class="cls-7" d="M153.18,98.3A2.33,2.33,0,1,1,150.86,96,2.32,2.32,0,0,1,153.18,98.3Z"/><path class="cls-7" d="M163.44,98.3A2.32,2.32,0,1,1,161.12,96,2.32,2.32,0,0,1,163.44,98.3Z"/><path class="cls-7" d="M173.71,98.3A2.33,2.33,0,1,1,171.38,96,2.32,2.32,0,0,1,173.71,98.3Z"/><path class="cls-7" d="M184,98.3A2.32,2.32,0,1,1,181.65,96,2.32,2.32,0,0,1,184,98.3Z"/><path class="cls-7" d="M81.33,107.43A2.33,2.33,0,1,1,79,105.1,2.32,2.32,0,0,1,81.33,107.43Z"/><path class="cls-7" d="M91.59,107.43a2.33,2.33,0,1,1-2.32-2.33A2.32,2.32,0,0,1,91.59,107.43Z"/><path class="cls-7" d="M101.85,107.43a2.32,2.32,0,1,1-2.32-2.33A2.32,2.32,0,0,1,101.85,107.43Z"/><path class="cls-7" d="M112.12,107.43a2.33,2.33,0,1,1-2.32-2.33A2.32,2.32,0,0,1,112.12,107.43Z"/><circle class="cls-7" cx="120.06" cy="107.43" r="2.32"/><path class="cls-7" d="M132.65,107.43a2.33,2.33,0,1,1-2.32-2.33A2.32,2.32,0,0,1,132.65,107.43Z"/><path class="cls-7" d="M142.91,107.43a2.32,2.32,0,1,1-2.32-2.33A2.32,2.32,0,0,1,142.91,107.43Z"/><path class="cls-7" d="M153.18,107.43a2.33,2.33,0,1,1-2.32-2.33A2.32,2.32,0,0,1,153.18,107.43Z"/><path class="cls-7" d="M163.44,107.43a2.32,2.32,0,1,1-2.32-2.33A2.32,2.32,0,0,1,163.44,107.43Z"/><path class="cls-7" d="M173.71,107.43a2.33,2.33,0,1,1-2.33-2.33A2.32,2.32,0,0,1,173.71,107.43Z"/><circle class="cls-7" cx="181.65" cy="107.43" r="2.32"/><path class="cls-7" d="M81.33,116.56A2.33,2.33,0,1,1,79,114.24,2.32,2.32,0,0,1,81.33,116.56Z"/><path class="cls-7" d="M91.59,116.56a2.33,2.33,0,1,1-2.32-2.32A2.32,2.32,0,0,1,91.59,116.56Z"/><path class="cls-7" d="M101.85,116.56a2.32,2.32,0,1,1-2.32-2.32A2.32,2.32,0,0,1,101.85,116.56Z"/><path class="cls-7" d="M112.12,116.56a2.33,2.33,0,1,1-2.32-2.32A2.32,2.32,0,0,1,112.12,116.56Z"/><path class="cls-7" d="M122.38,116.56a2.32,2.32,0,1,1-2.32-2.32A2.32,2.32,0,0,1,122.38,116.56Z"/><path class="cls-7" d="M132.65,116.56a2.33,2.33,0,1,1-2.32-2.32A2.32,2.32,0,0,1,132.65,116.56Z"/><path class="cls-7" d="M142.91,116.56a2.32,2.32,0,1,1-2.32-2.32A2.32,2.32,0,0,1,142.91,116.56Z"/><path class="cls-7" d="M153.18,116.56a2.33,2.33,0,1,1-2.32-2.32A2.32,2.32,0,0,1,153.18,116.56Z"/><path class="cls-7" d="M163.44,116.56a2.32,2.32,0,1,1-2.32-2.32A2.32,2.32,0,0,1,163.44,116.56Z"/><path class="cls-7" d="M173.71,116.56a2.33,2.33,0,1,1-2.33-2.32A2.32,2.32,0,0,1,173.71,116.56Z"/><path class="cls-7" d="M184,116.56a2.32,2.32,0,1,1-2.32-2.32A2.32,2.32,0,0,1,184,116.56Z"/><path class="cls-7" d="M81.33,125.69A2.33,2.33,0,1,1,79,123.37,2.32,2.32,0,0,1,81.33,125.69Z"/><path class="cls-7" d="M91.59,125.69a2.33,2.33,0,1,1-2.32-2.32A2.32,2.32,0,0,1,91.59,125.69Z"/><path class="cls-7" d="M101.85,125.69a2.32,2.32,0,1,1-2.32-2.32A2.32,2.32,0,0,1,101.85,125.69Z"/><path class="cls-7" d="M112.12,125.69a2.33,2.33,0,1,1-2.32-2.32A2.32,2.32,0,0,1,112.12,125.69Z"/><path class="cls-7" d="M122.38,125.69a2.32,2.32,0,1,1-2.32-2.32A2.32,2.32,0,0,1,122.38,125.69Z"/><path class="cls-7" d="M132.65,125.69a2.33,2.33,0,1,1-2.32-2.32A2.32,2.32,0,0,1,132.65,125.69Z"/><path class="cls-7" d="M142.91,125.69a2.32,2.32,0,1,1-2.32-2.32A2.32,2.32,0,0,1,142.91,125.69Z"/><path class="cls-7" d="M153.18,125.69a2.33,2.33,0,1,1-2.32-2.32A2.32,2.32,0,0,1,153.18,125.69Z"/><path class="cls-7" d="M163.44,125.69a2.32,2.32,0,1,1-2.32-2.32A2.32,2.32,0,0,1,163.44,125.69Z"/><path class="cls-7" d="M173.71,125.69a2.33,2.33,0,1,1-2.33-2.32A2.32,2.32,0,0,1,173.71,125.69Z"/><path class="cls-7" d="M184,125.69a2.32,2.32,0,1,1-2.32-2.32A2.32,2.32,0,0,1,184,125.69Z"/><path class="cls-7" d="M81.33,134.82A2.33,2.33,0,1,1,79,132.5,2.33,2.33,0,0,1,81.33,134.82Z"/><path class="cls-7" d="M91.59,134.82a2.33,2.33,0,1,1-2.32-2.32A2.32,2.32,0,0,1,91.59,134.82Z"/><path class="cls-7" d="M101.85,134.82a2.32,2.32,0,1,1-2.32-2.32A2.32,2.32,0,0,1,101.85,134.82Z"/><path class="cls-7" d="M112.12,134.82a2.33,2.33,0,1,1-2.32-2.32A2.32,2.32,0,0,1,112.12,134.82Z"/><circle class="cls-7" cx="120.06" cy="134.82" r="2.32"/><path class="cls-7" d="M132.65,134.82a2.33,2.33,0,1,1-2.32-2.32A2.32,2.32,0,0,1,132.65,134.82Z"/><path class="cls-7" d="M142.91,134.82a2.32,2.32,0,1,1-2.32-2.32A2.32,2.32,0,0,1,142.91,134.82Z"/><path class="cls-7" d="M153.18,134.82a2.33,2.33,0,1,1-2.32-2.32A2.32,2.32,0,0,1,153.18,134.82Z"/><path class="cls-7" d="M163.44,134.82a2.32,2.32,0,1,1-2.32-2.32A2.32,2.32,0,0,1,163.44,134.82Z"/><path class="cls-7" d="M173.71,134.82a2.33,2.33,0,1,1-2.33-2.32A2.33,2.33,0,0,1,173.71,134.82Z"/><circle class="cls-7" cx="181.65" cy="134.82" r="2.32"/><path class="cls-7" d="M81.33,144A2.33,2.33,0,1,1,79,141.63,2.33,2.33,0,0,1,81.33,144Z"/><path class="cls-7" d="M91.59,144a2.33,2.33,0,1,1-2.32-2.32A2.32,2.32,0,0,1,91.59,144Z"/><path class="cls-7" d="M101.85,144a2.32,2.32,0,1,1-2.32-2.32A2.32,2.32,0,0,1,101.85,144Z"/><path class="cls-7" d="M112.12,144a2.33,2.33,0,1,1-2.32-2.32A2.32,2.32,0,0,1,112.12,144Z"/><path class="cls-7" d="M122.38,144a2.32,2.32,0,1,1-2.32-2.32A2.32,2.32,0,0,1,122.38,144Z"/><path class="cls-7" d="M132.65,144a2.33,2.33,0,1,1-2.32-2.32A2.32,2.32,0,0,1,132.65,144Z"/><path class="cls-7" d="M142.91,144a2.32,2.32,0,1,1-2.32-2.32A2.32,2.32,0,0,1,142.91,144Z"/><path class="cls-7" d="M153.18,144a2.33,2.33,0,1,1-2.32-2.32A2.32,2.32,0,0,1,153.18,144Z"/><path class="cls-7" d="M163.44,144a2.32,2.32,0,1,1-2.32-2.32A2.32,2.32,0,0,1,163.44,144Z"/><path class="cls-7" d="M173.71,144a2.33,2.33,0,1,1-2.33-2.32A2.33,2.33,0,0,1,173.71,144Z"/><path class="cls-7" d="M184,144a2.32,2.32,0,1,1-2.32-2.32A2.32,2.32,0,0,1,184,144Z"/><path class="cls-7" d="M81.33,153.09A2.33,2.33,0,1,1,79,150.76,2.32,2.32,0,0,1,81.33,153.09Z"/><path class="cls-7" d="M91.59,153.09a2.33,2.33,0,1,1-2.32-2.33A2.32,2.32,0,0,1,91.59,153.09Z"/><path class="cls-7" d="M101.85,153.09a2.32,2.32,0,1,1-2.32-2.33A2.32,2.32,0,0,1,101.85,153.09Z"/><path class="cls-7" d="M112.12,153.09a2.33,2.33,0,1,1-2.32-2.33A2.32,2.32,0,0,1,112.12,153.09Z"/><path class="cls-7" d="M122.38,153.09a2.32,2.32,0,1,1-2.32-2.33A2.32,2.32,0,0,1,122.38,153.09Z"/><path class="cls-7" d="M132.65,153.09a2.33,2.33,0,1,1-2.32-2.33A2.32,2.32,0,0,1,132.65,153.09Z"/><path class="cls-7" d="M142.91,153.09a2.32,2.32,0,1,1-2.32-2.33A2.32,2.32,0,0,1,142.91,153.09Z"/><path class="cls-7" d="M153.18,153.09a2.33,2.33,0,1,1-2.32-2.33A2.32,2.32,0,0,1,153.18,153.09Z"/><path class="cls-7" d="M163.44,153.09a2.32,2.32,0,1,1-2.32-2.33A2.32,2.32,0,0,1,163.44,153.09Z"/><path class="cls-7" d="M173.71,153.09a2.33,2.33,0,1,1-2.33-2.33A2.32,2.32,0,0,1,173.71,153.09Z"/><path class="cls-7" d="M184,153.09a2.32,2.32,0,1,1-2.32-2.33A2.32,2.32,0,0,1,184,153.09Z"/><path class="cls-7" d="M81.33,162.22A2.33,2.33,0,1,1,79,159.89,2.32,2.32,0,0,1,81.33,162.22Z"/><path class="cls-7" d="M91.59,162.22a2.33,2.33,0,1,1-2.32-2.33A2.32,2.32,0,0,1,91.59,162.22Z"/><path class="cls-7" d="M101.85,162.22a2.32,2.32,0,1,1-2.32-2.33A2.32,2.32,0,0,1,101.85,162.22Z"/><path class="cls-7" d="M112.12,162.22a2.33,2.33,0,1,1-2.32-2.33A2.32,2.32,0,0,1,112.12,162.22Z"/><circle class="cls-7" cx="120.06" cy="162.22" r="2.32"/><path class="cls-7" d="M132.65,162.22a2.33,2.33,0,1,1-2.32-2.33A2.32,2.32,0,0,1,132.65,162.22Z"/><path class="cls-7" d="M142.91,162.22a2.32,2.32,0,1,1-2.32-2.33A2.32,2.32,0,0,1,142.91,162.22Z"/><path class="cls-7" d="M153.18,162.22a2.33,2.33,0,1,1-2.32-2.33A2.32,2.32,0,0,1,153.18,162.22Z"/><path class="cls-7" d="M163.44,162.22a2.32,2.32,0,1,1-2.32-2.33A2.32,2.32,0,0,1,163.44,162.22Z"/><path class="cls-7" d="M173.71,162.22a2.33,2.33,0,1,1-2.33-2.33A2.32,2.32,0,0,1,173.71,162.22Z"/><circle class="cls-7" cx="181.65" cy="162.22" r="2.32"/><path class="cls-7" d="M81.33,171.35A2.33,2.33,0,1,1,79,169,2.32,2.32,0,0,1,81.33,171.35Z"/><path class="cls-7" d="M91.59,171.35A2.33,2.33,0,1,1,89.27,169,2.32,2.32,0,0,1,91.59,171.35Z"/><path class="cls-7" d="M101.85,171.35A2.32,2.32,0,1,1,99.53,169,2.32,2.32,0,0,1,101.85,171.35Z"/><path class="cls-7" d="M112.12,171.35A2.33,2.33,0,1,1,109.8,169,2.32,2.32,0,0,1,112.12,171.35Z"/><path class="cls-7" d="M122.38,171.35a2.32,2.32,0,1,1-2.32-2.32A2.32,2.32,0,0,1,122.38,171.35Z"/><path class="cls-7" d="M132.65,171.35a2.33,2.33,0,1,1-2.32-2.32A2.32,2.32,0,0,1,132.65,171.35Z"/><path class="cls-7" d="M142.91,171.35a2.32,2.32,0,1,1-2.32-2.32A2.32,2.32,0,0,1,142.91,171.35Z"/><path class="cls-7" d="M153.18,171.35a2.33,2.33,0,1,1-2.32-2.32A2.32,2.32,0,0,1,153.18,171.35Z"/><path class="cls-7" d="M163.44,171.35a2.32,2.32,0,1,1-2.32-2.32A2.32,2.32,0,0,1,163.44,171.35Z"/><path class="cls-7" d="M173.71,171.35a2.33,2.33,0,1,1-2.33-2.32A2.32,2.32,0,0,1,173.71,171.35Z"/><path class="cls-7" d="M184,171.35a2.32,2.32,0,1,1-2.32-2.32A2.32,2.32,0,0,1,184,171.35Z"/><path class="cls-7" d="M81.33,180.48A2.33,2.33,0,1,1,79,178.16,2.32,2.32,0,0,1,81.33,180.48Z"/><path class="cls-7" d="M91.59,180.48a2.33,2.33,0,1,1-2.32-2.32A2.32,2.32,0,0,1,91.59,180.48Z"/><path class="cls-7" d="M101.85,180.48a2.32,2.32,0,1,1-2.32-2.32A2.32,2.32,0,0,1,101.85,180.48Z"/><path class="cls-7" d="M112.12,180.48a2.33,2.33,0,1,1-2.32-2.32A2.32,2.32,0,0,1,112.12,180.48Z"/><path class="cls-7" d="M122.38,180.48a2.32,2.32,0,1,1-2.32-2.32A2.32,2.32,0,0,1,122.38,180.48Z"/><path class="cls-7" d="M132.65,180.48a2.33,2.33,0,1,1-2.32-2.32A2.32,2.32,0,0,1,132.65,180.48Z"/><path class="cls-7" d="M142.91,180.48a2.32,2.32,0,1,1-2.32-2.32A2.32,2.32,0,0,1,142.91,180.48Z"/><path class="cls-7" d="M153.18,180.48a2.33,2.33,0,1,1-2.32-2.32A2.32,2.32,0,0,1,153.18,180.48Z"/><path class="cls-7" d="M163.44,180.48a2.32,2.32,0,1,1-2.32-2.32A2.32,2.32,0,0,1,163.44,180.48Z"/><path class="cls-7" d="M173.71,180.48a2.33,2.33,0,1,1-2.33-2.32A2.32,2.32,0,0,1,173.71,180.48Z"/><path class="cls-7" d="M184,180.48a2.32,2.32,0,1,1-2.32-2.32A2.32,2.32,0,0,1,184,180.48Z"/><path class="cls-7" d="M81.33,189.61A2.33,2.33,0,1,1,79,187.29,2.32,2.32,0,0,1,81.33,189.61Z"/><path class="cls-7" d="M91.59,189.61a2.33,2.33,0,1,1-2.32-2.32A2.32,2.32,0,0,1,91.59,189.61Z"/><path class="cls-7" d="M101.85,189.61a2.32,2.32,0,1,1-2.32-2.32A2.32,2.32,0,0,1,101.85,189.61Z"/><path class="cls-7" d="M112.12,189.61a2.33,2.33,0,1,1-2.32-2.32A2.32,2.32,0,0,1,112.12,189.61Z"/><circle class="cls-7" cx="120.06" cy="189.61" r="2.32"/><path class="cls-7" d="M132.65,189.61a2.33,2.33,0,1,1-2.32-2.32A2.32,2.32,0,0,1,132.65,189.61Z"/><path class="cls-7" d="M142.91,189.61a2.32,2.32,0,1,1-2.32-2.32A2.32,2.32,0,0,1,142.91,189.61Z"/><path class="cls-7" d="M153.18,189.61a2.33,2.33,0,1,1-2.32-2.32A2.32,2.32,0,0,1,153.18,189.61Z"/><path class="cls-7" d="M163.44,189.61a2.32,2.32,0,1,1-2.32-2.32A2.32,2.32,0,0,1,163.44,189.61Z"/><path class="cls-7" d="M173.71,189.61a2.33,2.33,0,1,1-2.33-2.32A2.32,2.32,0,0,1,173.71,189.61Z"/><circle class="cls-7" cx="181.65" cy="189.61" r="2.32"/><path class="cls-7" d="M81.33,198.74A2.33,2.33,0,1,1,79,196.42,2.33,2.33,0,0,1,81.33,198.74Z"/><path class="cls-7" d="M91.59,198.74a2.33,2.33,0,1,1-2.32-2.32A2.32,2.32,0,0,1,91.59,198.74Z"/><path class="cls-7" d="M101.85,198.74a2.32,2.32,0,1,1-2.32-2.32A2.32,2.32,0,0,1,101.85,198.74Z"/><path class="cls-7" d="M112.12,198.74a2.33,2.33,0,1,1-2.32-2.32A2.32,2.32,0,0,1,112.12,198.74Z"/><path class="cls-7" d="M122.38,198.74a2.32,2.32,0,1,1-2.32-2.32A2.32,2.32,0,0,1,122.38,198.74Z"/><path class="cls-7" d="M132.65,198.74a2.33,2.33,0,1,1-2.32-2.32A2.32,2.32,0,0,1,132.65,198.74Z"/><path class="cls-7" d="M142.91,198.74a2.32,2.32,0,1,1-2.32-2.32A2.32,2.32,0,0,1,142.91,198.74Z"/><path class="cls-7" d="M153.18,198.74a2.33,2.33,0,1,1-2.32-2.32A2.32,2.32,0,0,1,153.18,198.74Z"/><path class="cls-7" d="M163.44,198.74a2.32,2.32,0,1,1-2.32-2.32A2.32,2.32,0,0,1,163.44,198.74Z"/><path class="cls-7" d="M173.71,198.74a2.33,2.33,0,1,1-2.33-2.32A2.33,2.33,0,0,1,173.71,198.74Z"/><path class="cls-7" d="M184,198.74a2.32,2.32,0,1,1-2.32-2.32A2.32,2.32,0,0,1,184,198.74Z"/><path class="cls-7" d="M81.33,207.87A2.33,2.33,0,1,1,79,205.55,2.33,2.33,0,0,1,81.33,207.87Z"/><path class="cls-7" d="M91.59,207.87a2.33,2.33,0,1,1-2.32-2.32A2.32,2.32,0,0,1,91.59,207.87Z"/><path class="cls-7" d="M101.85,207.87a2.32,2.32,0,1,1-2.32-2.32A2.32,2.32,0,0,1,101.85,207.87Z"/><path class="cls-7" d="M112.12,207.87a2.33,2.33,0,1,1-2.32-2.32A2.32,2.32,0,0,1,112.12,207.87Z"/><path class="cls-7" d="M122.38,207.87a2.32,2.32,0,1,1-2.32-2.32A2.32,2.32,0,0,1,122.38,207.87Z"/><path class="cls-7" d="M132.65,207.87a2.33,2.33,0,1,1-2.32-2.32A2.32,2.32,0,0,1,132.65,207.87Z"/><path class="cls-7" d="M142.91,207.87a2.32,2.32,0,1,1-2.32-2.32A2.32,2.32,0,0,1,142.91,207.87Z"/><path class="cls-7" d="M153.18,207.87a2.33,2.33,0,1,1-2.32-2.32A2.32,2.32,0,0,1,153.18,207.87Z"/><path class="cls-7" d="M163.44,207.87a2.32,2.32,0,1,1-2.32-2.32A2.32,2.32,0,0,1,163.44,207.87Z"/><path class="cls-7" d="M173.71,207.87a2.33,2.33,0,1,1-2.33-2.32A2.33,2.33,0,0,1,173.71,207.87Z"/><path class="cls-7" d="M184,207.87a2.32,2.32,0,1,1-2.32-2.32A2.32,2.32,0,0,1,184,207.87Z"/><path class="cls-7" d="M81.33,217A2.33,2.33,0,1,1,79,214.68,2.32,2.32,0,0,1,81.33,217Z"/><path class="cls-7" d="M91.59,217a2.33,2.33,0,1,1-2.32-2.33A2.32,2.32,0,0,1,91.59,217Z"/><path class="cls-7" d="M101.85,217a2.32,2.32,0,1,1-2.32-2.33A2.32,2.32,0,0,1,101.85,217Z"/><path class="cls-7" d="M112.12,217a2.33,2.33,0,1,1-2.32-2.33A2.32,2.32,0,0,1,112.12,217Z"/><circle class="cls-7" cx="120.06" cy="217.01" r="2.32"/><path class="cls-7" d="M132.65,217a2.33,2.33,0,1,1-2.32-2.33A2.32,2.32,0,0,1,132.65,217Z"/><path class="cls-7" d="M142.91,217a2.32,2.32,0,1,1-2.32-2.33A2.32,2.32,0,0,1,142.91,217Z"/><path class="cls-7" d="M153.18,217a2.33,2.33,0,1,1-2.32-2.33A2.32,2.32,0,0,1,153.18,217Z"/><path class="cls-7" d="M163.44,217a2.32,2.32,0,1,1-2.32-2.33A2.32,2.32,0,0,1,163.44,217Z"/><path class="cls-7" d="M173.71,217a2.33,2.33,0,1,1-2.33-2.33A2.32,2.32,0,0,1,173.71,217Z"/><circle class="cls-7" cx="181.65" cy="217.01" r="2.32"/></g><polygon class="cls-5" points="132.01 113.99 132.93 101.09 119.28 101.09 116.85 113.99 132.01 113.99"/><path class="cls-6" d="M151.93,197.14h0a16.58,16.58,0,0,1-16.58-16.58v-42l-4.92,41.69a14.77,14.77,0,0,0,13.92,16.48l7.58.38"/><path class="cls-5" d="M199.81,299.76a65.86,65.86,0,0,1-10.7-14.3l-.79-1.41,2-10.1H178.93v10.29l-5,9.13,28.75,15.94a10,10,0,0,0-2.64-9.29Z"/><path class="cls-6" d="M202.7,309.31a10,10,0,0,0-2.64-9.29l-.25-.26a65.86,65.86,0,0,1-10.7-14.3l-.79-1.41-3.18,2.52-6.21-2.33-5,9.13Z"/><polygon class="cls-6" points="149.26 230.81 142.27 258.23 156.45 261.84 173.1 230.81 149.26 230.81"/><path class="cls-5" d="M158.19,288.92a66.1,66.1,0,0,1-6.83-16.49l-.41-1.57,4.47-9.28-11.08-2.83-2.54,10-7.09,7.62,23.93,22.54a10.06,10.06,0,0,0-.27-9.65Z"/><path class="cls-6" d="M158.64,298.89a10.06,10.06,0,0,0-.27-9.65l-.18-.32a66.1,66.1,0,0,1-6.83-16.49l-.41-1.57-3.71,1.66-5.44-3.79-7.09,7.62Z"/><polygon points="155.42 261.58 144.34 258.75 143.83 260.78 155.42 261.58"/><path d="M159,240.53H106.89a4.87,4.87,0,0,1-4.85-4.86h0a4.87,4.87,0,0,1,4.85-4.86H159a4.88,4.88,0,0,1,4.86,4.86h0A4.88,4.88,0,0,1,159,240.53Z"/><polygon points="115.08 312.8 108.86 312.8 123.19 240.53 129.41 240.53 115.08 312.8"/><polygon points="143.78 240.53 137.56 240.53 151.89 312.8 158.11 312.8 143.78 240.53"/><path class="cls-3" d="M406.16,240.53H354.09a4.88,4.88,0,0,1-4.86-4.86h0a4.88,4.88,0,0,1,4.86-4.86h52.07a4.87,4.87,0,0,1,4.85,4.86h0A4.87,4.87,0,0,1,406.16,240.53Z"/><polygon class="cls-3" points="362.27 312.8 356.05 312.8 370.38 240.53 376.6 240.53 362.27 312.8"/><polygon class="cls-3" points="390.97 240.53 384.75 240.53 399.08 312.8 405.3 312.8 390.97 240.53"/><path d="M397.58,102.91a8.14,8.14,0,0,0,1.53-3.22l1.83-8a8.41,8.41,0,0,0-6.29-10.06l-12.94-3a8.43,8.43,0,0,0-9.78,5.34l7.74,1.77h0a8.72,8.72,0,0,0,4.42,10.28Z"/><path d="M384.09,96.1l-2.75,33a18.27,18.27,0,0,0,5.75,14.88h0a14.09,14.09,0,0,0,13.34,3.3l4.37-1.19a12,12,0,0,0,8.66-9.38h0a12.28,12.28,0,0,0-1.88-9.13l-2-3a35.85,35.85,0,0,1-6-21.69l.09-1.69a29,29,0,0,0-3.3-14.9h0Z"/><path class="cls-5" d="M412.53,203.42H331.18a13.42,13.42,0,0,0-13.34,14.92l7.65,68-6.73,13.93a11.49,11.49,0,0,1-2,2.91h0a11.62,11.62,0,0,0-3.23,8h0l28.88-17-6.8-10,3.89-53h59.93A12.57,12.57,0,0,0,412,219.06Z"/><path d="M331.18,203.42a13.42,13.42,0,0,0-13.34,14.92l5.38,47.83h13.7l2.56-35h59.93A12.57,12.57,0,0,0,412,219.06l.55-15.64Z"/><path class="cls-6" d="M335.59,284.24s-6.41,5.25-7,5.25-3.11-3.11-3.11-3.11l-6.73,13.93a11.49,11.49,0,0,1-2,2.91,11.62,11.62,0,0,0-3.23,8l28.88-17Z"/><path class="cls-6" d="M443.69,25.3l-.23-.18a5,5,0,0,0-6.11,0h0A5,5,0,0,0,436,31.28l.28.55A5,5,0,0,0,439,34.27L451,38.78h0a7.78,7.78,0,0,0-1,8.25l.32.67,4.24-2V50.4a5,5,0,0,0,1.6,3.65l2.32,2.14,2.26-5a5.8,5.8,0,0,1,1.81-2.27l4.72-3.62-5-9.91L443.69,25.3"/><circle class="cls-6" cx="447.2" cy="27.53" r="4.46"/><path class="cls-6" d="M458.54,30.4a4.46,4.46,0,1,1-4.46-4.46A4.46,4.46,0,0,1,458.54,30.4Z"/><path class="cls-6" d="M464.81,34.85a4.46,4.46,0,1,1-4.46-4.45A4.45,4.45,0,0,1,464.81,34.85Z"/><path class="cls-6" d="M468.74,41.28a6.42,6.42,0,1,1-6.42-6.43A6.42,6.42,0,0,1,468.74,41.28Z"/><path class="cls-1" d="M463.54,66.06H446.73a19.82,19.82,0,0,0-19.82,19.82v69.55h42.74V140.66l15.19-17.44a14.56,14.56,0,0,0,2.86-14L476.58,75A14,14,0,0,0,463.54,66.06Z"/><path class="cls-7" d="M208.88,36.27h-57a3.93,3.93,0,0,1-3.92-3.93h0a3.93,3.93,0,0,1,3.92-3.92h57a3.92,3.92,0,0,1,3.92,3.92h0A3.92,3.92,0,0,1,208.88,36.27Z"/><path class="cls-7" d="M222.8,51.67H149.87a2,2,0,0,1-2-2h0a2,2,0,0,1,2-2H222.8a2,2,0,0,1,2,2h0A2,2,0,0,1,222.8,51.67Z"/><path class="cls-7" d="M168.49,59.8H149.87a2,2,0,0,0-2,2h0a2,2,0,0,0,2,2h18.62a2,2,0,0,0,2-2h0A2,2,0,0,0,168.49,59.8Z"/><path class="cls-7" d="M179.77,61.77h0a2,2,0,0,0,2,2H222.8a2,2,0,0,0,2-2h0a2,2,0,0,0-2-2H181.74A2,2,0,0,0,179.77,61.77Z"/><rect class="cls-7" x="147.91" y="71.86" width="17.87" height="3.92" rx="1.96"/><rect class="cls-7" x="172.78" y="71.86" width="51.98" height="3.92" rx="1.96"/><rect class="cls-7" x="147.91" y="83.92" width="36.53" height="3.92" rx="1.96"/><rect class="cls-7" x="190.27" y="83.92" width="22.54" height="3.92" rx="1.96"/><rect class="cls-7" x="147.91" y="95.97" width="62.56" height="3.92" rx="1.96"/><path class="cls-7" d="M175.09,108H149.87a2,2,0,0,0-2,2h0a2,2,0,0,0,2,2h25.22a2,2,0,0,0,2-2h0A2,2,0,0,0,175.09,108Z"/><rect class="cls-7" x="293.24" y="28.42" width="20.27" height="20.27"/><rect class="cls-7" x="308.3" y="53.59" width="20.27" height="20.27"/><path d="M276.69,111.17l-.42-3.4a8.61,8.61,0,0,1-5.31-.66A9.69,9.69,0,0,0,276.69,111.17Z"/><path class="cls-6" d="M141.07,81.53A8.54,8.54,0,0,0,131.68,76l-11,1.82a8.53,8.53,0,0,0-7,9.79l2.46,15a6,6,0,0,0,6.83,4.89h0a9.71,9.71,0,0,0,7.29-5.58l1.71-3.76a29,29,0,0,0,2.59-12h0A12.66,12.66,0,0,0,141.07,81.53Z"/><path class="cls-5" d="M133.63,99.39h0a3.35,3.35,0,0,1-4.56-1.22l-.51-.89a3.35,3.35,0,0,1,1.22-4.56h0a3.35,3.35,0,0,1,4.56,1.22l.51.89A3.34,3.34,0,0,1,133.63,99.39Z"/><polygon points="100.12 207.88 147.91 204.13 100.12 204.13 100.12 207.88"/><polygon points="178.93 273.95 190.36 273.95 178.93 276.14 178.93 273.95"/><path class="cls-5" d="M383.43,99h0a3.07,3.07,0,0,1-.86-4.25l.52-.78a3.07,3.07,0,0,1,4.25-.86h0a3.07,3.07,0,0,1,.86,4.25l-.52.79A3.07,3.07,0,0,1,383.43,99Z"/><polygon points="359.69 186.32 369.27 151.67 359.69 199.07 359.69 186.32"/><path class="cls-6" d="M434.26,155.43,448.13,281.8h2.09v6.67A10.09,10.09,0,0,1,441,298.53h0a12.41,12.41,0,0,0-8.76,4.6,17.56,17.56,0,0,0-1,1.51h30.31V281.8h5.44l2.72-126.37Z"/><polygon points="426.91 155.43 468.74 161.16 469.65 155.43 426.91 155.43"/><path class="cls-5" d="M450.22,281.82v6.65A10.09,10.09,0,0,1,441,298.53h0a12.41,12.41,0,0,0-8.76,4.6,17.56,17.56,0,0,0-1,1.51h30.31V281.82Z"/><path d="M461.49,297.57l-1.79.34a12.3,12.3,0,0,1-11.28-3.7h0a10.1,10.1,0,0,1-7.39,4.32,12.5,12.5,0,0,0-8.83,4.63,15,15,0,0,0-1,1.48h30.31Z"/><polygon points="448.13 281.8 444.84 281.8 434.26 155.43 448.13 281.8"/><polygon points="438.35 278.1 446.34 270.25 437.01 275.82 438.35 278.1 438.35 278.1"/><polyline class="cls-1" points="469.65 140.66 452.06 161.16 447.5 156.58 472.37 111.17 464.31 85.88"/><polygon points="452.06 161.16 469.65 144.8 469.65 140.66 452.06 161.16"/><path class="cls-5" d="M452.17,51.62h0a3,3,0,0,1-.83-4.13l.51-.77a3,3,0,0,1,4.13-.83h0a3,3,0,0,1,.84,4.13l-.51.77A3,3,0,0,1,452.17,51.62Z"/><polygon points="451.38 58.73 445.39 56.61 445.39 58.73 451.38 58.73"/><rect class="cls-7" x="449.62" y="181.72" width="15.19" height="24.29"/><polygon points="439.73 207.88 434.26 221.61 441.68 234.79 439.73 207.88"/><polygon points="447.5 156.58 453.92 162.87 452.06 164.04 444.78 156.58 447.5 156.58"/><polygon points="427.69 73.69 422.38 93.25 429.24 73.05 427.69 73.69"/><polygon points="234.71 203.42 256.37 199.99 234.17 199.99 234.71 203.42"/><polygon points="259.86 199.99 282.06 199.99 259.86 203.42 259.86 199.99"/><g class="cls-9"><path class="cls-7" d="M484.38,82.77c-3.68,0-5.57-2.08-7.09-3.75s-2.33-2.47-4.21-2.47-2.77.89-4.21,2.47-3.4,3.75-7.08,3.75-5.58-2.08-7.09-3.75-2.34-2.47-4.21-2.47-2.78.89-4.21,2.47-3.4,3.75-7.09,3.75-5.57-2.08-7.09-3.75-2.33-2.47-4.21-2.47-2.77.89-4.21,2.47-3.4,3.75-7.08,3.75S411,80.69,409.51,79s-2.34-2.47-4.21-2.47V72.66c3.68,0,5.57,2.08,7.09,3.75s2.33,2.47,4.21,2.47,2.77-.89,4.21-2.47,3.4-3.75,7.08-3.75,5.57,2.08,7.09,3.75,2.34,2.47,4.21,2.47S442,78,443.4,76.41s3.4-3.75,7.09-3.75,5.57,2.08,7.08,3.75,2.34,2.47,4.22,2.47,2.77-.89,4.21-2.47,3.4-3.75,7.08-3.75,5.57,2.08,7.09,3.75,2.34,2.47,4.21,2.47,2.78-.89,4.22-2.47,3.4-3.75,7.09-3.75v3.89c-1.88,0-2.78.89-4.22,2.47S488.07,82.77,484.38,82.77Z"/><path class="cls-3" d="M484.38,95.75c-3.68,0-5.57-2.08-7.09-3.74s-2.33-2.48-4.21-2.48-2.77.9-4.21,2.48-3.4,3.74-7.08,3.74-5.58-2.08-7.09-3.74-2.34-2.48-4.21-2.48-2.78.9-4.21,2.48-3.4,3.74-7.09,3.74-5.57-2.08-7.09-3.74-2.33-2.48-4.21-2.48-2.77.9-4.21,2.48-3.4,3.74-7.08,3.74S411,93.67,409.51,92s-2.34-2.48-4.21-2.48V85.65c3.68,0,5.57,2.07,7.09,3.74s2.33,2.47,4.21,2.47,2.77-.89,4.21-2.47,3.4-3.74,7.08-3.74,5.57,2.07,7.09,3.74,2.34,2.47,4.21,2.47S442,91,443.4,89.39s3.4-3.74,7.09-3.74,5.57,2.07,7.08,3.74,2.34,2.47,4.22,2.47,2.77-.89,4.21-2.47,3.4-3.74,7.08-3.74,5.57,2.07,7.09,3.74,2.34,2.47,4.21,2.47,2.78-.89,4.22-2.47,3.4-3.74,7.09-3.74v3.88c-1.88,0-2.78.9-4.22,2.48S488.07,95.75,484.38,95.75Z"/><path class="cls-7" d="M484.38,108.73c-3.68,0-5.57-2.07-7.09-3.74s-2.33-2.47-4.21-2.47-2.77.89-4.21,2.47-3.4,3.74-7.08,3.74-5.58-2.07-7.09-3.74-2.34-2.47-4.21-2.47-2.78.89-4.21,2.47-3.4,3.74-7.09,3.74-5.57-2.07-7.09-3.74-2.33-2.47-4.21-2.47-2.77.89-4.21,2.47-3.4,3.74-7.08,3.74-5.57-2.07-7.09-3.74-2.34-2.47-4.21-2.47V98.63c3.68,0,5.57,2.08,7.09,3.75s2.33,2.47,4.21,2.47,2.77-.89,4.21-2.47,3.4-3.75,7.08-3.75,5.57,2.08,7.09,3.75,2.34,2.47,4.21,2.47,2.78-.89,4.21-2.47,3.4-3.75,7.09-3.75,5.57,2.08,7.08,3.75,2.34,2.47,4.22,2.47,2.77-.89,4.21-2.47,3.4-3.75,7.08-3.75,5.57,2.08,7.09,3.75,2.34,2.47,4.21,2.47,2.78-.89,4.22-2.47,3.4-3.75,7.09-3.75v3.89c-1.88,0-2.78.89-4.22,2.47S488.07,108.73,484.38,108.73Z"/></g><polygon class="cls-6" points="447.5 156.58 472.37 111.17 464.31 85.88 469.65 111.77 447.5 156.58"/><polygon points="176.8 230.81 185.14 230.81 176.8 233.36 176.8 230.81"/><path d="M255,48.85a4,4,0,1,1,4-4A4,4,0,0,1,255,48.85Zm0-7.18a3.21,3.21,0,1,0,3.2,3.2A3.21,3.21,0,0,0,255,41.67Z"/><path d="M265.12,48.85a4,4,0,1,1,4-4A4,4,0,0,1,265.12,48.85Zm0-7.18a3.21,3.21,0,1,0,3.21,3.2A3.2,3.2,0,0,0,265.12,41.67Z"/></g></g></svg>