<svg xmlns="http://www.w3.org/2000/svg" viewBox="0 0 804.42 524.91"><defs><style>.cls-1{fill:#49545a;}.cls-2,.cls-9{fill:#58189d;}.cls-3{fill:#26384a;}.cls-4{fill:#f8feff;}.cls-5{fill:#374051;}.cls-6{fill:#3ca8c6;}.cls-7{fill:#62c6eb;}.cls-8{fill:#efb73e;}.cls-9{fill-rule:evenodd;}.cls-10{fill:#d9dbdd;}.cls-11{fill:#fff;}.cls-12{fill:#172149;}.cls-13{fill:#e5e2df;}.cls-14{opacity:0.1;}.cls-15{fill:#f2b530;}.cls-16{fill:#f7bf5c;}.cls-17{fill:#fcc4cc;}.cls-18{fill:#13affb;}.cls-19{fill:#0cafe2;}.cls-20,.cls-26,.cls-33{fill:none;}.cls-20,.cls-26{stroke:#07005f;}.cls-20,.cls-33{stroke-miterlimit:10;}.cls-20{stroke-width:1.03px;}.cls-21{fill:#07005f;}.cls-22{fill:#1bb3ef;}.cls-23{fill:#4f3be8;}.cls-24{fill:#2b23cc;}.cls-25{fill:#fb5773;}.cls-26{stroke-linecap:round;stroke-linejoin:round;stroke-width:0.76px;}.cls-27{fill:#101964;}.cls-28{fill:#e69779;}.cls-29{fill:#cb86d1;}.cls-30{fill:#f19bf6;}.cls-31{fill:#f6ba99;}.cls-32{fill:#f8622d;}.cls-33{stroke:#000;}.cls-34{fill:#b4cce9;}.cls-35{fill:#020101;}.cls-36{fill:#fbfdff;}.cls-37{fill:#111b38;}.cls-38{fill:#d88166;}.cls-39{fill:#00143a;}.cls-40{opacity:0.33;}.cls-41{fill:#f2957e;}.cls-42{fill:#f3f0eb;}.cls-43{fill:#172146;}.cls-44{fill:#070304;}.cls-45{fill:#333b7e;}.cls-46{fill:#101010;}.cls-47{fill:#2a3366;}.cls-48{fill:#ffb56e;}.cls-49{fill:#613fff;}.cls-50{fill:#353e7d;}.cls-51{fill:#231f20;}.cls-52{fill:#4a335d;}.cls-53{fill:#ad9380;}.cls-54{fill:#1f66e8;}</style></defs><g id="Layer_2" data-name="Layer 2"><g id="Layer_1-2" data-name="Layer 1"><path class="cls-1" d="M353.22,61.82h.67v.53h-.67V63.5h-.67V62.35h-2.13V62l2.07-3.41h.73Zm-2.1,0h1.43V59.5h0l-.06.16Zm6.52-.09a2.06,2.06,0,0,1-.42,1.35,1.57,1.57,0,0,1-2.3,0,1.92,1.92,0,0,1-.45-1.35V60.28a1.75,1.75,0,0,1,.45-1.31,1.39,1.39,0,0,1,1.15-.51,1.46,1.46,0,0,1,1.15.51,1.87,1.87,0,0,1,.42,1.31ZM357,60.14a1.45,1.45,0,0,0-.22-.84.87.87,0,0,0-.67-.31.79.79,0,0,0-.67.31,1.26,1.26,0,0,0-.25.84v1.73a1.36,1.36,0,0,0,.25.87.8.8,0,0,0,.67.31.84.84,0,0,0,.67-.31,1.58,1.58,0,0,0,.22-.87Zm-4.83,25.67a.81.81,0,0,0,.64-.22.94.94,0,0,0,.19-.65.91.91,0,0,0-.19-.58.75.75,0,0,0-.62-.25.87.87,0,0,0-.64.25.79.79,0,0,0-.25.58h-.64a1.06,1.06,0,0,1,.42-1,1.5,1.5,0,0,1,1.11-.42,1.6,1.6,0,0,1,1.1.37,1.35,1.35,0,0,1,.39,1,1,1,0,0,1-.2.62,1.16,1.16,0,0,1-.5.45,1.18,1.18,0,0,1,.58.47,1.42,1.42,0,0,1,.2.73,1.38,1.38,0,0,1-.45,1.06,1.6,1.6,0,0,1-1.12.39,1.76,1.76,0,0,1-1.11-.36,1.14,1.14,0,0,1-.45-1h.64a.79.79,0,0,0,.25.59.9.9,0,0,0,.67.25.81.81,0,0,0,.65-.25.94.94,0,0,0,.25-.67,1,1,0,0,0-.23-.7.92.92,0,0,0-.69-.22h-.54v-.51Zm5.51,1.07a1.91,1.91,0,0,1-.42,1.31,1.57,1.57,0,0,1-2.3,0,1.79,1.79,0,0,1-.45-1.31V85.42a1.88,1.88,0,0,1,.45-1.34,1.39,1.39,0,0,1,1.15-.51,1.46,1.46,0,0,1,1.15.51,2,2,0,0,1,.42,1.34Zm-.68-1.6a1.62,1.62,0,0,0-.22-.87.86.86,0,0,0-.67-.3.78.78,0,0,0-.67.3,1.4,1.4,0,0,0-.25.87V87a1.26,1.26,0,0,0,.25.83.8.8,0,0,0,.67.31.84.84,0,0,0,.67-.31A1.39,1.39,0,0,0,357,87Zm-3.21,28.47h-3.08v-.48l1.57-1.84a4.43,4.43,0,0,0,.56-.81,1.16,1.16,0,0,0,.14-.59.77.77,0,0,0-.2-.56.64.64,0,0,0-.56-.22.9.9,0,0,0-.67.25,1.12,1.12,0,0,0-.22.67h-.65a1.28,1.28,0,0,1,.4-1,1.52,1.52,0,0,1,1.14-.42,1.48,1.48,0,0,1,1.07.36,1.27,1.27,0,0,1,.36,1,1.43,1.43,0,0,1-.2.75,7.52,7.52,0,0,1-.67,1l-1.26,1.45,0,0h2.24Zm3.89-1.76a2,2,0,0,1-.42,1.34,1.62,1.62,0,0,1-2.3,0,1.89,1.89,0,0,1-.45-1.34v-1.46a1.77,1.77,0,0,1,.45-1.31,1.39,1.39,0,0,1,1.15-.5,1.45,1.45,0,0,1,1.15.5,1.89,1.89,0,0,1,.42,1.31Zm-.68-1.6a1.45,1.45,0,0,0-.22-.84.78.78,0,0,0-.67-.3.71.71,0,0,0-.67.3,1.26,1.26,0,0,0-.25.84v1.74a1.26,1.26,0,0,0,.25.84.77.77,0,0,0,.67.33.8.8,0,0,0,.67-.33,1.45,1.45,0,0,0,.22-.84Zm-4.39,28.47h-.67v-4.33h-1.06V134l1.73-.19Zm5.07-1.73a1.89,1.89,0,0,1-.42,1.31,1.55,1.55,0,0,1-2.3,0,1.77,1.77,0,0,1-.45-1.31v-1.46a1.89,1.89,0,0,1,.45-1.34,1.41,1.41,0,0,1,1.15-.5,1.48,1.48,0,0,1,1.15.5,2,2,0,0,1,.42,1.34Zm-.68-1.6a1.56,1.56,0,0,0-.22-.86.84.84,0,0,0-.67-.31.76.76,0,0,0-.67.31,1.35,1.35,0,0,0-.25.86v1.74a1.37,1.37,0,0,0,.25.84.82.82,0,0,0,.67.3.86.86,0,0,0,.67-.3,1.52,1.52,0,0,0,.22-.84Zm-3.24,26.71a1.88,1.88,0,0,1-.45,1.34,1.61,1.61,0,0,1-2.29,0,2,2,0,0,1-.42-1.34v-1.45a2.06,2.06,0,0,1,.42-1.35,1.63,1.63,0,0,1,2.29,0,1.92,1.92,0,0,1,.45,1.35Zm-.67-1.59a1.28,1.28,0,0,0-.25-.84.76.76,0,0,0-.67-.31.78.78,0,0,0-.68.31,1.4,1.4,0,0,0-.22.84v1.73a1.45,1.45,0,0,0,.22.84.82.82,0,0,0,.68.33.74.74,0,0,0,.67-.33,1.31,1.31,0,0,0,.25-.84Z"/><rect class="cls-2" x="359.65" y="60.64" width="128.67" height="0.42"/><rect class="cls-2" x="359.65" y="85.93" width="128.67" height="0.45"/><rect class="cls-2" x="359.65" y="111.23" width="128.67" height="0.42"/><rect class="cls-2" x="359.65" y="136.51" width="128.67" height="0.45"/><rect class="cls-3" x="359.65" y="136.96" width="9.7" height="25.08"/><rect class="cls-4" x="370.97" y="99.4" width="9.7" height="62.64"/><rect class="cls-5" x="394.19" y="61.06" width="9.7" height="100.98"/><rect class="cls-6" x="405.51" y="99.4" width="9.7" height="62.64"/><rect class="cls-7" x="429.56" y="85.93" width="9.7" height="76.12"/><rect class="cls-8" x="440.89" y="99.4" width="9.7" height="62.64"/><rect class="cls-7" x="467.09" y="124.04" width="9.7" height="38"/><rect class="cls-5" x="478.42" y="72.5" width="9.7" height="89.54"/><rect class="cls-2" x="359.65" y="161.82" width="147.3" height="0.42"/><polygon class="cls-9" points="506.6 161.26 506.6 162.9 508.58 162 506.6 161.26"/><rect class="cls-2" x="359.24" y="45.99" width="0.42" height="116.25"/><polygon class="cls-9" points="358.69 46.27 360.32 46.27 359.42 43.72 358.69 46.27"/><path class="cls-1" d="M369.16,176.12h-2.78l0-.48,1.49-1.51a1.83,1.83,0,0,0,.77-1.36.75.75,0,0,0-.77-.75,1.13,1.13,0,0,0-.94.55l-.28-.43a1.46,1.46,0,0,1,1.22-.67,1.26,1.26,0,0,1,1.31,1.28c0,.55-.19,1-1.24,2.06l-.66.65a.44.44,0,0,0-.08.09h2Z"/><path class="cls-1" d="M370,174.66V173a1.5,1.5,0,1,1,3,0v1.7a1.5,1.5,0,1,1-3,0Zm.54-1.69v1.68a1,1,0,0,0,1,1,1,1,0,0,0,.94-1V173a1,1,0,0,0-.94-.95A1,1,0,0,0,370.49,173Z"/><path class="cls-1" d="M375.22,176.12v-4.05s0-.08-.07-.08h-.62v-.49h1.25v4.62Z"/><path class="cls-1" d="M380.43,174.59a1.58,1.58,0,1,1-3.16,0,1.65,1.65,0,0,1,.21-.8l1.49-2.34.48.29-.82,1.28h.22A1.54,1.54,0,0,1,380.43,174.59Zm-2.61,0a1,1,0,0,0,2.05,0,1,1,0,0,0-1-1A1,1,0,0,0,377.82,174.59Z"/><path class="cls-1" d="M403.32,176.12h-2.78l0-.48,1.5-1.51a1.85,1.85,0,0,0,.76-1.36A.75.75,0,0,0,402,172a1.12,1.12,0,0,0-.93.55l-.29-.43a1.48,1.48,0,0,1,1.22-.67,1.26,1.26,0,0,1,1.32,1.28c0,.55-.19,1-1.25,2.06l-.66.65s-.08.08-.08.09h2Z"/><path class="cls-1" d="M404.11,174.66V173a1.5,1.5,0,0,1,3,0v1.7a1.5,1.5,0,1,1-3,0Zm.54-1.69v1.68a1,1,0,0,0,1,1,1,1,0,0,0,.94-1V173a1,1,0,0,0-.94-.95A1,1,0,0,0,404.65,173Z"/><path class="cls-1" d="M409.37,176.12v-4.05s0-.08-.07-.08h-.62v-.49h1.25v4.62Z"/><path class="cls-1" d="M412,175.92l1.69-3.84a0,0,0,0,0,0,0s0,0,0,0h-1.91v-.53h2.56l.1.3-1.91,4.34Z"/><path class="cls-1" d="M438.6,176.12h-2.78l0-.48,1.5-1.51a1.85,1.85,0,0,0,.76-1.36.75.75,0,0,0-.77-.75,1.14,1.14,0,0,0-.94.55l-.28-.43a1.48,1.48,0,0,1,1.22-.67,1.26,1.26,0,0,1,1.31,1.28c0,.55-.19,1-1.24,2.06l-.66.65a.44.44,0,0,0-.08.09h2Z"/><path class="cls-1" d="M439.39,174.66V173a1.5,1.5,0,0,1,3,0v1.7a1.5,1.5,0,1,1-3,0Zm.54-1.69v1.68a1,1,0,0,0,1,1,1,1,0,0,0,.94-1V173a1,1,0,0,0-.94-.95A1,1,0,0,0,439.93,173Z"/><path class="cls-1" d="M444.65,176.12v-4.05s0-.08-.07-.08H444v-.49h1.25v4.62Z"/><path class="cls-1" d="M446.84,174.72a1.53,1.53,0,0,1,.71-1.19,1.15,1.15,0,0,1-.47-.88,1.21,1.21,0,0,1,2.41-.08,1.27,1.27,0,0,1-.48,1,1.43,1.43,0,1,1-2.17,1.19Zm.54,0a.9.9,0,0,0,1.8,0,.88.88,0,0,0-.9-.9A.9.9,0,0,0,447.38,174.72Zm.24-2.07a.67.67,0,1,0,1.33,0,.67.67,0,0,0-1.33,0Z"/><path class="cls-1" d="M472.66,176.11h-2.78l0-.47,1.5-1.51a1.88,1.88,0,0,0,.76-1.37.75.75,0,0,0-.77-.75,1.12,1.12,0,0,0-.93.55l-.28-.42a1.45,1.45,0,0,1,1.21-.67,1.25,1.25,0,0,1,1.32,1.27c0,.55-.19,1-1.25,2.06l-.66.66-.08.08s0,0,.12,0h1.88Z"/><path class="cls-1" d="M473.45,174.66V173a1.5,1.5,0,0,1,3,0v1.71a1.5,1.5,0,1,1-3,0ZM474,173v1.68a1,1,0,0,0,1,1,1,1,0,0,0,.94-1V173a1,1,0,0,0-.94-1A1,1,0,0,0,474,173Z"/><path class="cls-1" d="M478.71,176.11v-4.05c0-.05,0-.08-.07-.08H478v-.49h1.25v4.62Z"/><path class="cls-1" d="M480.76,173a1.59,1.59,0,0,1,3.17,0,1.65,1.65,0,0,1-.21.8l-1.48,2.33-.48-.29.8-1.27-.22,0A1.55,1.55,0,0,1,480.76,173Zm2.61,0a1,1,0,0,0-2.05,0,1,1,0,0,0,1,1A1,1,0,0,0,483.37,173Z"/><rect class="cls-10" x="123.13" y="29.41" width="152.46" height="96.97" rx="11.74"/><path class="cls-11" d="M197.54,50.15a2.13,2.13,0,0,1-2.14,2.13H139.6a2.13,2.13,0,0,1-2.14-2.13h0A2.14,2.14,0,0,1,139.6,48h55.8a2.14,2.14,0,0,1,2.14,2.14Z"/><path class="cls-11" d="M265.23,50.15a2.13,2.13,0,0,1-2.13,2.13H220.41a2.13,2.13,0,0,1-2.14-2.13h0A2.14,2.14,0,0,1,220.41,48H263.1a2.14,2.14,0,0,1,2.13,2.14Z"/><path class="cls-11" d="M265.23,70.42a2.28,2.28,0,0,1-2.29,2.29H139.75a2.29,2.29,0,0,1-2.29-2.29h0a2.29,2.29,0,0,1,2.29-2.28H262.94a2.28,2.28,0,0,1,2.29,2.28Z"/><path class="cls-11" d="M184.42,95a2.13,2.13,0,0,1-2.13,2.14H139.6A2.14,2.14,0,0,1,137.46,95h0a2.13,2.13,0,0,1,2.14-2.13h42.69A2.13,2.13,0,0,1,184.42,95Z"/><path class="cls-11" d="M179.85,107.78a3.06,3.06,0,0,1-3,3H140.51a3.06,3.06,0,0,1-3-3h0a3,3,0,0,1,3-3H176.8a3,3,0,0,1,3,3Z"/><polygon class="cls-12" points="226.44 456.33 225.72 456.21 242.38 355.3 243.11 355.42 226.44 456.33"/><polygon class="cls-12" points="313.53 456.33 296.86 355.42 297.59 355.3 314.25 456.21 313.53 456.33"/><path class="cls-13" d="M316.58,355.36c0,6.26-19.81,11.34-44.25,11.34s-44.25-5.08-44.25-11.34S247.89,344,272.33,344,316.58,349.1,316.58,355.36Z"/><rect class="cls-13" x="228.08" y="339.1" width="88.5" height="16.26"/><path class="cls-11" d="M316.58,339.1c0,6.27-19.81,11.34-44.25,11.34s-44.25-5.07-44.25-11.34,19.81-11.33,44.25-11.33S316.58,332.84,316.58,339.1Z"/><rect class="cls-12" x="231.8" y="421.29" width="76.38" height="0.74"/><g class="cls-14"><path class="cls-15" d="M441.58,27.49S278,21.63,244.15,101.61c-22.7,53.65-13,65.49-79.59,86.6-157.19,49.84-190.45,281.14-46,301.07s371.8,19.62,439.31,25.83,171.72,40.28,201.22-70.33c20.89-78.34-21.27-136.26,1.06-188.73C807.27,145.3,661.54,17.8,441.58,27.49Z"/><path class="cls-16" d="M383.73,0s-74.08,3.72-65.47,16.79S447.62,7.52,383.73,0Z"/><path class="cls-16" d="M500.1,18s-1-25.56,21.51-15.31S501.06,43.6,500.1,18Z"/><path class="cls-16" d="M209.8,69.29S99.36,171.69,160,175.88,285.37,17.64,209.8,69.29Z"/><path class="cls-16" d="M787,233.19s-36.23,64.35-16.41,63.95S824.67,180.1,787,233.19Z"/></g><rect class="cls-17" x="354.94" y="417.57" width="24.3" height="32.85" transform="translate(1.87 -1.57) rotate(0.25)"/><rect class="cls-18" x="342.29" y="415.22" width="51.87" height="17.49" transform="translate(736.45 847.93) rotate(180)"/><path class="cls-19" d="M299.71,286.54,298,297a36.76,36.76,0,0,0,36.28,42.68h10.86v92.4l45.1.61,2.51-113.21a32.21,32.21,0,0,0-32.14-32.82Z"/><line class="cls-20" x1="345.13" y1="414.39" x2="390.62" y2="414.39"/><path class="cls-21" d="M379.57,442.46c-6.07,8.81-19.16,4.77-24.88,3.24a2.65,2.65,0,0,0-3.3,2.18l-3.23,16.35,0,6.28,72.45.47.05-6.28Z"/><rect class="cls-17" x="291.31" y="417.57" width="24.3" height="32.85" transform="translate(1.87 -1.3) rotate(0.25)"/><path class="cls-21" d="M316.18,442c-6.08,8.8-19,3.81-24.74,2.28a2.65,2.65,0,0,0-3.3,2.17l-3.38,17.31,0,6.28,72.46.48,0-6.28Z"/><rect class="cls-18" x="278.66" y="415.22" width="51.87" height="17.49" transform="translate(609.19 847.93) rotate(180)"/><path class="cls-22" d="M236.08,286.54,234.37,297a36.76,36.76,0,0,0,36.28,42.68h10.87v92.4l45.09.61,2.51-113.21A32.21,32.21,0,0,0,297,286.68Z"/><line class="cls-20" x1="281.51" y1="414.77" x2="327" y2="414.77"/><path class="cls-20" d="M329.43,341.21l.12-23.38a31.9,31.9,0,0,0-31.73-32l-8,0"/><path class="cls-23" d="M342,173.81s22.4,30.57,38.26,66.74A13.1,13.1,0,0,1,379.18,253h0c-5.52,8.33-19.92,6.41-25.48-1.34,0,0-42.39-58.28-40.59-60.63C313.54,190.47,342,173.81,342,173.81Z"/><path class="cls-23" d="M368.23,230l55.55-22.18,4.81,28.86-55.93,21.11a11.06,11.06,0,0,1-6.33.52,14.35,14.35,0,0,1-11-16.43h0A14.34,14.34,0,0,1,368.23,230Z"/><path class="cls-23" d="M298.67,166.07,337.12,171a7.3,7.3,0,0,1,6.33,8L318.61,286.75l-82.53-.21,11.68-107.21a7.31,7.31,0,0,1,6.45-8.13Z"/><path class="cls-20" d="M332.56,223.78c0-1.28,6.9-27.49,6.9-27.49"/><polygon class="cls-17" points="279.28 168.31 298.1 209.35 313.06 167.92 297.76 165.19 279.28 168.31"/><polygon class="cls-24" points="279.28 168.31 272.6 193.02 279.28 191.18 275.94 199.19 298.1 209.35 279.28 168.31"/><polygon class="cls-24" points="298.1 209.35 313.06 167.92 317.48 191.69 313.06 193.35 313.06 197.69 298.1 209.35"/><path class="cls-24" d="M299.51,215.77a1.75,1.75,0,0,1-1.75,1.75h0a1.75,1.75,0,0,1-1.75-1.75h0a1.75,1.75,0,0,1,1.75-1.75h0a1.75,1.75,0,0,1,1.75,1.75Z"/><path class="cls-24" d="M298.68,229.6a1.83,1.83,0,0,1-1.83,1.84h0A1.84,1.84,0,0,1,295,229.6h0a1.84,1.84,0,0,1,1.84-1.83h0a1.83,1.83,0,0,1,1.83,1.83Z"/><path class="cls-24" d="M298,242.47a1.83,1.83,0,0,1-1.83,1.83h0a1.84,1.84,0,0,1-1.84-1.83h0a1.84,1.84,0,0,1,1.84-1.83h0a1.83,1.83,0,0,1,1.83,1.83Z"/><path class="cls-24" d="M306.86,217.13,329,218.92s-4.38,23.06-15.5,23.16S306.86,217.13,306.86,217.13Z"/><path class="cls-23" d="M280.6,192s-21,41.5-44.62,74.94c-2.65,3.75-8.91,5.61-13.5,5.42h0c-10.35-.45-14.74-11.6-10.83-20.68,0,0,33.15-76.59,37.74-77.85C250.09,173.62,280.6,192,280.6,192Z"/><polygon class="cls-17" points="304.55 257.48 286.53 256.09 287.09 274.12 302.69 274.12 304.55 257.48"/><path class="cls-23" d="M226.94,244.41l64.78,2-1.26,29-67.3-1.42a14.88,14.88,0,0,1-11.87-20.22h0A14.89,14.89,0,0,1,226.94,244.41Z"/><polyline class="cls-20" points="268.11 207.99 250.98 245.14 291.72 246.36 291.75 256.09"/><line class="cls-20" x1="250.98" y1="245.14" x2="241.93" y2="249.57"/><path class="cls-17" d="M303.22,257.48s41.31-15.93,36.72,16.61H300.28Z"/><path class="cls-25" d="M316.35,127.82a8.12,8.12,0,1,0,8.89-7.28A8.13,8.13,0,0,0,316.35,127.82Z"/><path class="cls-17" d="M314.76,140.41,311,169.27c-.73,8.11-6.36,8.17-14.33,7.38h0c-6.81-.68-12.44-3.25-12.62-10.09l2.92-31.3Z"/><polygon class="cls-25" points="311.46 163.82 292.74 145.44 314.2 147.31 311.46 163.82"/><path class="cls-17" d="M300.15,150.58l9.36.93a17,17,0,0,0,18.63-15.79l1.43-21.56a19.82,19.82,0,0,0-17.82-21h0c-10.89-1.08-22.5,6.68-23.58,17.57L287,135.26A14.68,14.68,0,0,0,300.15,150.58Z"/><path class="cls-21" d="M325.52,143.72A19.83,19.83,0,0,0,309.33,132h0a22.83,22.83,0,0,0-21,10.19,14.67,14.67,0,0,0,11.86,8.43l9.36.93A17,17,0,0,0,325.52,143.72Z"/><polygon class="cls-21" points="291.75 126.24 286.86 137.49 287.15 130.56 291.75 126.24"/><path class="cls-17" d="M277.06,123.92a8.12,8.12,0,1,0,8.88-7.28A8.11,8.11,0,0,0,277.06,123.92Z"/><path class="cls-26" d="M287.73,127.41s.58-5.86-5.12-5.5"/><path class="cls-21" d="M318.28,132.79h0l-2.59-.26a.38.38,0,1,1,.08-.76l2.14.21-.36-6a.38.38,0,0,1,.36-.4.37.37,0,0,1,.4.36l.39,6.4a.36.36,0,0,1-.11.3A.4.4,0,0,1,318.28,132.79Z"/><path class="cls-21" d="M308.45,115.46s4.42-.22,4.29,2.12c0,0-.12,1.59-4,1.69s-4.82-.32-5.06-1.83S306.38,115.36,308.45,115.46Z"/><path class="cls-21" d="M325.17,117s-3.59-.69-4.05,1.5c0,0-.29,1.48,2.86,2s4.23,0,4.62-1.14C329,118,326.89,117.13,325.17,117Z"/><path class="cls-11" d="M317.48,135.56l-12.22-1.21s-.46,4.27,6.64,5A4.93,4.93,0,0,0,317.48,135.56Z"/><path class="cls-21" d="M311.18,124.52a1.62,1.62,0,1,1-1.39-1.83A1.61,1.61,0,0,1,311.18,124.52Z"/><path class="cls-21" d="M325.69,125.4a1.62,1.62,0,1,1-1.38-1.83A1.62,1.62,0,0,1,325.69,125.4Z"/><path class="cls-21" d="M291.32,102.39s3.19-16.7,20.82-16.58,44.12,18.38,24.25,20.63S291.32,102.39,291.32,102.39Z"/><path class="cls-27" d="M509.39,111.4c18.17,7,33.57,28.66,45.73,43.85q6.07,7.59,12.88,14.57c28.35,29.08,9.41,78.25-31,81.85a140.1,140.1,0,0,1-36.69-1.53Z"/><path class="cls-28" d="M501.56,210.56a13,13,0,0,0,4,.74,12.86,12.86,0,0,0,13.21-12.5l.9-40.84a12.87,12.87,0,0,0-25.72-.72L493,198.09A12.87,12.87,0,0,0,501.56,210.56Z"/><path class="cls-12" d="M519.9,154.57c.2-7.1-5.65-9.62-12.75-9.82a12.86,12.86,0,0,0-13.22,12.49l-.51,18.2S513.74,172.62,519.9,154.57Z"/><path class="cls-28" d="M521.72,156.44l-6.7-.19.38-13.39,6.69.18a6.7,6.7,0,0,1,6.51,6.89h0A6.69,6.69,0,0,1,521.72,156.44Z"/><path class="cls-28" d="M492.94,170.12a20.83,20.83,0,0,0,27.81-19l.47-16.71a20.8,20.8,0,0,0-41.59-1.16L479.17,150A20.8,20.8,0,0,0,492.94,170.12Z"/><path class="cls-12" d="M524.71,149a1.79,1.79,0,0,0-2.37,1.45c-.18,1.08-1.89,1-1.71-.13a3.56,3.56,0,0,1,4.65-2.94c1.06.31.49,1.93-.57,1.62Z"/><path class="cls-27" d="M521,143s-10.55,1.45-10.43-10.66l12.23.4Z"/><path class="cls-27" d="M499,110c17.28-.64,22.72,10.93,22.36,23.64L492,132.79l-1.19-6.18-1.77,6.1-3-.08-.46-3-1,3-9.23-.26C475.73,119.62,486.32,110.43,499,110Z"/><path class="cls-21" d="M491.23,153.56a.36.36,0,0,1-.26-.11.35.35,0,0,1-.12-.29l.33-5.47a.4.4,0,0,1,.41-.36.37.37,0,0,1,.35.4l-.3,5,1.77-.18a.36.36,0,0,1,.41.34.38.38,0,0,1-.34.42l-2.21.22Z"/><path class="cls-21" d="M499.63,138.71s-3.78-.19-3.67,1.81c0,0,.1,1.36,3.39,1.45s4.12-.28,4.33-1.57S501.39,138.63,499.63,138.71Z"/><path class="cls-21" d="M485.35,140s3.07-.59,3.46,1.27c0,0,.24,1.27-2.45,1.71s-3.6,0-3.94-1S483.88,140.13,485.35,140Z"/><path class="cls-11" d="M491.92,155.87l10.43-1s.39,3.65-5.68,4.26A4.2,4.2,0,0,1,491.92,155.87Z"/><path class="cls-21" d="M497.29,146.45a1.4,1.4,0,0,0,1.56,1.18,1.38,1.38,0,0,0,1.18-1.56,1.37,1.37,0,0,0-1.55-1.18A1.39,1.39,0,0,0,497.29,146.45Z"/><path class="cls-21" d="M484.9,147.2a1.4,1.4,0,0,0,1.56,1.18,1.38,1.38,0,1,0-1.56-1.18Z"/><polygon class="cls-12" points="470.49 447.09 469.76 446.97 486.43 346.06 487.16 346.18 470.49 447.09"/><polygon class="cls-12" points="557.58 447.09 540.91 346.18 541.63 346.06 558.3 446.97 557.58 447.09"/><path class="cls-29" d="M560.63,346.12c0,6.27-19.81,11.34-44.25,11.34s-44.25-5.07-44.25-11.34,19.81-11.33,44.25-11.33S560.63,339.86,560.63,346.12Z"/><rect class="cls-29" x="472.13" y="329.86" width="88.5" height="16.26"/><path class="cls-30" d="M560.63,329.86c0,6.27-19.81,11.34-44.25,11.34s-44.25-5.07-44.25-11.34,19.81-11.33,44.25-11.33S560.63,323.6,560.63,329.86Z"/><rect class="cls-12" x="475.84" y="412.06" width="76.38" height="0.74"/><path class="cls-12" d="M459.36,449.63a42.45,42.45,0,0,1-10.87,16.25l-2.77,2.58h44.21L498.8,459v9.42h7.3l1.13-18.83Z"/><polygon class="cls-31" points="462.95 404.38 459.36 449.63 507.23 449.63 507.17 405.68 462.95 404.38"/><path class="cls-11" d="M468.63,288.43l-45.77,1.05s-15.32,1.06-16,19.7-2.53,96.5-2.53,96.5h46.4l3.62-73,83.74,2.13s14.64,2.22,15.45-11.07,0-34.28,0-34.28Z"/><polygon class="cls-11" points="463.39 327.25 462.89 404.16 507.17 405.68 509.42 324.63 463.39 327.25"/><path class="cls-32" d="M519.33,172.38l17.83.59s9.69-.21,13.61,11.92,8.14,23.75,8.14,23.75L534,215.27l19.55,74.21-84.93-1.05L473,225.14l-29.6-7.93L456.55,186s8.12-16.06,37.71-12.32c0,0-3.46,24.91,6,28.9S518.77,182.86,519.33,172.38Z"/><path class="cls-31" d="M558.91,208.64l15.54,49s9,25.23-15.54,23.67l-69.15,0-1-25.9,55.36-1.15-10.11-39Z"/><path class="cls-31" d="M443.44,217l-15.54,49s-7.4,20.54,15.54,19.3l69.39.05-1.18-15.17-41.85-2.44L473,225.14Z"/><path class="cls-12" d="M400.77,450.92a42.37,42.37,0,0,1-10.87,16.25l-2.78,2.58h44.21l8.87-9.41v9.41h7.3l1.13-18.83Z"/><polygon class="cls-31" points="404.35 405.68 400.77 450.92 448.63 450.92 450.75 405.68 404.35 405.68"/><rect class="cls-11" x="400.77" y="400.11" width="53.53" height="11.22"/><rect class="cls-11" x="458.33" y="400.11" width="53.53" height="11.22"/><line class="cls-33" x1="405.64" y1="400.11" x2="450.75" y2="400.11"/><line class="cls-33" x1="467.78" y1="400.11" x2="503.96" y2="400.11"/><line class="cls-33" x1="488.87" y1="350.32" x2="494.86" y2="392.05"/><line class="cls-33" x1="464.68" y1="411.32" x2="505.96" y2="411.32"/><line class="cls-33" x1="405.64" y1="411.32" x2="448.63" y2="411.32"/><path class="cls-33" d="M463.35,332.93V306.37s-.56-18.22,13.87-17.94l57.48.82"/><polyline class="cls-33" points="507.44 323.69 509.42 334.1 502.11 328.57"/><line class="cls-33" x1="454.37" y1="332.7" x2="445.03" y2="332.23"/><line class="cls-33" x1="452.03" y1="323.69" x2="454.37" y2="331.34"/><polygon class="cls-34" points="442.48 230.95 462.99 289.99 571.98 289.99 571.18 286.37 527.11 285 510.36 230.91 442.48 230.95"/><path class="cls-11" d="M491.56,257.52c.8,4.52-1.68,8.74-5.54,9.43s-7.63-2.42-8.44-6.95,1.67-8.74,5.53-9.43S490.75,253,491.56,257.52Z"/><line class="cls-33" x1="472.95" y1="225.14" x2="473.56" y2="203.5"/><line class="cls-33" x1="534.01" y1="215.27" x2="544.12" y2="254.29"/><path class="cls-35" d="M748.26,150.52q3.22,21.91,6.44,43.82a39.9,39.9,0,0,1,.58,6.12c-.06,6.17-2.94,11-5.93,12.17s-6-.52-9-2.16c-.79,6.29-4.42,8.94-7.57,10.14-14,5.34-28.73,1.61-41.63-10.51A357.58,357.58,0,0,0,704.6,158L737.44,161c1.93.18,3.93.33,5.75-1s3.46-4.51,3.59-8.43"/><path class="cls-28" d="M647.05,430.85l2.39,4.25c2,3.62,4.41,7.14,5.71,11.12,1.17,3.56,1.42,7.33,1.84,11,.59,5.14,1.22,10.28,1.8,15.41l32.38-43.11-5.46-4.84a24.54,24.54,0,0,1-5.2-6.49l-10.15-18.4Z"/><path class="cls-36" d="M657.32,460.05l21.94-29.22h0a8.48,8.48,0,0,1,0-10.23l1.51-2a24.24,24.24,0,0,0,5,6.12l5.46,4.84-32.38,43.11C658.31,468.46,657.81,464.25,657.32,460.05Z"/><polygon class="cls-37" points="632.25 315.43 679.08 411.45 646.4 431.4 609.54 368.18 632.25 315.43"/><rect class="cls-12" x="612.75" y="415.91" width="122.85" height="0.88" transform="translate(153.04 1013.25) rotate(-80.58)"/><rect class="cls-12" x="759.19" y="354.93" width="0.88" height="122.85" transform="translate(-57.7 129.36) rotate(-9.38)"/><path class="cls-29" d="M772.87,355.75c0,7.53-23.79,13.62-53.15,13.62s-53.15-6.09-53.15-13.62,23.8-13.62,53.15-13.62S772.87,348.23,772.87,355.75Z"/><rect class="cls-29" x="666.57" y="336.22" width="106.31" height="19.53"/><path class="cls-30" d="M772.87,336.22c0,7.52-23.79,13.62-53.15,13.62s-53.15-6.1-53.15-13.62,23.8-13.62,53.15-13.62S772.87,328.7,772.87,336.22Z"/><rect class="cls-12" x="671.03" y="434.95" width="91.74" height="0.88"/><path class="cls-38" d="M603.78,301.79a14.11,14.11,0,0,0,3.46-.31l78.69-16.87a14.21,14.21,0,0,0,10.69-10l17.27-61a14.2,14.2,0,1,0-27.32-7.74l-15,52.74-70.33,15.08a14.2,14.2,0,0,0,2.49,28.08Z"/><path class="cls-11" d="M669.28,286.64l65.87,7,12.7-86.15a18.37,18.37,0,0,0-13.05-20.31h0a45,45,0,0,0-56.13,32.14l-9.39,67.28"/><rect x="644.69" y="415.02" width="33.22" height="1" transform="matrix(0.86, -0.51, 0.51, 0.86, -119.53, 398.95)"/><path class="cls-31" d="M710.29,192.68c.42-2.41-.56-12.55-.56-12.55s-9.26-1-9.82-10.15,0-30.34,0-30.34l16.86-8.24,18.54,14-2.81,45.88Z"/><path class="cls-35" d="M734,152.52s-15.14-1.42-17.81-15.16L699.8,152.52s-5-10.17,4.12-19.62,15.34-7.49,18.9-7.49c3.33,0,20.15,3.57,25.16,22.7.36,1.39.66,4.82.89,6.38Z"/><path class="cls-39" d="M701.89,155.07a1.18,1.18,0,0,0,2.35,0,1.18,1.18,0,1,0-2.35,0Z"/><path class="cls-39" d="M700.76,153.78c.15.16,1-.58,2.28-.65s2.21.54,2.35.37-.1-.35-.51-.64a3.11,3.11,0,0,0-1.89-.49,3,3,0,0,0-1.81.72C700.81,153.42,700.68,153.72,700.76,153.78Z"/><path class="cls-39" d="M715.5,155.07a1.18,1.18,0,1,0,1.18-1.18A1.18,1.18,0,0,0,715.5,155.07Z"/><path class="cls-39" d="M714.77,153.78c.16.16,1-.58,2.29-.65s2.21.54,2.34.37-.09-.35-.5-.64a3.11,3.11,0,0,0-1.89-.49,3,3,0,0,0-1.81.72C714.82,153.42,714.7,153.72,714.77,153.78Z"/><path class="cls-39" d="M710.21,164.46a8.75,8.75,0,0,0-2.07-.26c-.32,0-.64-.06-.7-.3a1.72,1.72,0,0,1,.18-1l.86-2.62c.6-1.86,1.12-3.56,1.47-4.79a9.21,9.21,0,0,0,.47-2,8.1,8.1,0,0,0-.81,1.92c-.44,1.2-1,2.88-1.61,4.75-.29.92-.57,1.79-.83,2.63a2,2,0,0,0-.13,1.32.8.8,0,0,0,.54.45,2.3,2.3,0,0,0,.55.06A8.34,8.34,0,0,0,710.21,164.46Z"/><g class="cls-40"><path class="cls-41" d="M716.28,165.09c0,1,1.65,1.79,3.6,1.84s3.57-.64,3.63-1.68-1.55-2.06-3.59-2.1S716.25,164.05,716.28,165.09Z"/></g><path class="cls-42" d="M714.39,165.66c1.28-.85-3.54,2.1-6.12,2.1a3.51,3.51,0,0,0,4.2,1.19C715.17,167.82,714.39,165.66,714.39,165.66Z"/><path class="cls-41" d="M709.87,180.13A22.89,22.89,0,0,0,722,176s-2.75,6.73-11.95,6.35Z"/><path class="cls-35" d="M716.68,136.26s-3.36,6.5-1.93,11.39L700,151.45S696.69,132.8,716.68,136.26Z"/><path class="cls-35" d="M748.87,153.08s2.27,21.78-15.6,25.6l.77-26.16Z"/><path class="cls-35" d="M715.37,130.26c0-.11-1.78-.21-4.52.54a20.31,20.31,0,0,0-14.44,15.51c-.56,2.79-.32,4.56-.21,4.55s.2-1.73.91-4.39a21.49,21.49,0,0,1,13.95-15C713.66,130.58,715.39,130.43,715.37,130.26Z"/><path class="cls-31" d="M732.09,162.83a11.33,11.33,0,0,1,.5-4.53,4.27,4.27,0,0,1,3.3-2.85,3.61,3.61,0,0,1,3.72,3,4.46,4.46,0,0,1-2.27,4.42,5.86,5.86,0,0,1-5.09.14"/><path class="cls-39" d="M711,154.49c.06,0,0-.64.32-1.73a7.17,7.17,0,0,1,2.63-3.84,6.94,6.94,0,0,1,6.61-1,6.85,6.85,0,0,1,3.22,2.43,6.9,6.9,0,0,1,0,8.2,6.91,6.91,0,0,1-3.22,2.43,7.15,7.15,0,0,1-3.66.33,7,7,0,0,1-2.95-1.29,7.12,7.12,0,0,1-2.63-3.84c-.29-1.09-.26-1.73-.32-1.73a1.38,1.38,0,0,0,0,.46,5.41,5.41,0,0,0,.16,1.32,7.11,7.11,0,0,0,2.6,4.08,7.22,7.22,0,0,0,3.09,1.41,7.41,7.41,0,0,0,3.9-.3,7.29,7.29,0,0,0,3.46-2.57,7.4,7.4,0,0,0,0-8.8,7.41,7.41,0,0,0-7.36-2.87,7.22,7.22,0,0,0-3.09,1.41,7.11,7.11,0,0,0-2.6,4.08A5.36,5.36,0,0,0,711,154,1.38,1.38,0,0,0,711,154.49Z"/><path class="cls-39" d="M694.42,154.49c.06,0,0-.64.32-1.73a7.17,7.17,0,0,1,2.63-3.84,6.94,6.94,0,0,1,6.61-1,6.85,6.85,0,0,1,3.22,2.43,6.9,6.9,0,0,1,0,8.2A6.91,6.91,0,0,1,704,161a7.14,7.14,0,0,1-3.66.33,7,7,0,0,1-3-1.29,7.17,7.17,0,0,1-2.63-3.84c-.29-1.09-.26-1.73-.32-1.73a1.84,1.84,0,0,0,0,.46,6,6,0,0,0,.16,1.32,7.22,7.22,0,0,0,2.6,4.08,7.4,7.4,0,0,0,10.46-1.46,7.4,7.4,0,0,0,0-8.8,7.36,7.36,0,0,0-3.47-2.57,7.28,7.28,0,0,0-9.59,5.19,5.9,5.9,0,0,0-.16,1.32A1.84,1.84,0,0,0,694.42,154.49Z"/><path class="cls-39" d="M708.8,154.71c0,.15.59.26,1.32.26s1.32-.11,1.32-.26-.59-.25-1.32-.25S708.8,154.57,708.8,154.71Z"/><path class="cls-39" d="M725.13,156a40.32,40.32,0,0,0,6.32,1.51,43.72,43.72,0,0,0,6.42,1,40.32,40.32,0,0,0-6.32-1.51A42.16,42.16,0,0,0,725.13,156Z"/><path class="cls-28" d="M590.61,443.56c-.23,1.61-.46,3.22-.68,4.82-.59,4.11-.84,8.36-2.23,12.31-1.24,3.54-3.33,6.68-5.25,9.88-2.65,4.43-5.28,8.9-7.93,13.33l51.92-14.55-1.4-7.16a24.22,24.22,0,0,1-.18-8.32L628,433.09Z"/><path class="cls-36" d="M581,473l35.19-9.86h0a8.49,8.49,0,0,1,6.19-8.15l2.42-.68a24.3,24.3,0,0,0,.23,7.89l1.4,7.16L574.52,483.9C576.69,480.27,578.85,476.62,581,473Z"/><path class="cls-43" d="M734.64,291.93,675.94,287l-77-4.32c-3.07.16-11.85-1.68-15.19.57-3,2-4.37,6.72-3.74,10.22l9.61,150.89h40.63l-2.12-120.1s76.52,17.37,91.24,15.88,18.12-5.94,18.68-19.78S734.64,291.93,734.64,291.93Z"/><rect x="621.13" y="316.03" width="1" height="13.39" transform="translate(162.98 852.07) rotate(-76.53)"/><rect x="626" y="311.76" width="1" height="11.59" transform="translate(-75.88 316.77) rotate(-26.82)"/><polygon points="600.75 431.41 597.34 301.63 597.91 301.69 728.58 316.49 728.47 317.49 598.37 302.75 601.75 431.39 600.75 431.41"/><rect x="648.08" y="345.24" width="1" height="65.19" transform="translate(-100.55 330.69) rotate(-26.62)"/><rect x="590.72" y="437.53" width="37.27" height="1" transform="translate(-4.22 5.93) rotate(-0.56)"/><polygon class="cls-44" points="643.21 337.9 633.98 333.89 633.98 409.32 629.52 402.45 628.32 324.57 637.72 326.64 643.21 337.9"/><path class="cls-28" d="M665.86,261.56a13,13,0,0,0,6.59-1.81l54.26-32.28a12.88,12.88,0,0,0-13.17-22.13L665.39,234,604.91,203A12.87,12.87,0,0,0,593.18,226L660,260.14A12.76,12.76,0,0,0,665.86,261.56Z"/><path class="cls-43" d="M606.93,178.25l-48.54,43.53a2,2,0,0,0,2.71,3l0,0,47.63-44.51a1.36,1.36,0,0,0-1.83-2Z"/><path class="cls-28" d="M598.55,228.31A3.38,3.38,0,0,0,600.3,222c-1.16-.7-11.6-6.71-18.88-1.27a3.38,3.38,0,0,0,4.05,5.42c3.11-2.33,9.39.48,11.35,1.65A3.3,3.3,0,0,0,598.55,228.31Z"/><path class="cls-28" d="M578.61,223.83a3.35,3.35,0,0,0,2.51-1.12c7-7.7,18-1.43,18.5-1.15a3.38,3.38,0,0,0,3.41-5.84c-5.58-3.28-18.39-7-26.93,2.46a3.39,3.39,0,0,0,2.51,5.65Z"/><path class="cls-28" d="M576.44,218.9a3.4,3.4,0,0,0,2.72-1.36c5.68-7.64,16.08-3.35,16.52-3.16a3.38,3.38,0,0,0,2.67-6.22c-5.41-2.33-17.5-4.22-24.62,5.34a3.37,3.37,0,0,0,2.71,5.4Z"/><path class="cls-28" d="M613.77,207.57a90.06,90.06,0,0,0-10.11-5.07,70.54,70.54,0,0,0-10.75-3.69A34.54,34.54,0,0,0,581,197.76a18.39,18.39,0,0,0-6.36,1.88,15.18,15.18,0,0,0-5.23,4.48,3.38,3.38,0,0,0,5.33,4.16l.06-.08a9.19,9.19,0,0,1,6.88-3.13,27.08,27.08,0,0,1,9.2,1.38,61.69,61.69,0,0,1,9.29,3.76,82.68,82.68,0,0,1,8.76,5l.09.06a4.54,4.54,0,0,0,5-7.57Z"/><path class="cls-28" d="M585,205.19s.77,1.13-1.18,1.62,4.17,3.45,4.17,3.45l4.66-4.67-3.3-2.62S582.71,203.56,585,205.19Z"/><path class="cls-12" d="M575.44,218.39a22.26,22.26,0,0,1,10.49-6.24.32.32,0,0,1,.17.62,21.56,21.56,0,0,0-10.21,6.07c-.29.3-.74-.16-.45-.45Z"/><path class="cls-12" d="M579.79,223.36A16.38,16.38,0,0,1,590,217.77c.4-.05.58.56.17.62a15.87,15.87,0,0,0-9.91,5.42c-.27.31-.72-.14-.45-.45Z"/><path class="cls-12" d="M575.2,212.2a6.36,6.36,0,0,1,1.71,1.76,1.31,1.31,0,0,1-.59,1.49,2.21,2.21,0,0,1-3.25-.66c-.22-.34.33-.66.55-.32.47.76,2,1.26,2.52.26.43-.75-.86-1.63-1.39-2.07-.31-.27.14-.72.45-.46Z"/><path class="cls-12" d="M577.42,217.58l1.5,2.06a.31.31,0,0,1,0,.32,2.33,2.33,0,0,1-3.68.3c-.28-.3.17-.75.45-.45a1.69,1.69,0,0,0,2.68-.17V220l-1.5-2.06c-.24-.33.32-.65.55-.32Z"/><path class="cls-12" d="M582.15,222.1a6.92,6.92,0,0,0,1.43,1.43.33.33,0,0,1,.12.44,2.88,2.88,0,0,1-3.33,1.06c-.39-.13-.23-.74.17-.61a2.26,2.26,0,0,0,2.61-.77c0,.14.07.29.11.43a8.16,8.16,0,0,1-1.66-1.66c-.25-.33.3-.64.55-.32Z"/><path class="cls-12" d="M571,202.53a25.17,25.17,0,0,1,2,2.37c.35.53,0,1-.47,1.29a2.89,2.89,0,0,1-3.86-.44c-.27-.3.18-.75.46-.45.67.73,2.19,1.27,3,.38.48-.52-.15-1-.51-1.43L570.51,203c-.26-.31.19-.76.45-.45Z"/><polygon class="cls-34" points="392.81 232.06 372.3 291.1 263.3 291.1 264.11 287.47 308.18 286.11 324.93 232.02 392.81 232.06"/><path class="cls-11" d="M343.73,258.63c-.81,4.52,1.67,8.74,5.53,9.43s7.64-2.43,8.45-6.95-1.68-8.74-5.54-9.43S344.53,254.11,343.73,258.63Z"/><path class="cls-45" d="M134.71,357.77l-36.93,24,14.83,51.48,67.65-53.9-4.32-29.65s-21-1.62-23.44-1.62S134.71,357.77,134.71,357.77Z"/><polygon class="cls-46" points="90.51 468.82 112.61 433.24 97.78 381.76 87.27 387.96 90.51 468.82"/><polygon class="cls-12" points="50.53 477.55 49.76 477.42 67.38 370.77 68.15 370.89 50.53 477.55"/><polygon class="cls-12" points="142.58 477.55 124.96 370.89 125.73 370.77 143.34 477.42 142.58 477.55"/><path class="cls-13" d="M145.8,370.83c0,6.62-20.94,12-46.77,12s-46.77-5.36-46.77-12,20.94-12,46.77-12S145.8,364.21,145.8,370.83Z"/><rect class="cls-13" x="52.26" y="353.64" width="93.54" height="17.19"/><path class="cls-11" d="M145.8,353.64c0,6.62-20.94,12-46.77,12s-46.77-5.37-46.77-12,20.94-12,46.77-12S145.8,347,145.8,353.64Z"/><rect class="cls-12" x="56.19" y="440.52" width="80.73" height="0.78"/><path class="cls-17" d="M192.73,169.74l-10.81,32.07c-2.68,9.08-9.1,7.88-18,5.17h0c-7.62-2.3-21.25-13.12-19.9-21l19.22-31.61Z"/><polygon class="cls-21" points="183.69 195.69 166.48 170.51 190.53 177.48 183.69 195.69"/><path class="cls-17" d="M173.78,178l10.46,3.17a19.75,19.75,0,0,0,24.81-13.8l6.5-24.28a23.06,23.06,0,0,0-15.58-28h0c-12.17-3.69-27.18,2.55-30.87,14.73l-6.91,27.74A17.05,17.05,0,0,0,173.78,178Z"/><polygon class="cls-21" points="168.78 152.21 159.46 160.59 163.46 152.27 168.78 152.21"/><path class="cls-17" d="M153.45,142.42a9.45,9.45,0,1,0,11.78-6.3A9.45,9.45,0,0,0,153.45,142.42Z"/><path class="cls-21" d="M164.84,149.19l-.11,0a.38.38,0,0,1-.26-.47s.83-2.84-.48-4.87a5.05,5.05,0,0,0-3.8-2.07.37.37,0,0,1-.33-.42.38.38,0,0,1,.43-.33,5.76,5.76,0,0,1,4.34,2.41c1.5,2.33.61,5.37.57,5.5A.38.38,0,0,1,164.84,149.19Z"/><polygon class="cls-47" points="177.56 210.08 200.2 269.91 172.93 305.34 148.86 262.43 177.56 210.08"/><path class="cls-48" d="M233.35,241s11.12-11.11,13.24-11-1.92,9.7-1.92,9.7,11.83-11.32,16.78-11.62,5.25,14.25-2.43,21.83a49.32,49.32,0,0,1-17.48,10.71l-40,56a23.16,23.16,0,0,1-21.27-.84c-11.39-6.27-8.33-21.9-.88-26.55S233.35,241,233.35,241Z"/><path class="cls-49" d="M139.56,184.2S116.65,175,104,198.49,58.16,316.54,58.16,316.54H166.78l14.55-113.2S158.7,173,149,169.78,132.28,178,139.56,184.2Z"/><path class="cls-50" d="M60.32,316.54s-.81,45.14,29.51,46.35,80.05,0,80.05,0l14.55,91.78,48.92-2.43L215.16,331s.54-12.81-14.42-14.42Z"/><polygon class="cls-46" points="184.43 454.67 186.99 466.93 256.8 469.89 233.35 452.24 184.43 454.67"/><rect class="cls-51" x="111.1" y="234.84" width="52.48" height="1" transform="translate(-126.31 304.17) rotate(-74.36)"/><polygon class="cls-51" points="172.87 384.91 169.45 363.4 126.9 363.93 126.88 362.93 170.31 362.39 173.85 384.75 172.87 384.91"/><rect class="cls-51" x="160.95" y="351.38" width="22.52" height="1" transform="translate(-207.69 447.53) rotate(-78.06)"/><rect class="cls-51" x="172.59" y="361.08" width="11.99" height="1" transform="translate(-74.71 47.77) rotate(-12.62)"/><path class="cls-48" d="M108.3,264.39s-23.86-.41-21.7,19.8,17,19,31.26,17.25,80.19-13.88,80.19-13.88S209,297.91,219.3,297s14-4.75,14-4.75l-25.57-26.08Z"/><rect class="cls-51" x="212.03" y="281.51" width="1" height="15.48" transform="translate(-145.32 261.35) rotate(-49.23)"/><rect class="cls-51" x="220.12" y="280.19" width="1" height="16.03" transform="translate(-141.21 259.72) rotate(-48.07)"/><rect class="cls-51" x="246.57" y="236.16" width="16.21" height="1" transform="translate(-90.36 194.05) rotate(-35.86)"/><rect class="cls-51" x="250.49" y="244.04" width="13.23" height="1" transform="translate(-96.51 215.18) rotate(-38.82)"/><polygon class="cls-17" points="212.76 140.97 216.29 163.65 202.72 164.13 212.76 140.97"/><path class="cls-52" d="M204.7,146.8c.5.12.69,1.24.44,2.48s-.87,2.17-1.37,2.05-.7-1.23-.44-2.49S204.2,146.68,204.7,146.8Z"/><path class="cls-52" d="M209.45,147c.2.15-6.63-4-7.54-2.42S208,146,209.45,147Z"/><path class="cls-51" d="M179.54,205.59C151.33,203,140.86,188,140.76,187.85l.83-.56c.1.15,10.33,14.79,38,17.3Z"/><path class="cls-51" d="M92.08,298.32c-9.18-6.08-5.46-24.22-5.3-25l1,.2c0,.18-3.74,18.24,4.87,23.95Z"/><path class="cls-47" d="M230.13,125.41c-5-14.49-39.62-20.07-53.48-11.64S167.3,137,167.3,137l1.63,18.37q1.38-3,2.86-6.06a21.9,21.9,0,0,1,6.37-7.83l.19-4.29c.35-8,5.71-10.27,5.71-10.27,7,4.16,16,1.88,16,1.88C205.88,136.55,235.17,139.9,230.13,125.41Z"/><path class="cls-11" d="M204.94,169.07s-1.55.94-4.73-3C200.21,166.07,199.52,172.11,204.94,169.07Z"/><rect class="cls-53" x="165.13" y="287.76" width="595.51" height="11.04"/><path class="cls-12" d="M726.41,485H693.64a29.36,29.36,0,0,1-28-38.12L711.9,298.76l.74.24L666.35,447.12a28.59,28.59,0,0,0,27.29,37.11h32.77Z"/><path class="cls-12" d="M199.37,485h32.77a29.36,29.36,0,0,0,28-38.12L213.88,298.76l-.74.24,46.28,148.12a28.58,28.58,0,0,1-27.28,37.11H199.37Z"/><path class="cls-27" d="M581.62,125.84A31.89,31.89,0,1,1,613.51,94,31.93,31.93,0,0,1,581.62,125.84Zm0-62.68A30.79,30.79,0,1,0,612.41,94,30.82,30.82,0,0,0,581.62,63.16Z"/><path class="cls-27" d="M581.26,95.2V72.81a.51.51,0,0,1,.5-.54.5.5,0,0,1,.5.54V92.7l10.06-9.45a.47.47,0,0,1,.7,0c.21.22.35.57.13.77Z"/><rect class="cls-54" x="644.64" y="79.35" width="143.21" height="31.02" rx="6"/><path class="cls-11" d="M655.52,91.32H773.19a1.25,1.25,0,0,0,0-2.5H655.52a1.25,1.25,0,0,0,0,2.5Z"/><path class="cls-11" d="M655.52,100H773.19a1.25,1.25,0,0,0,0-2.5H655.52a1.25,1.25,0,0,0,0,2.5Z"/><polygon class="cls-54" points="653.18 104.23 641.01 119.45 663.51 105.57 653.18 104.23"/><path class="cls-12" d="M1.21,486.26h802a1.25,1.25,0,0,0,0-2.5H1.21a1.25,1.25,0,0,0,0,2.5Z"/></g></g></svg>