<svg xmlns="http://www.w3.org/2000/svg" xmlns:xlink="http://www.w3.org/1999/xlink" viewBox="0 0 595.12 412.98"><defs><style>.cls-1{fill:none;}.cls-2{fill:#172149;}.cls-3{fill:#cb86d1;}.cls-4{fill:#f19bf6;}.cls-5{opacity:0.5;}.cls-6{fill:#27aae1;}.cls-7{opacity:0.4;}.cls-8{fill:#49545a;}.cls-16,.cls-9{fill:#58189d;}.cls-10{fill:#26384a;}.cls-11{fill:#f8feff;}.cls-12{fill:#374051;}.cls-13{fill:#3ca8c6;}.cls-14{fill:#62c6eb;}.cls-15{fill:#efb73e;}.cls-16{fill-rule:evenodd;}.cls-17{fill:#581550;}.cls-18{fill:#fc4f5a;}.cls-19{fill:#5bb6ce;}.cls-20{fill:#101010;}.cls-21{fill:#e5e2df;}.cls-22{fill:#fff;}.cls-23{fill:#6bc0dd;}.cls-24{fill:#8ed4f4;}.cls-25{fill:#231f20;}.cls-26{fill:#160539;}.cls-27{fill:#c92736;}.cls-28{fill:#4bdae6;}.cls-29{clip-path:url(#clip-path);}.cls-30{clip-path:url(#clip-path-2);}.cls-31{clip-path:url(#clip-path-3);}.cls-32{fill:#f4d06f;}.cls-33{clip-path:url(#clip-path-4);}.cls-34{fill:#36cbce;}.cls-35{fill:#5cb7a8;}.cls-36{clip-path:url(#clip-path-5);}.cls-37{fill:gray;}.cls-38{fill:#1f66e8;}.cls-39{fill:#d6f1ff;}.cls-40{fill:#4ddce8;}.cls-41{fill:#bee7ff;}.cls-42{opacity:0.12;}.cls-43{fill:#544231;}.cls-44{fill:#d7b69f;}.cls-45{fill:#b07dd7;}.cls-46{fill:#458290;}</style><clipPath id="clip-path"><path class="cls-1" d="M237.09,30.15c-1.23-1.86-13.75-10.82-19-11.28s-19.94.61-20.68.61c-.53,0-4.24-1.59-6.42,3.65-1.3-4.2-2.2,3.62-2.2,3.62S180,72.66,181.3,78.68s9.12,15.54,23.5,8.82c8.21-3.84,12.1-9,12-12.94,3.35-5.59,9.38-15.43,10.75-16,1.92-.81,12-7.69,14.31-9.75S238.33,32,237.09,30.15Z"/></clipPath><clipPath id="clip-path-2"><path class="cls-1" d="M189.58,362.8l1.92,18.72H151a7.16,7.16,0,0,1,3.8-6.16,24,24,0,0,1,7.26-2.3,17.17,17.17,0,0,0,7.07-2.78,9.39,9.39,0,0,0,3.55-7.2"/></clipPath><clipPath id="clip-path-3"><path class="cls-1" d="M202,341.38l-11.19,12.14,29.43,27.85a7.14,7.14,0,0,0,1.47-7.09,24.06,24.06,0,0,0-3.69-6.66,17.14,17.14,0,0,1-3.22-6.87,9.34,9.34,0,0,1,2.37-7.67"/></clipPath><clipPath id="clip-path-4"><path class="cls-1" d="M300.24,349.33l-3.92,24.4H247.25c-.13-3.33,2-6.35,4.81-8s6-2.3,9.2-3,6.41-1.57,9-3.61a12.39,12.39,0,0,0,4.5-9.38"/></clipPath><clipPath id="clip-path-5"><path class="cls-1" d="M363.67,349.33l2.51,24.4H313.41c-.13-3.33,2.08-6.35,4.95-8s6.21-2.3,9.45-3,6.58-1.57,9.21-3.61a12.28,12.28,0,0,0,4.62-9.38"/></clipPath></defs><g id="Layer_2" data-name="Layer 2"><g id="Layer_1-2" data-name="Layer 1"><rect class="cls-2" x="324.16" y="319.77" width="80.2" height="0.58" transform="translate(-10.79 627.41) rotate(-80.64)"/><rect class="cls-2" x="419.76" y="279.96" width="0.58" height="80.2" transform="translate(-46.54 72.72) rotate(-9.38)"/><path class="cls-3" d="M428.69,280.5c0,4.91-15.54,8.89-34.7,8.89s-34.7-4-34.7-8.89,15.54-8.9,34.7-8.9S428.69,275.59,428.69,280.5Z"/><rect class="cls-3" x="359.29" y="267.75" width="69.4" height="12.75"/><path class="cls-4" d="M428.69,267.75c0,4.91-15.54,8.89-34.7,8.89s-34.7-4-34.7-8.89,15.54-8.89,34.7-8.89S428.69,262.84,428.69,267.75Z"/><rect class="cls-2" x="362.21" y="332.2" width="59.89" height="0.58"/><g class="cls-5"><path class="cls-6" d="M595.12,196.82H419.42V55.46h175.7Zm-175.1-.6H594.51V56.07H420Z"/><rect class="cls-6" x="434.16" y="69.74" width="45.96" height="0.6"/><rect class="cls-6" x="434.16" y="78.93" width="39.58" height="0.6"/><rect class="cls-6" x="432.43" y="89.7" width="68.19" height="0.6"/><path class="cls-6" d="M541.94,90.67a14.52,14.52,0,0,1-2.73-.25c-4.65-.88-8-4.06-9.29-8.94-1-3.68-2.91-6.3-5.65-7.78-4.81-2.61-10.65-.79-10.7-.77l-.19-.57c.25-.08,6.14-1.92,11.18.8,2.88,1.56,4.88,4.31,5.94,8.16,1.27,4.65,4.41,7.67,8.83,8.51,6.44,1.22,14.25-2.32,19-8.61,4.61-6.14,11.69-9.5,18-8.55a12.24,12.24,0,0,1,10,8.4l-.57.21a11.66,11.66,0,0,0-9.49-8c-6.13-.91-13,2.35-17.46,8.31C554.57,87.19,548,90.67,541.94,90.67Z"/><path class="cls-6" d="M563,127.2h-16l.42-.49c.08-.1,7.8-9.3,8.39-18.75l0-.28h16.09v.3c0,.14-.3,13.91-8.8,19.18Zm-14.76-.6h14.59c7.45-4.69,8.33-16.28,8.43-18.32H556.3C555.66,116.56,549.79,124.56,548.19,126.6Z"/><path class="cls-6" d="M464.92,117.74H447V104.05h17.92Zm-17.31-.6h16.71V104.66H447.61Z"/><path class="cls-6" d="M472.73,123.18H457.27V111.93h15.46Zm-14.86-.61h14.26v-10H457.87Z"/><rect class="cls-6" x="523.95" y="155.4" width="56.33" height="0.6"/><rect class="cls-6" x="520.27" y="162.71" width="58.8" height="0.6"/><rect class="cls-6" x="522.33" y="175.34" width="56.75" height="0.6"/><rect class="cls-6" x="425.52" y="164.15" width="35.37" height="0.6"/><rect class="cls-6" x="425.52" y="173.65" width="41.35" height="0.6"/><rect class="cls-6" x="425.52" y="185.46" width="58.21" height="0.6"/></g><g class="cls-5"><path class="cls-6" d="M190.28,196.82H14.59V55.46H190.28Zm-175.09-.6H189.68V56.07H15.19Z"/><rect class="cls-6" x="29.33" y="69.74" width="45.96" height="0.6"/><rect class="cls-6" x="29.33" y="78.93" width="39.58" height="0.6"/><rect class="cls-6" x="27.6" y="89.7" width="68.19" height="0.6"/><path class="cls-6" d="M137.1,90.67a14.49,14.49,0,0,1-2.72-.25c-4.65-.88-8-4.06-9.3-8.94-1-3.68-2.91-6.3-5.64-7.78-4.81-2.61-10.65-.79-10.71-.77l-.18-.57c.25-.08,6.14-1.92,11.18.8,2.88,1.56,4.88,4.31,5.94,8.16,1.27,4.65,4.41,7.67,8.83,8.51,6.44,1.22,14.24-2.32,19-8.61,4.61-6.14,11.69-9.5,18-8.55a12.24,12.24,0,0,1,10,8.4l-.57.21a11.66,11.66,0,0,0-9.49-8c-6.13-.91-13,2.35-17.46,8.31C149.74,87.19,143.13,90.67,137.1,90.67Z"/><path class="cls-6" d="M158.12,127.2h-16l.42-.49c.08-.1,7.8-9.3,8.39-18.75v-.28H167v.3c0,.14-.3,13.91-8.8,19.18Zm-14.76-.6H158c7.45-4.69,8.33-16.28,8.43-18.32H151.47C150.83,116.56,145,124.56,143.36,126.6Z"/><path class="cls-6" d="M60.09,117.74H42.17V104.05H60.09Zm-17.32-.6H59.48V104.66H42.77Z"/><path class="cls-6" d="M67.9,123.18H52.44V111.93H67.9ZM53,122.57H67.3v-10H53Z"/><rect class="cls-6" x="119.12" y="155.4" width="56.33" height="0.6"/><rect class="cls-6" x="115.44" y="162.71" width="58.8" height="0.6"/><rect class="cls-6" x="117.49" y="175.34" width="56.75" height="0.6"/><rect class="cls-6" x="20.69" y="164.15" width="35.37" height="0.6"/><rect class="cls-6" x="20.69" y="173.65" width="41.35" height="0.6"/><rect class="cls-6" x="20.69" y="185.46" width="58.21" height="0.6"/></g><g class="cls-7"><path class="cls-8" d="M225,60.08h.82v.65H225v1.41h-.82V60.73h-2.61v-.48l2.54-4.18H225Zm-2.57,0h1.75V57.24h0l-.06.2Zm8-.1a2.41,2.41,0,0,1-.52,1.64,1.71,1.71,0,0,1-1.4.62,1.73,1.73,0,0,1-1.41-.62,2.28,2.28,0,0,1-.55-1.64V58.2a2.16,2.16,0,0,1,.55-1.61,1.69,1.69,0,0,1,1.41-.62,1.77,1.77,0,0,1,1.4.62,2.28,2.28,0,0,1,.52,1.61Zm-.83-2a1.74,1.74,0,0,0-.27-1,1.05,1.05,0,0,0-.82-.38,1,1,0,0,0-.83.38,1.55,1.55,0,0,0-.3,1v2.13a1.78,1.78,0,0,0,.3,1.07,1,1,0,0,0,.83.37,1.07,1.07,0,0,0,.82-.37,2,2,0,0,0,.27-1.07ZM223.63,89.5a1,1,0,0,0,.79-.28,1.13,1.13,0,0,0,.24-.79,1.1,1.1,0,0,0-.24-.71.89.89,0,0,0-.75-.31,1.08,1.08,0,0,0-.79.31,1,1,0,0,0-.31.71h-.79a1.29,1.29,0,0,1,.51-1.16,1.92,1.92,0,0,1,1.38-.52,2,2,0,0,1,1.34.45,1.69,1.69,0,0,1,.48,1.27,1.17,1.17,0,0,1-.25.75,1.31,1.31,0,0,1-.61.55,1.48,1.48,0,0,1,.71.59,1.8,1.8,0,0,1-.31,2.19,1.91,1.91,0,0,1-1.36.48,2.22,2.22,0,0,1-1.38-.45,1.44,1.44,0,0,1-.55-1.23h.79a1,1,0,0,0,.31.72,1.15,1.15,0,0,0,.83.31,1,1,0,0,0,.78-.31,1.11,1.11,0,0,0,.32-.82,1.3,1.3,0,0,0-.28-.86,1.16,1.16,0,0,0-.86-.27H223V89.5Zm6.76,1.3a2.29,2.29,0,0,1-.52,1.61,1.74,1.74,0,0,1-1.4.62,1.76,1.76,0,0,1-1.41-.62,2.17,2.17,0,0,1-.55-1.61V89a2.34,2.34,0,0,1,.55-1.65,1.72,1.72,0,0,1,1.41-.62,1.8,1.8,0,0,1,1.4.62,2.47,2.47,0,0,1,.52,1.65Zm-.83-2a2,2,0,0,0-.27-1.07,1,1,0,0,0-.82-.37,1,1,0,0,0-.83.37,1.76,1.76,0,0,0-.3,1.07V91a1.64,1.64,0,0,0,.3,1,1,1,0,0,0,.83.38,1.05,1.05,0,0,0,.82-.38,1.76,1.76,0,0,0,.27-1Zm-3.94,34.9h-3.77v-.58l1.92-2.27a4.61,4.61,0,0,0,.68-1,1.38,1.38,0,0,0,.18-.72.92.92,0,0,0-.24-.68.79.79,0,0,0-.69-.28,1.1,1.1,0,0,0-.82.31,1.4,1.4,0,0,0-.28.82h-.78a1.55,1.55,0,0,1,.47-1.27,1.94,1.94,0,0,1,1.41-.51A1.78,1.78,0,0,1,225,118a1.59,1.59,0,0,1,.44,1.17,1.76,1.76,0,0,1-.24.92,9.25,9.25,0,0,1-.82,1.17l-1.55,1.78,0,0h2.74Zm4.77-2.16a2.44,2.44,0,0,1-.52,1.64,1.69,1.69,0,0,1-1.4.59,1.71,1.71,0,0,1-1.41-.59,2.31,2.31,0,0,1-.55-1.64v-1.78a2.2,2.2,0,0,1,.55-1.62,1.74,1.74,0,0,1,1.41-.61,1.82,1.82,0,0,1,1.4.61,2.32,2.32,0,0,1,.52,1.62Zm-.83-2a1.74,1.74,0,0,0-.27-1,.94.94,0,0,0-.82-.38.87.87,0,0,0-.83.38,1.55,1.55,0,0,0-.3,1v2.13a1.56,1.56,0,0,0,.3,1,1,1,0,0,0,.83.41,1,1,0,0,0,.82-.41,1.76,1.76,0,0,0,.27-1Zm-5.38,34.9h-.82v-5.31h-1.31v-.61l2.13-.25Zm6.21-2.12a2.29,2.29,0,0,1-.52,1.61,1.74,1.74,0,0,1-1.4.62,1.76,1.76,0,0,1-1.41-.62,2.17,2.17,0,0,1-.55-1.61v-1.78a2.34,2.34,0,0,1,.55-1.65,1.72,1.72,0,0,1,1.41-.62,1.8,1.8,0,0,1,1.4.62,2.47,2.47,0,0,1,.52,1.65Zm-.83-1.95a1.93,1.93,0,0,0-.27-1.06,1,1,0,0,0-.82-.38.94.94,0,0,0-.83.38,1.71,1.71,0,0,0-.3,1.06v2.12a1.7,1.7,0,0,0,.3,1,1,1,0,0,0,.83.38,1.05,1.05,0,0,0,.82-.38,1.85,1.85,0,0,0,.27-1Zm-4,32.74a2.31,2.31,0,0,1-.55,1.64,1.79,1.79,0,0,1-1.4.59,1.82,1.82,0,0,1-1.4-.59,2.44,2.44,0,0,1-.52-1.64v-1.78a2.45,2.45,0,0,1,.52-1.65,1.81,1.81,0,0,1,1.4-.58,1.78,1.78,0,0,1,1.4.58,2.32,2.32,0,0,1,.55,1.65Zm-.81-2a1.5,1.5,0,0,0-.32-1,1.07,1.07,0,0,0-1.64,0,1.74,1.74,0,0,0-.28,1v2.13a1.78,1.78,0,0,0,.28,1,1,1,0,0,0,.82.41.9.9,0,0,0,.82-.41,1.53,1.53,0,0,0,.32-1Z"/><rect class="cls-9" x="232.85" y="58.64" width="157.74" height="0.51"/><rect class="cls-9" x="232.85" y="89.64" width="157.74" height="0.55"/><rect class="cls-9" x="232.85" y="120.66" width="157.74" height="0.52"/><rect class="cls-9" x="232.85" y="151.65" width="157.74" height="0.55"/><rect class="cls-10" x="232.85" y="152.21" width="11.9" height="30.75"/><rect class="cls-11" x="246.74" y="106.16" width="11.89" height="76.8"/><rect class="cls-12" x="275.2" y="59.16" width="11.9" height="123.8"/><rect class="cls-13" x="289.08" y="106.16" width="11.89" height="76.8"/><rect class="cls-14" x="318.57" y="89.64" width="11.9" height="93.32"/><rect class="cls-15" x="332.45" y="106.16" width="11.89" height="76.8"/><rect class="cls-14" x="364.57" y="136.36" width="11.9" height="46.59"/><rect class="cls-12" x="378.46" y="73.18" width="11.9" height="109.78"/><rect class="cls-9" x="232.85" y="182.69" width="180.59" height="0.51"/><polygon class="cls-16" points="413.01 182 413.01 184.01 415.44 182.91 413.01 182"/><rect class="cls-9" x="232.36" y="40.68" width="0.52" height="142.52"/><polygon class="cls-16" points="231.67 41.02 233.68 41.02 232.58 37.89 231.67 41.02"/><path class="cls-8" d="M244.52,200.21h-3.41l0-.58,1.83-1.85a2.29,2.29,0,0,0,.94-1.68.91.91,0,0,0-.94-.91,1.38,1.38,0,0,0-1.15.67l-.35-.52a1.78,1.78,0,0,1,1.5-.83,1.54,1.54,0,0,1,1.6,1.57c0,.68-.23,1.27-1.52,2.53l-.81.8c0,.05-.1.09-.1.11h2.45Z"/><path class="cls-8" d="M245.49,198.43v-2.1a1.84,1.84,0,0,1,3.67,0v2.1a1.84,1.84,0,1,1-3.67,0Zm.66-2.08v2.06a1.21,1.21,0,0,0,1.18,1.17,1.18,1.18,0,0,0,1.16-1.17v-2.06a1.17,1.17,0,0,0-2.34,0Z"/><path class="cls-8" d="M251.94,200.21v-5c0-.06,0-.1-.08-.1h-.77v-.6h1.53v5.66Z"/><path class="cls-8" d="M258.33,198.34a1.94,1.94,0,0,1-3.87,0,2,2,0,0,1,.25-1l1.83-2.87.59.36-1,1.57a1.27,1.27,0,0,1,.28,0A1.89,1.89,0,0,1,258.33,198.34Zm-3.19,0a1.26,1.26,0,0,0,2.51,0,1.25,1.25,0,0,0-1.25-1.26A1.22,1.22,0,0,0,255.14,198.34Z"/><path class="cls-8" d="M286.39,200.21H283l0-.58,1.84-1.85a2.3,2.3,0,0,0,.93-1.68.91.91,0,0,0-.94-.91,1.4,1.4,0,0,0-1.15.67l-.35-.52a1.8,1.8,0,0,1,1.5-.83,1.55,1.55,0,0,1,1.61,1.57c0,.68-.24,1.27-1.53,2.53l-.81.8c0,.05-.1.09-.1.11h2.45Z"/><path class="cls-8" d="M287.36,198.43v-2.1a1.84,1.84,0,0,1,3.68,0v2.1a1.84,1.84,0,1,1-3.68,0Zm.67-2.08v2.06a1.2,1.2,0,0,0,1.18,1.17,1.17,1.17,0,0,0,1.15-1.17v-2.06a1.17,1.17,0,0,0-1.15-1.16A1.19,1.19,0,0,0,288,196.35Z"/><path class="cls-8" d="M293.81,200.21v-5c0-.06,0-.1-.08-.1H293v-.6h1.53v5.66Z"/><path class="cls-8" d="M297,200l2.07-4.71a0,0,0,0,0,0,0s0,0,0,0H296.7v-.65h3.14l.13.37-2.35,5.32Z"/><path class="cls-8" d="M329.64,200.21h-3.4l-.05-.58,1.84-1.85a2.3,2.3,0,0,0,.93-1.68.91.91,0,0,0-.94-.91,1.4,1.4,0,0,0-1.15.67l-.35-.52a1.8,1.8,0,0,1,1.5-.83,1.55,1.55,0,0,1,1.61,1.57c0,.68-.24,1.27-1.53,2.53l-.81.8c-.05.05-.09.09-.09.11h2.44Z"/><path class="cls-8" d="M330.61,198.43v-2.1a1.84,1.84,0,0,1,3.68,0v2.1a1.84,1.84,0,0,1-3.68,0Zm.67-2.08v2.06a1.2,1.2,0,0,0,1.17,1.17,1.17,1.17,0,0,0,1.16-1.17v-2.06a1.17,1.17,0,0,0-1.16-1.16A1.19,1.19,0,0,0,331.28,196.35Z"/><path class="cls-8" d="M337.06,200.21v-5c0-.06,0-.1-.08-.1h-.77v-.6h1.54v5.66Z"/><path class="cls-8" d="M339.75,198.5a1.86,1.86,0,0,1,.87-1.46A1.42,1.42,0,0,1,340,196a1.48,1.48,0,0,1,3-.1,1.56,1.56,0,0,1-.59,1.18,1.74,1.74,0,1,1-2.66,1.46Zm.66,0a1.11,1.11,0,1,0,2.21,0,1.09,1.09,0,0,0-1.1-1.11A1.11,1.11,0,0,0,340.41,198.5Zm.29-2.54a.82.82,0,1,0,1.64,0,.82.82,0,0,0-1.64,0Z"/><path class="cls-8" d="M371.4,200.2H368l0-.58,1.84-1.85a2.29,2.29,0,0,0,.93-1.67.92.92,0,0,0-.94-.92,1.41,1.41,0,0,0-1.15.67l-.35-.52a1.82,1.82,0,0,1,1.5-.82,1.54,1.54,0,0,1,1.61,1.56c0,.68-.24,1.27-1.53,2.53l-.81.8s-.1.09-.1.11.06,0,.15,0h2.3Z"/><path class="cls-8" d="M372.37,198.42v-2.09a1.84,1.84,0,0,1,3.68,0v2.09a1.84,1.84,0,0,1-3.68,0Zm.67-2.08v2.07a1.21,1.21,0,0,0,1.17,1.17,1.18,1.18,0,0,0,1.16-1.17v-2.07a1.17,1.17,0,0,0-1.16-1.16A1.19,1.19,0,0,0,373,196.34Z"/><path class="cls-8" d="M378.82,200.2v-5c0-.06,0-.1-.08-.1H378v-.6h1.53v5.66Z"/><path class="cls-8" d="M381.34,196.44a1.94,1.94,0,0,1,3.88,0,2,2,0,0,1-.26,1l-1.82,2.85-.58-.35,1-1.56a1.27,1.27,0,0,1-.28,0A1.88,1.88,0,0,1,381.34,196.44Zm3.2,0a1.26,1.26,0,0,0-2.52,0,1.25,1.25,0,0,0,1.25,1.26A1.23,1.23,0,0,0,384.54,196.44Z"/></g><path class="cls-17" d="M117.05,158.62l-10-8.18-.39.47,10,8.23Z"/><path class="cls-18" d="M112.76,147.94s-.63,26.87-15.08,27.4L92.39,199.2l-22.08-6.33,8.34-38.78s-7.3-3.46-5.37-11.21c1.61-6.51,7.49-4.23,7,2.22l11.15-11.81s3.55-4.38,4.87-4,7.76,5.42,7.93,5.58,8.16,6.29,8.16,6.29Z"/><path class="cls-17" d="M105.18,139.32s1.37,11.24,11.26,13.25,13.07-7.72,6.83-12.63c0,0,7.64-7.15,1.91-12.89a9.6,9.6,0,0,0-12-1.63s-1.8-12.75-10.38-12.16S93,122.05,93,122.05s-8.61-6.67-12.63-1.84-1.12,9.22-1.12,9.22l-4.78,10.78s4-5,5.88,4.89c0,0,11.26,2.48,12.45-6.72C92.77,138.38,100.78,145.9,105.18,139.32Z"/><path class="cls-19" d="M61.39,299.92,34.73,317.24l10.7,37.16,48.84-38.92-3.11-21.4S76,292.91,74.23,292.91,61.39,299.92,61.39,299.92Z"/><polygon class="cls-20" points="29.48 380.08 45.43 354.4 34.73 317.24 27.14 321.71 29.48 380.08"/><rect class="cls-2" x="-32.32" y="347.56" width="78.04" height="0.56" transform="translate(-337.64 298.1) rotate(-80.68)"/><rect class="cls-2" x="60.71" y="308.82" width="0.56" height="78.04" transform="translate(-55.87 14.59) rotate(-9.38)"/><path class="cls-21" d="M69.4,309.34c0,4.78-15.12,8.66-33.77,8.66s-33.77-3.88-33.77-8.66,15.12-8.65,33.77-8.65S69.4,304.57,69.4,309.34Z"/><rect class="cls-21" x="1.86" y="296.94" width="67.53" height="12.41"/><path class="cls-22" d="M69.4,296.94c0,4.78-15.12,8.65-33.77,8.65s-33.77-3.87-33.77-8.65,15.12-8.66,33.77-8.66S69.4,292.16,69.4,296.94Z"/><rect class="cls-2" x="4.7" y="359.65" width="58.28" height="0.56"/><polygon class="cls-23" points="92.33 193.29 108.67 236.49 88.98 262.06 71.6 231.09 92.33 193.29"/><path class="cls-18" d="M132.6,215.62s8-8,9.56-8-1.39,7-1.39,7,8.54-8.17,12.12-8.39,3.79,10.29-1.75,15.76a35.67,35.67,0,0,1-12.63,7.73l-28.88,40.45a16.7,16.7,0,0,1-15.36-.61c-8.22-4.52-6-15.81-.63-19.16S132.6,215.62,132.6,215.62Z"/><path class="cls-24" d="M64.89,174.61S48.35,168,39.21,184.92,6.13,270.15,6.13,270.15H84.54l10.51-81.73S78.71,166.54,71.7,164.2,59.64,170.14,64.89,174.61Z"/><path class="cls-23" d="M7.68,270.15S7.1,302.74,29,303.61s57.79,0,57.79,0l10.51,66.26,35.31-1.75-13.13-87.56s.39-9.25-10.41-10.41Z"/><polygon class="cls-20" points="97.29 369.87 99.14 378.72 149.53 380.86 132.6 368.12 97.29 369.87"/><rect class="cls-25" x="44.34" y="211.17" width="37.89" height="0.72" transform="matrix(0.27, -0.96, 0.96, 0.27, -157.47, 215.88)"/><rect class="cls-25" x="13.42" y="269.79" width="37.89" height="0.72"/><polygon class="cls-25" points="88.94 319.51 86.47 303.98 55.75 304.36 55.74 303.64 87.09 303.25 89.65 319.39 88.94 319.51"/><polygon class="cls-25" points="87.13 303.69 86.43 303.54 89.78 287.63 90.49 287.78 87.13 303.69"/><rect class="cls-25" x="88.73" y="302.3" width="8.66" height="0.72" transform="translate(-64.01 27.72) rotate(-12.65)"/><path class="cls-18" d="M42.32,232.5s-17.22-.29-15.67,14.3,12.26,13.72,22.58,12.45,57.88-10,57.88-10S115,256.7,122.46,256s10.14-3.43,10.14-3.43l-18.46-18.82Z"/><rect class="cls-25" x="117.21" y="244.86" width="0.72" height="11.18" transform="translate(-148.88 175.96) rotate(-49.23)"/><rect class="cls-25" x="123.05" y="243.9" width="0.72" height="11.57" transform="translate(-144.81 174.62) rotate(-48.06)"/><polygon class="cls-25" points="143.47 216.2 143.04 215.62 152.53 208.76 152.95 209.34 143.47 216.2"/><rect class="cls-25" x="144.97" y="217.81" width="9.55" height="0.72" transform="translate(-103.61 141.79) rotate(-38.76)"/><path class="cls-25" d="M93.75,190.05c-20.36-1.84-27.92-12.69-28-12.81l.6-.4c.07.11,7.46,10.68,27.46,12.49Z"/><path class="cls-25" d="M30.61,257c-6.62-4.4-3.94-17.49-3.82-18l.7.15c0,.13-2.7,13.16,3.52,17.28Z"/><path class="cls-17" d="M79.22,129.43s-11.65,7.38-4.78,10.78l3.48-5.39,2.87-.67V131Z"/><path class="cls-17" d="M79.86,147.43s-.36-2.78-1.81-3.53a2.21,2.21,0,0,0-2.59.69l-.13-.1s1.25-1.54,2.79-.74S80,147.3,80,147.41Z"/><path class="cls-17" d="M76.45,147.46a2.14,2.14,0,0,1,.55-1.62,3.39,3.39,0,0,1,2.18-.92v.16a3.34,3.34,0,0,0-2.07.87,2.06,2.06,0,0,0-.5,1.5Z"/><polygon class="cls-26" points="103.48 162.12 103.04 155.43 103.55 155.4 103.99 162.09 103.48 162.12"/><rect class="cls-26" x="94.72" y="152.06" width="5.03" height="1.53" transform="translate(-33.14 27.08) rotate(-13.57)"/><rect class="cls-26" x="109.58" y="150.73" width="1.53" height="4.47" transform="translate(-73.01 197.19) rotate(-67.75)"/><path class="cls-26" d="M98.7,155.9a.84.84,0,1,1-1.65.09.84.84,0,1,1,1.65-.09Z"/><path class="cls-26" d="M110.11,155.27a.84.84,0,1,1-1.65.09.9.9,0,0,1,.77-1A.91.91,0,0,1,110.11,155.27Z"/><path class="cls-26" d="M105.3,165.56c0,.83-.4,1.53-1,1.56s-1.12-.61-1.17-1.44.41-1.53,1-1.56S105.25,164.73,105.3,165.56Z"/><g class="cls-7"><path class="cls-27" d="M101.16,161.16c.07,1.17-1.39,2.21-3.26,2.31s-3.44-.77-3.5-1.94,1.4-2.21,3.26-2.32S101.1,160,101.16,161.16Z"/></g><path class="cls-27" d="M109.3,158.57c-1.87.11-3.33,1.14-3.27,2.32s1.64,2,3.51,1.94a4.06,4.06,0,0,0,.7-.09c.42-1.29.77-2.6,1.07-3.87A5,5,0,0,0,109.3,158.57Z"/><path class="cls-17" d="M96.12,161.68a6.66,6.66,0,0,1-5-11.1,6.57,6.57,0,0,1,4.59-2.2,6.65,6.65,0,0,1,7,6.28,6.67,6.67,0,0,1-6.28,7Zm0-12.8h-.34a6.13,6.13,0,1,0,.34,0Z"/><path class="cls-17" d="M111.27,162.72a6.66,6.66,0,0,1-6.64-6.3,6.67,6.67,0,0,1,6.28-7,6.66,6.66,0,0,1,.73,13.3Zm0-12.81h-.34a6.13,6.13,0,1,0,.34,0Z"/><rect class="cls-17" x="102.48" y="155.14" width="2.34" height="0.51" transform="translate(-8.45 5.98) rotate(-3.17)"/><path class="cls-17" d="M90.37,152.43l-10-8.18-.38.47,10,8.23C90.15,152.77,90.26,152.6,90.37,152.43Z"/><path class="cls-17" d="M97.68,175.34s-5.19-.21-7.57-3.53c0,0,.19,8.25,5.33,13.66Z"/><path class="cls-26" d="M508.05,134a18.86,18.86,0,0,1,7.46-3.81c5.1-1.51,8.47-5.26,5.7-10.87s-11.08-6.93-15.22,1.58-5.37,11.32-5.37,11.32Z"/><path class="cls-22" d="M503.09,126.9a16.93,16.93,0,0,1,7.31,5.41,12.9,12.9,0,0,0-2.35,1.66l-7.43-1.78S501.25,130.77,503.09,126.9Z"/><path class="cls-26" d="M469,150.42c3.69-1.95,2.17-5.49,4.46-11.87,0,0,4.5-13.06,17.27-12.48,11.27.52,18.32,5.12,23.82,16.4s12.08,12.73,22.72,18.71c8.11,4.55,8.72,7.48,10.39,14.24,0,0,7.28,5.83,7.32,14.54.1,21.88-30.63,41.65-54,26.78s-22.3-16.88-29.08-11.13-24.21-10.35-17.56-34.29A37.57,37.57,0,0,1,469,150.42Z"/><path class="cls-18" d="M492.65,197.37c6.94,0,13.47-3.42,14.61-17.18-6.54-2.78-4.32-17.82-4.32-17.82a11.86,11.86,0,0,0,7-5.06c2.49-4.09-.18-7.79-3.83-7.78s-5.08,4.19-5.08,4.19a9.57,9.57,0,0,1-5.9-6c-1.6-4.75-2.26-9.6-5.6-11.43S484.3,138,484.3,138s-1.73-1.78-3.72-1.39-2.15,3.79-2.15,3.79-1.31,17,0,22.8,8.63,7.3,8.63,7.3,1.44,5.86-3.34,13.32,3.62,13.54,3.62,13.54Z"/><path class="cls-26" d="M524.72,127.41c-5,5.38-13.52,6.59-20.54,6.25a.27.27,0,0,1,0-.54c6.88.34,15.22-.81,20.16-6.09.24-.25.62.13.38.38Z"/><path class="cls-22" d="M505.18,133.71c3.84,2.67,5.16,6.94,6.34,11.25a30.69,30.69,0,0,0,2.66,7.2c1.43,2.51,3.88,4.07,6.33,5.45,4.59,2.57,9.63,4.25,13.73,7.65,4.65,3.86,5.86,9.58,5.59,15.37a.27.27,0,0,1-.54,0,21.45,21.45,0,0,0-1.79-10.58,16.46,16.46,0,0,0-5.88-6.07c-4.19-2.82-9.08-4.38-13.35-7.08-3.7-2.34-5.47-5.66-6.7-9.76-1.42-4.76-2.31-9.93-6.66-13-.29-.2,0-.67.27-.47Z"/><rect class="cls-26" x="483.04" y="155.49" width="5.63" height="0.43" transform="translate(297.71 629.94) rotate(-86.13)"/><rect class="cls-26" x="490.48" y="148.62" width="1.29" height="4.23" transform="translate(229.25 592.71) rotate(-76.41)"/><rect class="cls-26" x="478.24" y="150.19" width="3.75" height="1.29" transform="translate(-21.42 192.3) rotate(-22.17)"/><path class="cls-26" d="M489.9,153.31a.7.7,0,1,0,1.38.08.77.77,0,0,0-.64-.87A.78.78,0,0,0,489.9,153.31Z"/><path class="cls-26" d="M480.32,152.77a.7.7,0,1,0,.74-.78A.76.76,0,0,0,480.32,152.77Z"/><path class="cls-26" d="M486.78,162.75a5,5,0,0,0,1.84-.93l-.26-.34a4,4,0,0,1-5.36-.12l-.3.3A4.64,4.64,0,0,0,486.78,162.75Z"/><path class="cls-27" d="M493.76,147.45c-1.22-4.95-4-14.7-9.45-9.46,0,0,1.84-3.55,5.18-1.71s4,6.68,5.6,11.43a9.57,9.57,0,0,0,5.9,6l-.12,0C500,153.47,494.89,152,493.76,147.45Z"/><path class="cls-27" d="M478.58,142.56a47,47,0,0,1-.57,5.13c.18-4.1.42-7.3.42-7.3s.16-3.4,2.15-3.79,3.73,1.39,3.73,1.39S479.12,134.34,478.58,142.56Z"/><g class="cls-7"><path class="cls-27" d="M488.45,158.67c-.06,1,1.17,1.86,2.74,2s2.89-.64,2.94-1.63-1.17-1.86-2.74-2S488.51,157.68,488.45,158.67Z"/></g><g class="cls-7"><path class="cls-27" d="M478.68,158.12c-.06,1,1.17,1.86,2.74,1.95s2.88-.64,2.94-1.63-1.17-1.86-2.74-1.95S478.73,157.13,478.68,158.12Z"/></g><path class="cls-22" d="M491.75,158.16a5.59,5.59,0,1,1,4.48-9.31,5.5,5.5,0,0,1,1.41,4,5.58,5.58,0,0,1-5.57,5.28Zm-4.84-5.88a5.16,5.16,0,1,0,5.44-4.86h-.29A5.16,5.16,0,0,0,486.91,152.28Z"/><path class="cls-22" d="M479,159a5.61,5.61,0,0,1-5.27-5.9,5.59,5.59,0,1,1,5.59,5.91Zm-4.84-5.87a5.16,5.16,0,1,0,5.45-4.87h-.3A5.17,5.17,0,0,0,474.18,153.14Z"/><polygon class="cls-22" points="486.71 153.15 486.73 152.72 484.77 152.61 484.74 153.04 486.71 153.15"/><rect class="cls-22" x="497.11" y="150.22" width="10.15" height="0.43" transform="translate(-8 29.89) rotate(-3.38)"/><path class="cls-18" d="M502.94,162.37l0,.09-.59-.26a22.1,22.1,0,0,0-1.37-8.48h0s1.42-4.18,5.08-4.19,6.32,3.69,3.83,7.78A11.86,11.86,0,0,1,502.94,162.37Z"/><path class="cls-22" d="M502.67,156.41s.47-3.7,2.4-4.69,3.41.9,3.43.92l.17-.13s-1.65-2-3.7-1-2.5,4.71-2.52,4.86Z"/><path class="cls-22" d="M507.18,156.44a2.84,2.84,0,0,0-.72-2.15,4.64,4.64,0,0,0-2.89-1.22v.22a4.45,4.45,0,0,1,2.75,1.15,2.64,2.64,0,0,1,.66,2Z"/><polygon class="cls-2" points="470.78 360.28 470.29 360.2 481.49 292.38 481.98 292.46 470.78 360.28"/><polygon class="cls-2" points="529.31 360.28 518.11 292.46 518.6 292.38 529.8 360.2 529.31 360.28"/><path class="cls-3" d="M531.36,292.42c0,4.21-13.31,7.62-29.74,7.62s-29.74-3.41-29.74-7.62,13.31-7.62,29.74-7.62S531.36,288.21,531.36,292.42Z"/><rect class="cls-3" x="471.88" y="281.49" width="59.48" height="10.93"/><path class="cls-4" d="M531.36,281.49c0,4.21-13.31,7.62-29.74,7.62s-29.74-3.41-29.74-7.62,13.31-7.62,29.74-7.62S531.36,277.28,531.36,281.49Z"/><rect class="cls-2" x="474.38" y="336.73" width="51.33" height="0.49"/><path class="cls-2" d="M463.3,362A28.51,28.51,0,0,1,456,372.91l-1.86,1.73h29.71l6-6.33v6.33h4.91l.76-12.65Z"/><polygon class="cls-18" points="465.71 331.58 463.3 361.99 495.47 361.99 495.43 332.45 465.71 331.58"/><path class="cls-24" d="M469.53,253.65l-30.77.7s-10.29.71-10.74,13.24-1.69,64.86-1.69,64.86h31.18l2.43-49.05,56.29,1.43s9.84,1.49,10.38-7.44,0-23,0-23Z"/><polygon class="cls-24" points="466 279.74 465.67 331.43 495.43 332.45 496.94 277.97 466 279.74"/><path class="cls-28" d="M503.61,175.65l12,.39s6.51-.14,9.15,8,5.47,16,5.47,16l-16.74,4.45,13.14,49.88-57.08-.7,2.9-42.54-19.89-5.34,8.87-21s5.45-10.79,25.34-8.28c0,0-2.32,16.74,4.06,19.42S503.23,182.69,503.61,175.65Z"/><path class="cls-18" d="M530.21,200l10.44,32.91s6,17-10.44,15.92l-46.48,0-.67-17.41,37.21-.77-6.8-26.23Z"/><path class="cls-18" d="M452.6,205.61l-10.45,32.92s-5,13.8,10.45,13l46.64,0-.8-10.19-28.13-1.64,2.12-28.59Z"/><path class="cls-2" d="M423.92,362.86a28.62,28.62,0,0,1-7.31,10.92l-1.86,1.73h29.71l6-6.32v6.32h4.91l.76-12.65Z"/><polygon class="cls-18" points="426.33 332.45 423.92 362.86 456.09 362.86 457.51 332.45 426.33 332.45"/><rect class="cls-24" x="423.92" y="328.7" width="35.98" height="7.54"/><rect class="cls-24" x="462.6" y="328.7" width="35.98" height="7.54"/><rect x="427.19" y="328.4" width="30.32" height="0.6"/><rect x="468.96" y="328.4" width="24.32" height="0.6"/><rect x="484.84" y="295.1" width="0.6" height="28.33" transform="translate(-39.04 72.11) rotate(-8.17)"/><rect x="466.87" y="335.94" width="27.75" height="0.6"/><rect x="427.19" y="335.94" width="28.9" height="0.6"/><path d="M466.28,283.55h-.6V265.7c0-.25-.16-6.45,3.35-10a8.23,8.23,0,0,1,6.28-2.36l38.63.54v.61L475.29,254a7.7,7.7,0,0,0-5.83,2.18c-3.33,3.37-3.18,9.5-3.18,9.57Z"/><polygon points="497.38 285.06 491.85 280.86 492.21 280.38 496.5 283.63 495.32 277.4 495.91 277.28 497.38 285.06"/><rect x="456.51" y="280.1" width="0.6" height="6.28" transform="translate(150.86 725.17) rotate(-87.11)"/><rect x="458.85" y="277.22" width="0.61" height="5.38" transform="translate(-61.89 146.92) rotate(-17.05)"/><polygon points="472.73 211.12 472.13 211.1 472.54 196.55 473.14 196.57 472.73 211.12"/><rect x="516.57" y="204.04" width="0.6" height="27.09" transform="translate(-38.05 136.59) rotate(-14.52)"/><path class="cls-26" d="M487.07,170.51a12.8,12.8,0,0,0,8.84-3.28s-4.28,7.31-8.84,8.13-3.58-2.82-3.58-2.82Z"/><path class="cls-23" d="M156.49,180.55,167.16,362.8h25V197.48l8.12,4.17L230,262.17l-30.37,78.37L220,348l39.19-74.2s5-8.35-.58-19.71-34-69.56-34-69.56Z"/><rect class="cls-25" x="193.94" y="186.49" width="0.46" height="22.78" transform="translate(-72.92 272.18) rotate(-61.09)"/><rect class="cls-25" x="228.85" y="257.3" width="19.91" height="0.46" transform="translate(-92.35 140.55) rotate(-27.7)"/><path class="cls-25" d="M176,288.27a23.85,23.85,0,0,1-10.06-2.48l.22-.41c.1.06,10.17,5.43,18,0l.26.38A14.36,14.36,0,0,1,176,288.27Z"/><path class="cls-25" d="M251.4,274l-.14-.44c9.89-3.15,8.66-11.25,8.65-11.34l.46-.07C260.38,262.21,261.67,270.71,251.4,274Z"/><rect class="cls-25" x="169.79" y="356.69" width="19.48" height="0.46"/><rect class="cls-25" x="211.91" y="331.64" width="0.46" height="14.55" transform="translate(-182.14 405.33) rotate(-67.52)"/><path class="cls-25" d="M158,203.59l-.23-.4c6.89-4,9.81-13.64,9.84-13.74l.44.13C168,189.68,165,199.53,158,203.59Z"/><path class="cls-25" d="M230,196.68a20.36,20.36,0,0,1-15.72-8.35l.38-.25A20,20,0,0,0,230,196.22Z"/><path class="cls-24" d="M155.34,151.1s-4,19.94,0,29.45,23.18,3.94,33.62,4.87,38.48,3.71,41-4.87,0-11.7,0-11.7,6-2.06,4.1-9.79.36-10.66.36-10.66,7.37.31,8.92-8,.92-43-1.55-49.77-14.38-6.65-15.77-6.65c0,0-1.27-4.48-4.87-3.44,0,0,.82-11.82-9.39-12.4S183.27,67.86,179,72a13.73,13.73,0,0,0-4.28,9s-6.26,2.44-5.22,7c0,0-13.57-2.32-16.58,13.91s-3.48,40.92-3.48,40.92A8.62,8.62,0,0,0,155.34,151.1Z"/><path class="cls-25" d="M155.36,151.33l-.05-.46c.43,0,43.23-4.21,54.32-8l.15.44C198.64,147.11,155.79,151.29,155.36,151.33Z"/><path class="cls-25" d="M232.87,148.69c-17.24,0-54.65-19.67-55-19.87l-.32-.17.29-.22c16.88-12.46,46.81-.16,47.11,0l-.18.43c-.3-.13-29.63-12.18-46.35-.25,3.88,2,40.57,20.85,56.05,19.59l0,.46C234,148.67,233.42,148.69,232.87,148.69Z"/><rect class="cls-25" x="171.86" y="122.52" width="0.46" height="11.72" transform="translate(36.99 295.25) rotate(-87.73)"/><path class="cls-25" d="M174.21,128.24l-.42-.18c3.06-7.5,1.16-19,1.14-19.12l.46-.07C175.41,109,177.33,120.61,174.21,128.24Z"/><path class="cls-25" d="M206.31,169.93l-.23-.4c9.34-5.25,23.84-.95,24-.9l-.13.44C229.78,169,215.47,164.79,206.31,169.93Z"/><path class="cls-25" d="M216,174.94l-.28-.37c.07,0,6.79-5,12.82-5.32l0,.46C222.67,170.05,216.06,174.89,216,174.94Z"/><path class="cls-25" d="M189.35,93.54c-16.7,0-20-5.48-20.14-5.74l.4-.23c0,.07,4.18,6.85,26.21,5.26s30-9,30.07-9.06l.32.34c-.07.07-8,7.57-30.36,9.18C193.49,93.46,191.33,93.54,189.35,93.54Z"/><path class="cls-22" d="M191,110.19c.19.81.41,1.62.65,2.42.11.36.67.21.56-.15-.24-.8-.46-1.61-.66-2.42-.08-.37-.64-.21-.55.15Z"/><path class="cls-22" d="M191.61,90.2c-2.4,6-2.18,12.58-.92,18.82.07.37.63.21.56-.15-1.24-6.15-1.44-12.61.92-18.52.14-.34-.42-.49-.56-.15Z"/><path class="cls-22" d="M199.41,114.68c-.26.81-.56,1.6-.88,2.38-.14.34.42.49.56.15.32-.78.62-1.57.88-2.37.12-.36-.44-.51-.56-.16Z"/><path class="cls-22" d="M198.56,90.42a34.75,34.75,0,0,1,1.22,23.09.29.29,0,0,0,.56.15,35.42,35.42,0,0,0-1.28-23.53c-.15-.34-.65,0-.5.29Z"/><path class="cls-23" d="M186.4,69.87s-6.41,2.79-5.1,8.81,9.12,15.54,23.5,8.82S220.34,70,210.05,69,186.4,69.87,186.4,69.87Z"/><path class="cls-18" d="M214.27,125.26s0-7.37.65-9.05,6.44-8,8.58-8.52,5.74.07,3.19,4.85-2.2,6-2.2,6l-.25,9.85S216.51,125.39,214.27,125.26Z"/><path class="cls-25" d="M216.61,116.68l-.43-.17c1.24-3.3,7.12-8.05,7.37-8.25l.29.36C223.78,108.67,217.81,113.49,216.61,116.68Z"/><path class="cls-25" d="M219.49,116.32l-.44-.16c1.38-3.68,5.78-6.82,6-7l.27.38S220.81,112.78,219.49,116.32Z"/><path class="cls-25" d="M223,115.69l-.44-.12c.53-1.95,3.76-5.54,3.9-5.69l.35.31S223.47,113.85,223,115.69Z"/><g class="cls-29"><path class="cls-18" d="M210.27,88.77c-.88,5.51-5.07,9.46-9.31,8.79l-8.56-1.38c-4.23-.68-7-5.74-6.1-11.25l4.95-30.84c.88-5.52,5.07-9.47,9.31-8.79l8.56,1.37c4.24.68,7,5.75,6.1,11.26Z"/><path class="cls-26" d="M193.78,48.69a12.86,12.86,0,0,0-1.22,2.83l-2,6.73-1.5,9.34A11.18,11.18,0,0,0,196,73.06c6.71,2,13.46-3.16,16.25-9.35L214,55Z"/><path class="cls-18" d="M216.19,53a2,2,0,0,1,2.24.68c1,1.17,1.22,3.59-.9,5.87s-3.91,3-6.36,2,2.42-5.42,2.42-5.42Z"/><path class="cls-18" d="M186.65,53s-3.46,12.46,8.7,16.13c13.31,4,18.06-7.44,18.06-7.44l2.83-15s1-7.14-4.42-11.2-13.74-1.67-13.74-1.67a14,14,0,0,0-5.26,6.45C191,44.65,186.65,53,186.65,53Z"/><path class="cls-26" d="M195.27,33.81a6.83,6.83,0,0,1,4.51,5.2c.62,4,4.84,9.45,11.95,9.85,0,0-9.74-1-11.39-9.75-1.69-9-6.33-6.9-6.33-6.9Z"/><path class="cls-26" d="M197,30.05c-1.84-2-4.65-1.15-6.06,2.35-2.72,6.76-.6,13.84-.6,13.84s2.4-7.43,5.19-9.84c4.4-.26,7.38,7.8,12,10.71a8,8,0,0,0,8.7-.07l-1.53,7.74s4.71-1.51,7.34-10.47c2.72-9.22-14.09-19.78-19.13-21S197,30.05,197,30.05Z"/><path class="cls-26" d="M214.89,53.88,214,58c0,.14.19.18.22,0,.3-1.37.61-2.73.91-4.09,0-.14-.2-.18-.23,0Z"/><path class="cls-26" d="M214.68,55.88c.92-.92,2.49-1.76,3.42-.4.08.12.26,0,.18-.14-1-1.48-2.75-.64-3.77.39-.11.11.07.25.17.15Z"/><path class="cls-26" d="M204.44,52.11a.74.74,0,1,0,.92-.5A.74.74,0,0,0,204.44,52.11Z"/><path class="cls-26" d="M192.82,48.6a.75.75,0,0,0,.5.93.75.75,0,1,0,.43-1.43A.75.75,0,0,0,192.82,48.6Z"/><path class="cls-18" d="M190.13,45.15a1.56,1.56,0,0,0-2-.63c-1.48.42-3,2.31-2.5,5.38s1.6,4.67,4.19,5.19,1-5.85,1-5.85Z"/><path class="cls-26" d="M189.61,47.24c-.14-1-.81-2-1.92-1.64-.14,0-.06.26.08.22,1-.29,1.5.61,1.61,1.44,0,.14.25.12.23,0Z"/><path class="cls-26" d="M189.06,52.7a4.27,4.27,0,0,1,1.42-6.55c.13-.06.05-.27-.08-.21a4.5,4.5,0,0,0-1.53,6.89c.09.11.28,0,.19-.13Z"/><path class="cls-26" d="M208.67,59.21a4.48,4.48,0,0,0,1.24-6.92c-.09-.11-.28,0-.18.13a4.26,4.26,0,0,1-1.2,6.6c-.13.07,0,.26.14.19Z"/><rect class="cls-26" x="194.33" y="43.36" width="1.09" height="4.38" transform="translate(29.55 158.33) rotate(-47.46)"/><rect class="cls-26" x="205.62" y="46.78" width="1.09" height="4.38" transform="translate(124.09 244.32) rotate(-80.57)"/><path class="cls-26" d="M197.13,50.36c-.23,2-.47,3.92-.7,5.88,0,.14.21.18.22,0,.24-2,.47-3.91.71-5.87,0-.15-.21-.18-.23,0Z"/><path class="cls-22" d="M192,54.05l-.78-.18a5.91,5.91,0,0,1,2.64-11.5,7.31,7.31,0,0,1,.78.18A5.91,5.91,0,0,1,192,54.05Zm1.82-11.41a5.64,5.64,0,0,0-2.52,11,6.74,6.74,0,0,0,.75.17,5.64,5.64,0,0,0,2.51-11A6.11,6.11,0,0,0,193.83,42.64Z"/><path class="cls-22" d="M204.11,57.7a5.49,5.49,0,0,1-.78-.18A5.91,5.91,0,0,1,206,46a5.49,5.49,0,0,1,.78.18,5.91,5.91,0,0,1-2.64,11.49Zm1.82-11.4a5.64,5.64,0,0,0-2.52,11,6.74,6.74,0,0,0,.75.17,5.63,5.63,0,0,0,2.51-11A6.11,6.11,0,0,0,205.93,46.3Z"/><rect class="cls-22" x="198.86" y="49.49" width="0.27" height="1.09" transform="translate(93.6 226.09) rotate(-73.21)"/><polygon class="cls-22" points="210.8 52.2 210.83 51.92 217.52 52.65 217.49 52.92 210.8 52.2"/><rect class="cls-22" x="189.31" y="44.02" width="0.27" height="2.54" transform="translate(78.35 205.29) rotate(-68.67)"/><path class="cls-26" d="M195.57,59.87c.1-.51.68-.83,1.11-1,1.92-.71,4.43.19,6.23.81.14.05.23-.16.09-.21-1.94-.67-4.45-1.53-6.5-.77a1.8,1.8,0,0,0-1.16,1.12.12.12,0,0,0,.23,0Z"/><path class="cls-26" d="M197.3,46.38c.34.37.17,1,0,1.37a.12.12,0,0,0,.21.1,1.56,1.56,0,0,0,0-1.6c-.1-.11-.29,0-.19.13Z"/><path class="cls-26" d="M203.43,47.55a1.67,1.67,0,0,0-1,1.23c0,.14.2.18.23,0a1.43,1.43,0,0,1,.89-1.06.11.11,0,0,0-.08-.21Z"/></g><path d="M189.58,362.8l1.92,18.72H151a7.16,7.16,0,0,1,3.8-6.16,24,24,0,0,1,7.26-2.3,17.17,17.17,0,0,0,7.07-2.78,9.39,9.39,0,0,0,3.55-7.2"/><g class="cls-30"><path class="cls-22" d="M166.24,374.73a10.87,10.87,0,0,1-6.79-2.26l.46-.58a10.57,10.57,0,0,0,8.43,1.92,10.22,10.22,0,0,0,7-5.57c1.68-3.13,2.2-7.21,1.57-12.5l.73-.09c.65,5.45.11,9.68-1.65,12.94a10.91,10.91,0,0,1-7.51,6A13,13,0,0,1,166.24,374.73Z"/><rect class="cls-22" x="147.15" y="378.31" width="48.53" height="0.74"/></g><path d="M168.48,371.61c-1.09,0-2.19-1.45-2.79-2.25l-.16-.2a10.92,10.92,0,0,1-1.85-3.52h0a1.47,1.47,0,0,1,2.07-2,2.66,2.66,0,0,1,.83.84,20.73,20.73,0,0,1,2,3.6,2.73,2.73,0,0,0,.15.32c.49,1,.94,2.08.6,2.72a.81.81,0,0,1-.65.44Zm-4.1-6.19a10.33,10.33,0,0,0,1.74,3.29l.15.2c.43.57,1.56,2.06,2.28,1.95.09,0,.1,0,.11-.05.19-.37-.42-1.64-.62-2.06a3.12,3.12,0,0,1-.16-.35,20.21,20.21,0,0,0-1.91-3.47,2,2,0,0,0-.59-.62.89.89,0,0,0-.77-.05c-.45.24-.31.89-.23,1.16Z"/><path d="M167.92,371.78a6.94,6.94,0,0,1-2.09-.45l-.2-.06a8.38,8.38,0,0,1-2.9-1.6h0a1.36,1.36,0,0,1-.44-1.82,1.53,1.53,0,0,1,1.13-.69,2.05,2.05,0,0,1,1,.19,15.48,15.48,0,0,1,3,1.58l.24.14c.8.49,1.59,1,1.65,1.65a.82.82,0,0,1-.3.71A1.67,1.67,0,0,1,167.92,371.78Zm-4.35-3.89h-.08a.78.78,0,0,0-.57.34c-.22.36.08.7.29.87h0a7.42,7.42,0,0,0,2.65,1.45l.2.07c.55.18,2,.67,2.48.25.07-.06.06-.09.06-.1,0-.31-1-.89-1.29-1.07l-.27-.17a14.85,14.85,0,0,0-2.88-1.5A1.61,1.61,0,0,0,163.57,367.89Z"/><path d="M201.56,341.24l-10.8,12.28,29.43,27.85a7.14,7.14,0,0,0,1.47-7.09,24.06,24.06,0,0,0-3.69-6.66,17.14,17.14,0,0,1-3.22-6.87C214.33,358,218.14,350,220,348"/><g class="cls-31"><path class="cls-22" d="M213.77,366a10.92,10.92,0,0,0,6.48,3l.07-.74a10.58,10.58,0,0,1-7.44-4.4,10.22,10.22,0,0,1-1.24-8.84c.92-3.43,3.36-6.76,7.45-10.16l-.47-.57c-4.21,3.51-6.73,7-7.7,10.53a11,11,0,0,0,1.37,9.49A13.9,13.9,0,0,0,213.77,366Z"/><rect class="cls-22" x="206.93" y="340.99" width="0.74" height="48.53" transform="translate(-200.5 264.82) rotate(-46.59)"/></g><path d="M214.17,362a.86.86,0,0,1-.17-.77c.19-.7,1.25-1.16,2.31-1.56l.33-.13a19.58,19.58,0,0,1,3.91-1.25,2.62,2.62,0,0,1,1.19-.05,1.6,1.6,0,0,1,1.1,1,1.57,1.57,0,0,1-1,1.9h0a10.8,10.8,0,0,1-3.77,1.28l-.25,0c-1,.17-2.77.46-3.57-.29Zm7.35-1.55c.24-.14.8-.51.63-1a.87.87,0,0,0-.59-.49,1.78,1.78,0,0,0-.85,0,19.82,19.82,0,0,0-3.78,1.21l-.35.14c-.44.16-1.76.67-1.87,1.06,0,0,0,.05,0,.13.44.56,2.29.26,3,.14l.25,0a10.06,10.06,0,0,0,3.52-1.2Z"/><path d="M214,361.63a.85.85,0,0,1,.27-.73c.48-.42,1.41-.26,2.33-.06l.27.06a15.29,15.29,0,0,1,3.28.93,2,2,0,0,1,.86.56,1.54,1.54,0,0,1,.35,1.28,1.37,1.37,0,0,1-1.57,1h0a8.45,8.45,0,0,1-3.21-.84l-.18-.09a6.89,6.89,0,0,1-1.83-1.1A1.7,1.7,0,0,1,214,361.63Zm5.87.89a14.4,14.4,0,0,0-3.12-.89l-.31-.07c-.36-.08-1.44-.31-1.68-.1,0,0,0,0,0,.11.06.63,1.45,1.28,2,1.52l.2.09a7.5,7.5,0,0,0,2.92.77h0c.27,0,.72,0,.81-.43a.83.83,0,0,0-.18-.65l-.06-.05A1.53,1.53,0,0,0,219.88,362.52Z"/><rect class="cls-22" x="373.19" y="133.66" width="0.3" height="3.65" transform="translate(121.5 442.59) rotate(-70.59)"/><path class="cls-26" d="M374.09,140.71a7.16,7.16,0,1,0,3.15,1c-.16-.1,0-.37.13-.27a7.47,7.47,0,1,1-3.3-1c.19,0,.21.3,0,.29Z"/><path class="cls-18" d="M377.25,180.33c3.05,1,5.4-1.88,8.49-1.06,2.33.62,5.42-6.85,7.74-6.18l3.12-19.72-16.5.74-7.86,23.6C372.8,177.93,376.7,180.1,377.25,180.33Z"/><path class="cls-26" d="M377.25,162.61l2.85-8.5,16.5-.74-.07.42h0S389.73,165.28,377.25,162.61Z"/><path class="cls-26" d="M408.94,141.09s2,7.92,8.51,6.4,3.51-6.23,3.51-6.23,4,2.24,7.26-3.13-2.17-7.54-2.17-7.54,6.2-1.52,5.53-8-8-6.15-9.24-2.13c0,0,1.22-5.68-2.46-7.54s-7.84.46-8.15,5.06c0,0-2.21-4.73-5.73-1.6a8.41,8.41,0,0,0-2.57,7.57l-4.79,16Z"/><path class="cls-18" d="M403.43,123.91a8.8,8.8,0,0,1,.59-4.83,16.36,16.36,0,0,1,9.49,14.79,20.22,20.22,0,0,1-2.93,10.73,12.3,12.3,0,0,1-1.64-3.51l-10.3-1.23Z"/><path class="cls-26" d="M404.35,149.77s6.67-4.85,6.67-15.06-9.71-18.63-20.07-15.45a2.63,2.63,0,0,1-1.58-2.39c-.26-2-3.16-5.61-7.22-3.67s-3.13,5.71-3.29,7-2,2.49-3.37-.24-5.78-7.54-8.09-2.11c0,0,3.38-.48,3.34,2.47s1.4,11.33,7.93,13.46,13.81,4.76,13.81,4.76l.69,8.23s2.86,2.94,3.24,2.9,4.9.07,4.9.07Z"/><path class="cls-18" d="M398.77,137.2s-3.12,5.7-.86,10.3c0,0,4.29-2.43,7.14.75s-2.19,7.7-8.75,5.13c0,0-8.65,7.92-17.89,6.08s-10.34-15.26-1.53-28c0,0,7.82,6.05,12.82-1.34C389.7,130.08,391.92,137.91,398.77,137.2Z"/><path class="cls-26" d="M377.41,140.89a.83.83,0,1,1-.52-1.06A.85.85,0,0,1,377.41,140.89Z"/><path class="cls-26" d="M386.39,145.27a.84.84,0,0,1-1.18,0,.83.83,0,0,1,0-1.18.83.83,0,0,1,1.21,1.15Z"/><rect class="cls-26" x="387.61" y="139.15" width="1.22" height="4.9" transform="translate(134.06 467.44) rotate(-72.08)"/><rect class="cls-26" x="377.09" y="134.75" width="1.22" height="4.9" transform="translate(88.53 416.22) rotate(-63.94)"/><path class="cls-26" d="M381.38,141.67l-3.17,5.8c-.08.14-.31,0-.23-.11l3.17-5.8c.08-.15.31,0,.23.11Z"/><path class="cls-26" d="M386.08,139.69c-.55-.13-1.05.38-1.34.76a.13.13,0,0,1-.2-.15c.33-.45.93-1,1.56-.86.16,0,.13.29,0,.25Z"/><path class="cls-26" d="M381.11,137.68a1.87,1.87,0,0,1,.14,1.79c-.06.15-.29,0-.22-.11a1.62,1.62,0,0,0-.13-1.54.13.13,0,1,1,.21-.14Z"/><path class="cls-22" d="M381.8,143.48a5.63,5.63,0,0,1,6-5.22,5.93,5.93,0,0,1,.72.1A5.64,5.64,0,0,1,387,149.51a5.93,5.93,0,0,1-.72-.1A5.65,5.65,0,0,1,381.8,143.48Zm6-4.92a5.34,5.34,0,0,0-1.44,10.56,5.43,5.43,0,0,0,.69.09,5.34,5.34,0,0,0,1.44-10.56A5.21,5.21,0,0,0,387.8,138.56Z"/><path class="cls-22" d="M370.71,137.4a5.64,5.64,0,1,1,5.23,6,5.83,5.83,0,0,1-.73-.1A5.66,5.66,0,0,1,370.71,137.4Zm6-4.92a5.34,5.34,0,0,0-5.71,5,5.35,5.35,0,0,0,4.26,5.61,5.43,5.43,0,0,0,.69.09,5.34,5.34,0,0,0,1.44-10.56A5.06,5.06,0,0,0,376.72,132.48Z"/><rect class="cls-22" x="381.9" y="139.7" width="0.3" height="1.69" transform="translate(68.29 399.9) rotate(-59.78)"/><polygon class="cls-22" points="392.52 146.03 402.14 147.31 402.18 147.02 392.56 145.73 392.52 146.03"/><path class="cls-26" d="M378.78,151.6a3.21,3.21,0,0,0,1.91-.19l-.11-.27c-3.19,1.3-5.6-3.26-5.62-3.31l-.27.14S376.35,151.11,378.78,151.6Z"/><path class="cls-26" d="M400.48,152.5a7.27,7.27,0,1,0,3.2,1c-.16-.1,0-.37.13-.27a7.57,7.57,0,1,1-3.35-1c.19,0,.21.31,0,.3Z"/><path class="cls-18" d="M397.79,149c.09-.51.16-1,.21-1.55.6-.31,4.43-2.12,7.05.8a2.78,2.78,0,0,1,.44,3.33A16.34,16.34,0,0,0,397.79,149Z"/><path class="cls-18" d="M346.77,191.36,343.45,202,323.1,171.07s-18.28-17.44-21.6-16.2,6.67,10.39,6.67,10.39-8,6.74-4.17,12.56,6.54,3.94,6.54,3.94l24.08,57.73s3.74,10.9,16.67,9.35,15.41-15.11,13.86-22l1.24-34.26Z"/><polygon points="309.05 179.91 304.61 172.75 304.88 172.58 309.32 179.75 309.05 179.91"/><polygon points="310.88 175.98 306.13 172.16 306.32 171.92 311.07 175.74 310.88 175.98"/><path d="M316.66,179a2.69,2.69,0,0,1-2.46-1.1c-.91-1.49.12-3.95.39-4.54l-6.07-3.74.16-.27,6.31,3.89-.06.13s-1.39,2.85-.47,4.36a2.42,2.42,0,0,0,2.2,1Z"/><path d="M317.47,170.62c-.75-.23-7.35-2.26-7.35-4.26a.64.64,0,0,1,.3-.58c1.25-.73,6.29,2,6.86,2.31l-.15.27c-1.51-.83-5.62-2.86-6.54-2.31a.31.31,0,0,0-.16.31c0,1.5,5.15,3.37,7.13,4Z"/><polygon points="358.58 223.53 343.32 202.1 343.57 201.92 358.83 223.34 358.58 223.53"/><path class="cls-28" d="M366.39,192.61l-19.62-1.25L343.45,202l-15.54-23.62c-5,3-10,6.06-14.9,9.32l21.61,51.78s3.74,10.9,16.67,9.35,15.41-15.11,13.86-22Z"/><polygon class="cls-32" points="358.58 223.53 343.32 202.1 343.57 201.92 358.83 223.34 358.58 223.53"/><path d="M300.24,349.33l-3.92,24.4H247.25c-.13-3.33,2-6.35,4.81-8s6-2.3,9.2-3,6.41-1.57,9-3.61a12.39,12.39,0,0,0,4.5-9.38"/><g class="cls-33"><rect class="cls-22" x="246.31" y="369.54" width="63.21" height="0.96"/></g><path class="cls-24" d="M384.74,234.38s-81.69-.74-94.07,15.52c-11.82,15.52-23.1,103-23.1,103h36.22l15.9-71.9s33.45-6.1,49-13.68"/><rect class="cls-22" x="269.48" y="338.71" width="37.34" height="0.96"/><rect x="281.7" y="334.67" width="36.47" height="0.96" transform="translate(-97.82 545.08) rotate(-76)"/><path class="cls-28" d="M394.6,168.18s-17.1,11.58-19.37.72c0,0-13.63-.84-17.88,3.77-3.32,3.61-13.68,25.11-16.81,31.71,3.82,10.39,7.88,20.69,12.07,31l4.12-.25,52.72-19.66L412,200.6l4.48-26.39C407,168.75,394.6,168.18,394.6,168.18Z"/><path class="cls-34" d="M413.12,223.55,387,231.79s-6.57.8-15.37,2.73c-4.28.1-9.36.27-14.86.56l5-27.5,34.85-6.69,6.39-3,9,2.73-2.51,14.82Z"/><path class="cls-35" d="M371.59,234.52c-3.59.79-7.56,1.76-11.6,2.94a28.65,28.65,0,0,1-3.27-2.35v0C362.23,234.79,367.31,234.62,371.59,234.52Z"/><path d="M363.67,349.33l2.51,24.4H313.41c-.13-3.33,2.08-6.35,4.95-8s6.21-2.3,9.45-3,6.58-1.57,9.21-3.61a12.28,12.28,0,0,0,4.62-9.38"/><g class="cls-36"><path class="cls-22" d="M333.28,364.88a14.19,14.19,0,0,1-8.84-2.94l.59-.76a13.79,13.79,0,0,0,11,2.51c3.63-.63,6.95-3.27,9.1-7.26s2.86-9.4,2-16.28l1-.12c.84,7.09.13,12.6-2.16,16.86s-5.85,7.07-9.78,7.75A17.79,17.79,0,0,1,333.28,364.88Z"/><rect class="cls-22" x="308.41" y="369.54" width="63.21" height="0.96"/></g><path d="M336.19,360.81c-1.41,0-2.85-1.88-3.63-2.92l-.2-.26a14.28,14.28,0,0,1-2.42-4.59h0c-.37-1.22-.08-2.21.79-2.65a2.06,2.06,0,0,1,1.91.08,3.43,3.43,0,0,1,1.08,1.1,26.49,26.49,0,0,1,2.58,4.69c0,.1.11.25.19.42.65,1.33,1.23,2.7.79,3.54a1.1,1.1,0,0,1-.85.58Zm-5.33-8.05a13.27,13.27,0,0,0,2.26,4.28c.06.07.12.16.2.27.56.73,2,2.67,3,2.53.12,0,.14,0,.15-.07.25-.48-.54-2.13-.81-2.68l-.21-.45a25.47,25.47,0,0,0-2.48-4.52,2.61,2.61,0,0,0-.77-.81,1.09,1.09,0,0,0-1-.06c-.59.3-.41,1.16-.3,1.51Z"/><path d="M335.46,361a9.32,9.32,0,0,1-2.72-.59l-.25-.08a10.77,10.77,0,0,1-3.79-2.08h0a1.79,1.79,0,0,1-.57-2.37,2,2,0,0,1,1.48-.9,2.83,2.83,0,0,1,1.32.25,20.1,20.1,0,0,1,3.93,2.05l.31.19c1,.63,2.07,1.31,2.15,2.14a1.08,1.08,0,0,1-.4.93A2.13,2.13,0,0,1,335.46,361ZM329.8,356h-.1a1,1,0,0,0-.75.45c-.29.46.11.91.38,1.13h0a9.89,9.89,0,0,0,3.45,1.89l.27.09c.71.23,2.61.87,3.23.32.08-.07.08-.11.08-.12,0-.42-1.28-1.16-1.68-1.4-.15-.09-.28-.16-.36-.22a18.79,18.79,0,0,0-3.75-1.95A2,2,0,0,0,329.8,356Z"/><path class="cls-24" d="M413.94,267.27c-10.05,9.72-48.42,11.28-48.42,11.28l3.88,74.3H335s-15-78.68-6.66-96.29c4.33-9.11,18.37-15.22,31.62-19.1a191.49,191.49,0,0,1,27-5.67l26.16-8.24.82-.26s.76,2.27,1.68,5.81a106.19,106.19,0,0,1,2.94,16C419.4,253.66,418.77,262.61,413.94,267.27Z"/><path class="cls-34" d="M418.56,245.06c-31.57,6.51-51.23-2.94-58.57-7.6a191.49,191.49,0,0,1,27-5.67l26.16-8.24,2.5,5.55A106.19,106.19,0,0,1,418.56,245.06Z"/><path class="cls-37" d="M415.62,229.1l-2.5-5.55.82-.26S414.7,225.56,415.62,229.1Z"/><polygon class="cls-22" points="413.71 267.71 405.63 260.02 402.79 237.62 416.75 233.91 416.99 234.84 403.85 238.34 406.55 259.56 414.37 267.02 413.71 267.71"/><rect class="cls-22" x="332.69" y="338.71" width="36.05" height="0.96"/><polygon points="361.05 352.88 358.91 317.8 366.84 310.63 367.49 311.34 359.9 318.21 362.01 352.82 361.05 352.88"/><path class="cls-18" d="M356.81,215.94c-3.58-.36-5.39-1.92-4.94-3.74.36-1.5,5.77-.65,10.24.75a57.08,57.08,0,0,0,6.58,1.55"/><path class="cls-18" d="M368.69,214.5l-.54,18.15s-19.54-3.57-20.5-5.9c-.57-1.4.52-1.86.52-1.86s-2-.13-2.49-1.24a1.6,1.6,0,0,1,.51-1.86s-1.73-.37-1.26-1.92c.51-1.71,6.2-3,11.88-3.93"/><path d="M346.28,222l-.17-.45c.09,0,8.93-3.39,15.68-2.66l-.05.47C355.1,218.66,346.37,222,346.28,222Z"/><path d="M348.23,225.12l-.12-.47c.08,0,7.51-1.82,13-.7l-.1.47C355.63,223.33,348.3,225.1,348.23,225.12Z"/><path class="cls-28" d="M416.44,174.21c7.74,4.72,17.54,52,0,62.75-18.55,11.33-51.93-2.58-51.93-2.58l1.66-22.92L400,206.37l3-8.5"/><rect x="377.51" y="209.67" width="0.96" height="29.02"/><path class="cls-22" d="M371.41,233.1a2.15,2.15,0,1,1,2.15-2.14A2.14,2.14,0,0,1,371.41,233.1Zm0-3.33A1.19,1.19,0,1,0,372.6,231,1.18,1.18,0,0,0,371.41,229.77Z"/><rect class="cls-25" x="345.83" y="199.09" width="0.39" height="13.21" transform="translate(-55.67 231.83) rotate(-34.45)"/><rect class="cls-25" x="353.35" y="196.63" width="24.37" height="0.4" transform="translate(29.86 441.12) rotate(-64.35)"/><polygon class="cls-25" points="400.18 206.42 399.8 206.32 403.4 193.04 403.78 193.14 400.18 206.42"/><path class="cls-25" d="M384.92,236.19h-.18v-.4h0c1.36,0,36-.17,36.36-14.73h.4C421.16,235.84,388,236.19,384.92,236.19Z"/><polygon class="cls-25" points="339.59 310.63 338.05 263.86 378.43 251.98 378.54 252.36 338.45 264.16 339.99 310.62 339.59 310.63"/><polygon class="cls-25" points="278.22 316.14 277.84 316.03 294.92 259.13 319.95 247.1 320.12 247.46 295.25 259.41 278.22 316.14"/><polygon class="cls-38" points="207.24 210.31 223.93 258.37 312.67 258.37 312.01 255.42 276.13 254.31 262.5 210.28 207.24 210.31"/><path class="cls-22" d="M247.2,231.94c.65,3.68-1.37,7.12-4.51,7.67s-6.22-2-6.88-5.65,1.37-7.12,4.51-7.68S246.54,228.25,247.2,231.94Z"/><polygon class="cls-38" points="432.43 211.06 449.13 259.12 537.86 259.12 537.21 256.17 501.33 255.06 487.7 211.03 432.43 211.06"/><path class="cls-22" d="M472.39,232.69c.65,3.68-1.36,7.12-4.51,7.68s-6.21-2-6.87-5.66,1.36-7.12,4.5-7.68S471.73,229,472.39,232.69Z"/><rect class="cls-39" x="47.47" y="258.37" width="512.59" height="22.95"/><rect class="cls-40" x="47.47" y="269.84" width="512.59" height="11.48"/><rect class="cls-41" x="84.15" y="281.32" width="28.79" height="117.21"/><rect class="cls-40" x="84.15" y="281.32" width="28.79" height="16.65"/><rect class="cls-41" x="498.18" y="281.32" width="28.79" height="117.21"/><rect class="cls-40" x="498.18" y="281.32" width="28.79" height="16.65"/><g class="cls-42"><path class="cls-43" d="M343.2,32a32,32,0,1,1-32-32A32,32,0,0,1,343.2,32Z"/></g><path class="cls-44" d="M339.38,32a32,32,0,1,1-32-32A32,32,0,0,1,339.38,32Z"/><path class="cls-22" d="M335.12,32A27.72,27.72,0,1,1,307.41,4.26,27.71,27.71,0,0,1,335.12,32Z"/><rect class="cls-45" x="307.33" y="13.27" width="0.36" height="16.94"/><polygon class="cls-45" points="317.83 47.02 307.05 32.56 307.95 31.72 317.83 47.02"/><path class="cls-46" d="M309.4,31.72a1.89,1.89,0,1,1-1.89-1.89A1.89,1.89,0,0,1,309.4,31.72Z"/><path class="cls-46" d="M307.05,6.45v5.79h-.44V6.9h-.35V6.45Zm-.76,0v.37h.37v5.33H307V6.49Zm.64.08v5.55h-.2V6.77h-.37v-.2Z"/><path class="cls-46" d="M309.59,8.4c0,.42-.39.78-.8,1.17s-.73.69-.75,1v1.19h1.55v.46h-2V10.58a2.16,2.16,0,0,1,.89-1.34c.32-.29.65-.63.66-.84V7.52c0-.51-.27-.67-.54-.67s-.55.29-.55.69V8h-.42V7.53a1,1,0,0,1,1-1.13,1,1,0,0,1,1,1.11Zm0-.89a.94.94,0,0,0-.92-1.07,1,1,0,0,0-.93,1.09V8H308V7.54c0-.42.21-.73.6-.73s.59.16.59.71V8.4c0,.22-.36.57-.67.86a2.21,2.21,0,0,0-.89,1.32v1.61h1.89v-.37H308V10.58c0-.34.39-.68.76-1s.78-.73.78-1.14Zm-.06.89c0,.37-.38.71-.76,1.07s-.78.73-.79,1.11V11.9h1.55v.22h-1.76V10.58a2.12,2.12,0,0,1,.86-1.25c.34-.32.69-.67.7-.93V7.52c0-.61-.33-.79-.66-.79s-.67.34-.67.81v.33h-.19V7.53a.9.9,0,0,1,.86-1,.87.87,0,0,1,.86,1Z"/><path class="cls-46" d="M309,54.74v.61c0,.68-.37,1.22-1,1.22a1.08,1.08,0,0,1-1.05-1.22V51.9a1.1,1.1,0,0,1,1.06-1.21c.65,0,1,.49,1,1.22v.32h-.42v-.32c0-.45-.2-.78-.59-.78s-.62.29-.64.77v1.88a1,1,0,0,1,.64-.27C308.56,53.51,309,53.94,309,54.74Zm-1.71-.86v-2c0-.5.26-.81.68-.81s.62.34.62.82v.27h.34v-.27c0-.7-.34-1.18-1-1.18a1.05,1.05,0,0,0-1,1.17v3.45c0,.67.36,1.18,1,1.18s1-.51,1-1.18v-.61c0-.76-.39-1.19-1-1.19A1,1,0,0,0,307.26,53.88Zm1.59.86v.61c0,.63-.32,1.09-.92,1.09a1,1,0,0,1-.94-1.09V51.9a1,1,0,0,1,.95-1.1c.58,0,.89.46.89,1.11v.2h-.2v-.2c0-.53-.23-.9-.69-.9s-.73.34-.75.89v2.19a.92.92,0,0,1,.75-.46C308.5,53.63,308.85,54,308.85,54.74Zm-.19,0c0-.61-.26-.9-.72-.9s-.74.4-.74.89v.62c0,.48.25.87.73.87s.73-.39.73-.87Zm-.08.61c0,.43-.22.8-.65.8s-.66-.37-.66-.8v-.62c0-.45.25-.81.67-.81s.64.26.64.82Zm0-.61c0-.53-.22-.78-.61-.78s-.64.34-.64.77v.62c0,.41.22.76.63.76s.62-.35.62-.76Z"/><path class="cls-46" d="M331.63,31.26h.31c.37,0,.56-.38.56-.77V29.31c0-.47-.22-.68-.52-.68s-.59.27-.59.69v.45H331v-.46c0-.88.54-1.12,1-1.12s.95.35.95,1.11v1.19a1.09,1.09,0,0,1-.4,1,1.2,1.2,0,0,1,.47,1.1v.32a1.06,1.06,0,1,1-2.09,0v-.52h.42v.52c0,.46.23.76.63.76s.61-.31.61-.77v-.32c0-.44-.16-.84-.62-.84h-.32Zm0,.41H332c.49,0,.66.41.66.88v.32c0,.47-.25.81-.65.81s-.67-.32-.67-.8V32.4H331v.48a1.06,1.06,0,0,0,1,1.18c.63,0,1-.52,1-1.19v-.32a1.15,1.15,0,0,0-.5-1.09,1.11,1.11,0,0,0,.43-1V29.3c0-.74-.42-1.08-.91-1.08s-1,.24-1,1.09v.42h.34v-.41c0-.44.21-.72.62-.72s.56.22.56.71v1.18c0,.42-.21.78-.6.81h-.28Zm.08-.3H332c.43,0,.66-.42.66-.88V29.31c0-.54-.28-.8-.63-.8s-.7.32-.7.81v.33h-.19v-.34c0-.78.48-1,.89-1s.84.3.84,1v1.19a1.07,1.07,0,0,1-.52,1c.41.16.58.53.58,1.08v.32c0,.61-.34,1.11-.92,1.11a1,1,0,0,1-.93-1.1v-.39h.19v.39c0,.53.27.88.74.88s.73-.37.73-.89v-.32c0-.51-.19-1-.74-1h-.21Z"/><path class="cls-46" d="M284.35,33a1.09,1.09,0,0,1-1.07,1.22,1.11,1.11,0,0,1-1-1.23v-.31h.42V33c0,.43.23.77.61.77s.66-.33.66-.76V31.73a.92.92,0,0,1-.63.32c-.82,0-1.06-.79-1.06-1.49v-.81c0-.7.3-1.44,1.06-1.44s1,.69,1,1.45Zm0-3.22c0-.74-.28-1.41-1-1.41s-1,.72-1,1.4v.81c0,.68.23,1.44,1,1.44a.84.84,0,0,0,.66-.38V33c0,.45-.23.8-.69.8s-.64-.36-.64-.81v-.28h-.35V33a1.07,1.07,0,0,0,1,1.19,1,1,0,0,0,1-1.18ZM284.24,33a1,1,0,0,1-1,1.1,1,1,0,0,1-.91-1.11v-.2h.2V33c0,.5.25.89.71.89s.76-.39.76-.88V31.31a.81.81,0,0,1-.73.61c-.74,0-.95-.72-.95-1.36v-.81c0-.64.27-1.33.95-1.33s.93.65.93,1.34ZM284,29.76c0-.53-.15-1.12-.72-1.12s-.74.58-.74,1.11v.81c0,.45.12,1.14.74,1.14s.72-.68.72-1.14Zm-.07.8c0,.43-.2,1.07-.65,1.07s-.67-.66-.67-1.07v-.81c0-.48.19-1,.67-1s.65.54.65,1Zm0-.8c0-.47-.13-1-.61-1s-.63.52-.63,1v.81c0,.4.1,1,.63,1s.61-.62.61-1Z"/><path class="cls-41" d="M485.29,399.29H555a.76.76,0,0,0,0-1.51H485.29a.76.76,0,0,0,0,1.51Z"/><path class="cls-41" d="M160.18,399.29H472.37a.76.76,0,0,0,0-1.51H160.18a.76.76,0,0,0,0,1.51Z"/><path class="cls-41" d="M55,399.29H148a.76.76,0,0,0,0-1.51H55a.76.76,0,0,0,0,1.51Z"/><path class="cls-41" d="M.73,399.29H43.56a.76.76,0,0,0,0-1.51H.73a.76.76,0,0,0,0,1.51Z"/><path class="cls-41" d="M217.83,413h93.06a.76.76,0,0,0,0-1.51H217.83a.76.76,0,0,0,0,1.51Z"/><path class="cls-41" d="M163.61,413h42.83a.76.76,0,0,0,0-1.51H163.61a.76.76,0,0,0,0,1.51Z"/><path class="cls-41" d="M400,411.47h93.06a.76.76,0,0,0,0-1.51H400a.76.76,0,0,0,0,1.51Z"/><path class="cls-41" d="M345.78,411.47h42.83a.76.76,0,0,0,0-1.51H345.78a.76.76,0,0,0,0,1.51Z"/></g></g></svg>