<svg xmlns="http://www.w3.org/2000/svg" xmlns:xlink="http://www.w3.org/1999/xlink" viewBox="0 0 557.6 380.24"><defs><style>.cls-1{fill:none;}.cls-2{isolation:isolate;}.cls-3{fill:#c0bef9;}.cls-4{fill:#fdfaf3;}.cls-5,.cls-6{fill:#87bfe1;}.cls-27,.cls-6{opacity:0.5;}.cls-19,.cls-21,.cls-31,.cls-6{mix-blend-mode:multiply;}.cls-7{fill:#203068;}.cls-8{fill:#082021;}.cls-9{fill:#2d346b;}.cls-10{fill:#182154;}.cls-11{fill:#354187;}.cls-12{fill:#374282;}.cls-13{fill:#071e20;}.cls-14{fill:#435bbf;}.cls-15{fill:#2d2360;}.cls-16{fill:#32215b;}.cls-17{fill:#1f2266;}.cls-18,.cls-19{fill:#fcaa48;}.cls-20{clip-path:url(#clip-path);}.cls-22{fill:#e2923b;}.cls-23{fill:#0d4444;}.cls-24{fill:#fcf7e1;}.cls-25,.cls-31{fill:#f85156;}.cls-26{clip-path:url(#clip-path-2);}.cls-28{fill:#fff;}.cls-29{fill:#fbbe65;}.cls-30{fill:#fba52c;}.cls-32{fill:#160539;}.cls-33{fill:#1c75bc;}.cls-34{fill:#e83d4d;}.cls-35{fill:#8ed4f4;}.cls-36{fill:#fc4f5a;}.cls-37{clip-path:url(#clip-path-3);}.cls-38{fill:#4f6aff;}.cls-39{clip-path:url(#clip-path-4);}.cls-40{fill:#231f20;}.cls-41{fill:#13affb;}.cls-42{fill:#0cafe2;}.cls-43{fill:#07005f;}.cls-44{fill:#1bb3ef;}.cls-45{fill:#ffcd0d;}.cls-46{fill:#e0cdce;}.cls-47{fill:#2b23cc;}.cls-48{fill:#fb5773;}.cls-49{fill:#f5f5f5;}.cls-50{fill:#fcc4cc;}.cls-51{fill:#d0e2f4;}.cls-52{fill:#221347;}.cls-53{fill:#ffa347;}.cls-54{fill:#bcb194;}.cls-55{fill:#9aceff;}.cls-56{fill:#706ec5;}.cls-57{fill:#faffe9;}.cls-58{fill:#9e9085;}.cls-59{fill:#f9f476;}.cls-60{fill:#b6c2b8;}.cls-61{fill:#2b1b5b;}</style><clipPath id="clip-path"><path class="cls-1" d="M228,181.22a18.79,18.79,0,0,1,4-.22,2.9,2.9,0,0,0,2.83-3.84,40.34,40.34,0,0,0-3.6-7.26c0-26.17-12.48-49.61-12.48-49.61,1.61-4.51,0-5.79,0-5.79a47.47,47.47,0,0,0-4.83,1.46c-43.08-5.24-56.36,5.38-56.36,5.38a34,34,0,0,0-6.85-3.37c-2.82-.81-3.22,6.8-3.22,6.8s5.24,37.79,16.91,53.14c0,0-.81.53,0,3.31s4.83,0,4.83,0S206.23,186.45,228,181.22Z"/></clipPath><clipPath id="clip-path-2"><path class="cls-1" d="M339.47,178.67a16.89,16.89,0,0,0-3.76-.2,2.73,2.73,0,0,1-2.67-3.62,37.55,37.55,0,0,1,3.4-6.85c0-24.69,11.77-46.79,11.77-46.79-1.52-4.26,0-5.46,0-5.46a44.34,44.34,0,0,1,4.55,1.37c40.63-4.94,53.16,5.08,53.16,5.08a32.35,32.35,0,0,1,6.46-3.18c2.65-.76,3,6.42,3,6.42s-4.94,35.64-16,50.11c0,0,.76.51,0,3.12s-4.55,0-4.55,0S360,183.6,339.47,178.67Z"/></clipPath><clipPath id="clip-path-3"><path class="cls-1" d="M281,253.09,285.81,277,336,261.34c-.87-3.2-3.87-5.41-7.09-6.16s-6.59-.34-9.89,0-6.71.46-9.82-.7A12.15,12.15,0,0,1,302,246.9"/></clipPath><clipPath id="clip-path-4"><path class="cls-1" d="M226.49,279.55l-4.3,24,52.41,3.93c.37-3.3-1.6-6.46-4.32-8.34s-6-2.75-9.17-3.69-6.42-2-8.87-4.27a12.13,12.13,0,0,1-3.89-9.66"/></clipPath></defs><g class="cls-2"><g id="Layer_2" data-name="Layer 2"><g id="Layer_1-2" data-name="Layer 1"><polygon class="cls-3" points="112.63 307.77 468.14 307.77 521.42 380.24 71.65 380.24 112.63 307.77"/><path class="cls-4" d="M498.47,373.74H87.35l34.28-61.33H455.49ZM90.35,371.88h404.7l-40.37-57.61H122.55Z"/><polygon class="cls-4" points="297.7 357.75 250.48 345.79 297.7 333.83 344.92 345.79 297.7 357.75"/><polygon class="cls-4" points="229.77 349.77 214.03 345.79 229.77 341.8 245.51 345.79 229.77 349.77"/><polygon class="cls-4" points="194.98 349.77 179.24 345.79 194.98 341.8 210.72 345.79 194.98 349.77"/><polygon class="cls-4" points="160.19 349.77 144.45 345.79 160.19 341.8 175.93 345.79 160.19 349.77"/><polygon class="cls-4" points="431.89 349.77 416.15 345.79 431.89 341.8 447.63 345.79 431.89 349.77"/><polygon class="cls-4" points="397.1 349.77 381.36 345.79 397.1 341.8 412.84 345.79 397.1 349.77"/><polygon class="cls-4" points="362.31 349.77 346.57 345.79 362.31 341.8 378.05 345.79 362.31 349.77"/><path class="cls-5" d="M459.68,74s-4.71,5.6-8.61,2.88S447.79,68,447.79,68s-10.57-15.29-37.48-5.24-26.41,45-26.41,45,6.27,1.15,7.66,9.67-4.17,11.78-4.17,11.78c5.49,14,15.95,18.8,15.95,18.8a12.22,12.22,0,0,1,7.38-1.72c4.41.33,4.61,6.07,4.61,6.07,19,.79,21.28-11.13,21.28-11.13s12.3,7.24,23.85,1.48,9.44-31,9.44-31-4.65.69-5.12-3.51,5.41-5,5.41-5C471.1,86.34,459.68,74,459.68,74Zm-42.84,63.12c-.53,2.43-4.38,3.65-8.6,2.74s-7.21-3.64-6.68-6.07,4.38-3.65,8.6-2.73S417.37,134.66,416.84,137.09Zm-16.6-21.83c-.41-2.5,1.74-4.94,4.79-5.44s5.87,1.13,6.28,3.64-1.74,5-4.8,5.44S400.65,117.77,400.24,115.26Zm8.61-22.35c-3.14,2.09-7.92.43-10.66-3.71s-2.42-9.18.73-11.27,7.92-.42,10.67,3.71S412,90.83,408.85,92.91Zm31.29-1.15c2.43-4.44,6.54-6.86,9.18-5.41s2.8,6.21.37,10.65-6.55,6.86-9.19,5.41S437.7,96.2,440.14,91.76ZM456.74,131c-4.93.8-9.44-1.68-10.07-5.54s2.86-7.65,7.8-8.45,9.44,1.68,10.06,5.54S461.67,130.17,456.74,131Z"/><path class="cls-6" d="M463.66,126.65a9.85,9.85,0,0,1-6.92,4.32c-4.39.72-8.45-1.18-9.72-4.33-13-1.42-25.08-5.94-35.76-11.72a5.61,5.61,0,0,1-4.75,4c-3.05.5-5.86-1.13-6.27-3.64a4.79,4.79,0,0,1,3.15-5,157.59,157.59,0,0,1-18.34-13.67,60.55,60.55,0,0,0-1.15,11.06s6.27,1.15,7.66,9.67-4.17,11.78-4.17,11.78c5.49,14,15.95,18.8,15.95,18.8a12.22,12.22,0,0,1,7.38-1.72c4.41.33,4.61,6.07,4.61,6.07,19,.79,21.28-11.13,21.28-11.13s12.3,7.24,23.85,1.48c5.55-2.77,8-10.05,8.94-16.86Q466.51,126.33,463.66,126.65Zm-46.82,10.44c-.53,2.43-4.38,3.65-8.6,2.74s-7.21-3.64-6.68-6.07,4.38-3.65,8.6-2.73S417.37,134.66,416.84,137.09Z"/><path class="cls-7" d="M410,66.05q3,8.69,6.07,17.4L429,120.26q5.76,16.56,11.54,33.11c1,2.87,2,5.75,3,8.62.16.47.87.14.7-.33l-6.06-17.4L425.3,107.45q-5.78-16.56-11.54-33.11-1.51-4.32-3-8.62c-.16-.47-.87-.14-.71.33Z"/><path class="cls-7" d="M418.81,89.33q7.44-12.49,14.89-25l.18-.31c.26-.43-.37-.89-.63-.46q-7.44,12.51-14.89,25l-.18.31c-.26.43.37.89.63.46Z"/><path class="cls-7" d="M385.38,99.13l29.24,8.79L426,111.33c.48.14.76-.58.28-.73L397,101.82l-11.36-3.41c-.48-.14-.76.58-.28.72Z"/><path class="cls-7" d="M432.33,128.36l22.58-19.81,11.26-9.87c.38-.33-.12-.94-.5-.6l-22.58,19.81-11.26,9.87c-.38.33.12.93.5.6Z"/><path class="cls-7" d="M393.7,125.57l30,6.45,10.35,2.22c.49.11.56-.67.08-.77l-30-6.45-10.34-2.23c-.49-.1-.57.67-.08.78Z"/><path class="cls-5" d="M545.72,102.76s-7.67,2.52-8.73-2.71,3.87-10.92,3.87-10.92,2.88-22-25.17-29.38S462.8,87.36,462.8,87.36s4,5.19-1.07,14.56-11.73,9-11.73,9c-5.87,17.45-1.26,29-1.26,29a10.21,10.21,0,0,1,6.95,3c3.17,3.18-.83,9-.83,9,14.13,13.06,24.48,2.68,24.48,2.68s4.28,15.13,17.37,16.86,29.71-24.75,29.71-24.75-4.08-2.31-1.42-6.78,7.81-1.5,7.81-1.5C545.62,122.41,545.72,102.76,545.72,102.76ZM467,137.83c-2.16,2.07-6,.8-8.62-2.83s-2.95-8.27-.79-10.34,6-.8,8.62,2.84S469.18,135.76,467,137.83Zm2.94-32.4a5.6,5.6,0,1,1,2.22,7.66A5.64,5.64,0,0,1,470,105.43Zm22.81-16.65c-3.94,0-6.43-4.69-5.56-10.57s4.77-10.68,8.71-10.72,6.42,4.69,5.56,10.57S496.71,88.74,492.77,88.78Zm25,19c5.09-2.84,10-2.59,11,.55s-2.32,8-7.41,10.82-10,2.59-11-.55S512.69,110.66,517.77,107.82Zm-15.5,49.67a8.75,8.75,0,1,1,12.13-3.36A8.89,8.89,0,0,1,502.27,157.49Z"/><path class="cls-6" d="M510.74,157.67a9.11,9.11,0,0,1-8.47-.18,9,9,0,0,1-4.38-10.58c-9-9.78-15.09-22.08-19.17-34.71a5.6,5.6,0,0,1-8.76-6.77,5.67,5.67,0,0,1,6-2.89,182.18,182.18,0,0,1-4.3-25.41,89.49,89.49,0,0,0-8.88,10.23s4,5.19-1.07,14.56-11.73,9-11.73,9c-5.87,17.45-1.26,29-1.26,29a10.21,10.21,0,0,1,6.95,3c3.17,3.18-.83,9-.83,9,14.13,13.06,24.48,2.68,24.48,2.68s4.28,15.13,17.37,16.86c6.29.82,13.4-4.86,19.09-11Q513.17,159.19,510.74,157.67ZM467,137.83c-2.16,2.07-6,.8-8.62-2.83s-2.95-8.27-.79-10.34,6-.8,8.62,2.84S469.18,135.76,467,137.83Z"/><path class="cls-7" d="M513.1,62.85l-7.89,21.21q-8.32,22.43-16.67,44.85-7.5,20.19-15,40.36l-3.9,10.5c-.21.57.57.7.78.13q3.94-10.6,7.88-21.21L495,113.84l15-40.35q2-5.25,3.91-10.51c.21-.57-.57-.7-.78-.13Z"/><path class="cls-7" d="M503.05,91.64l29.57-15.23.36-.19c.51-.26.35-1.12-.16-.86Q518,83,503.26,90.59l-.37.19c-.51.26-.35,1.12.16.86Z"/><path class="cls-7" d="M470.14,79.82l16.24,27.59q3.17,5.36,6.31,10.72c.27.45,1-.09.75-.54q-8.13-13.8-16.25-27.6l-6.32-10.71c-.26-.45-1,.08-.73.54Z"/><path class="cls-7" d="M485.29,139.15,517.06,134l15.83-2.55c.53-.08.58-1,.05-.91l-31.76,5.11-15.84,2.54c-.53.09-.58,1,0,.92Z"/><path class="cls-7" d="M457.46,111.44,476,137.22l6.39,8.89c.3.42.92-.3.62-.71q-9.25-12.9-18.53-25.79l-6.39-8.88c-.3-.42-.92.3-.62.71Z"/><path class="cls-5" d="M549.86,166.58s-4.14-1.89-2.57-4.46,5.78-3,5.78-3,9.61-8,.84-21.79-32.43-8.84-32.43-8.84-.33,3.69-6,5.61-8.3-.77-8.3-.77c-9.11,5-11.62,11.5-11.62,11.5a5.69,5.69,0,0,1,1.71,3.92c.09,2.52-3.79,3.4-3.79,3.4.84,10.81,9.09,10.49,9.09,10.49s-4,7.89.73,13.62S525,177.38,525,177.38a2.62,2.62,0,0,1,2-3.35c2.82-.83,3.81,2.37,3.81,2.37C542.29,174.67,549.86,166.58,549.86,166.58Zm-46-15.64c-1.68,0-2.79-2-2.47-4.47s1.94-4.55,3.63-4.58,2.8,2,2.48,4.48S505.58,150.91,503.89,150.94Zm13.63-12.27a3.16,3.16,0,1,1-2,4A3.19,3.19,0,0,1,517.52,138.67Zm15.8,1.85c-1.64-1.49-.86-4.4,1.75-6.49s6.06-2.59,7.71-1.1.86,4.4-1.75,6.5S535,142,533.32,140.52Zm3,17.45c3.19.77,5.13,2.76,4.34,4.44s-4,2.41-7.21,1.64-5.13-2.77-4.34-4.45S533.18,157.19,536.37,158Zm-25.43,14.6a4.93,4.93,0,1,1,6.3,3.25A5,5,0,0,1,510.94,172.57Z"/><path class="cls-6" d="M514.37,175.88a5.13,5.13,0,0,1-3.43-3.31,5,5,0,0,1,2.24-6c0-7.5,2.22-14.91,5.37-21.69a3.17,3.17,0,1,1,2.57-5.05,103,103,0,0,1,8-12.15,50.3,50.3,0,0,0-7.59.83s-.33,3.69-6,5.61-8.3-.77-8.3-.77c-9.11,5-11.62,11.5-11.62,11.5a5.69,5.69,0,0,1,1.71,3.92c.09,2.52-3.79,3.4-3.79,3.4.84,10.81,9.09,10.49,9.09,10.49s-4,7.89.73,13.62c2.28,2.75,7.39,3.12,12.09,2.77C515,178,514.65,176.92,514.37,175.88Zm-10.48-24.94c-1.68,0-2.79-2-2.47-4.47s1.94-4.55,3.63-4.58,2.8,2,2.48,4.48S505.58,150.91,503.89,150.94Z"/><path class="cls-7" d="M551.66,137.59l-11.38,5.75L516.2,155.49l-21.65,10.94-5.64,2.84c-.3.16,0,.51.27.36l11.39-5.75,24.07-12.15,21.65-10.94,5.64-2.84c.31-.16,0-.51-.27-.36Z"/><path class="cls-7" d="M536.48,145.64l18,5,.23.06c.31.09.57-.33.26-.41l-18.06-5-.22-.06c-.31-.09-.57.33-.26.41Z"/><path class="cls-7" d="M527.4,128.15q-1.92,8.82-3.85,17.63l-1.5,6.85c-.06.28.45.35.52.06q1.92-8.82,3.85-17.63c.49-2.28,1-4.57,1.49-6.85.06-.29-.45-.35-.51-.06Z"/><path class="cls-7" d="M510.94,158.48,526,168.53q3.76,2.5,7.52,5c.25.16.63-.2.37-.36l-15.08-10.06-7.52-5c-.26-.16-.63.19-.38.36Z"/><path class="cls-7" d="M510.05,136.37q-1.11,8.88-2.21,17.76-.39,3-.76,6.11c0,.29.49.23.52-.05l2.22-17.76c.25-2,.51-4.08.76-6.12,0-.29-.49-.23-.53.06Z"/><path class="cls-5" d="M85.67,103.41s5.76.82,5.3,4.93-5,3.43-5,3.43-2.07,24.76,9.25,30.41,23.38-1.44,23.38-1.44,2.21,11.67,20.85,10.9c0,0,.19-5.63,4.52-5.95a12,12,0,0,1,7.23,1.69s10.25-4.71,15.63-18.42c0,0-5.45-3.2-4.09-11.55s7.51-9.48,7.51-9.48.49-34.2-25.88-44.05S107.62,69,107.62,69s.61,6-3.22,8.68S96,74.89,96,74.89,84.77,87,85.67,103.41Zm58.82,27.39c4.14-.9,7.91.3,8.43,2.68s-2.41,5-6.55,5.94-7.91-.3-8.43-2.68S140.36,131.7,144.49,130.8Zm3.58-11.88c-3-.49-5.1-2.88-4.7-5.34s3.15-4,6.15-3.56,5.09,2.87,4.69,5.33S151.06,119.4,148.07,118.92Zm-3-36.52c2.69-4.05,7.37-5.68,10.46-3.63s3.4,7,.71,11-7.36,5.68-10.45,3.63S142.37,86.46,145.05,82.4Zm-30.29,20.36c-2.59,1.41-6.62-1-9-5.31s-2.23-9,.36-10.44,6.61,1,9,5.3S117.34,101.34,114.76,102.76Zm-23.55,19.7c.61-3.79,5-6.22,9.86-5.43s8.26,4.49,7.64,8.28-5,6.22-9.87,5.43S90.59,126.25,91.21,122.46Z"/><path class="cls-6" d="M86.44,125.66c1,6.68,3.32,13.81,8.76,16.52,11.32,5.65,23.38-1.44,23.38-1.44s2.21,11.67,20.85,10.9c0,0,.19-5.63,4.52-5.95a12,12,0,0,1,7.23,1.69s10.25-4.71,15.63-18.42c0,0-5.45-3.2-4.09-11.55s7.51-9.48,7.51-9.48a59.63,59.63,0,0,0-1.14-10.83,152.11,152.11,0,0,1-18,13.39,4.7,4.7,0,0,1,3.09,4.86c-.4,2.45-3.15,4.05-6.14,3.57a5.51,5.51,0,0,1-4.66-3.91c-10.46,5.66-22.31,10.1-35,11.48-1.25,3.09-5.22,5-9.53,4.25a9.68,9.68,0,0,1-6.78-4.24Q89.27,126.2,86.44,125.66Zm58.05,5.14c4.14-.9,7.91.3,8.43,2.68s-2.41,5-6.55,5.94-7.91-.3-8.43-2.68S140.36,131.7,144.49,130.8Z"/><path class="cls-7" d="M144.6,67.12l-5.94,17-12.58,36.07-11.31,32.45c-1,2.82-2,5.63-3,8.45-.16.46-.85.14-.69-.32q3-8.53,6-17.06l12.57-36.07Q135.32,91.46,141,75.24l2.94-8.44c.16-.47.85-.14.69.32Z"/><path class="cls-7" d="M136,89.93q-7.31-12.24-14.6-24.5c0-.1-.12-.2-.18-.3-.24-.42.37-.87.62-.45l14.59,24.5.18.31c.25.42-.36.86-.61.44Z"/><path class="cls-7" d="M168.77,99.54l-28.65,8.61L129,111.49c-.47.14-.74-.57-.27-.71l28.65-8.6,11.13-3.35c.47-.14.74.57.27.71Z"/><path class="cls-7" d="M122.77,128.18l-22.13-19.41-11-9.68c-.36-.32.12-.91.49-.58l22.13,19.41,11,9.68c.36.32-.12.91-.49.58Z"/><path class="cls-7" d="M160.63,125.44l-29.42,6.33L121.08,134c-.49.1-.56-.66-.09-.76l29.42-6.32,10.13-2.18c.49-.11.56.65.09.75Z"/><path class="cls-5" d="M24.3,138.09s5-2.91,7.65,1.47-1.39,6.65-1.39,6.65,16.28,25.94,29.11,24.24,17-16.51,17-16.51,10.15,10.17,24-2.63c0,0-3.92-5.71-.82-8.83a10,10,0,0,1,6.82-3s4.51-11.3-1.23-28.4c0,0-6.52.34-11.51-8.83s-1-14.26-1-14.26S68.57,53.71,41.08,60.94s-24.67,28.8-24.67,28.8,4.82,5.58,3.79,10.7-8.56,2.65-8.56,2.65S11.75,122.35,24.3,138.09Zm65.24-10.76c2.55-3.56,6.33-4.8,8.45-2.77s1.77,6.56-.77,10.13-6.33,4.8-8.45,2.77S87,130.9,89.54,127.33Zm-5.83-14.11a5.56,5.56,0,1,1,2.18-7.51A5.53,5.53,0,0,1,83.71,113.22ZM55,78.89c-.86-5.76,1.58-10.4,5.44-10.36S68.13,73.28,69,79s-1.59,10.4-5.45,10.35S55.86,84.65,55,78.89ZM46.3,118.66c-1,3.08-5.8,3.32-10.79.53s-8.24-7.52-7.26-10.6,5.8-3.32,10.79-.54S47.27,115.58,46.3,118.66Zm-4,34.78a8.87,8.87,0,1,1,11.88,3.29A8.73,8.73,0,0,1,42.34,153.44Z"/><path class="cls-6" d="M41,159.69c5.57,6,12.54,11.58,18.7,10.76,12.83-1.69,17-16.51,17-16.51s10.15,10.17,24-2.63c0,0-3.92-5.71-.82-8.83a10,10,0,0,1,6.82-3s4.51-11.3-1.23-28.4c0,0-6.52.34-11.51-8.83s-1-14.26-1-14.26A87.05,87.05,0,0,0,84.2,78,178.77,178.77,0,0,1,80,102.88a5.57,5.57,0,0,1,3.72,10.34,5.5,5.5,0,0,1-6.41-.87c-4,12.37-10,24.43-18.78,34a8.78,8.78,0,0,1-4.3,10.37,8.91,8.91,0,0,1-8.3.17C44.34,157.9,42.68,158.83,41,159.69Zm48.57-32.36c2.55-3.56,6.33-4.8,8.45-2.77s1.77,6.56-.77,10.13-6.33,4.8-8.45,2.77S87,130.9,89.54,127.33Z"/><path class="cls-7" d="M43.61,64q3.87,10.38,7.73,20.78,8.17,22,16.34,44Q75,148.5,82.39,168.27l3.82,10.29c.21.56-.55.69-.76.13q-3.87-10.4-7.73-20.78-8.18-22-16.34-44L46.68,74.41q-1.92-5.14-3.83-10.29c-.21-.57.56-.69.76-.13Z"/><path class="cls-7" d="M53.46,92.2l-29-14.93-.36-.18c-.5-.26-.35-1.1.16-.84l29,14.92.36.19c.49.25.34,1.1-.16.84Z"/><path class="cls-7" d="M85.72,80.61l-15.93,27-6.18,10.5c-.26.44-1-.08-.72-.53l15.92-27L85,80.08c.26-.44,1,.09.73.53Z"/><path class="cls-7" d="M70.87,138.75l-31.13-5-15.52-2.5c-.52-.08-.57-1,0-.9l31.13,5,15.52,2.5c.51.08.57,1,.05.89Z"/><path class="cls-7" d="M98.14,111.6Q89.05,124.23,80,136.87l-6.26,8.7c-.3.42-.91-.29-.61-.69q9.08-12.65,18.16-25.27l6.26-8.71c.29-.41.9.3.61.7Z"/><path class="cls-5" d="M26.22,175.26s1-3.13,3.73-2.32a2.56,2.56,0,0,1,2,3.28s16.67,4.48,21.32-1.13.71-13.35.71-13.35,8.09.32,8.91-10.27c0,0-3.8-.86-3.71-3.34a5.61,5.61,0,0,1,1.67-3.84s-2.46-6.4-11.38-11.27c0,0-2.57,2.64-8.14.76s-5.9-5.5-5.9-5.5-23.19-4.86-31.78,8.66.83,21.36.83,21.36,4.12.46,5.66,3-2.52,4.37-2.52,4.37S15,173.56,26.22,175.26Zm22.85-29.43c-.31-2.45.78-4.41,2.43-4.39s3.25,2,3.56,4.49-.77,4.41-2.43,4.38S49.39,148.28,49.07,145.83Zm-7.81-3.61a3.13,3.13,0,1,1-2-3.93A3.11,3.11,0,0,1,41.26,142.22Zm-25-3.19c-2.56-2.06-3.33-4.91-1.72-6.37s5-1,7.55,1.07,3.33,4.91,1.71,6.37S18.8,141.08,16.25,139ZM27.88,158.8c.77,1.65-1.13,3.59-4.26,4.35s-6.29,0-7.06-1.6,1.13-3.59,4.25-4.35S27.1,157.16,27.88,158.8Zm11.68,15.89a5,5,0,1,1,6.17-3.19A4.91,4.91,0,0,1,39.56,174.69Z"/><path class="cls-6" d="M41.39,177.8c4.6.35,9.61,0,11.85-2.71,4.65-5.61.71-13.35.71-13.35s8.09.32,8.91-10.27c0,0-3.8-.86-3.71-3.34a5.61,5.61,0,0,1,1.67-3.84s-2.46-6.4-11.38-11.27c0,0-2.57,2.64-8.14.76s-5.9-5.5-5.9-5.5a48.64,48.64,0,0,0-7.44-.81,100.64,100.64,0,0,1,7.8,11.91,3.13,3.13,0,1,1,2.51,4.94c3.09,6.65,5.25,13.91,5.27,21.25a5,5,0,0,1,2.19,5.93,5,5,0,0,1-3.36,3.25C42.09,175.77,41.77,176.79,41.39,177.8Zm7.68-32c-.31-2.45.78-4.41,2.43-4.39s3.25,2,3.56,4.49-.77,4.41-2.43,4.38S49.39,148.28,49.07,145.83Z"/><path class="cls-7" d="M5.83,137.23,17,142.86l23.59,11.91,21.22,10.72,5.52,2.79c.31.15,0,.49-.26.34L55.9,163,32.31,151.08,11.08,140.37l-5.52-2.79c-.3-.16,0-.5.27-.35Z"/><path class="cls-7" d="M20.7,145.12,3,150.05l-.22.06c-.3.08-.56-.32-.26-.41l17.7-4.93.22-.06c.3-.08.56.33.25.41Z"/><path class="cls-7" d="M29.6,128q1.89,8.64,3.77,17.27L34.84,152c.06.28-.44.34-.5.06l-3.78-17.27q-.72-3.36-1.46-6.71c-.06-.28.44-.35.5-.06Z"/><path class="cls-7" d="M45.73,157.7l-14.79,9.85-7.37,4.91c-.25.17-.61-.18-.36-.35L38,162.26l7.37-4.91c.25-.16.61.19.37.35Z"/><path class="cls-7" d="M46.6,136q1.09,8.7,2.17,17.4l.75,6c0,.28-.49.22-.52-.06q-1.09-8.7-2.17-17.4l-.75-6c0-.29.49-.23.52.05Z"/><path class="cls-8" d="M98.61,270.89c0,1.93-2.41,3.49-5.39,3.49h0c-3,0-5.38-1.56-5.38-3.49V243.38c0-1.93,2.41-3.49,5.38-3.49h0c3,0,5.39,1.56,5.39,3.49Z"/><path class="cls-8" d="M476,270.89c0,1.93-2.41,3.49-5.38,3.49h0c-3,0-5.38-1.56-5.38-3.49V243.38c0-1.93,2.41-3.49,5.38-3.49h0c3,0,5.38,1.56,5.38,3.49Z"/><rect class="cls-9" x="83.91" y="216.98" width="398.85" height="40.15"/><polygon class="cls-10" points="97.7 144.32 99.05 177.92 84.04 187.63 82.74 157.69 97.7 144.32"/><path class="cls-10" d="M97.23,145.81c.53,17,1.36,32.09,1.36,32.09h23.27C109.72,171.13,100.38,160.56,97.23,145.81Z"/><path class="cls-9" d="M280.77,100.88c-3.5-3.91-178.13-5.77-182.18-1-2.2,2.59-2,25.6-1.36,46,3.15,14.75,12.49,25.32,24.63,32.09H282.92S284.27,104.78,280.77,100.88Z"/><path class="cls-11" d="M135,134.09c2.94-3.45,96.1-3.4,148-1.62-.21-15.75-.82-29.94-2.31-31.59-3.5-3.91-178.13-5.77-182.18-1-2.2,2.59-2,25.6-1.36,46,3.15,14.75,12.49,25.32,24.63,32.09H133.6C133,158.1,132.9,136.58,135,134.09Z"/><polygon class="cls-12" points="73.6 144.78 97.2 144.78 82.96 157.69 51.97 157.69 73.6 144.78"/><rect class="cls-13" x="81.89" y="210.42" width="200.51" height="7.9"/><path class="cls-14" d="M282.92,177.9h-182c-7.16,0-12.54,3.21-15.78,8.09H282.39Z"/><path class="cls-9" d="M52,157.69c-3.49,2.86-3.48,7.93-3.48,15.94v79.62a19.71,19.71,0,0,0,.38,3.88H83.67a20.51,20.51,0,0,0,.37-3.88V173.63c-.08-8.94-.53-13-1.09-15.94Z"/><path class="cls-15" d="M60.16,242.05a19.79,19.79,0,0,1-.38-3.88V157.69H52c-3.49,2.86-3.48,7.93-3.48,15.94v79.62a19.71,19.71,0,0,0,.38,3.88H83.67a20.51,20.51,0,0,0,.37-3.88v-11.2Z"/><polygon class="cls-10" points="466.54 144.32 465.19 177.92 480.19 187.63 481.5 157.69 466.54 144.32"/><path class="cls-10" d="M467,145.81c-.53,17-1.37,32.09-1.37,32.09H442.38C454.52,171.13,463.86,160.56,467,145.81Z"/><path class="cls-9" d="M282.48,100.73c3.51-3.9,179.21-5.59,183.25-.85,2.21,2.59,2,25.59,1.37,46-3.15,14.75-12.49,25.32-24.63,32.1H281.94S279,104.63,282.48,100.73Z"/><path class="cls-11" d="M306.51,129.21c2.77-3.07,112.74-4.78,161-3,.11-13.37-.28-24.54-1.78-26.3-4-4.74-179.74-3-183.25.85s-.54,77.21-.54,77.21h23.15C304.62,156.88,304.49,131.47,306.51,129.21Z"/><polygon class="cls-12" points="490.64 144.78 467.04 144.78 481.27 157.69 512.26 157.69 490.64 144.78"/><path class="cls-10" d="M84.89,181.09s-7.14,9.86-6,18.33c1.09,7.87,3.68,13.45,7.67,15.09Z"/><rect class="cls-10" x="281.84" y="210.42" width="200.51" height="7.9"/><path class="cls-9" d="M512.29,157.69c3.48,2.86,3.48,7.93,3.48,15.94v79.62a20.5,20.5,0,0,1-.38,3.88H480.57a20.5,20.5,0,0,1-.38-3.88V173.63c.09-8.94.53-13,1.1-15.94Z"/><path class="cls-16" d="M512.29,157.69h-5.41c.05,1.58.05,3.3.05,5.19V242.5a19.79,19.79,0,0,1-.38,3.88H480.19v6.87a20.5,20.5,0,0,0,.38,3.88h34.82a20.5,20.5,0,0,0,.38-3.88V173.63C515.77,165.62,515.77,160.55,512.29,157.69Z"/><path class="cls-10" d="M479.74,182c3.89,5.74,6.46,12.6,5.75,17.74-1.08,7.87-3.46,13.18-7.45,14.82Z"/><path class="cls-9" d="M479.32,186a19.45,19.45,0,0,1,3.23,10.78c0,20.84-4.85,19-17.94,18.86H296.76c-14.71,0-15.79-.53-15.79-19.58,0-4,.31-8.57,1.08-10.06Z"/><path class="cls-9" d="M85.12,186a19.45,19.45,0,0,0-3.23,10.78c0,20.84,4.85,19,17.94,18.86H267.68c14.71,0,15.79-.53,15.79-19.58,0-4-.31-8.57-1.08-10.06Z"/><path class="cls-14" d="M282.92,177.9H464.41A17.69,17.69,0,0,1,479.12,186H281.84Z"/><path class="cls-10" d="M281.67,102.87s-2.51,28.66-2.23,36.22,1.33,35.72,2.4,38.81h2s2.57-29.37,1.86-39.84c-.49-7.22-4.07-35.19-4.07-35.19Z"/><polygon class="cls-13" points="282.77 212.8 282.18 213.25 281.6 212.77 281.6 185.99 282.77 185.99 282.77 212.8"/><path class="cls-14" d="M262.35,102.07c0,.44-27.4.8-61.2.8s-61.19-.36-61.19-.8,27.4-.79,61.19-.79S262.35,101.64,262.35,102.07Z"/><path class="cls-14" d="M441.67,102.07c0,.44-27.39.8-61.19.8s-61.19-.36-61.19-.8,27.4-.79,61.19-.79S441.67,101.64,441.67,102.07Z"/><path class="cls-17" d="M482.75,247c-11.81,1.65-28.83,1-49.06-8.54C394.09,219.77,349,227.89,281,241.69s-63.93,1.86-136.25-3.24c-29.4-2.07-48.5,2.3-60.81,8.21v10.47H482.75Z"/><rect class="cls-13" x="84.12" y="217.79" width="1.54" height="39.34"/><rect class="cls-13" x="478.65" y="217.79" width="1.48" height="39.34"/><path class="cls-18" d="M228,181.22a18.79,18.79,0,0,1,4-.22,2.9,2.9,0,0,0,2.83-3.84,40.34,40.34,0,0,0-3.6-7.26c0-26.17-12.48-49.61-12.48-49.61,1.61-4.51,0-5.79,0-5.79a47.47,47.47,0,0,0-4.83,1.46c-43.08-5.24-56.36,5.38-56.36,5.38a34,34,0,0,0-6.85-3.37c-2.82-.81-3.22,6.8-3.22,6.8s5.24,37.79,16.91,53.14c0,0-.81.53,0,3.31s4.83,0,4.83,0S206.23,186.45,228,181.22Z"/><path class="cls-19" d="M231.46,170.32a10.87,10.87,0,0,0-2,.21c-21.73,5.23-58.77,0-58.77,0s-4,2.78-4.83,0,0-3.31,0-3.31c-9.36-12.3-14.58-39-16.28-49.12-1.87,1.09-2.17,6.67-2.17,6.67s5.24,37.79,16.91,53.14c0,0-.81.53,0,3.31s4.83,0,4.83,0,37,5.23,58.78,0a18.79,18.79,0,0,1,4-.22,2.9,2.9,0,0,0,2.83-3.84A41.54,41.54,0,0,0,231.46,170.32Z"/><g class="cls-20"><g class="cls-21"><path class="cls-22" d="M189,147.28l-.53-.39c-3.89-2.17-3-7.91-6.91-10.07-2.83-1.53-6.06-2.4-9-4.24-7.3-4.54-14-9.26-22.63-11.23-15-3.39-2.56,16.94.11,21.83s3.69,9.21,8.74,12.31c3.58,2.26,9.29,3.27,13.61,3.89,4.89.71,12.8,3.44,17.36,1C195.24,157.53,196.37,152,189,147.28Z"/><path class="cls-23" d="M196,158.49c-20.75-3.67-51.32-34.9-51.63-35.22l.25-.25c.32.33,32.22,32.91,52.84,35.34l-.05.34Q196.75,158.63,196,158.49Z"/><path class="cls-18" d="M252.27,144.9c-7.69-3.15-19.6-2.75-26.38,1.07a61.46,61.46,0,0,1-11.2,4.48c-4.89,1.29-5.89,2.91-9.41,6.59l-.54,1c-9.6,7.63,11.62,11.38,15.73,12.47,9.28,2.36,20.45,6.13,29.58-.87C256.72,164.35,262.63,149.24,252.27,144.9Z"/><path class="cls-18" d="M194.08,121c-2-3.21-6.1-6.1-8.92-8.4-4-3.93-18.58-18.72-18-5.7.28,6.51,24.46,34.12,29.36,26.73l.23-.32C196.5,128.58,196.59,125,194.08,121Z"/><path class="cls-18" d="M207.76,134.87c.86-11,11.88-14.4,20.62-17.16,4.2-1.41,20.19-8.63,17.93,2.1-.86,4.87-8,6.83-11.65,9.06-4,2.51-6.8,6-10.48,8.55-5.68,3.66-12.88,3.82-16.48-2.2"/><path class="cls-18" d="M203.62,113.69l-.29-.41c-1.49-1.7-20.72-24.84-20.93-15.55-.21,3.2,8.61,10.14,10.74,12.31,3.33,3.46,5.59,4.94,9.76,5.67C203.37,115.08,204.06,115.74,203.62,113.69Z"/><path class="cls-22" d="M222.51,106.27c-5.17.88-9.93,5.42-13.74,8.69l0,.18c-1.23,4.44,15.26-1.07,17.9-3.83C229.47,107.5,228,105.45,222.51,106.27Z"/><path class="cls-18" d="M220.54,83c-4.61-4.41-15.84,4.37-18.61,7.82-3.71,4.73-1.21,10.91,2.63,15.54l.15.21c4.29,3.09,8.16-.54,11.58-5.67C218.71,97.34,224.16,86.82,220.54,83Z"/><path class="cls-18" d="M185.15,165.32l-.35-.07a54.14,54.14,0,0,0-21.34,3c-8,2.54-12.1,7.55-1.79,10.09a25.58,25.58,0,0,0,20.84-4.21C185.37,172.17,191.35,166.77,185.15,165.32Z"/><path class="cls-18" d="M220.88,182.4c-.94-4.83-20.75-16.59-22-11.78,1.8,6.06,7.28,9.54,12.19,12.21C214.34,184.84,222.55,189.16,220.88,182.4Z"/><path class="cls-23" d="M201.77,138c-4.29-2.15-13.23-9.62-31.49-33-.5-.66-.84-1.09-.9-1.15l.25-.25c.07.08.34.42.93,1.19,18.21,23.36,27.11,30.81,31.37,32.94Z"/><path class="cls-23" d="M203.16,136.28a2.15,2.15,0,0,1-.69-.2l.16-.31s3.67,1.74,12.85-4.68c.2-.13,20-12.68,28.51-13.66l0,.35c-8.47,1-28.16,13.48-28.35,13.6C208.44,136.44,204.61,136.54,203.16,136.28Z"/><path class="cls-23" d="M205.17,118.39c-2.65-4-20.84-20.75-21-20.91l.24-.26c.75.69,18.41,16.94,21.08,21Z"/><path class="cls-23" d="M205.2,118.34l-.3-.17c.19-.35,4.27-2.86,8.35-5s9.44-4.78,12.68-5.16l0,.35C220,109,205.58,117.88,205.2,118.34Z"/><path class="cls-23" d="M187.13,186.54l-.31-.17c4.17-7.58,9.35-24.69,9.41-24.86,4.82-14.21,8.57-42.29,8.61-42.57,1.41-20,7.29-30.25,7.36-30.35l.3.18c-.06.1-5.91,10.28-7.31,30.2,0,.3-3.79,28.42-8.62,42.66C196.52,161.79,191.32,178.92,187.13,186.54Z"/><path class="cls-23" d="M197.08,159.89l0-.35c.41,0,41.78,2.59,56.13-7.6l.21.29C239,162.48,197.49,159.92,197.08,159.89Z"/><path class="cls-23" d="M158.08,173.61l0-.35c.12,0,12.6-1,19.47-3.88.54-.18,12.88-4.21,17.29-2.71l-.12.33c-4.29-1.46-16.92,2.66-17.05,2.7C170.74,172.57,158.2,173.61,158.08,173.61Z"/><path class="cls-23" d="M218.77,183.61c-.14-.14-13.11-13.58-24.5-15.06l0-.35c11.5,1.49,24.57,15,24.7,15.17Z"/></g></g><path class="cls-24" d="M171.42,149.07a82,82,0,0,0-9-20.68,47.58,47.58,0,0,0-5.05-6.93l.25-.24c.09.09,8.92,9.53,14.12,27.76Z"/><path class="cls-25" d="M339.47,178.67a16.89,16.89,0,0,0-3.76-.2,2.73,2.73,0,0,1-2.67-3.62,37.55,37.55,0,0,1,3.4-6.85c0-24.69,11.77-46.79,11.77-46.79-1.52-4.26,0-5.46,0-5.46a44.34,44.34,0,0,1,4.55,1.37c40.63-4.94,53.16,5.08,53.16,5.08a32.35,32.35,0,0,1,6.46-3.18c2.65-.76,3,6.42,3,6.42s-4.94,35.64-16,50.11c0,0,.76.51,0,3.12s-4.55,0-4.55,0S360,183.6,339.47,178.67Z"/><g class="cls-26"><g class="cls-27"><path class="cls-28" d="M353.55,132.65a.83.83,0,0,1-.78.87h0a.83.83,0,0,1-.87-.78l-.32-6.5a.82.82,0,0,1,.78-.86h0a.83.83,0,0,1,.87.78Z"/><path class="cls-28" d="M349.36,130.43a.82.82,0,0,1-.86-.78h0a.81.81,0,0,1,.78-.86l6.49-.33a.82.82,0,0,1,.86.78h0a.81.81,0,0,1-.78.86Z"/><path class="cls-28" d="M351,132.41a.81.81,0,0,1-1.16.05h0a.82.82,0,0,1-.06-1.16l4.37-4.82a.83.83,0,0,1,1.16-.06h0a.84.84,0,0,1,.06,1.17Z"/><path class="cls-28" d="M349.6,127.88a.84.84,0,0,1-.06-1.17h0a.83.83,0,0,1,1.17-.06l4.82,4.37a.82.82,0,0,1,.05,1.16h0a.83.83,0,0,1-1.16.06Z"/><path class="cls-29" d="M354,129.3a1.41,1.41,0,1,1-1.48-1.34A1.42,1.42,0,0,1,354,129.3Z"/><path class="cls-30" d="M353.42,129.32a.86.86,0,1,1-1.72.09.86.86,0,1,1,1.72-.09Z"/></g><g class="cls-27"><path class="cls-28" d="M343.47,145.88a.83.83,0,0,1-.78.87h0a.82.82,0,0,1-.86-.78l-.33-6.5a.82.82,0,0,1,.78-.86h0a.83.83,0,0,1,.87.78Z"/><path class="cls-28" d="M339.28,143.66a.81.81,0,0,1-.86-.78h0a.81.81,0,0,1,.78-.86l6.49-.32a.81.81,0,0,1,.86.78h0a.82.82,0,0,1-.77.86Z"/><path class="cls-28" d="M340.91,145.64a.81.81,0,0,1-1.16.06h0a.82.82,0,0,1-.06-1.16l4.37-4.83a.82.82,0,0,1,1.16-.05h0a.82.82,0,0,1,.06,1.16Z"/><path class="cls-28" d="M339.52,141.11a.84.84,0,0,1-.06-1.17h0a.82.82,0,0,1,1.17-.05l4.82,4.36a.82.82,0,0,1,.06,1.16h0a.81.81,0,0,1-1.16.06Z"/><path class="cls-29" d="M343.89,142.53a1.41,1.41,0,1,1-1.48-1.34A1.41,1.41,0,0,1,343.89,142.53Z"/><path class="cls-30" d="M343.34,142.56a.85.85,0,0,1-.82.9.87.87,0,0,1-.08-1.73A.88.88,0,0,1,343.34,142.56Z"/></g><g class="cls-27"><path class="cls-28" d="M341.36,164.41a.82.82,0,0,1-.78.86h0a.83.83,0,0,1-.87-.77l-.32-6.5a.83.83,0,0,1,.78-.87h0a.83.83,0,0,1,.86.79Z"/><path class="cls-28" d="M337.17,162.19a.83.83,0,0,1-.87-.78h0a.83.83,0,0,1,.78-.87l6.5-.32a.82.82,0,0,1,.86.78h0a.82.82,0,0,1-.78.86Z"/><path class="cls-28" d="M338.8,164.17a.82.82,0,0,1-1.16.05h0a.82.82,0,0,1-.06-1.16l4.37-4.82a.82.82,0,0,1,1.16-.06h0a.82.82,0,0,1,.05,1.16Z"/><path class="cls-28" d="M337.41,159.63a.82.82,0,0,1-.06-1.16h0a.81.81,0,0,1,1.16-.06l4.82,4.37a.81.81,0,0,1,.06,1.16h0a.83.83,0,0,1-1.16.06Z"/><path class="cls-29" d="M341.78,161.06a1.41,1.41,0,1,1-1.48-1.34A1.42,1.42,0,0,1,341.78,161.06Z"/><path class="cls-30" d="M341.23,161.08a.87.87,0,0,1-.82.91.87.87,0,1,1,.82-.91Z"/></g><g class="cls-27"><path class="cls-28" d="M344.33,179.52a.83.83,0,0,1-.79.86h0a.82.82,0,0,1-.86-.78l-.32-6.5a.82.82,0,0,1,.78-.86h0a.84.84,0,0,1,.87.78Z"/><path class="cls-28" d="M340.13,177.29a.81.81,0,0,1-.86-.78h0a.82.82,0,0,1,.78-.86l6.5-.32a.81.81,0,0,1,.86.77h0a.82.82,0,0,1-.78.87Z"/><path class="cls-28" d="M341.77,179.27a.81.81,0,0,1-1.16.06h0a.82.82,0,0,1-.06-1.16l4.37-4.83a.82.82,0,0,1,1.15-.05h0a.82.82,0,0,1,.07,1.16Z"/><path class="cls-28" d="M340.38,174.74a.82.82,0,0,1-.06-1.16h0a.82.82,0,0,1,1.17-.06l4.81,4.36a.81.81,0,0,1,.06,1.16h0a.8.8,0,0,1-1.15.06Z"/><path class="cls-29" d="M344.75,176.16a1.41,1.41,0,1,1-1.48-1.34A1.41,1.41,0,0,1,344.75,176.16Z"/><path class="cls-30" d="M344.2,176.19a.86.86,0,1,1-.9-.82A.86.86,0,0,1,344.2,176.19Z"/></g><g class="cls-27"><path class="cls-28" d="M370.77,178.48a.83.83,0,0,1-.78.86h0a.82.82,0,0,1-.86-.78l-.33-6.5a.82.82,0,0,1,.78-.86h0a.83.83,0,0,1,.87.78Z"/><path class="cls-28" d="M366.58,176.25a.82.82,0,0,1-.86-.78h0a.81.81,0,0,1,.78-.86l6.49-.33a.82.82,0,0,1,.86.78h0a.82.82,0,0,1-.77.87Z"/><path class="cls-28" d="M368.21,178.23a.81.81,0,0,1-1.16.06h0a.82.82,0,0,1-.06-1.16l4.37-4.83a.82.82,0,0,1,1.16-.05h0a.83.83,0,0,1,.06,1.16Z"/><path class="cls-28" d="M366.82,173.7a.84.84,0,0,1-.06-1.17h0a.82.82,0,0,1,1.17-.05l4.82,4.36a.82.82,0,0,1,.06,1.16h0a.81.81,0,0,1-1.16.06Z"/><path class="cls-29" d="M371.19,175.12a1.41,1.41,0,1,1-1.48-1.34A1.41,1.41,0,0,1,371.19,175.12Z"/><path class="cls-30" d="M370.64,175.15a.85.85,0,0,1-.82.9.86.86,0,0,1-.08-1.72A.85.85,0,0,1,370.64,175.15Z"/></g><g class="cls-27"><path class="cls-28" d="M365.5,162.92a.83.83,0,0,1-.79.86h0a.82.82,0,0,1-.86-.78l-.32-6.49a.83.83,0,0,1,.78-.87h0a.83.83,0,0,1,.86.79Z"/><path class="cls-28" d="M361.3,160.7a.82.82,0,0,1-.86-.78h0a.83.83,0,0,1,.78-.87l6.5-.32a.82.82,0,0,1,.86.78h0a.81.81,0,0,1-.78.86Z"/><path class="cls-28" d="M362.94,162.68a.81.81,0,0,1-1.16,0h0a.81.81,0,0,1-.06-1.16l4.37-4.82a.82.82,0,0,1,1.15-.06h0a.81.81,0,0,1,.06,1.16Z"/><path class="cls-28" d="M361.55,158.14a.82.82,0,0,1-.06-1.16h0a.82.82,0,0,1,1.16-.06l4.82,4.37a.81.81,0,0,1,.06,1.16h0a.83.83,0,0,1-1.16.06Z"/><path class="cls-29" d="M365.92,159.57a1.41,1.41,0,1,1-2.82.13,1.4,1.4,0,0,1,1.34-1.47A1.42,1.42,0,0,1,365.92,159.57Z"/><path class="cls-30" d="M365.37,159.59a.86.86,0,0,1-.82.9.85.85,0,0,1-.9-.81.86.86,0,0,1,.82-.91A.87.87,0,0,1,365.37,159.59Z"/></g><g class="cls-27"><path class="cls-28" d="M393.94,180.5a.84.84,0,0,1-.78.87h0a.84.84,0,0,1-.87-.79l-.32-6.49a.83.83,0,0,1,.78-.87h0a.82.82,0,0,1,.86.79Z"/><path class="cls-28" d="M389.75,178.28a.82.82,0,0,1-.86-.78h0a.82.82,0,0,1,.78-.87l6.49-.32a.82.82,0,0,1,.86.78h0a.83.83,0,0,1-.77.87Z"/><path class="cls-28" d="M391.38,180.26a.82.82,0,0,1-1.16.05h0a.82.82,0,0,1-.06-1.16l4.37-4.82a.82.82,0,0,1,1.16-.06h0a.84.84,0,0,1,.06,1.17Z"/><path class="cls-28" d="M390,175.72a.82.82,0,0,1-.06-1.16h0a.81.81,0,0,1,1.16-.06l4.82,4.36A.83.83,0,0,1,396,180h0a.83.83,0,0,1-1.16.06Z"/><path class="cls-29" d="M394.36,177.15a1.41,1.41,0,1,1-1.48-1.34A1.42,1.42,0,0,1,394.36,177.15Z"/><path class="cls-30" d="M393.81,177.17a.86.86,0,0,1-1.72.09.88.88,0,0,1,.82-.91A.87.87,0,0,1,393.81,177.17Z"/></g><g class="cls-27"><path class="cls-28" d="M407.8,167.83a.82.82,0,0,1-.78.86h0a.83.83,0,0,1-.87-.77l-.32-6.5a.83.83,0,0,1,.78-.87h0a.83.83,0,0,1,.87.78Z"/><path class="cls-28" d="M403.61,165.61a.82.82,0,0,1-.86-.78h0a.82.82,0,0,1,.77-.87l6.5-.32a.82.82,0,0,1,.86.78h0a.82.82,0,0,1-.78.86Z"/><path class="cls-28" d="M405.24,167.59a.82.82,0,0,1-1.16,0h0a.82.82,0,0,1-.06-1.16l4.37-4.82a.82.82,0,0,1,1.16-.06h0a.83.83,0,0,1,.06,1.16Z"/><path class="cls-28" d="M403.85,163.05a.82.82,0,0,1-.06-1.16h0a.82.82,0,0,1,1.17-.06l4.82,4.36a.82.82,0,0,1,.05,1.17h0a.83.83,0,0,1-1.16.06Z"/><path class="cls-29" d="M408.22,164.47a1.41,1.41,0,1,1-1.48-1.34A1.41,1.41,0,0,1,408.22,164.47Z"/><path class="cls-30" d="M407.67,164.5a.86.86,0,0,1-1.72.09.86.86,0,1,1,1.72-.09Z"/></g><g class="cls-27"><path class="cls-28" d="M404.79,144.54a.83.83,0,0,1-.78.87h0a.82.82,0,0,1-.86-.78l-.32-6.5a.8.8,0,0,1,.77-.86h0a.82.82,0,0,1,.87.78Z"/><path class="cls-28" d="M400.6,142.32a.82.82,0,0,1-.86-.78h0a.82.82,0,0,1,.78-.86l6.49-.33a.81.81,0,0,1,.86.78h0a.82.82,0,0,1-.77.87Z"/><path class="cls-28" d="M402.23,144.3a.83.83,0,0,1-1.16.06h0a.83.83,0,0,1-.05-1.17l4.36-4.82a.83.83,0,0,1,1.16-.06h0a.83.83,0,0,1,.06,1.17Z"/><path class="cls-28" d="M400.84,139.76a.83.83,0,0,1-.06-1.16h0a.83.83,0,0,1,1.17-.06l4.82,4.37a.82.82,0,0,1,.06,1.16h0a.82.82,0,0,1-1.16.06Z"/><path class="cls-29" d="M405.21,141.19a1.41,1.41,0,1,1-1.48-1.34A1.41,1.41,0,0,1,405.21,141.19Z"/><path class="cls-30" d="M404.66,141.21a.86.86,0,1,1-1.72.09.88.88,0,0,1,.82-.91A.86.86,0,0,1,404.66,141.21Z"/></g><g class="cls-27"><path class="cls-28" d="M415.66,131.16a.83.83,0,0,1-.78.87h0a.82.82,0,0,1-.86-.78l-.32-6.5a.82.82,0,0,1,.77-.87h0a.83.83,0,0,1,.87.79Z"/><path class="cls-28" d="M411.47,128.94a.82.82,0,0,1-.86-.78h0a.84.84,0,0,1,.78-.87l6.49-.31a.81.81,0,0,1,.87.77h0a.83.83,0,0,1-.78.87Z"/><path class="cls-28" d="M413.11,130.92a.83.83,0,0,1-1.17.06h0a.83.83,0,0,1-.05-1.17l4.36-4.82a.82.82,0,0,1,1.16,0h0a.82.82,0,0,1,.06,1.16Z"/><path class="cls-28" d="M411.71,126.38a.83.83,0,0,1,0-1.16h0a.81.81,0,0,1,1.16,0l4.82,4.36a.81.81,0,0,1,.06,1.16h0a.82.82,0,0,1-1.16.06Z"/><path class="cls-29" d="M416.08,127.81a1.41,1.41,0,1,1-1.47-1.34A1.41,1.41,0,0,1,416.08,127.81Z"/><path class="cls-30" d="M415.54,127.84a.86.86,0,1,1-1.72.08.85.85,0,0,1,.81-.9A.86.86,0,0,1,415.54,127.84Z"/></g><g class="cls-27"><path class="cls-28" d="M400.41,120.46a.83.83,0,0,1-.78.86h0a.82.82,0,0,1-.86-.78l-.33-6.5a.82.82,0,0,1,.78-.86h0a.83.83,0,0,1,.87.78Z"/><path class="cls-28" d="M396.22,118.23a.82.82,0,0,1-.86-.78h0a.81.81,0,0,1,.78-.86l6.49-.32a.82.82,0,0,1,.87.77h0a.83.83,0,0,1-.78.87Z"/><path class="cls-28" d="M397.85,120.21a.81.81,0,0,1-1.16.06h0a.81.81,0,0,1-.05-1.16l4.36-4.83a.82.82,0,0,1,1.16,0h0a.82.82,0,0,1,.06,1.16Z"/><path class="cls-28" d="M396.46,115.68a.84.84,0,0,1-.06-1.17h0a.83.83,0,0,1,1.17-.05l4.82,4.36a.82.82,0,0,1,.06,1.16h0a.81.81,0,0,1-1.16.06Z"/><path class="cls-29" d="M400.83,117.1a1.41,1.41,0,1,1-1.48-1.34A1.41,1.41,0,0,1,400.83,117.1Z"/><path class="cls-30" d="M400.28,117.13a.86.86,0,1,1-1.72.08.87.87,0,0,1,.82-.9A.85.85,0,0,1,400.28,117.13Z"/></g><g class="cls-27"><path class="cls-28" d="M379.81,118.16a.83.83,0,0,1-.78.86h0a.83.83,0,0,1-.87-.78l-.32-6.49a.83.83,0,0,1,.78-.87h0a.83.83,0,0,1,.86.79Z"/><path class="cls-28" d="M375.61,115.94a.82.82,0,0,1-.86-.78h0a.83.83,0,0,1,.78-.87L382,114a.82.82,0,0,1,.86.78h0a.82.82,0,0,1-.78.86Z"/><path class="cls-28" d="M377.25,117.91a.81.81,0,0,1-1.16.06h0a.81.81,0,0,1-.06-1.16L380.4,112a.81.81,0,0,1,1.15-.06h0a.81.81,0,0,1,.06,1.16Z"/><path class="cls-28" d="M375.86,113.38a.82.82,0,0,1-.06-1.16h0a.81.81,0,0,1,1.16-.06l4.82,4.36a.83.83,0,0,1,.06,1.17h0a.83.83,0,0,1-1.16.06Z"/><path class="cls-29" d="M380.23,114.8a1.41,1.41,0,0,1-2.82.14,1.41,1.41,0,0,1,2.82-.14Z"/><path class="cls-30" d="M379.68,114.83a.86.86,0,0,1-.82.9.85.85,0,0,1-.9-.81.86.86,0,1,1,1.72-.09Z"/></g><g class="cls-27"><path class="cls-28" d="M363.13,119.51a.83.83,0,0,1-.78.87h0a.82.82,0,0,1-.86-.78l-.33-6.5a.82.82,0,0,1,.78-.86h0a.82.82,0,0,1,.87.78Z"/><path class="cls-28" d="M358.94,117.29a.81.81,0,0,1-.86-.78h0a.81.81,0,0,1,.78-.86l6.49-.33a.82.82,0,0,1,.86.78h0a.82.82,0,0,1-.77.87Z"/><path class="cls-28" d="M360.57,119.27a.82.82,0,0,1-1.16.06h0a.84.84,0,0,1-.06-1.17l4.37-4.82a.82.82,0,0,1,1.16,0h0a.83.83,0,0,1,.06,1.16Z"/><path class="cls-28" d="M359.18,114.74a.84.84,0,0,1-.06-1.17h0a.82.82,0,0,1,1.17,0l4.82,4.36a.82.82,0,0,1,.06,1.16h0a.82.82,0,0,1-1.16.06Z"/><path class="cls-29" d="M363.55,116.16a1.41,1.41,0,1,1-1.48-1.34A1.42,1.42,0,0,1,363.55,116.16Z"/><path class="cls-30" d="M363,116.18a.86.86,0,0,1-1.72.09.86.86,0,1,1,1.72-.09Z"/></g><g class="cls-27"><path class="cls-28" d="M387.94,133.43a.82.82,0,0,1-.78.87h0a.82.82,0,0,1-.86-.78L386,127a.81.81,0,0,1,.78-.86h0a.82.82,0,0,1,.86.78Z"/><path class="cls-28" d="M383.75,131.22a.83.83,0,0,1-.86-.79h0a.82.82,0,0,1,.78-.86l6.49-.33a.83.83,0,0,1,.87.78h0a.83.83,0,0,1-.78.87Z"/><path class="cls-28" d="M385.39,133.19a.84.84,0,0,1-1.17.06h0a.83.83,0,0,1-.05-1.17l4.36-4.82a.82.82,0,0,1,1.16-.05h0a.81.81,0,0,1,.06,1.16Z"/><path class="cls-28" d="M384,128.66a.83.83,0,0,1-.06-1.17h0a.82.82,0,0,1,1.16-.06l4.82,4.37A.82.82,0,0,1,390,133h0a.82.82,0,0,1-1.16.06Z"/><path class="cls-29" d="M388.36,130.08a1.41,1.41,0,1,1-1.47-1.34A1.41,1.41,0,0,1,388.36,130.08Z"/><path class="cls-30" d="M387.81,130.1a.86.86,0,1,1-1.71.09.87.87,0,0,1,.82-.91A.86.86,0,0,1,387.81,130.1Z"/></g><g class="cls-27"><path class="cls-28" d="M389.35,149.39a.82.82,0,0,1-.78.86h0a.82.82,0,0,1-.86-.78l-.33-6.49a.83.83,0,0,1,.78-.87h0a.83.83,0,0,1,.87.78Z"/><path class="cls-28" d="M385.16,147.17a.82.82,0,0,1-.86-.78h0a.81.81,0,0,1,.78-.87l6.49-.32a.82.82,0,0,1,.87.78h0a.82.82,0,0,1-.78.86Z"/><path class="cls-28" d="M386.79,149.15a.82.82,0,0,1-1.16,0h0a.81.81,0,0,1-.05-1.16l4.36-4.82a.83.83,0,0,1,1.16-.06h0a.83.83,0,0,1,.06,1.17Z"/><path class="cls-28" d="M385.4,144.61a.83.83,0,0,1-.06-1.16h0a.83.83,0,0,1,1.17-.06l4.82,4.36a.82.82,0,0,1,.06,1.16h0a.82.82,0,0,1-1.16.07Z"/><path class="cls-29" d="M389.77,146a1.41,1.41,0,1,1-1.48-1.33A1.41,1.41,0,0,1,389.77,146Z"/><path class="cls-30" d="M389.22,146.06a.85.85,0,0,1-.81.9.86.86,0,0,1-.91-.81.88.88,0,0,1,.82-.91A.86.86,0,0,1,389.22,146.06Z"/></g><g class="cls-27"><path class="cls-28" d="M377.19,145.47a.82.82,0,0,1-.78.86h0a.84.84,0,0,1-.87-.78l-.32-6.49a.83.83,0,0,1,.78-.87h0a.84.84,0,0,1,.87.78Z"/><path class="cls-28" d="M373,143.25a.82.82,0,0,1-.86-.78h0a.82.82,0,0,1,.77-.87l6.5-.32a.82.82,0,0,1,.86.78h0a.8.8,0,0,1-.77.86Z"/><path class="cls-28" d="M374.63,145.22a.81.81,0,0,1-1.16.06h0a.82.82,0,0,1-.06-1.16l4.37-4.82a.82.82,0,0,1,1.16-.06h0a.83.83,0,0,1,.06,1.16Z"/><path class="cls-28" d="M373.24,140.69a.82.82,0,0,1-.06-1.16h0a.83.83,0,0,1,1.17-.06l4.82,4.36a.83.83,0,0,1,.06,1.17h0a.82.82,0,0,1-1.16.05Z"/><path class="cls-29" d="M377.61,142.12a1.41,1.41,0,1,1-1.48-1.35A1.42,1.42,0,0,1,377.61,142.12Z"/><path class="cls-30" d="M377.06,142.14a.85.85,0,0,1-.82.9.86.86,0,0,1-.9-.81.87.87,0,0,1,.82-.91A.86.86,0,0,1,377.06,142.14Z"/></g><g class="cls-27"><path class="cls-28" d="M366.36,145.47a.82.82,0,0,1-.78.86h0a.82.82,0,0,1-.86-.78l-.32-6.49a.82.82,0,0,1,.77-.87h0a.83.83,0,0,1,.87.78Z"/><path class="cls-28" d="M362.17,143.25a.82.82,0,0,1-.86-.78h0a.83.83,0,0,1,.78-.87l6.49-.32a.81.81,0,0,1,.87.78h0a.82.82,0,0,1-.78.86Z"/><path class="cls-28" d="M363.81,145.22a.83.83,0,0,1-1.17.06h0a.82.82,0,0,1-.05-1.16l4.36-4.83a.83.83,0,0,1,1.16,0h0a.82.82,0,0,1,.06,1.16Z"/><path class="cls-28" d="M362.42,140.69a.81.81,0,0,1-.06-1.16h0a.81.81,0,0,1,1.16-.06l4.82,4.36a.83.83,0,0,1,.06,1.17h0a.82.82,0,0,1-1.16.05Z"/><path class="cls-29" d="M366.78,142.11a1.4,1.4,0,0,1-1.33,1.48,1.41,1.41,0,1,1-.15-2.82A1.4,1.4,0,0,1,366.78,142.11Z"/><path class="cls-30" d="M366.24,142.14a.86.86,0,0,1-.82.9.86.86,0,1,1,.82-.9Z"/></g></g><path class="cls-31" d="M399.46,175.55c11-14.47,16-50.11,16-50.11s-.38-7.18-3-6.42a27.13,27.13,0,0,0-5.36,2.51c-2.18,11.48-6.89,31.54-14.49,41.53,0,0,.76.51,0,3.12s-4.55,0-4.55,0-30.8,4.35-51.53.8c0,.34,0,.68,0,1a37.55,37.55,0,0,0-3.4,6.85,2.73,2.73,0,0,0,2.67,3.62,16.89,16.89,0,0,1,3.76.2c20.51,4.93,55.44,0,55.44,0s3.8,2.62,4.55,0S399.46,175.55,399.46,175.55Z"/><path class="cls-24" d="M399.75,133.28l-.32-.13a62.66,62.66,0,0,1,6.35-11.06l.28.22A61.52,61.52,0,0,0,399.75,133.28Z"/><path class="cls-32" d="M253.85,88.36a3.07,3.07,0,0,1-3,2.69H232.62a2.39,2.39,0,0,1-2.41-2.69l3.14-30.26a3.08,3.08,0,0,1,3-2.69h18.25A2.38,2.38,0,0,1,257,58.1Z"/><path class="cls-28" d="M246.87,72a3.57,3.57,0,0,1-3.47,3.14A2.78,2.78,0,0,1,240.59,72a3.56,3.56,0,0,1,3.47-3.14A2.78,2.78,0,0,1,246.87,72Z"/><path class="cls-33" d="M250.19,89.66H233.6l.05-.47h16.59A2.52,2.52,0,0,0,252.68,87h.47A3,3,0,0,1,250.19,89.66Z"/><path class="cls-33" d="M234.53,59.48h-.48a3.06,3.06,0,0,1,3-2.68h16.59l-.05.47H237A2.51,2.51,0,0,0,234.53,59.48Z"/><path class="cls-34" d="M241.13,100.69s-.24-7.12,1.19-9.66h5.3s-3.4-8-4.55-10.61-1.7-5.74-.4-4.71,5.47,5.15,5.47,5.15-5-8.91-4.48-10,6.26,6.33,6.26,6.33-5.82-9.06-5.15-10.13S252.46,76,252.46,76s-4.12-7.8-3.61-8.56,7.09,4.48,7.8,9.78a115.62,115.62,0,0,1,.76,17.31c-.28,2.14-.6,6.21-.6,6.21Z"/><path class="cls-35" d="M227.67,134.35l8.91-35H259.5S258,144.6,258,144.7,227.67,134.35,227.67,134.35Z"/><path class="cls-34" d="M228.51,116.52s4.87-1.63,7.21-4.2,4.24-4.71,5.11-4.12,0,2.85,0,2.85,2-2.45,2.65-1.27-1.86,5.55-1.86,5.55L237,119.21s-3.13,1.11-3.29,1.11a6.31,6.31,0,0,1-2.57-.52c-.76-.47-.91-1.62-1.19-1.64S228.51,116.52,228.51,116.52Z"/><path class="cls-36" d="M173.2,73.42a46.35,46.35,0,0,0,4.42-22.59c-.91-12.48,15.23-3.12,15.23-3.12l4,13.59s.71,7.35,3.67,10.33S206.11,88,206.11,88s-8.25,8.3-8.7,8.42-14.32,5.5-16.79,1.59-5-5.61-5-9.64-3.67-9.88-4-10.62S173.2,73.42,173.2,73.42Z"/><polygon class="cls-28" points="201.81 39.64 201.77 39.34 205.36 38.84 205.4 39.13 201.81 39.64"/><path class="cls-32" d="M201.21,42.08a9,9,0,1,1-4.14.45c.22-.09.13-.45-.1-.36a9.4,9.4,0,1,0,4.33-.44c-.23,0-.33.32-.09.35Z"/><path class="cls-32" d="M198.69,68.78a28.51,28.51,0,0,1-1.86-7.48l-1.76-6-17.42-4.48,0,.33,0,.37C178.12,52.83,183.72,67.69,198.69,68.78Z"/><path class="cls-32" d="M167.85,37.69s-3.53,7.3-9.53,4.54-2.19-6.74-2.19-6.74-4.3,1.4-6.46-4.48,3.6-6.9,3.6-6.9-5.73-2.71-3.8-8.92,9-4.4,9.41-.25c0,0-.07-5.77,3.87-6.85s7.55,2,6.94,6.53c0,0,3.08-4.18,5.88-.44a8.36,8.36,0,0,1,1,7.87l1.52,16.46Z"/><path class="cls-36" d="M176.59,22.05a8.65,8.65,0,0,0,.37-4.81,16.24,16.24,0,0,0-12.14,12.52,20,20,0,0,0,.75,11,12.4,12.4,0,0,0,2.28-3.09l10.26.82Z"/><path class="cls-32" d="M170.61,47s-5.54-6-3.53-16S180.2,14.86,189.64,20c0,0,1.37-.13,2-2s4.16-4.83,7.74-2.15,1.91,6.17,1.82,7.44,1.44,2.82,3.32.44,7.12-6.2,8.29-.46c0,0-3.19-1.13-3.73,1.74s-3.6,10.75-10.37,11.54-14.37,1.91-14.37,1.91l-2.29,7.87s-3.36,2.3-3.72,2.18-4.77-.89-4.77-.89Z"/><path class="cls-36" d="M178.5,35.89s1.92,6.17-1.19,10.19c0,0-3.69-3.2-7.08-.67s.61,7.93,7.49,6.72c0,0,6.87,9.4,16.22,9.42s13.05-12.8,7-27c0,0-8.8,4.35-12.21-3.82C188.73,30.76,185,37.93,178.5,35.89Z"/><path class="cls-32" d="M173.9,49.42a9,9,0,1,1-4.13.44c.22-.08.12-.44-.1-.36a9.39,9.39,0,1,0,4.33-.44c-.24,0-.34.32-.1.36Z"/><path class="cls-32" d="M198.56,43.69a.83.83,0,1,0,.72-.93A.83.83,0,0,0,198.56,43.69Z"/><path class="cls-32" d="M189,46.19a.83.83,0,0,0,1.4-.88.83.83,0,1,0-1.4.88Z"/><rect class="cls-32" x="185.47" y="41.65" width="4.86" height="1.21" transform="translate(-3.57 21.47) rotate(-6.48)"/><rect class="cls-32" x="196.58" y="39.43" width="4.86" height="1.21" transform="translate(-3.66 51.58) rotate(-14.64)"/><path class="cls-32" d="M194.54,43.67l2,6.27c0,.15.29.09.24-.07q-1-3.13-1.94-6.27c0-.15-.3-.09-.25.07Z"/><path class="cls-32" d="M190.37,40.82c.55,0,.94.57,1.14,1,.07.15.3,0,.23-.1-.23-.51-.71-1.17-1.35-1.15-.16,0-.19.25,0,.25Z"/><path class="cls-32" d="M195.59,39.84a1.87,1.87,0,0,0-.49,1.72c0,.15.28.09.24-.07a1.62,1.62,0,0,1,.43-1.48c.12-.11-.06-.29-.18-.17Z"/><path class="cls-28" d="M188.23,50.23a5.94,5.94,0,0,1-.72,0A5.59,5.59,0,0,1,188.22,39a5.69,5.69,0,0,1,.72,0,5.61,5.61,0,0,1,4.84,6.27A5.61,5.61,0,0,1,188.23,50.23Zm0-10.9a5.3,5.3,0,1,0,5.26,6,5.3,5.3,0,0,0-4.57-5.93A5.34,5.34,0,0,0,188.22,39.33Z"/><path class="cls-28" d="M200.22,46.5a5.84,5.84,0,0,1-.73,0,5.6,5.6,0,0,1,.71-11.15,6,6,0,0,1,.73.05,5.6,5.6,0,0,1-.71,11.15Zm0-10.9a5.3,5.3,0,1,0,5.26,6,5.26,5.26,0,0,0-1.05-3.92,5.25,5.25,0,0,0-4.21-2.06Z"/><polygon class="cls-28" points="193.37 42.85 193.28 42.57 194.86 42.03 194.96 42.31 193.37 42.85"/><polygon class="cls-28" points="182.85 45.71 173.24 45.07 173.26 44.78 182.87 45.42 182.85 45.71"/><path class="cls-36" d="M177.14,47.57c0-.51,0-1,.1-1.55-.52-.42-3.89-2.93-7-.61a2.73,2.73,0,0,0-1.08,3.15A16.16,16.16,0,0,1,177.14,47.57Z"/><path class="cls-32" d="M195.12,53.84a3.28,3.28,0,0,1-1.83-.56l.17-.25c2.85,1.9,6.09-2.06,6.12-2.1l.23.18S197.58,53.84,195.12,53.84Z"/><path d="M281,253.09,285.81,277,336,261.34c-.87-3.2-3.87-5.41-7.09-6.16s-6.59-.34-9.89,0-6.71.46-9.82-.7A12.15,12.15,0,0,1,302,246.9"/><g class="cls-37"><path class="cls-28" d="M314.46,258.84a14.18,14.18,0,0,0,7.53-5.43l-.79-.54a13.73,13.73,0,0,1-9.69,5.64c-3.64.49-7.58-1-10.81-4.19s-5.51-8.09-6.78-14.87l-.94.17c1.31,7,3.61,12,7.06,15.38s7.66,5,11.59,4.46A17.12,17.12,0,0,0,314.46,258.84Z"/><rect class="cls-28" x="278.1" y="265.24" width="62.96" height="0.96" transform="translate(-65.19 104.49) rotate(-17.36)"/></g><path d="M310.25,255.89a1.09,1.09,0,0,1-1-.3c-.67-.66-.52-2.14-.31-3.6,0-.19.06-.34.07-.45a26.23,26.23,0,0,1,1.06-5.23,3.22,3.22,0,0,1,.7-1.36,2,2,0,0,1,1.79-.65c.95.16,1.53,1,1.53,2.29h0a14.26,14.26,0,0,1-.93,5.08l-.11.3c-.44,1.22-1.24,3.44-2.59,3.86A1,1,0,0,1,310.25,255.89Zm2.9-9.3c0-.36-.08-1.23-.73-1.34a1.12,1.12,0,0,0-.93.35,2.41,2.41,0,0,0-.49,1,25.65,25.65,0,0,0-1,5c0,.12,0,.29-.07.5-.08.59-.35,2.4,0,2.78,0,0,.05.05.17,0,.92-.15,1.74-2.43,2.05-3.29,0-.12.09-.23.12-.32a13.29,13.29,0,0,0,.87-4.74Z"/><path d="M309.72,255.83a1.07,1.07,0,0,1-.65-.77c-.18-.81.59-1.76,1.4-2.67l.24-.27a20.08,20.08,0,0,1,3.13-3.12,2.78,2.78,0,0,1,1.18-.63,2,2,0,0,1,1.67.42,1.77,1.77,0,0,1,.16,2.42h0a10.84,10.84,0,0,1-3,3.1l-.22.15a8.91,8.91,0,0,1-2.41,1.37A2.1,2.1,0,0,1,309.72,255.83Zm4.72-6.08a18.6,18.6,0,0,0-3,3l-.27.31c-.32.35-1.27,1.43-1.19,1.83,0,0,0,0,.11.09.76.34,2.37-.83,3-1.26l.23-.17A9.85,9.85,0,0,0,316,250.7h0c.18-.29.43-.83,0-1.18a1,1,0,0,0-.84-.21l-.11,0A2.2,2.2,0,0,0,314.44,249.75Z"/><path class="cls-38" d="M143,164.26s-1.56,20,22.62,21.14,51.31-1,51.31-1l-6.13,94.33,49.49,2.85-.63-53.22L270.77,260l44.58-17.8s-21.47-91.32-43.85-107.43-41.85-3.95-41.85-3.95Z"/><path class="cls-35" d="M175.09,68.84s-31.22,1.69-35.73,22.6-12.47,74.25,7.48,75.08,82.81-35.71,82.81-35.71l-8.16-18.53,2.09-.63S214,80,211.59,76.44s-12.58-7-12.58-7,5.3,12.32-4,15.91C184.54,89.38,175.09,68.84,175.09,68.84Z"/><path d="M226.49,279.55l-4.3,24,52.41,3.93c.37-3.3-1.6-6.46-4.32-8.34s-6-2.75-9.17-3.69-6.42-2-8.87-4.27a12.13,12.13,0,0,1-3.89-9.66"/><g class="cls-39"><path class="cls-28" d="M255.52,297.25a14.09,14.09,0,0,0,9-2.26l-.54-.8a13.65,13.65,0,0,1-11.08,1.67c-3.56-.89-6.66-3.76-8.5-7.88s-2.14-9.55-.82-16.32l-.94-.19c-1.36,7-1.07,12.5.89,16.9s5.28,7.46,9.13,8.42A17,17,0,0,0,255.52,297.25Z"/><rect class="cls-28" x="247.97" y="270.37" width="0.96" height="62.96" transform="translate(-71.11 527.07) rotate(-85.72)"/></g><path d="M252.7,293a1.09,1.09,0,0,1-.81-.64c-.38-.86.31-2.18,1.05-3.46l.22-.39a25.63,25.63,0,0,1,2.92-4.47,3.25,3.25,0,0,1,1.15-1,1.91,1.91,0,0,1,2.48,2.75h0a14,14,0,0,1-2.74,4.38l-.21.24c-.86,1-2.42,2.74-3.83,2.63A.85.85,0,0,1,252.7,293Zm6.12-7.57c.14-.34.39-1.17-.18-1.52a1.1,1.1,0,0,0-1,0,2.47,2.47,0,0,0-.82.74,25.92,25.92,0,0,0-2.81,4.31c0,.1-.14.25-.24.43-.3.52-1.21,2.11-1,2.6,0,0,0,.06.14.08.91.21,2.52-1.61,3.13-2.3l.22-.25a13.09,13.09,0,0,0,2.56-4.08Z"/><path d="M252.22,292.71a1.07,1.07,0,0,1-.32-.95c.14-.82,1.21-1.42,2.29-2l.32-.16a19.52,19.52,0,0,1,4.06-1.75,2.88,2.88,0,0,1,1.33-.15,2,2,0,0,1,1.4,1,1.79,1.79,0,0,1-.74,2.31h0a10.94,10.94,0,0,1-3.92,1.78l-.26.06a8.81,8.81,0,0,1-2.74.38A2.11,2.11,0,0,1,252.22,292.71Zm6.64-3.91a18.74,18.74,0,0,0-3.87,1.66l-.37.19c-.42.21-1.71.86-1.78,1.27,0,0,0,0,.07.12.58.59,2.51.1,3.23-.08l.28-.06a9.79,9.79,0,0,0,3.57-1.63h0c.28-.2.71-.61.46-1.09a1,1,0,0,0-.71-.5l-.11,0A2.17,2.17,0,0,0,258.86,288.8Z"/><path class="cls-40" d="M166.33,103.81h-.48c0-12-8.55-14.71-8.63-14.74l.13-.46C157.44,88.64,166.33,91.42,166.33,103.81Z"/><polygon class="cls-40" points="161.41 137.91 164.74 108.53 165.21 108.59 161.97 137.18 216.93 115.94 217.1 116.39 161.41 137.91"/><path class="cls-40" d="M202.73,121.94l-.2-.43c4.12-1.93,6.77-4.52,7.87-7.72a12.12,12.12,0,0,0-.53-8.61l-6.93-16.24.44-.19L210.3,105a12.35,12.35,0,0,1,.55,9C209.7,117.27,207,120,202.73,121.94Z"/><path class="cls-40" d="M180.28,122.7a20.59,20.59,0,0,1-7.43-1.41l.19-.43c.08,0,8.71,3.69,15.48-1.09l.28.39A14.58,14.58,0,0,1,180.28,122.7Z"/><path class="cls-40" d="M187.18,95.61c-9.61-2-15.77-12-15.83-12.11l.41-.25c.06.1,6.12,9.92,15.52,11.89Z"/><path class="cls-40" d="M259.93,229.78,240.82,172c0-.16-3.47-14.37-15.6-14.37-.37,0-.75,0-1.14,0-13.27.94-37.77,2.95-38,3l0-.47c.24,0,24.74-2,38-3,13.47-1,17.2,14.52,17.24,14.68l19.1,57.8Z"/><rect class="cls-40" x="216.97" y="183.99" width="12.22" height="0.48" transform="translate(-6.66 8.38) rotate(-2.12)"/><rect class="cls-40" x="266.63" y="239.74" width="42.98" height="0.47" transform="translate(-61.71 104.98) rotate(-18.69)"/><polygon class="cls-40" points="271.65 252.38 271.5 251.93 311.37 238.53 311.52 238.99 271.65 252.38"/><rect class="cls-40" x="235.57" y="250.4" width="0.48" height="40.48" transform="matrix(0.13, -0.99, 0.99, 0.13, -63.47, 468.84)"/><rect class="cls-40" x="233.58" y="258.22" width="0.47" height="36.17" transform="translate(-51.55 498.97) rotate(-87.73)"/><path class="cls-36" d="M219.8,112.64l6.34,16.86s8.23-4.27,11.16-8,11.88-8.28,11.49-9.71-7.37,1.78-10.53,3.61-7.73,2.57-9.15.63,3.17-4.12,4.95-4.83,4.23-3,3.8-4.4a46.55,46.55,0,0,0-7.76,2.42A97.45,97.45,0,0,1,219.8,112.64Z"/><polygon class="cls-40" points="223.6 132.28 218.01 116.24 218.46 116.09 224.05 132.12 223.6 132.28"/><path class="cls-40" d="M149.56,160.54a6.26,6.26,0,0,1-4.26-1.46c-2.48-2.14-2.51-5.85-2.51-6h.47s0,3.65,2.35,5.66a6.45,6.45,0,0,0,5.32,1.23l.07.47A10.42,10.42,0,0,1,149.56,160.54Z"/><rect class="cls-40" x="284.41" y="151.86" width="0.47" height="64.03" transform="translate(-39.29 84.39) rotate(-15.79)"/><polygon class="cls-40" points="217.21 252.16 216.73 252.15 218 211.51 218.48 211.52 217.21 252.16"/><path class="cls-32" d="M370,13.78s-5,2.19-3.83,8.84,5,8.83,5,8.83l3.36-12.58-3-6.41Z"/><rect class="cls-36" x="330.97" y="245.75" width="17.88" height="24.16" transform="translate(680.89 514.24) rotate(179.76)"/><rect class="cls-41" x="320" y="244.02" width="38.15" height="12.86"/><path class="cls-42" d="M389.46,149.38l1.26,7.71A27,27,0,0,1,364,188.48h-8v68l-33.17.44L321,173.62a23.69,23.69,0,0,1,23.64-24.14Z"/><rect class="cls-43" x="322.6" y="243.17" width="33.46" height="0.49"/><path class="cls-43" d="M330.72,264.06c4.47,6.47,14.1,3.5,18.31,2.38a2,2,0,0,1,2.43,1.6l2.37,12,0,4.62-53.29.35,0-4.62Z"/><rect class="cls-36" x="377.76" y="245.75" width="17.88" height="24.16" transform="translate(774.48 514.04) rotate(179.76)"/><path class="cls-43" d="M377.35,263.75c4.47,6.47,14,2.8,18.19,1.68A2,2,0,0,1,398,267l2.49,12.72,0,4.62-53.29.35,0-4.62Z"/><rect class="cls-41" x="366.79" y="244.02" width="38.15" height="12.86"/><path class="cls-44" d="M436.26,149.38l1.26,7.71a27,27,0,0,1-26.69,31.39h-8v68l-33.16.44-1.85-83.26a23.69,23.69,0,0,1,23.64-24.14Z"/><rect class="cls-43" x="369.4" y="243.44" width="33.46" height="0.49"/><path class="cls-43" d="M367.36,189.59l-.09-17.19a23.74,23.74,0,0,1,23.58-23.79h5.91v.49h-5.91a23.25,23.25,0,0,0-23.09,23.29l.09,17.2Z"/><path class="cls-45" d="M358.38,66.47S341.91,89,330.24,115.55a9.68,9.68,0,0,0,.77,9.17h0c4.06,6.12,14.66,4.71,18.74-1,0,0,31.18-42.87,29.86-44.6C379.29,78.72,358.38,66.47,358.38,66.47Z"/><path class="cls-45" d="M390.23,60.77,362,64.41a5.36,5.36,0,0,0-4.66,5.85l18.28,79.27,60.69-.15-8.59-78.85a5.38,5.38,0,0,0-4.74-6Z"/><path class="cls-43" d="M365.54,103.22h-.48c0-.67-3-12.42-5.07-20.16l.47-.12C361,84.92,365.54,102.27,365.54,103.22Z"/><polygon class="cls-28" points="404.49 62.42 390.65 92.61 379.64 62.13 390.89 60.13 404.49 62.42"/><polygon class="cls-46" points="404.49 62.42 409.4 80.6 404.49 79.25 406.95 85.13 390.65 92.61 404.49 62.42"/><polygon class="cls-46" points="390.65 92.61 379.64 62.13 376.39 79.62 379.64 80.84 379.64 84.03 390.65 92.61"/><path class="cls-28" d="M389.61,97.33a1.28,1.28,0,0,0,1.28,1.29h0a1.29,1.29,0,0,0,1.29-1.29h0A1.29,1.29,0,0,0,390.89,96h0a1.28,1.28,0,0,0-1.28,1.29Z"/><path class="cls-28" d="M390.22,107.5a1.34,1.34,0,0,0,1.35,1.35h0a1.35,1.35,0,0,0,1.35-1.35h0a1.35,1.35,0,0,0-1.35-1.34h0a1.34,1.34,0,0,0-1.35,1.34Z"/><path class="cls-47" d="M390.72,117a1.35,1.35,0,0,0,1.35,1.35h0a1.36,1.36,0,0,0,1.35-1.35h0a1.35,1.35,0,0,0-1.35-1.35h0a1.34,1.34,0,0,0-1.35,1.35Z"/><path class="cls-45" d="M403.52,79.83s15.41,30.52,32.81,55.12c1.95,2.76,6.56,4.13,9.93,4h0c7.62-.32,10.85-8.53,8-15.21,0,0-24.38-56.33-27.75-57.25C426,66.33,403.52,79.83,403.52,79.83Z"/><path class="cls-43" d="M412.38,110.57h-.05c-8.28-.06-11.5-16.53-11.63-17.23l-.06-.26,16.77-1.36,0,.22c.09.51,2.2,12.53-1.53,17A4.41,4.41,0,0,1,412.38,110.57Zm-11.15-17c.46,2.15,3.77,16.5,11.11,16.56l0,.25v-.25h0a3.94,3.94,0,0,0,3.16-1.46c3.32-4,1.74-14.71,1.46-16.38Z"/><path class="cls-48" d="M377.93,35.23a6,6,0,1,1-6.54-5.35A6,6,0,0,1,377.93,35.23Z"/><path class="cls-36" d="M379.1,44.5l2.77,21.22c.55,6,4.68,6,10.55,5.43h0c5-.5,9.15-2.39,9.28-7.42l-2.15-23Z"/><polygon class="cls-32" points="381.53 61.71 395.3 48.2 379.51 49.57 381.53 61.71"/><path class="cls-36" d="M389.84,52l-6.88.69a12.5,12.5,0,0,1-13.7-11.61l-1.05-15.86a14.58,14.58,0,0,1,13.1-15.47h0c8-.8,16.56,4.91,17.35,12.93l.89,18.06A10.79,10.79,0,0,1,389.84,52Z"/><path class="cls-32" d="M371.18,46.93a14.59,14.59,0,0,1,11.91-8.65h0a16.8,16.8,0,0,1,15.48,7.49,10.78,10.78,0,0,1-8.73,6.2l-6.88.69A12.51,12.51,0,0,1,371.18,46.93Z"/><polygon class="cls-32" points="396.02 34.07 399.62 42.35 399.41 37.25 396.02 34.07"/><path class="cls-32" d="M376.51,38.89h0l1.91-.19a.29.29,0,0,0,.25-.31.27.27,0,0,0-.3-.25l-1.58.16.27-4.39a.29.29,0,0,0-.27-.29.27.27,0,0,0-.29.26l-.29,4.71a.27.27,0,0,0,.08.22A.3.3,0,0,0,376.51,38.89Z"/><path class="cls-32" d="M383.74,26.15s-3.25-.17-3.16,1.56c0,0,.09,1.16,2.93,1.24s3.54-.24,3.72-1.35S385.26,26.07,383.74,26.15Z"/><path class="cls-32" d="M371.44,27.27s2.64-.51,3,1.1c0,0,.21,1.09-2.11,1.47s-3.1,0-3.39-.84S370.18,27.37,371.44,27.27Z"/><path class="cls-28" d="M377.1,40.93l9-.9s.34,3.15-4.88,3.67A3.62,3.62,0,0,1,377.1,40.93Z"/><path class="cls-32" d="M381.73,32.81a1.19,1.19,0,1,0,1-1.35A1.2,1.2,0,0,0,381.73,32.81Z"/><path class="cls-32" d="M371.06,33.45a1.19,1.19,0,1,0,1-1.34A1.19,1.19,0,0,0,371.06,33.45Z"/><path class="cls-36" d="M297.14,72.61,285.86,55.4s-5.7-10.16-4.05-10.34,7.06,8.37,7.06,8.37-5.37-12.11-4.09-12,7.32,9.51,7.32,9.51-6.1-14.74-4.75-13.56,7.52,10.51,7.52,10.51-3.9-11.18-2.7-10.6,11.05,14.88,11.05,14.88,1.14,1,.9-.91-2.82-7.91.41-9.14c0,0,3.22,6.93,3.48,9.2a12.55,12.55,0,0,0,1,3.85L346.82,110s6.31,12.11-3,18.52-18.83-2.7-18.83-2.7Z"/><path class="cls-40" d="M288.56,54.82l-.39-.28c.16-.22,3.89-5.43,8.94-6.85l.12.46C292.35,49.52,288.6,54.76,288.56,54.82Z"/><path class="cls-40" d="M300.75,58.24c-1-5,2.7-6.12,2.74-6.13l.12.46c-.13,0-3.34,1-2.4,5.58Z"/><path class="cls-40" d="M294.3,58.25a2.57,2.57,0,0,0-1.55-1.5,2.49,2.49,0,0,0-1.82.33l-.26-.4a2.94,2.94,0,0,1,2.21-.39,3,3,0,0,1,1.85,1.76Z"/><rect class="cls-40" x="290.17" y="42.04" width="0.48" height="9.19" transform="translate(3.21 110.11) rotate(-21.58)"/><rect class="cls-40" x="287.23" y="45.42" width="0.47" height="8.57" transform="translate(4.41 120.32) rotate(-23.82)"/><rect class="cls-40" x="293.45" y="40.41" width="0.48" height="8.27" transform="translate(0.92 94.77) rotate(-18.36)"/><polygon class="cls-49" points="297.48 73.22 314.22 62.73 318.14 68.47 301.32 80.35 297.48 73.22"/><path class="cls-47" d="M303.26,74.56a.65.65,0,1,1-.78-.47A.64.64,0,0,1,303.26,74.56Z"/><path class="cls-47" d="M308,71.5a.65.65,0,0,1-1.25.32A.65.65,0,1,1,308,71.5Z"/><path class="cls-47" d="M313.08,68.27a.64.64,0,1,1-.79-.47A.64.64,0,0,1,313.08,68.27Z"/><path class="cls-50" d="M297.47,73.23s4.69-2.89,6.46-1.5c1.27,1,2.76,3.47.84,5.65a23.9,23.9,0,0,1-3.45,3Z"/><path class="cls-32" d="M388.88,126.84a4.15,4.15,0,0,1-4.09,4.79l-52.72,1.19a5.34,5.34,0,0,1-5.29-4.57L322.91,98a4.15,4.15,0,0,1,4.1-4.78L379.73,92A5.34,5.34,0,0,1,385,96.55Z"/><path class="cls-51" d="M331.88,124.94,329,102.33a4.21,4.21,0,0,0-4.18-3.61l-1.79,0,.06.47,1.74,0a3.75,3.75,0,0,1,3.71,3.2L331.41,125a2.86,2.86,0,0,1-2.82,3.31l-1.79,0a3.73,3.73,0,0,0,.09.46l1.71,0a3.36,3.36,0,0,0,2.51-1.15A3.4,3.4,0,0,0,331.88,124.94Z"/><path class="cls-51" d="M381.78,123.81l-2.89-22.6a2.94,2.94,0,0,1,.66-2.32,2.89,2.89,0,0,1,2.17-1l3.46-.08-.06-.46-3.41.07a3.35,3.35,0,0,0-2.51,1.16,3.39,3.39,0,0,0-.78,2.68l2.89,22.6a4.23,4.23,0,0,0,4.18,3.62l3.43-.08a3.83,3.83,0,0,0,0-.47l-3.41.08A3.74,3.74,0,0,1,381.78,123.81Z"/><path class="cls-51" d="M356,117.88a4.79,4.79,0,1,1,4.69-4.9A4.8,4.8,0,0,1,356,117.88Zm-.2-9.11a4.32,4.32,0,1,0,4.42,4.22A4.32,4.32,0,0,0,355.82,108.77Z"/><path class="cls-36" d="M380.37,130.71,360,128.1s-11.43-2.27-10.5-3.64,11,.08,11,.08-12.69-3.79-11.8-4.71,12,.61,12,.61-15.17-4.94-13.38-5.19,12.87,1.11,12.87,1.11-11-4.31-9.82-4.84,18.49,1.27,18.49,1.27.45.53-.1-1.27c-2.9-9.51-1.43-10.42.85-11.14,0,0,.9,6.15,2.8,7.43a7.66,7.66,0,0,1,2.52,2.51l69.33,7.44s13.3,3.06,12.11,14.33S442,144.65,442,144.65Z"/><path class="cls-40" d="M374.2,123.38l-.11-.47a6.1,6.1,0,0,0,4.36-2.87c1.42-2.6.2-5.92.19-6l.45-.17c.05.15,1.3,3.56-.22,6.35A6.61,6.61,0,0,1,374.2,123.38Z"/><rect class="cls-43" x="420.55" y="104.15" width="0.49" height="12.48" transform="translate(7.8 247.08) rotate(-33.01)"/><rect class="cls-43" x="345.39" y="166.7" width="0.49" height="26.76" transform="translate(-11.55 336) rotate(-51.1)"/><rect class="cls-43" x="399.89" y="182.27" width="0.49" height="8.05" transform="translate(26.32 420.97) rotate(-57.08)"/><polygon class="cls-43" points="375.57 149.78 375.57 149.29 436.26 149.14 436.26 149.63 375.57 149.78"/><path class="cls-32" d="M385.45,6.68s-9.73-9.26-17.71-6-5.9,12.43-.35,15.76,12.16,2.85,15.67,2.58,7.27-.24,7.27-.24,3.21-.19,2,4.89-.75,8,2.73,9.73l5.71.27s2.54-11.45,2.54-16.37S398,11,398,11s-1.41-5.16-5.87-5.68S385.45,6.68,385.45,6.68Z"/><path class="cls-36" d="M406.83,32.37A6,6,0,1,1,400.29,27,6,6,0,0,1,406.83,32.37Z"/><path class="cls-43" d="M399,35.11a.18.18,0,0,1-.18-.16,4.53,4.53,0,0,1,1-3.29,3.58,3.58,0,0,1,2.94-.95.18.18,0,0,1,.17.19.19.19,0,0,1-.19.17,3.24,3.24,0,0,0-2.66.84,4.26,4.26,0,0,0-.91,3,.19.19,0,0,1-.16.2Z"/><path class="cls-52" d="M297.08,358.53c-35.39,0-71.23-5.29-71.23-15.39s35.84-15.4,71.23-15.4,71.23,5.29,71.23,15.4S332.48,358.53,297.08,358.53Zm0-27.58c-18.49,0-35.87,1.43-48.91,4-15.08,3-19.1,6.55-19.1,8.18s4,5.19,19.1,8.17c13.05,2.58,30.42,4,48.91,4s35.87-1.43,48.92-4c15.08-3,19.1-6.54,19.1-8.17s-4-5.19-19.1-8.18C333,332.38,315.58,331,297.08,331Z"/><rect class="cls-52" x="346.54" y="242.85" width="3.21" height="109.97"/><rect class="cls-52" x="243.3" y="242.85" width="3.21" height="109.16"/><rect class="cls-52" x="271.37" y="245.43" width="3.21" height="84.99"/><rect class="cls-52" x="318.47" y="245.43" width="3.21" height="84.99"/><path class="cls-52" d="M296.53,253c-26.68,0-51.78-1.11-70.68-3.14-28.08-3-31.94-6.74-31.94-10.33s3.86-7.32,31.94-10.33c18.9-2,44-3.14,70.68-3.14s51.78,1.12,70.69,3.14c28.06,3,31.93,6.74,31.93,10.33s-3.87,7.33-31.93,10.33C348.31,251.91,323.21,253,296.53,253Zm-95.18-13.47c2.45,1.08,9.46,3.2,28.68,5.08,18.22,1.77,41.83,2.75,66.5,2.75s48.29-1,66.5-2.75c19.22-1.88,26.23-4,28.68-5.08-2.45-1.08-9.46-3.21-28.68-5.08-18.21-1.77-41.83-2.75-66.5-2.75s-48.28,1-66.5,2.75C210.81,236.34,203.8,238.47,201.35,239.55Z"/><path class="cls-53" d="M421.29,226.67c0,11.21-55.86,20.3-124.76,20.3s-124.75-9.09-124.75-20.3,55.85-20.32,124.75-20.32S421.29,215.44,421.29,226.67Z"/><rect class="cls-54" x="171.78" y="220.6" width="249.51" height="6.07"/><path class="cls-52" d="M421.29,220.6c0,11.22-55.86,20.31-124.76,20.31s-124.75-9.09-124.75-20.31,55.85-20.31,124.75-20.31S421.29,209.39,421.29,220.6Z"/><polygon class="cls-55" points="325.47 201.35 341.63 221.52 374.39 221.52 354.66 201.35 325.47 201.35"/><path class="cls-28" d="M325.9,201.89v3l15.36,20.48h31.25a2.34,2.34,0,0,0,.87-2.13c-.06-1.53-.65-1.69-.65-1.69h-31.1Z"/><path class="cls-55" d="M324.72,204.74h1.18l15.36,20.6h31.25l.22-3.82h1.66a4.27,4.27,0,0,1,.33,2.63,3.56,3.56,0,0,1-2.09,2.38H341.28Z"/><path class="cls-56" d="M310.77,198.38l.76.6a8.34,8.34,0,0,1,3.23-2.51,2.16,2.16,0,0,1,.27-1.05C312.86,195.78,310.86,198.27,310.77,198.38Z"/><path class="cls-57" d="M319.55,197.64a4.86,4.86,0,0,0-4.38-2.26l-.14,0a2.16,2.16,0,0,0-.27,1.05,2.05,2.05,0,0,1,.53-.13,3.87,3.87,0,0,1,3.42,1.78c.9,1.58.27,3.86-1.81,6.58a22.16,22.16,0,0,1-5.24,5.07,2.79,2.79,0,0,0-.15,1.21,21.74,21.74,0,0,0,6.15-5.69C320.62,201.43,320.32,199,319.55,197.64Z"/><path class="cls-58" d="M311.66,209.77a3.76,3.76,0,0,1-2.2.86.24.24,0,0,1-.21-.2l-.93.24a1.2,1.2,0,0,0,1,.91,1.48,1.48,0,0,0,.31,0,4.36,4.36,0,0,0,1.92-.63A2.79,2.79,0,0,1,311.66,209.77Z"/><path class="cls-59" d="M312.7,193.65c-1.79.21-5.9.35-10.68.35-6.11,0-11.11-.23-11.62-.53l2.6,11c1.67,7.13,1.7,9.79,3.94,10.64C310.47,218,308.61,201.32,312.7,193.65Z"/><path class="cls-57" d="M312.7,193.65c-4.09,7.67-2.23,24.3-15.76,21.47a7.81,7.81,0,0,0,2.75.36h4.66c5.13,0,4.51-1.71,6.69-11l2.59-11A3.8,3.8,0,0,1,312.7,193.65Z"/><path class="cls-60" d="M313.65,193.39l0,.08s.05,0,.05-.05Z"/><path class="cls-61" d="M290.39,193.39v.08c.38.22,3.33.41,7.39.49a3.47,3.47,0,0,1,.48-1.09C293.86,193,290.64,193.15,290.39,193.39Z"/><path class="cls-52" d="M302,192.84q-2,0-3.75,0a3.47,3.47,0,0,0-.48,1.09c1.31,0,2.74,0,4.23,0,6.11,0,11.11-.23,11.61-.53l0-.08C313.33,193.08,308.25,192.84,302,192.84Z"/><path class="cls-57" d="M302.42,194s-8-1.3-7.5-6.09,12.48-4.34,13.4-13.44c.76-7.57-3.85-8.8-10.05-9-1.06,0,15.25-1.57,15.41,9.1.13,8.76-9.2,5.66-10.26,13.32-.48,3.43,2.81,6.06,2.81,6.06Z"/><path class="cls-56" d="M259,198.38l-.76.6a8.34,8.34,0,0,0-3.23-2.51,2.16,2.16,0,0,0-.27-1.05C256.89,195.78,258.89,198.27,259,198.38Z"/><path class="cls-57" d="M250.2,197.64a4.86,4.86,0,0,1,4.38-2.26l.14,0a2.16,2.16,0,0,1,.27,1.05,2,2,0,0,0-.53-.13,3.87,3.87,0,0,0-3.42,1.78c-.9,1.58-.27,3.86,1.81,6.58a22.34,22.34,0,0,0,5.24,5.07,2.79,2.79,0,0,1,.15,1.21,21.74,21.74,0,0,1-6.15-5.69C249.13,201.43,249.43,199,250.2,197.64Z"/><path class="cls-58" d="M258.09,209.77a3.79,3.79,0,0,0,2.2.86.24.24,0,0,0,.21-.2l.93.24a1.2,1.2,0,0,1-1,.91,1.48,1.48,0,0,1-.31,0,4.36,4.36,0,0,1-1.92-.63A2.79,2.79,0,0,0,258.09,209.77Z"/><path class="cls-59" d="M257.05,193.65c1.8.21,5.9.35,10.68.35,6.11,0,11.12-.23,11.62-.53l-2.6,11c-1.67,7.13-1.7,9.79-3.94,10.64C259.28,218,261.14,201.32,257.05,193.65Z"/><path class="cls-57" d="M257.05,193.65c4.09,7.67,2.23,24.3,15.76,21.47a7.81,7.81,0,0,1-2.75.36H265.4c-5.13,0-4.51-1.71-6.69-11l-2.59-11A3.8,3.8,0,0,0,257.05,193.65Z"/><path class="cls-60" d="M256.1,193.39l0,.08s-.05,0-.05-.05Z"/><path class="cls-61" d="M279.36,193.39v.08c-.38.22-3.33.41-7.39.49a3.47,3.47,0,0,0-.48-1.09C275.89,193,279.11,193.15,279.36,193.39Z"/><path class="cls-52" d="M267.73,192.84q2,0,3.75,0A3.47,3.47,0,0,1,272,194c-1.31,0-2.73,0-4.23,0-6.11,0-11.11-.23-11.61-.53l0-.08C256.42,193.08,261.5,192.84,267.73,192.84Z"/><path class="cls-57" d="M267.33,194s8-1.3,7.5-6.09-12.48-4.34-13.4-13.44c-.76-7.57,3.85-8.8,10.05-9,1.06,0-15.25-1.57-15.41,9.1-.13,8.76,9.2,5.66,10.26,13.32.48,3.43-2.81,6.06-2.81,6.06Z"/></g></g></g></svg>